<?xml version="1.0" encoding="UTF-8" standalone="no"?>
<!DOCTYPE svg PUBLIC "-//W3C//DTD SVG 1.1//EN"
 "http://www.w3.org/Graphics/SVG/1.1/DTD/svg11.dtd">
<!-- Generated by graphviz version 2.43.0 (0)
 -->
<!-- Title: Ticket Pages: 1 -->
<svg width="150pt" height="439pt"
 viewBox="0.00 0.00 150.00 439.00" xmlns="http://www.w3.org/2000/svg" xmlns:xlink="http://www.w3.org/1999/xlink">
<g id="graph0" class="graph" transform="scale(1 1) rotate(0) translate(4 435)">
<title>Ticket</title>
<!-- Node1 -->
<g id="Node000001" class="node">
<title>Node1</title>
<g id="a_Node000001"><a xlink:title="Représente un ticket dans le jeu.">
<polygon fill="#999999" stroke="transparent" points="142,-127 0,-127 0,0 142,0 142,-127"/>
<text text-anchor="start" x="56" y="-114.5" font-family="Helvetica,sans-Serif" font-size="10.00">Ticket</text>
<text text-anchor="start" x="69" y="-99.5" font-family="Helvetica,sans-Serif" font-size="10.00"> </text>
<text text-anchor="start" x="4" y="-84.5" font-family="Helvetica,sans-Serif" font-size="10.00">+</text>
<text text-anchor="start" x="17" y="-84.5" font-family="Helvetica,sans-Serif" font-size="10.00">Ville * getVilleArrivee</text>
<text text-anchor="start" x="17" y="-73.5" font-family="Helvetica,sans-Serif" font-size="10.00">() const</text>
<text text-anchor="start" x="4" y="-58.5" font-family="Helvetica,sans-Serif" font-size="10.00">+</text>
<text text-anchor="start" x="17" y="-58.5" font-family="Helvetica,sans-Serif" font-size="10.00">Ville * getVilleDepart</text>
<text text-anchor="start" x="17" y="-47.5" font-family="Helvetica,sans-Serif" font-size="10.00">() const</text>
<text text-anchor="start" x="4" y="-32.5" font-family="Helvetica,sans-Serif" font-size="10.00">+</text>
<text text-anchor="start" x="17" y="-32.5" font-family="Helvetica,sans-Serif" font-size="10.00">Ticket(Ville *villeDepart,</text>
<text text-anchor="start" x="17" y="-21.5" font-family="Helvetica,sans-Serif" font-size="10.00"> Ville *villeArrivee)</text>
<text text-anchor="start" x="4" y="-6.5" font-family="Helvetica,sans-Serif" font-size="10.00">+</text>
<text text-anchor="start" x="17" y="-6.5" font-family="Helvetica,sans-Serif" font-size="10.00">~Ticket()</text>
<polygon fill="#666666" stroke="#666666" points="0,-109.5 0,-109.5 142,-109.5 142,-109.5 0,-109.5"/>
<polygon fill="#666666" stroke="#666666" points="0,-94.5 0,-94.5 142,-94.5 142,-94.5 0,-94.5"/>
<polygon fill="none" stroke="#666666" points="0,0 0,-127 142,-127 142,0 0,0"/>
</a>
</g>
</g>
<!-- Node2 -->
<g id="Node000002" class="node">
<title>Node2</title>
<g id="a_Node000002"><a xlink:href="classVille.html" target="_top" xlink:title=" ">
<polygon fill="white" stroke="transparent" points="135,-249 7,-249 7,-185 135,-185 135,-249"/>
<text text-anchor="start" x="60" y="-237" font-family="Helvetica,sans-Serif" font-size="10.00">Ville</text>
<text text-anchor="start" x="69" y="-222" font-family="Helvetica,sans-Serif" font-size="10.00"> </text>
<text text-anchor="start" x="11" y="-207" font-family="Helvetica,sans-Serif" font-size="10.00">+</text>
<text text-anchor="start" x="24" y="-207" font-family="Helvetica,sans-Serif" font-size="10.00">string getNom() const</text>
<text text-anchor="start" x="11" y="-192" font-family="Helvetica,sans-Serif" font-size="10.00">+</text>
<text text-anchor="start" x="24" y="-192" font-family="Helvetica,sans-Serif" font-size="10.00">Ville(string nom)</text>
<polygon fill="#666666" stroke="#666666" points="7,-232 7,-232 135,-232 135,-232 7,-232"/>
<polygon fill="#666666" stroke="#666666" points="7,-217 7,-217 135,-217 135,-217 7,-217"/>
<polygon fill="none" stroke="#666666" points="7,-185 7,-249 135,-249 135,-185 7,-185"/>
</a>
</g>
</g>
<!-- Node2&#45;&gt;Node1 -->
<g id="edge1_Node000001_Node000002" class="edge">
<title>Node2&#45;&gt;Node1</title>
<g id="a_edge1_Node000001_Node000002"><a xlink:title=" ">
<path fill="none" stroke="#63b8ff" d="M71,-184.98C71,-171.66 71,-155.48 71,-139.34"/>
<polygon fill="none" stroke="#63b8ff" points="71,-139.07 67,-133.07 71,-127.07 75,-133.07 71,-139.07"/>
</a>
</g>
<text text-anchor="middle" x="102.5" y="-159" font-family="Helvetica,sans-Serif" font-size="10.00" fill="grey"> &#45;villeArrivee</text>
<text text-anchor="middle" x="102.5" y="-148" font-family="Helvetica,sans-Serif" font-size="10.00" fill="grey">&#45;villeDepart</text>
</g>
<!-- Node3 -->
<g id="Node000003" class="node">
<title>Node3</title>
<g id="a_Node000003"><a xlink:title=" ">
<polygon fill="white" stroke="transparent" points="100.5,-345 41.5,-345 41.5,-296 100.5,-296 100.5,-345"/>
<text text-anchor="start" x="47" y="-332.5" font-family="Helvetica,sans-Serif" font-size="10.00">std::string</text>
<text text-anchor="start" x="69.5" y="-317.5" font-family="Helvetica,sans-Serif" font-size="10.00"> </text>
<text text-anchor="start" x="69.5" y="-302.5" font-family="Helvetica,sans-Serif" font-size="10.00"> </text>
<polygon fill="#666666" stroke="#666666" points="42,-327.5 42,-327.5 101,-327.5 101,-327.5 42,-327.5"/>
<polygon fill="#666666" stroke="#666666" points="42,-312.5 42,-312.5 101,-312.5 101,-312.5 42,-312.5"/>
<polygon fill="none" stroke="#666666" points="41.5,-296 41.5,-345 100.5,-345 100.5,-296 41.5,-296"/>
</a>
</g>
</g>
<!-- Node3&#45;&gt;Node2 -->
<g id="edge2_Node000002_Node000003" class="edge">
<title>Node3&#45;&gt;Node2</title>
<g id="a_edge2_Node000002_Node000003"><a xlink:title=" ">
<path fill="none" stroke="#63b8ff" d="M71,-295.96C71,-285.61 71,-273.13 71,-261.21"/>
<polygon fill="none" stroke="#63b8ff" points="71,-261.11 67,-255.11 71,-249.11 75,-255.11 71,-261.11"/>
</a>
</g>
<text text-anchor="middle" x="85.5" y="-270" font-family="Helvetica,sans-Serif" font-size="10.00" fill="grey"> &#45;nom</text>
</g>
<!-- Node4 -->
<g id="Node000004" class="node">
<title>Node4</title>
<g id="a_Node000004"><a xlink:title=" ">
<polygon fill="white" stroke="transparent" points="138.5,-431 3.5,-431 3.5,-382 138.5,-382 138.5,-431"/>
<text text-anchor="start" x="9" y="-418.5" font-family="Helvetica,sans-Serif" font-size="10.00">std::basic_string&lt; Char &gt;</text>
<text text-anchor="start" x="69.5" y="-403.5" font-family="Helvetica,sans-Serif" font-size="10.00"> </text>
<text text-anchor="start" x="69.5" y="-388.5" font-family="Helvetica,sans-Serif" font-size="10.00"> </text>
<polygon fill="#666666" stroke="#666666" points="4,-413.5 4,-413.5 139,-413.5 139,-413.5 4,-413.5"/>
<polygon fill="#666666" stroke="#666666" points="4,-398.5 4,-398.5 139,-398.5 139,-398.5 4,-398.5"/>
<polygon fill="none" stroke="#666666" points="3.5,-382 3.5,-431 138.5,-431 138.5,-382 3.5,-382"/>
</a>
</g>
</g>
<!-- Node4&#45;&gt;Node3 -->
<g id="edge3_Node000003_Node000004" class="edge">
<title>Node4&#45;&gt;Node3</title>
<g id="a_edge3_Node000003_Node000004"><a xlink:title=" ">
<path fill="none" stroke="#63b8ff" d="M71,-371.57C71,-362.69 71,-353.32 71,-345.12"/>
<polygon fill="none" stroke="#63b8ff" points="67.5,-371.65 71,-381.65 74.5,-371.65 67.5,-371.65"/>
</a>
</g>
</g>
</g>
</svg>
