<?xml version="1.0" encoding="UTF-8" standalone="no"?>
<!DOCTYPE svg PUBLIC "-//W3C//DTD SVG 1.1//EN"
 "http://www.w3.org/Graphics/SVG/1.1/DTD/svg11.dtd">
<!-- Generated by graphviz version 2.43.0 (0)
 -->
<!-- Title: Plateau Pages: 1 -->
<!--zoomable 1938 -->

<svg id="main" version="1.1" xmlns="http://www.w3.org/2000/svg" xmlns:xlink="http://www.w3.org/1999/xlink" xml:space="preserve" onload="init(evt)">
<style type="text/css"><![CDATA[
.node, .edge {opacity: 0.7;}
.node.selected, .edge.selected {opacity: 1;}
.edge:hover path { stroke: red; }
.edge:hover polygon { stroke: red; fill: red; }
]]></style>

<defs>
  <circle id="rim" cx="0" cy="0" r="7"/>
  <circle id="rim2" cx="0" cy="0" r="3.5"/>
  <g id="zoomPlus">
    <use xlink:href="#rim" fill="#404040"><set attributeName="fill" to="#808080" begin="zoomplus.mouseover" end="zoomplus.mouseout"/></use>
    <path d="M-4,0h8M0,-4v8" fill="none" stroke="white" stroke-width="1.5" pointer-events="none"/>
  </g>
  <g id="zoomMin">
    <use xlink:href="#rim" fill="#404040"><set attributeName="fill" to="#808080" begin="zoomminus.mouseover" end="zoomminus.mouseout"/></use>
    <path d="M-4,0h8" fill="none" stroke="white" stroke-width="1.5" pointer-events="none"/>
  </g>
  <g id="arrowUp" transform="translate(30 24)">
    <use xlink:href="#rim"/>
    <path pointer-events="none" fill="none" stroke="white" stroke-width="1.5" d="M0,-3.0v7 M-2.5,-0.5L0,-3.0L2.5,-0.5"/>
  </g>
  <g id="arrowRight" transform="rotate(90) translate(36 -43)">
    <use xlink:href="#rim"/>
    <path pointer-events="none" fill="none" stroke="white" stroke-width="1.5" d="M0,-3.0v7 M-2.5,-0.5L0,-3.0L2.5,-0.5"/>
  </g>
  <g id="arrowDown" transform="rotate(180) translate(-30 -48)">
    <use xlink:href="#rim"/>
    <path pointer-events="none" fill="none" stroke="white" stroke-width="1.5" d="M0,-3.0v7 M-2.5,-0.5L0,-3.0L2.5,-0.5"/>
  </g>
  <g id="arrowLeft" transform="rotate(270) translate(-36 17)">
    <use xlink:href="#rim"/>
    <path pointer-events="none" fill="none" stroke="white" stroke-width="1.5" d="M0,-3.0v7 M-2.5,-0.5L0,-3.0L2.5,-0.5"/>
  </g>
  <g id="resetDef">
    <use xlink:href="#rim2" fill="#404040"><set attributeName="fill" to="#808080" begin="reset.mouseover" end="reset.mouseout"/></use>
  </g>
</defs>
<script type="application/ecmascript">
var viewWidth = 612;
var viewHeight = 1938;
var sectionId = 'dynsection-0';
</script>
<script type="application/ecmascript" xlink:href="svg.min.js"/>
<svg id="graph" class="graph">
<g id="viewport">
<title>Plateau</title>
<!-- Node1 -->
<g id="Node000001" class="node">
<title>Node1</title>
<g id="a_Node000001"><a xlink:title="Représente le plateau de jeu avec les villes et les voies ferrées.">
<polygon fill="#999999" stroke="transparent" points="276.13,-379 88.13,-379 88.13,0 276.13,0 276.13,-379"/>
<text text-anchor="start" x="163.63" y="-366.5" font-family="Helvetica,sans-Serif" font-size="10.00">Plateau</text>
<text text-anchor="start" x="180.13" y="-351.5" font-family="Helvetica,sans-Serif" font-size="10.00"> </text>
<text text-anchor="start" x="92.13" y="-336.5" font-family="Helvetica,sans-Serif" font-size="10.00">+</text>
<text text-anchor="start" x="105.13" y="-336.5" font-family="Helvetica,sans-Serif" font-size="10.00">bool existeChemin(string</text>
<text text-anchor="start" x="105.13" y="-325.5" font-family="Helvetica,sans-Serif" font-size="10.00"> villeA, string villeB,</text>
<text text-anchor="start" x="105.13" y="-314.5" font-family="Helvetica,sans-Serif" font-size="10.00"> Joueur *joueur) const</text>
<text text-anchor="start" x="92.13" y="-299.5" font-family="Helvetica,sans-Serif" font-size="10.00">+</text>
<text text-anchor="start" x="105.13" y="-299.5" font-family="Helvetica,sans-Serif" font-size="10.00">bool existeTraversee(Joueur</text>
<text text-anchor="start" x="105.13" y="-288.5" font-family="Helvetica,sans-Serif" font-size="10.00"> *joueur)</text>
<text text-anchor="start" x="92.13" y="-273.5" font-family="Helvetica,sans-Serif" font-size="10.00">+</text>
<text text-anchor="start" x="105.13" y="-273.5" font-family="Helvetica,sans-Serif" font-size="10.00">vector&lt; Ville * &gt; getListeVille</text>
<text text-anchor="start" x="105.13" y="-262.5" font-family="Helvetica,sans-Serif" font-size="10.00">() const</text>
<text text-anchor="start" x="92.13" y="-247.5" font-family="Helvetica,sans-Serif" font-size="10.00">+</text>
<text text-anchor="start" x="105.13" y="-247.5" font-family="Helvetica,sans-Serif" font-size="10.00">vector&lt; VoieFerree * &gt;</text>
<text text-anchor="start" x="105.13" y="-236.5" font-family="Helvetica,sans-Serif" font-size="10.00"> getListeVoieFerree() const</text>
<text text-anchor="start" x="92.13" y="-221.5" font-family="Helvetica,sans-Serif" font-size="10.00">+</text>
<text text-anchor="start" x="105.13" y="-221.5" font-family="Helvetica,sans-Serif" font-size="10.00">vector&lt; Ticket * &gt; getPioche</text>
<text text-anchor="start" x="105.13" y="-210.5" font-family="Helvetica,sans-Serif" font-size="10.00">Tickets()</text>
<text text-anchor="start" x="92.13" y="-195.5" font-family="Helvetica,sans-Serif" font-size="10.00">+</text>
<text text-anchor="start" x="105.13" y="-195.5" font-family="Helvetica,sans-Serif" font-size="10.00">vector&lt; Train * &gt; getPiocheTrain()</text>
<text text-anchor="start" x="92.13" y="-180.5" font-family="Helvetica,sans-Serif" font-size="10.00">+</text>
<text text-anchor="start" x="105.13" y="-180.5" font-family="Helvetica,sans-Serif" font-size="10.00">void placeWagon(string</text>
<text text-anchor="start" x="105.13" y="-169.5" font-family="Helvetica,sans-Serif" font-size="10.00"> villeA, string villeB,</text>
<text text-anchor="start" x="105.13" y="-158.5" font-family="Helvetica,sans-Serif" font-size="10.00"> Joueur *joueur, couleurTrain</text>
<text text-anchor="start" x="105.13" y="-147.5" font-family="Helvetica,sans-Serif" font-size="10.00"> couleur)</text>
<text text-anchor="start" x="92.13" y="-132.5" font-family="Helvetica,sans-Serif" font-size="10.00">+</text>
<text text-anchor="start" x="105.13" y="-132.5" font-family="Helvetica,sans-Serif" font-size="10.00">Plateau()</text>
<text text-anchor="start" x="92.13" y="-117.5" font-family="Helvetica,sans-Serif" font-size="10.00">+</text>
<text text-anchor="start" x="105.13" y="-117.5" font-family="Helvetica,sans-Serif" font-size="10.00">~Plateau()</text>
<text text-anchor="start" x="94.63" y="-102.5" font-family="Helvetica,sans-Serif" font-size="10.00">&#45;</text>
<text text-anchor="start" x="105.13" y="-102.5" font-family="Helvetica,sans-Serif" font-size="10.00">Ville * getVilleFromString</text>
<text text-anchor="start" x="105.13" y="-91.5" font-family="Helvetica,sans-Serif" font-size="10.00">(string ville, vector&lt; Ville</text>
<text text-anchor="start" x="105.13" y="-80.5" font-family="Helvetica,sans-Serif" font-size="10.00"> * &gt; v) const</text>
<text text-anchor="start" x="94.63" y="-65.5" font-family="Helvetica,sans-Serif" font-size="10.00">&#45;</text>
<text text-anchor="start" x="105.13" y="-65.5" font-family="Helvetica,sans-Serif" font-size="10.00">bool isVilleInVector(Ville</text>
<text text-anchor="start" x="105.13" y="-54.5" font-family="Helvetica,sans-Serif" font-size="10.00"> *ville, vector&lt; Ville *</text>
<text text-anchor="start" x="105.13" y="-43.5" font-family="Helvetica,sans-Serif" font-size="10.00"> &gt; listeVille) const</text>
<text text-anchor="start" x="94.63" y="-28.5" font-family="Helvetica,sans-Serif" font-size="10.00">&#45;</text>
<text text-anchor="start" x="105.13" y="-28.5" font-family="Helvetica,sans-Serif" font-size="10.00">bool isVilleStringInVector</text>
<text text-anchor="start" x="105.13" y="-17.5" font-family="Helvetica,sans-Serif" font-size="10.00">(string ville, vector&lt; Ville</text>
<text text-anchor="start" x="105.13" y="-6.5" font-family="Helvetica,sans-Serif" font-size="10.00"> * &gt; listeVille) const</text>
<polygon fill="#666666" stroke="#666666" points="88.13,-361.5 88.13,-361.5 276.13,-361.5 276.13,-361.5 88.13,-361.5"/>
<polygon fill="#666666" stroke="#666666" points="88.13,-346.5 88.13,-346.5 276.13,-346.5 276.13,-346.5 88.13,-346.5"/>
<polygon fill="none" stroke="#666666" points="88.13,0 88.13,-379 276.13,-379 276.13,0 88.13,0"/>
</a>
</g>
</g>
<!-- Node2 -->
<g id="Node000002" class="node">
<title>Node2</title>
<g id="a_Node000002"><a xlink:title=" ">
<polygon fill="white" stroke="transparent" points="407.63,-475 262.63,-475 262.63,-426 407.63,-426 407.63,-475"/>
<text text-anchor="start" x="268.13" y="-462.5" font-family="Helvetica,sans-Serif" font-size="10.00">std::vector&lt; VoieFerree * &gt;</text>
<text text-anchor="start" x="333.63" y="-447.5" font-family="Helvetica,sans-Serif" font-size="10.00"> </text>
<text text-anchor="start" x="333.63" y="-432.5" font-family="Helvetica,sans-Serif" font-size="10.00"> </text>
<polygon fill="#666666" stroke="#666666" points="263.13,-457.5 263.13,-457.5 408.13,-457.5 408.13,-457.5 263.13,-457.5"/>
<polygon fill="#666666" stroke="#666666" points="263.13,-442.5 263.13,-442.5 408.13,-442.5 408.13,-442.5 263.13,-442.5"/>
<polygon fill="none" stroke="#666666" points="262.63,-426 262.63,-475 407.63,-475 407.63,-426 262.63,-426"/>
</a>
</g>
</g>
<!-- Node2&#45;&gt;Node1 -->
<g id="edge1_Node000001_Node000002" class="edge">
<title>Node2&#45;&gt;Node1</title>
<g id="a_edge1_Node000001_Node000002"><a xlink:title=" ">
<path fill="none" stroke="#63b8ff" d="M321.01,-425.6C311.34,-409.24 297.57,-385.92 282.41,-360.25"/>
<polygon fill="none" stroke="#63b8ff" points="282.41,-360.25 275.91,-357.12 276.3,-349.92 282.8,-353.05 282.41,-360.25"/>
</a>
</g>
<text text-anchor="middle" x="350.13" y="-400" font-family="Helvetica,sans-Serif" font-size="10.00" fill="grey"> &#45;listeVoieFerree</text>
</g>
<!-- Node3 -->
<g id="Node000003" class="node">
<title>Node3</title>
<g id="a_Node000003"><a xlink:href="classVoieFerree.html" target="_top" xlink:title="Représente une voie ferrée reliant deux villes.">
<polygon fill="white" stroke="transparent" points="419.63,-716 250.63,-716 250.63,-522 419.63,-522 419.63,-716"/>
<text text-anchor="start" x="309.63" y="-704" font-family="Helvetica,sans-Serif" font-size="10.00">VoieFerree</text>
<text text-anchor="start" x="257.63" y="-689" font-family="Helvetica,sans-Serif" font-size="10.00">&#45;</text>
<text text-anchor="start" x="268.13" y="-689" font-family="Helvetica,sans-Serif" font-size="10.00">couleurTrain couleur</text>
<text text-anchor="start" x="257.63" y="-674" font-family="Helvetica,sans-Serif" font-size="10.00">&#45;</text>
<text text-anchor="start" x="268.13" y="-674" font-family="Helvetica,sans-Serif" font-size="10.00">int poids</text>
<text text-anchor="start" x="255.13" y="-659" font-family="Helvetica,sans-Serif" font-size="10.00">+</text>
<text text-anchor="start" x="268.13" y="-659" font-family="Helvetica,sans-Serif" font-size="10.00">couleurTrain getCouleur</text>
<text text-anchor="start" x="268.13" y="-648" font-family="Helvetica,sans-Serif" font-size="10.00">() const</text>
<text text-anchor="start" x="255.13" y="-633" font-family="Helvetica,sans-Serif" font-size="10.00">+</text>
<text text-anchor="start" x="268.13" y="-633" font-family="Helvetica,sans-Serif" font-size="10.00">Joueur * getJoueur() const</text>
<text text-anchor="start" x="255.13" y="-618" font-family="Helvetica,sans-Serif" font-size="10.00">+</text>
<text text-anchor="start" x="268.13" y="-618" font-family="Helvetica,sans-Serif" font-size="10.00">vector&lt; Ville * &gt; getListeVille</text>
<text text-anchor="start" x="268.13" y="-607" font-family="Helvetica,sans-Serif" font-size="10.00">() const</text>
<text text-anchor="start" x="255.13" y="-592" font-family="Helvetica,sans-Serif" font-size="10.00">+</text>
<text text-anchor="start" x="268.13" y="-592" font-family="Helvetica,sans-Serif" font-size="10.00">int getPoids() const</text>
<text text-anchor="start" x="255.13" y="-577" font-family="Helvetica,sans-Serif" font-size="10.00">+</text>
<text text-anchor="start" x="268.13" y="-577" font-family="Helvetica,sans-Serif" font-size="10.00">void setJoueur(Joueur</text>
<text text-anchor="start" x="268.13" y="-566" font-family="Helvetica,sans-Serif" font-size="10.00"> *joueur)</text>
<text text-anchor="start" x="255.13" y="-551" font-family="Helvetica,sans-Serif" font-size="10.00">+</text>
<text text-anchor="start" x="268.13" y="-551" font-family="Helvetica,sans-Serif" font-size="10.00">VoieFerree(vector&lt; Ville</text>
<text text-anchor="start" x="268.13" y="-540" font-family="Helvetica,sans-Serif" font-size="10.00"> * &gt; listeVille, couleurTrain</text>
<text text-anchor="start" x="268.13" y="-529" font-family="Helvetica,sans-Serif" font-size="10.00"> couleur, int poids)</text>
<polygon fill="#666666" stroke="#666666" points="251.13,-699 251.13,-699 420.13,-699 420.13,-699 251.13,-699"/>
<polygon fill="#666666" stroke="#666666" points="251.13,-669 251.13,-669 266.13,-669 266.13,-669 251.13,-669"/>
<polygon fill="#666666" stroke="#666666" points="266.13,-669 266.13,-669 420.13,-669 420.13,-669 266.13,-669"/>
<polygon fill="none" stroke="#666666" points="250.63,-522 250.63,-716 419.63,-716 419.63,-522 250.63,-522"/>
</a>
</g>
</g>
<!-- Node3&#45;&gt;Node2 -->
<g id="edge2_Node000002_Node000003" class="edge">
<title>Node3&#45;&gt;Node2</title>
<g id="a_edge2_Node000002_Node000003"><a xlink:title=" ">
<path fill="none" stroke="#63b8ff" d="M335.13,-521.63C335.13,-509.49 335.13,-497.74 335.13,-487.43"/>
<polygon fill="none" stroke="#63b8ff" points="335.13,-487.23 331.13,-481.23 335.13,-475.23 339.13,-481.23 335.13,-487.23"/>
</a>
</g>
<text text-anchor="middle" x="364.13" y="-496" font-family="Helvetica,sans-Serif" font-size="10.00" fill="grey"> +elements</text>
</g>
<!-- Node4 -->
<g id="Node000004" class="node">
<title>Node4</title>
<g id="a_Node000004"><a xlink:title=" ">
<polygon fill="white" stroke="transparent" points="234.63,-1385 119.63,-1385 119.63,-1336 234.63,-1336 234.63,-1385"/>
<text text-anchor="start" x="125.13" y="-1372.5" font-family="Helvetica,sans-Serif" font-size="10.00">std::vector&lt; Ville * &gt;</text>
<text text-anchor="start" x="175.63" y="-1357.5" font-family="Helvetica,sans-Serif" font-size="10.00"> </text>
<text text-anchor="start" x="175.63" y="-1342.5" font-family="Helvetica,sans-Serif" font-size="10.00"> </text>
<polygon fill="#666666" stroke="#666666" points="120.13,-1367.5 120.13,-1367.5 235.13,-1367.5 235.13,-1367.5 120.13,-1367.5"/>
<polygon fill="#666666" stroke="#666666" points="120.13,-1352.5 120.13,-1352.5 235.13,-1352.5 235.13,-1352.5 120.13,-1352.5"/>
<polygon fill="none" stroke="#666666" points="119.63,-1336 119.63,-1385 234.63,-1385 234.63,-1336 119.63,-1336"/>
</a>
</g>
</g>
<!-- Node4&#45;&gt;Node1 -->
<g id="edge19_Node000001_Node000004" class="edge">
<title>Node4&#45;&gt;Node1</title>
<g id="a_edge19_Node000001_Node000004"><a xlink:title=" ">
<path fill="none" stroke="#63b8ff" d="M176.41,-1335.89C173.96,-1253.73 166.13,-972.66 166.13,-740.5 166.13,-740.5 166.13,-740.5 166.13,-449.5 166.13,-430.66 166.55,-411.06 167.27,-391.46"/>
<polygon fill="none" stroke="#63b8ff" points="167.28,-391.25 163.52,-385.1 167.75,-379.26 171.51,-385.41 167.28,-391.25"/>
</a>
</g>
<text text-anchor="middle" x="191.13" y="-616.5" font-family="Helvetica,sans-Serif" font-size="10.00" fill="grey"> &#45;listeVille</text>
</g>
<!-- Node4&#45;&gt;Node3 -->
<g id="edge3_Node000003_Node000004" class="edge">
<title>Node4&#45;&gt;Node3</title>
<g id="a_edge3_Node000003_Node000004"><a xlink:title=" ">
<path fill="none" stroke="#63b8ff" d="M178.85,-1335.82C186.9,-1225.22 220.46,-764.7 221.13,-763 226.9,-748.28 234.73,-733.87 243.62,-720.21"/>
<polygon fill="none" stroke="#63b8ff" points="243.86,-719.85 243.92,-712.64 250.6,-709.92 250.54,-717.13 243.86,-719.85"/>
</a>
</g>
<text text-anchor="middle" x="246.13" y="-1038" font-family="Helvetica,sans-Serif" font-size="10.00" fill="grey"> &#45;listeVille</text>
</g>
<!-- Node5 -->
<g id="Node000005" class="node">
<title>Node5</title>
<g id="a_Node000005"><a xlink:href="classVille.html" target="_top" xlink:title=" ">
<polygon fill="white" stroke="transparent" points="221.13,-1748 93.13,-1748 93.13,-1684 221.13,-1684 221.13,-1748"/>
<text text-anchor="start" x="146.13" y="-1736" font-family="Helvetica,sans-Serif" font-size="10.00">Ville</text>
<text text-anchor="start" x="155.13" y="-1721" font-family="Helvetica,sans-Serif" font-size="10.00"> </text>
<text text-anchor="start" x="97.13" y="-1706" font-family="Helvetica,sans-Serif" font-size="10.00">+</text>
<text text-anchor="start" x="110.13" y="-1706" font-family="Helvetica,sans-Serif" font-size="10.00">string getNom() const</text>
<text text-anchor="start" x="97.13" y="-1691" font-family="Helvetica,sans-Serif" font-size="10.00">+</text>
<text text-anchor="start" x="110.13" y="-1691" font-family="Helvetica,sans-Serif" font-size="10.00">Ville(string nom)</text>
<polygon fill="#666666" stroke="#666666" points="93.13,-1731 93.13,-1731 221.13,-1731 221.13,-1731 93.13,-1731"/>
<polygon fill="#666666" stroke="#666666" points="93.13,-1716 93.13,-1716 221.13,-1716 221.13,-1716 93.13,-1716"/>
<polygon fill="none" stroke="#666666" points="93.13,-1684 93.13,-1748 221.13,-1748 221.13,-1684 93.13,-1684"/>
</a>
</g>
</g>
<!-- Node5&#45;&gt;Node4 -->
<g id="edge4_Node000004_Node000005" class="edge">
<title>Node5&#45;&gt;Node4</title>
<g id="a_edge4_Node000004_Node000005"><a xlink:title=" ">
<path fill="none" stroke="#63b8ff" d="M93.01,-1690.5C65.03,-1676.21 35.02,-1655.16 19.13,-1626 -7.88,-1576.44 -4.27,-1550.37 19.13,-1499 40.32,-1452.46 85.9,-1415.57 122.69,-1391.76"/>
<polygon fill="none" stroke="#63b8ff" points="123.13,-1391.48 126.08,-1384.9 133.29,-1385.09 130.34,-1391.67 123.13,-1391.48"/>
</a>
</g>
<text text-anchor="middle" x="48.13" y="-1560" font-family="Helvetica,sans-Serif" font-size="10.00" fill="grey"> +elements</text>
</g>
<!-- Node12 -->
<g id="Node000012" class="node">
<title>Node12</title>
<g id="a_Node000012"><a xlink:href="classTicket.html" target="_top" xlink:title="Représente un ticket dans le jeu.">
<polygon fill="white" stroke="transparent" points="228.13,-1626 86.13,-1626 86.13,-1499 228.13,-1499 228.13,-1626"/>
<text text-anchor="start" x="142.13" y="-1613.5" font-family="Helvetica,sans-Serif" font-size="10.00">Ticket</text>
<text text-anchor="start" x="155.13" y="-1598.5" font-family="Helvetica,sans-Serif" font-size="10.00"> </text>
<text text-anchor="start" x="90.13" y="-1583.5" font-family="Helvetica,sans-Serif" font-size="10.00">+</text>
<text text-anchor="start" x="103.13" y="-1583.5" font-family="Helvetica,sans-Serif" font-size="10.00">Ville * getVilleArrivee</text>
<text text-anchor="start" x="103.13" y="-1572.5" font-family="Helvetica,sans-Serif" font-size="10.00">() const</text>
<text text-anchor="start" x="90.13" y="-1557.5" font-family="Helvetica,sans-Serif" font-size="10.00">+</text>
<text text-anchor="start" x="103.13" y="-1557.5" font-family="Helvetica,sans-Serif" font-size="10.00">Ville * getVilleDepart</text>
<text text-anchor="start" x="103.13" y="-1546.5" font-family="Helvetica,sans-Serif" font-size="10.00">() const</text>
<text text-anchor="start" x="90.13" y="-1531.5" font-family="Helvetica,sans-Serif" font-size="10.00">+</text>
<text text-anchor="start" x="103.13" y="-1531.5" font-family="Helvetica,sans-Serif" font-size="10.00">Ticket(Ville *villeDepart,</text>
<text text-anchor="start" x="103.13" y="-1520.5" font-family="Helvetica,sans-Serif" font-size="10.00"> Ville *villeArrivee)</text>
<text text-anchor="start" x="90.13" y="-1505.5" font-family="Helvetica,sans-Serif" font-size="10.00">+</text>
<text text-anchor="start" x="103.13" y="-1505.5" font-family="Helvetica,sans-Serif" font-size="10.00">~Ticket()</text>
<polygon fill="#666666" stroke="#666666" points="86.13,-1608.5 86.13,-1608.5 228.13,-1608.5 228.13,-1608.5 86.13,-1608.5"/>
<polygon fill="#666666" stroke="#666666" points="86.13,-1593.5 86.13,-1593.5 228.13,-1593.5 228.13,-1593.5 86.13,-1593.5"/>
<polygon fill="none" stroke="#666666" points="86.13,-1499 86.13,-1626 228.13,-1626 228.13,-1499 86.13,-1499"/>
</a>
</g>
</g>
<!-- Node5&#45;&gt;Node12 -->
<g id="edge12_Node000012_Node000005" class="edge">
<title>Node5&#45;&gt;Node12</title>
<g id="a_edge12_Node000012_Node000005"><a xlink:title=" ">
<path fill="none" stroke="#63b8ff" d="M157.13,-1683.98C157.13,-1670.66 157.13,-1654.48 157.13,-1638.34"/>
<polygon fill="none" stroke="#63b8ff" points="157.13,-1638.07 153.13,-1632.07 157.13,-1626.07 161.13,-1632.07 157.13,-1638.07"/>
</a>
</g>
<text text-anchor="middle" x="188.63" y="-1658" font-family="Helvetica,sans-Serif" font-size="10.00" fill="grey"> &#45;villeArrivee</text>
<text text-anchor="middle" x="188.63" y="-1647" font-family="Helvetica,sans-Serif" font-size="10.00" fill="grey">&#45;villeDepart</text>
</g>
<!-- Node6 -->
<g id="Node000006" class="node">
<title>Node6</title>
<g id="a_Node000006"><a xlink:title=" ">
<polygon fill="white" stroke="transparent" points="388.63,-1844 329.63,-1844 329.63,-1795 388.63,-1795 388.63,-1844"/>
<text text-anchor="start" x="335.13" y="-1831.5" font-family="Helvetica,sans-Serif" font-size="10.00">std::string</text>
<text text-anchor="start" x="357.63" y="-1816.5" font-family="Helvetica,sans-Serif" font-size="10.00"> </text>
<text text-anchor="start" x="357.63" y="-1801.5" font-family="Helvetica,sans-Serif" font-size="10.00"> </text>
<polygon fill="#666666" stroke="#666666" points="330.13,-1826.5 330.13,-1826.5 389.13,-1826.5 389.13,-1826.5 330.13,-1826.5"/>
<polygon fill="#666666" stroke="#666666" points="330.13,-1811.5 330.13,-1811.5 389.13,-1811.5 389.13,-1811.5 330.13,-1811.5"/>
<polygon fill="none" stroke="#666666" points="329.63,-1795 329.63,-1844 388.63,-1844 388.63,-1795 329.63,-1795"/>
</a>
</g>
</g>
<!-- Node6&#45;&gt;Node5 -->
<g id="edge5_Node000005_Node000006" class="edge">
<title>Node6&#45;&gt;Node5</title>
<g id="a_edge5_Node000005_Node000006"><a xlink:title=" ">
<path fill="none" stroke="#63b8ff" d="M329.32,-1803.52C303.28,-1790.44 264.38,-1770.89 230.14,-1753.69"/>
<polygon fill="none" stroke="#63b8ff" points="229.94,-1753.59 222.78,-1754.47 219.21,-1748.2 226.37,-1747.32 229.94,-1753.59"/>
</a>
</g>
<text text-anchor="middle" x="291.63" y="-1769" font-family="Helvetica,sans-Serif" font-size="10.00" fill="grey"> &#45;nom</text>
</g>
<!-- Node10 -->
<g id="Node000010" class="node">
<title>Node10</title>
<g id="a_Node000010"><a xlink:href="classJoueur.html" target="_top" xlink:title="Représente un joueur d&#39;une partie des Aventuriers du Rail.">
<polygon fill="white" stroke="transparent" points="482.13,-1318 280.13,-1318 280.13,-763 482.13,-763 482.13,-1318"/>
<text text-anchor="start" x="365.63" y="-1305.5" font-family="Helvetica,sans-Serif" font-size="10.00">Joueur</text>
<text text-anchor="start" x="286.63" y="-1290.5" font-family="Helvetica,sans-Serif" font-size="10.00">&#45;</text>
<text text-anchor="start" x="297.13" y="-1290.5" font-family="Helvetica,sans-Serif" font-size="10.00">couleurJoueur couleur</text>
<text text-anchor="start" x="286.63" y="-1275.5" font-family="Helvetica,sans-Serif" font-size="10.00">&#45;</text>
<text text-anchor="start" x="297.13" y="-1275.5" font-family="Helvetica,sans-Serif" font-size="10.00">int nbWagons</text>
<text text-anchor="start" x="286.63" y="-1260.5" font-family="Helvetica,sans-Serif" font-size="10.00">&#45;</text>
<text text-anchor="start" x="297.13" y="-1260.5" font-family="Helvetica,sans-Serif" font-size="10.00">int ticketFini</text>
<text text-anchor="start" x="284.13" y="-1245.5" font-family="Helvetica,sans-Serif" font-size="10.00">+</text>
<text text-anchor="start" x="297.13" y="-1245.5" font-family="Helvetica,sans-Serif" font-size="10.00">void afficherMain(std</text>
<text text-anchor="start" x="297.13" y="-1234.5" font-family="Helvetica,sans-Serif" font-size="10.00">::ostream &amp;os) const</text>
<text text-anchor="start" x="284.13" y="-1219.5" font-family="Helvetica,sans-Serif" font-size="10.00">+</text>
<text text-anchor="start" x="297.13" y="-1219.5" font-family="Helvetica,sans-Serif" font-size="10.00">bool aGagne() const</text>
<text text-anchor="start" x="284.13" y="-1204.5" font-family="Helvetica,sans-Serif" font-size="10.00">+</text>
<text text-anchor="start" x="297.13" y="-1204.5" font-family="Helvetica,sans-Serif" font-size="10.00">void ajouterCarte(Train</text>
<text text-anchor="start" x="297.13" y="-1193.5" font-family="Helvetica,sans-Serif" font-size="10.00"> *carte)</text>
<text text-anchor="start" x="284.13" y="-1178.5" font-family="Helvetica,sans-Serif" font-size="10.00">+</text>
<text text-anchor="start" x="297.13" y="-1178.5" font-family="Helvetica,sans-Serif" font-size="10.00">void ajouterTicket(Ticket</text>
<text text-anchor="start" x="297.13" y="-1167.5" font-family="Helvetica,sans-Serif" font-size="10.00"> *ticket)</text>
<text text-anchor="start" x="284.13" y="-1152.5" font-family="Helvetica,sans-Serif" font-size="10.00">+</text>
<text text-anchor="start" x="297.13" y="-1152.5" font-family="Helvetica,sans-Serif" font-size="10.00">bool defausserCartesVoie</text>
<text text-anchor="start" x="297.13" y="-1141.5" font-family="Helvetica,sans-Serif" font-size="10.00">(couleurTrain couleurVoie,</text>
<text text-anchor="start" x="297.13" y="-1130.5" font-family="Helvetica,sans-Serif" font-size="10.00"> int longueur)</text>
<text text-anchor="start" x="284.13" y="-1115.5" font-family="Helvetica,sans-Serif" font-size="10.00">+</text>
<text text-anchor="start" x="297.13" y="-1115.5" font-family="Helvetica,sans-Serif" font-size="10.00">std::vector&lt; Ticket *</text>
<text text-anchor="start" x="297.13" y="-1104.5" font-family="Helvetica,sans-Serif" font-size="10.00"> &gt; defausserTickets()</text>
<text text-anchor="start" x="284.13" y="-1089.5" font-family="Helvetica,sans-Serif" font-size="10.00">+</text>
<text text-anchor="start" x="297.13" y="-1089.5" font-family="Helvetica,sans-Serif" font-size="10.00">couleurJoueur getCouleur</text>
<text text-anchor="start" x="297.13" y="-1078.5" font-family="Helvetica,sans-Serif" font-size="10.00">() const</text>
<text text-anchor="start" x="284.13" y="-1063.5" font-family="Helvetica,sans-Serif" font-size="10.00">+</text>
<text text-anchor="start" x="297.13" y="-1063.5" font-family="Helvetica,sans-Serif" font-size="10.00">const std::vector&lt; Train</text>
<text text-anchor="start" x="297.13" y="-1052.5" font-family="Helvetica,sans-Serif" font-size="10.00"> * &gt; &amp; getMainCartes() const</text>
<text text-anchor="start" x="284.13" y="-1037.5" font-family="Helvetica,sans-Serif" font-size="10.00">+</text>
<text text-anchor="start" x="297.13" y="-1037.5" font-family="Helvetica,sans-Serif" font-size="10.00">const std::vector&lt; Ticket</text>
<text text-anchor="start" x="297.13" y="-1026.5" font-family="Helvetica,sans-Serif" font-size="10.00"> * &gt; &amp; getMissions() const</text>
<text text-anchor="start" x="284.13" y="-1011.5" font-family="Helvetica,sans-Serif" font-size="10.00">+</text>
<text text-anchor="start" x="297.13" y="-1011.5" font-family="Helvetica,sans-Serif" font-size="10.00">int getNbCartes(couleurTrain</text>
<text text-anchor="start" x="297.13" y="-1000.5" font-family="Helvetica,sans-Serif" font-size="10.00"> couleur) const</text>
<text text-anchor="start" x="284.13" y="-985.5" font-family="Helvetica,sans-Serif" font-size="10.00">+</text>
<text text-anchor="start" x="297.13" y="-985.5" font-family="Helvetica,sans-Serif" font-size="10.00">int getNbCartesTotales</text>
<text text-anchor="start" x="297.13" y="-974.5" font-family="Helvetica,sans-Serif" font-size="10.00">() const</text>
<text text-anchor="start" x="284.13" y="-959.5" font-family="Helvetica,sans-Serif" font-size="10.00">+</text>
<text text-anchor="start" x="297.13" y="-959.5" font-family="Helvetica,sans-Serif" font-size="10.00">int getNbWagons() const</text>
<text text-anchor="start" x="284.13" y="-944.5" font-family="Helvetica,sans-Serif" font-size="10.00">+</text>
<text text-anchor="start" x="297.13" y="-944.5" font-family="Helvetica,sans-Serif" font-size="10.00">const std::string &amp; getNom</text>
<text text-anchor="start" x="297.13" y="-933.5" font-family="Helvetica,sans-Serif" font-size="10.00">() const</text>
<text text-anchor="start" x="284.13" y="-918.5" font-family="Helvetica,sans-Serif" font-size="10.00">+</text>
<text text-anchor="start" x="297.13" y="-918.5" font-family="Helvetica,sans-Serif" font-size="10.00">int getTicketFini() const</text>
<text text-anchor="start" x="284.13" y="-903.5" font-family="Helvetica,sans-Serif" font-size="10.00">+</text>
<text text-anchor="start" x="297.13" y="-903.5" font-family="Helvetica,sans-Serif" font-size="10.00">Joueur(const std::string</text>
<text text-anchor="start" x="297.13" y="-892.5" font-family="Helvetica,sans-Serif" font-size="10.00"> &amp;nom, couleurJoueur couleur)</text>
<text text-anchor="start" x="284.13" y="-877.5" font-family="Helvetica,sans-Serif" font-size="10.00">+</text>
<text text-anchor="start" x="297.13" y="-877.5" font-family="Helvetica,sans-Serif" font-size="10.00">bool naPlusDeWagons() const</text>
<text text-anchor="start" x="284.13" y="-862.5" font-family="Helvetica,sans-Serif" font-size="10.00">+</text>
<text text-anchor="start" x="297.13" y="-862.5" font-family="Helvetica,sans-Serif" font-size="10.00">bool peutPrendreVoie(couleur</text>
<text text-anchor="start" x="297.13" y="-851.5" font-family="Helvetica,sans-Serif" font-size="10.00">Train couleurVoie, int longueur) const</text>
<text text-anchor="start" x="284.13" y="-836.5" font-family="Helvetica,sans-Serif" font-size="10.00">+</text>
<text text-anchor="start" x="297.13" y="-836.5" font-family="Helvetica,sans-Serif" font-size="10.00">bool retirerCartes(couleurTrain</text>
<text text-anchor="start" x="297.13" y="-825.5" font-family="Helvetica,sans-Serif" font-size="10.00"> couleur, int quantite)</text>
<text text-anchor="start" x="284.13" y="-810.5" font-family="Helvetica,sans-Serif" font-size="10.00">+</text>
<text text-anchor="start" x="297.13" y="-810.5" font-family="Helvetica,sans-Serif" font-size="10.00">bool utiliserWagons(int nb)</text>
<text text-anchor="start" x="284.13" y="-795.5" font-family="Helvetica,sans-Serif" font-size="10.00">+</text>
<text text-anchor="start" x="297.13" y="-795.5" font-family="Helvetica,sans-Serif" font-size="10.00">bool validerTicket(Ticket</text>
<text text-anchor="start" x="297.13" y="-784.5" font-family="Helvetica,sans-Serif" font-size="10.00"> *ticket, Plateau &amp;plateau)</text>
<text text-anchor="start" x="284.13" y="-769.5" font-family="Helvetica,sans-Serif" font-size="10.00">+</text>
<text text-anchor="start" x="297.13" y="-769.5" font-family="Helvetica,sans-Serif" font-size="10.00">~Joueur()=default</text>
<polygon fill="#666666" stroke="#666666" points="280.13,-1300.5 280.13,-1300.5 482.13,-1300.5 482.13,-1300.5 280.13,-1300.5"/>
<polygon fill="#666666" stroke="#666666" points="280.13,-1255.5 280.13,-1255.5 295.13,-1255.5 295.13,-1255.5 280.13,-1255.5"/>
<polygon fill="#666666" stroke="#666666" points="295.13,-1255.5 295.13,-1255.5 482.13,-1255.5 482.13,-1255.5 295.13,-1255.5"/>
<polygon fill="none" stroke="#666666" points="280.13,-763 280.13,-1318 482.13,-1318 482.13,-763 280.13,-763"/>
</a>
</g>
</g>
<!-- Node6&#45;&gt;Node10 -->
<g id="edge14_Node000010_Node000006" class="edge">
<title>Node6&#45;&gt;Node10</title>
<g id="a_edge14_Node000010_Node000006"><a xlink:title=" ">
<path fill="none" stroke="#63b8ff" d="M388.79,-1816.87C444.7,-1812.02 560.13,-1792.84 560.13,-1717 560.13,-1717 560.13,-1717 560.13,-1426.5 560.13,-1370.51 521.16,-1368.08 496.13,-1318 493.29,-1312.33 490.47,-1306.58 487.66,-1300.76"/>
<polygon fill="none" stroke="#63b8ff" points="487.45,-1300.32 481.26,-1296.63 482.28,-1289.49 488.47,-1293.18 487.45,-1300.32"/>
</a>
</g>
<text text-anchor="middle" x="574.63" y="-1560" font-family="Helvetica,sans-Serif" font-size="10.00" fill="grey"> &#45;nom</text>
</g>
<!-- Node7 -->
<g id="Node000007" class="node">
<title>Node7</title>
<g id="a_Node000007"><a xlink:title=" ">
<polygon fill="white" stroke="transparent" points="426.63,-1930 291.63,-1930 291.63,-1881 426.63,-1881 426.63,-1930"/>
<text text-anchor="start" x="297.13" y="-1917.5" font-family="Helvetica,sans-Serif" font-size="10.00">std::basic_string&lt; Char &gt;</text>
<text text-anchor="start" x="357.63" y="-1902.5" font-family="Helvetica,sans-Serif" font-size="10.00"> </text>
<text text-anchor="start" x="357.63" y="-1887.5" font-family="Helvetica,sans-Serif" font-size="10.00"> </text>
<polygon fill="#666666" stroke="#666666" points="292.13,-1912.5 292.13,-1912.5 427.13,-1912.5 427.13,-1912.5 292.13,-1912.5"/>
<polygon fill="#666666" stroke="#666666" points="292.13,-1897.5 292.13,-1897.5 427.13,-1897.5 427.13,-1897.5 292.13,-1897.5"/>
<polygon fill="none" stroke="#666666" points="291.63,-1881 291.63,-1930 426.63,-1930 426.63,-1881 291.63,-1881"/>
</a>
</g>
</g>
<!-- Node7&#45;&gt;Node6 -->
<g id="edge6_Node000006_Node000007" class="edge">
<title>Node7&#45;&gt;Node6</title>
<g id="a_edge6_Node000006_Node000007"><a xlink:title=" ">
<path fill="none" stroke="#63b8ff" d="M359.13,-1870.57C359.13,-1861.69 359.13,-1852.32 359.13,-1844.12"/>
<polygon fill="none" stroke="#63b8ff" points="355.63,-1870.65 359.13,-1880.65 362.63,-1870.65 355.63,-1870.65"/>
</a>
</g>
</g>
<!-- Node8 -->
<g id="Node000008" class="node">
<title>Node8</title>
<g id="a_Node000008"><a xlink:title=" ">
<polygon fill="white" stroke="transparent" points="337.63,-1587 246.63,-1587 246.63,-1538 337.63,-1538 337.63,-1587"/>
<text text-anchor="start" x="252.13" y="-1574.5" font-family="Helvetica,sans-Serif" font-size="10.00">std::vector&lt; T &gt;</text>
<text text-anchor="start" x="290.63" y="-1559.5" font-family="Helvetica,sans-Serif" font-size="10.00"> </text>
<text text-anchor="start" x="290.63" y="-1544.5" font-family="Helvetica,sans-Serif" font-size="10.00"> </text>
<polygon fill="#666666" stroke="#666666" points="247.13,-1569.5 247.13,-1569.5 338.13,-1569.5 338.13,-1569.5 247.13,-1569.5"/>
<polygon fill="#666666" stroke="#666666" points="247.13,-1554.5 247.13,-1554.5 338.13,-1554.5 338.13,-1554.5 247.13,-1554.5"/>
<polygon fill="none" stroke="#666666" points="246.63,-1538 246.63,-1587 337.63,-1587 337.63,-1538 246.63,-1538"/>
</a>
</g>
</g>
<!-- Node8&#45;&gt;Node2 -->
<g id="edge18_Node000002_Node000008" class="edge">
<title>Node8&#45;&gt;Node2</title>
<g id="a_edge18_Node000002_Node000008"><a xlink:title=" ">
<path fill="none" stroke="orange" d="M312.87,-1529.5C321.98,-1518.02 333.68,-1506.16 347.13,-1499 401.72,-1469.92 433.04,-1514.36 485.13,-1481 508.34,-1466.14 518.13,-1456.06 518.13,-1428.5 518.13,-1428.5 518.13,-1428.5 518.13,-618 518.13,-549.17 446.42,-501.27 392.78,-475.07"/>
<polygon fill="orange" stroke="orange" points="309.91,-1527.62 306.71,-1537.72 315.51,-1531.82 309.91,-1527.62"/>
</a>
</g>
<text text-anchor="middle" x="561.13" y="-1038" font-family="Helvetica,sans-Serif" font-size="10.00" fill="grey"> &lt; VoieFerree * &gt;</text>
</g>
<!-- Node8&#45;&gt;Node4 -->
<g id="edge7_Node000004_Node000008" class="edge">
<title>Node8&#45;&gt;Node4</title>
<g id="a_edge7_Node000004_Node000008"><a xlink:title=" ">
<path fill="none" stroke="orange" d="M266.81,-1530.21C257.86,-1519.85 247.44,-1508.54 237.13,-1499 227.34,-1489.95 220.77,-1491.93 213.13,-1481 192.77,-1451.87 183.72,-1411.02 179.85,-1385.42"/>
<polygon fill="orange" stroke="orange" points="264.2,-1532.54 273.34,-1537.9 269.53,-1528.01 264.2,-1532.54"/>
</a>
</g>
<text text-anchor="middle" x="241.13" y="-1473" font-family="Helvetica,sans-Serif" font-size="10.00" fill="grey"> &lt; Ville * &gt;</text>
</g>
<!-- Node11 -->
<g id="Node000011" class="node">
<title>Node11</title>
<g id="a_Node000011"><a xlink:title=" ">
<polygon fill="white" stroke="transparent" points="338.13,-1452 216.13,-1452 216.13,-1403 338.13,-1403 338.13,-1452"/>
<text text-anchor="start" x="221.13" y="-1439.5" font-family="Helvetica,sans-Serif" font-size="10.00">std::vector&lt; Ticket * &gt;</text>
<text text-anchor="start" x="275.13" y="-1424.5" font-family="Helvetica,sans-Serif" font-size="10.00"> </text>
<text text-anchor="start" x="275.13" y="-1409.5" font-family="Helvetica,sans-Serif" font-size="10.00"> </text>
<polygon fill="#666666" stroke="#666666" points="216.13,-1434.5 216.13,-1434.5 338.13,-1434.5 338.13,-1434.5 216.13,-1434.5"/>
<polygon fill="#666666" stroke="#666666" points="216.13,-1419.5 216.13,-1419.5 338.13,-1419.5 338.13,-1419.5 216.13,-1419.5"/>
<polygon fill="none" stroke="#666666" points="216.13,-1403 216.13,-1452 338.13,-1452 338.13,-1403 216.13,-1403"/>
</a>
</g>
</g>
<!-- Node8&#45;&gt;Node11 -->
<g id="edge13_Node000011_Node000008" class="edge">
<title>Node8&#45;&gt;Node11</title>
<g id="a_edge13_Node000011_Node000008"><a xlink:title=" ">
<path fill="none" stroke="orange" d="M280.86,-1527.61C276.26,-1510.5 272.2,-1489.33 273.13,-1470 273.41,-1464.22 273.9,-1457.99 274.45,-1452.17"/>
<polygon fill="orange" stroke="orange" points="277.63,-1529.04 283.76,-1537.68 284.36,-1527.11 277.63,-1529.04"/>
</a>
</g>
<text text-anchor="middle" x="305.13" y="-1473" font-family="Helvetica,sans-Serif" font-size="10.00" fill="grey"> &lt; Ticket * &gt;</text>
</g>
<!-- Node13 -->
<g id="Node000013" class="node">
<title>Node13</title>
<g id="a_Node000013"><a xlink:title=" ">
<polygon fill="white" stroke="transparent" points="472.13,-1452 356.13,-1452 356.13,-1403 472.13,-1403 472.13,-1452"/>
<text text-anchor="start" x="361.13" y="-1439.5" font-family="Helvetica,sans-Serif" font-size="10.00">std::vector&lt; Train * &gt;</text>
<text text-anchor="start" x="412.13" y="-1424.5" font-family="Helvetica,sans-Serif" font-size="10.00"> </text>
<text text-anchor="start" x="412.13" y="-1409.5" font-family="Helvetica,sans-Serif" font-size="10.00"> </text>
<polygon fill="#666666" stroke="#666666" points="356.13,-1434.5 356.13,-1434.5 472.13,-1434.5 472.13,-1434.5 356.13,-1434.5"/>
<polygon fill="#666666" stroke="#666666" points="356.13,-1419.5 356.13,-1419.5 472.13,-1419.5 472.13,-1419.5 356.13,-1419.5"/>
<polygon fill="none" stroke="#666666" points="356.13,-1403 356.13,-1452 472.13,-1452 472.13,-1403 356.13,-1403"/>
</a>
</g>
</g>
<!-- Node8&#45;&gt;Node13 -->
<g id="edge17_Node000013_Node000008" class="edge">
<title>Node8&#45;&gt;Node13</title>
<g id="a_edge17_Node000013_Node000008"><a xlink:title=" ">
<path fill="none" stroke="orange" d="M312.79,-1529.31C325.35,-1510.95 342.35,-1488.06 360.13,-1470 366.26,-1463.76 373.37,-1457.66 380.36,-1452.15"/>
<polygon fill="orange" stroke="orange" points="309.67,-1527.67 307,-1537.92 315.48,-1531.58 309.67,-1527.67"/>
</a>
</g>
<text text-anchor="middle" x="389.13" y="-1473" font-family="Helvetica,sans-Serif" font-size="10.00" fill="grey"> &lt; Train * &gt;</text>
</g>
<!-- Node9 -->
<g id="Node000009" class="node">
<title>Node9</title>
<g id="a_Node000009"><a xlink:title=" ">
<polygon fill="white" stroke="transparent" points="300.63,-1740.5 283.63,-1740.5 283.63,-1691.5 300.63,-1691.5 300.63,-1740.5"/>
<text text-anchor="start" x="289.13" y="-1728" font-family="Helvetica,sans-Serif" font-size="10.00">T</text>
<text text-anchor="start" x="290.63" y="-1713" font-family="Helvetica,sans-Serif" font-size="10.00"> </text>
<text text-anchor="start" x="290.63" y="-1698" font-family="Helvetica,sans-Serif" font-size="10.00"> </text>
<polygon fill="#666666" stroke="#666666" points="284.13,-1723 284.13,-1723 301.13,-1723 301.13,-1723 284.13,-1723"/>
<polygon fill="#666666" stroke="#666666" points="284.13,-1708 284.13,-1708 301.13,-1708 301.13,-1708 284.13,-1708"/>
<polygon fill="none" stroke="#666666" points="283.63,-1691.5 283.63,-1740.5 300.63,-1740.5 300.63,-1691.5 283.63,-1691.5"/>
</a>
</g>
</g>
<!-- Node9&#45;&gt;Node8 -->
<g id="edge8_Node000008_Node000009" class="edge">
<title>Node9&#45;&gt;Node8</title>
<g id="a_edge8_Node000008_Node000009"><a xlink:title=" ">
<path fill="none" stroke="#63b8ff" d="M292.13,-1691.33C292.13,-1666.65 292.13,-1627.67 292.13,-1599.24"/>
<polygon fill="none" stroke="#63b8ff" points="292.13,-1599.01 288.13,-1593.01 292.13,-1587.01 296.13,-1593.01 292.13,-1599.01"/>
</a>
</g>
<text text-anchor="middle" x="321.13" y="-1652.5" font-family="Helvetica,sans-Serif" font-size="10.00" fill="grey"> +elements</text>
</g>
<!-- Node10&#45;&gt;Node3 -->
<g id="edge9_Node000003_Node000010" class="edge">
<title>Node10&#45;&gt;Node3</title>
<g id="a_edge9_Node000003_Node000010"><a xlink:title=" ">
<path fill="none" stroke="#63b8ff" d="M350.8,-762.9C349.48,-750.87 348.19,-739.16 346.97,-727.97"/>
<polygon fill="none" stroke="#63b8ff" points="346.97,-727.96 342.34,-722.43 345.66,-716.03 350.29,-721.56 346.97,-727.96"/>
</a>
</g>
<text text-anchor="middle" x="367.13" y="-737" font-family="Helvetica,sans-Serif" font-size="10.00" fill="grey"> &#45;joueur</text>
</g>
<!-- Node11&#45;&gt;Node10 -->
<g id="edge10_Node000010_Node000011" class="edge">
<title>Node11&#45;&gt;Node10</title>
<g id="a_edge10_Node000010_Node000011"><a xlink:title=" ">
<path fill="none" stroke="#63b8ff" d="M283.48,-1403C288.17,-1385.62 295.13,-1359.86 303.21,-1329.94"/>
<polygon fill="none" stroke="#63b8ff" points="303.23,-1329.86 300.93,-1323.03 306.36,-1318.28 308.66,-1325.12 303.23,-1329.86"/>
</a>
</g>
<text text-anchor="middle" x="325.63" y="-1358" font-family="Helvetica,sans-Serif" font-size="10.00" fill="grey"> &#45;missions</text>
</g>
<!-- Node12&#45;&gt;Node11 -->
<g id="edge11_Node000011_Node000012" class="edge">
<title>Node12&#45;&gt;Node11</title>
<g id="a_edge11_Node000011_Node000012"><a xlink:title=" ">
<path fill="none" stroke="#63b8ff" d="M103.48,-1498.65C100.55,-1488.69 101.23,-1478.79 108.13,-1470 120.32,-1454.45 164.16,-1443.96 204.13,-1437.42"/>
<polygon fill="none" stroke="#63b8ff" points="204.24,-1437.4 209.55,-1432.52 216.1,-1435.55 210.78,-1440.43 204.24,-1437.4"/>
</a>
</g>
<text text-anchor="middle" x="137.13" y="-1473" font-family="Helvetica,sans-Serif" font-size="10.00" fill="grey"> +elements</text>
</g>
<!-- Node13&#45;&gt;Node10 -->
<g id="edge15_Node000010_Node000013" class="edge">
<title>Node13&#45;&gt;Node10</title>
<g id="a_edge15_Node000010_Node000013"><a xlink:title=" ">
<path fill="none" stroke="#63b8ff" d="M412.11,-1403C410.63,-1385.7 408.44,-1360.09 405.89,-1330.34"/>
<polygon fill="none" stroke="#63b8ff" points="405.88,-1330.24 401.38,-1324.6 404.85,-1318.28 409.35,-1323.92 405.88,-1330.24"/>
</a>
</g>
<text text-anchor="middle" x="441.13" y="-1358" font-family="Helvetica,sans-Serif" font-size="10.00" fill="grey"> &#45;mainCartes</text>
</g>
<!-- Node14 -->
<g id="Node000014" class="node">
<title>Node14</title>
<g id="a_Node000014"><a xlink:href="classTrain.html" target="_top" xlink:title="Représente un train dans le jeu.">
<polygon fill="white" stroke="transparent" points="524.13,-1613 356.13,-1613 356.13,-1512 524.13,-1512 524.13,-1613"/>
<text text-anchor="start" x="428.13" y="-1600.5" font-family="Helvetica,sans-Serif" font-size="10.00">Train</text>
<text text-anchor="start" x="362.63" y="-1585.5" font-family="Helvetica,sans-Serif" font-size="10.00">&#45;</text>
<text text-anchor="start" x="373.13" y="-1585.5" font-family="Helvetica,sans-Serif" font-size="10.00">enum couleurTrain couleur</text>
<text text-anchor="start" x="360.13" y="-1570.5" font-family="Helvetica,sans-Serif" font-size="10.00">+</text>
<text text-anchor="start" x="373.13" y="-1570.5" font-family="Helvetica,sans-Serif" font-size="10.00">enum couleurTrain getCouleur</text>
<text text-anchor="start" x="373.13" y="-1559.5" font-family="Helvetica,sans-Serif" font-size="10.00">Train() const</text>
<text text-anchor="start" x="360.13" y="-1544.5" font-family="Helvetica,sans-Serif" font-size="10.00">+</text>
<text text-anchor="start" x="373.13" y="-1544.5" font-family="Helvetica,sans-Serif" font-size="10.00">Train(enum couleurTrain</text>
<text text-anchor="start" x="373.13" y="-1533.5" font-family="Helvetica,sans-Serif" font-size="10.00"> couleur)</text>
<text text-anchor="start" x="360.13" y="-1518.5" font-family="Helvetica,sans-Serif" font-size="10.00">+</text>
<text text-anchor="start" x="373.13" y="-1518.5" font-family="Helvetica,sans-Serif" font-size="10.00">~Train()</text>
<polygon fill="#666666" stroke="#666666" points="356.13,-1595.5 356.13,-1595.5 524.13,-1595.5 524.13,-1595.5 356.13,-1595.5"/>
<polygon fill="#666666" stroke="#666666" points="356.13,-1580.5 356.13,-1580.5 371.13,-1580.5 371.13,-1580.5 356.13,-1580.5"/>
<polygon fill="#666666" stroke="#666666" points="371.13,-1580.5 371.13,-1580.5 524.13,-1580.5 524.13,-1580.5 371.13,-1580.5"/>
<polygon fill="none" stroke="#666666" points="356.13,-1512 356.13,-1613 524.13,-1613 524.13,-1512 356.13,-1512"/>
</a>
</g>
</g>
<!-- Node14&#45;&gt;Node13 -->
<g id="edge16_Node000013_Node000014" class="edge">
<title>Node14&#45;&gt;Node13</title>
<g id="a_edge16_Node000013_Node000014"><a xlink:title=" ">
<path fill="none" stroke="#63b8ff" d="M430.45,-1511.98C427.34,-1496.1 423.97,-1478.83 421.1,-1464.15"/>
<polygon fill="none" stroke="#63b8ff" points="421.03,-1463.78 415.95,-1458.66 418.72,-1452 423.8,-1457.13 421.03,-1463.78"/>
</a>
</g>
<text text-anchor="middle" x="452.13" y="-1473" font-family="Helvetica,sans-Serif" font-size="10.00" fill="grey"> +elements</text>
</g>
</g>
</svg>

<g id="navigator" transform="translate(0 0)" fill="#404254">
  <rect fill="#f2f5e9" fill-opacity="0.5" stroke="#606060" stroke-width=".5" x="0" y="0" width="60" height="60"/>
  <use id="zoomplus" xlink:href="#zoomPlus" x="17" y="9" onmousedown="handleZoom(evt,'in')"/>
  <use id="zoomminus" xlink:href="#zoomMin" x="42" y="9" onmousedown="handleZoom(evt,'out')"/>
  <use id="reset" xlink:href="#resetDef" x="30" y="36" onmousedown="handleReset()"/>
   <use id="arrowup" xlink:href="#arrowUp" x="0" y="0" onmousedown="handlePan(0,-1)"/>
  <use id="arrowright" xlink:href="#arrowRight" x="0" y="0" onmousedown="handlePan(1,0)"/>
  <use id="arrowdown" xlink:href="#arrowDown" x="0" y="0" onmousedown="handlePan(0,1)"/>
  <use id="arrowleft" xlink:href="#arrowLeft" x="0" y="0" onmousedown="handlePan(-1,0)"/>
</g>
<svg viewBox="0 0 15 15" width="100%" height="30px" preserveAspectRatio="xMaxYMin meet">
 <g id="arrow_out" transform="scale(0.3 0.3)">
  <a xlink:href="classPlateau__coll__graph_org.svg" target="_base">
   <rect id="button" ry="5" rx="5" y="6" x="6" height="38" width="38"
        fill="#f2f5e9" fill-opacity="0.5" stroke="#606060" stroke-width="1.0"/>
   <path id="arrow"
     d="M 11.500037,31.436501 C 11.940474,20.09759 22.043105,11.32322 32.158766,21.979434 L 37.068811,17.246167 C 37.068811,17.246167 37.088388,32 37.088388,32 L 22.160133,31.978069 C 22.160133,31.978069 26.997745,27.140456 26.997745,27.140456 C 18.528582,18.264221 13.291696,25.230495 11.500037,31.436501 z"
     style="fill:#404040;"/>
  </a>
 </g>
</svg>

<style type='text/css'>
<![CDATA[
[data-mouse-over-selected='false'] { opacity: 0.7; }
[data-mouse-over-selected='true']  { opacity: 1.0; }
]]>
</style>
<script type="application/ecmascript"><![CDATA[
document.addEventListener('DOMContentLoaded', (event) => {
  highlightEdges();
  highlightAdjacentNodes();
});
]]></script>
</svg>
