<?xml version="1.0" encoding="UTF-8" standalone="no"?>
<!DOCTYPE svg PUBLIC "-//W3C//DTD SVG 1.1//EN"
 "http://www.w3.org/Graphics/SVG/1.1/DTD/svg11.dtd">
<!-- Generated by graphviz version 2.43.0 (0)
 -->
<!-- Title: Joueur Pages: 1 -->
<svg width="545pt" height="1137pt"
 viewBox="0.00 0.00 544.50 1137.00" xmlns="http://www.w3.org/2000/svg" xmlns:xlink="http://www.w3.org/1999/xlink">
<g id="graph0" class="graph" transform="scale(1 1) rotate(0) translate(4 1133)">
<title>Joueur</title>
<!-- Node1 -->
<g id="Node000001" class="node">
<title>Node1</title>
<g id="a_Node000001"><a xlink:title="Représente un joueur d&#39;une partie des Aventuriers du Rail.">
<polygon fill="#999999" stroke="transparent" points="295.5,-555 93.5,-555 93.5,0 295.5,0 295.5,-555"/>
<text text-anchor="start" x="179" y="-542.5" font-family="Helvetica,sans-Serif" font-size="10.00">Joueur</text>
<text text-anchor="start" x="100" y="-527.5" font-family="Helvetica,sans-Serif" font-size="10.00">&#45;</text>
<text text-anchor="start" x="110.5" y="-527.5" font-family="Helvetica,sans-Serif" font-size="10.00">couleurJoueur couleur</text>
<text text-anchor="start" x="100" y="-512.5" font-family="Helvetica,sans-Serif" font-size="10.00">&#45;</text>
<text text-anchor="start" x="110.5" y="-512.5" font-family="Helvetica,sans-Serif" font-size="10.00">int nbWagons</text>
<text text-anchor="start" x="100" y="-497.5" font-family="Helvetica,sans-Serif" font-size="10.00">&#45;</text>
<text text-anchor="start" x="110.5" y="-497.5" font-family="Helvetica,sans-Serif" font-size="10.00">int ticketFini</text>
<text text-anchor="start" x="97.5" y="-482.5" font-family="Helvetica,sans-Serif" font-size="10.00">+</text>
<text text-anchor="start" x="110.5" y="-482.5" font-family="Helvetica,sans-Serif" font-size="10.00">void afficherMain(std</text>
<text text-anchor="start" x="110.5" y="-471.5" font-family="Helvetica,sans-Serif" font-size="10.00">::ostream &amp;os) const</text>
<text text-anchor="start" x="97.5" y="-456.5" font-family="Helvetica,sans-Serif" font-size="10.00">+</text>
<text text-anchor="start" x="110.5" y="-456.5" font-family="Helvetica,sans-Serif" font-size="10.00">bool aGagne() const</text>
<text text-anchor="start" x="97.5" y="-441.5" font-family="Helvetica,sans-Serif" font-size="10.00">+</text>
<text text-anchor="start" x="110.5" y="-441.5" font-family="Helvetica,sans-Serif" font-size="10.00">void ajouterCarte(Train</text>
<text text-anchor="start" x="110.5" y="-430.5" font-family="Helvetica,sans-Serif" font-size="10.00"> *carte)</text>
<text text-anchor="start" x="97.5" y="-415.5" font-family="Helvetica,sans-Serif" font-size="10.00">+</text>
<text text-anchor="start" x="110.5" y="-415.5" font-family="Helvetica,sans-Serif" font-size="10.00">void ajouterTicket(Ticket</text>
<text text-anchor="start" x="110.5" y="-404.5" font-family="Helvetica,sans-Serif" font-size="10.00"> *ticket)</text>
<text text-anchor="start" x="97.5" y="-389.5" font-family="Helvetica,sans-Serif" font-size="10.00">+</text>
<text text-anchor="start" x="110.5" y="-389.5" font-family="Helvetica,sans-Serif" font-size="10.00">bool defausserCartesVoie</text>
<text text-anchor="start" x="110.5" y="-378.5" font-family="Helvetica,sans-Serif" font-size="10.00">(couleurTrain couleurVoie,</text>
<text text-anchor="start" x="110.5" y="-367.5" font-family="Helvetica,sans-Serif" font-size="10.00"> int longueur)</text>
<text text-anchor="start" x="97.5" y="-352.5" font-family="Helvetica,sans-Serif" font-size="10.00">+</text>
<text text-anchor="start" x="110.5" y="-352.5" font-family="Helvetica,sans-Serif" font-size="10.00">std::vector&lt; Ticket *</text>
<text text-anchor="start" x="110.5" y="-341.5" font-family="Helvetica,sans-Serif" font-size="10.00"> &gt; defausserTickets()</text>
<text text-anchor="start" x="97.5" y="-326.5" font-family="Helvetica,sans-Serif" font-size="10.00">+</text>
<text text-anchor="start" x="110.5" y="-326.5" font-family="Helvetica,sans-Serif" font-size="10.00">couleurJoueur getCouleur</text>
<text text-anchor="start" x="110.5" y="-315.5" font-family="Helvetica,sans-Serif" font-size="10.00">() const</text>
<text text-anchor="start" x="97.5" y="-300.5" font-family="Helvetica,sans-Serif" font-size="10.00">+</text>
<text text-anchor="start" x="110.5" y="-300.5" font-family="Helvetica,sans-Serif" font-size="10.00">const std::vector&lt; Train</text>
<text text-anchor="start" x="110.5" y="-289.5" font-family="Helvetica,sans-Serif" font-size="10.00"> * &gt; &amp; getMainCartes() const</text>
<text text-anchor="start" x="97.5" y="-274.5" font-family="Helvetica,sans-Serif" font-size="10.00">+</text>
<text text-anchor="start" x="110.5" y="-274.5" font-family="Helvetica,sans-Serif" font-size="10.00">const std::vector&lt; Ticket</text>
<text text-anchor="start" x="110.5" y="-263.5" font-family="Helvetica,sans-Serif" font-size="10.00"> * &gt; &amp; getMissions() const</text>
<text text-anchor="start" x="97.5" y="-248.5" font-family="Helvetica,sans-Serif" font-size="10.00">+</text>
<text text-anchor="start" x="110.5" y="-248.5" font-family="Helvetica,sans-Serif" font-size="10.00">int getNbCartes(couleurTrain</text>
<text text-anchor="start" x="110.5" y="-237.5" font-family="Helvetica,sans-Serif" font-size="10.00"> couleur) const</text>
<text text-anchor="start" x="97.5" y="-222.5" font-family="Helvetica,sans-Serif" font-size="10.00">+</text>
<text text-anchor="start" x="110.5" y="-222.5" font-family="Helvetica,sans-Serif" font-size="10.00">int getNbCartesTotales</text>
<text text-anchor="start" x="110.5" y="-211.5" font-family="Helvetica,sans-Serif" font-size="10.00">() const</text>
<text text-anchor="start" x="97.5" y="-196.5" font-family="Helvetica,sans-Serif" font-size="10.00">+</text>
<text text-anchor="start" x="110.5" y="-196.5" font-family="Helvetica,sans-Serif" font-size="10.00">int getNbWagons() const</text>
<text text-anchor="start" x="97.5" y="-181.5" font-family="Helvetica,sans-Serif" font-size="10.00">+</text>
<text text-anchor="start" x="110.5" y="-181.5" font-family="Helvetica,sans-Serif" font-size="10.00">const std::string &amp; getNom</text>
<text text-anchor="start" x="110.5" y="-170.5" font-family="Helvetica,sans-Serif" font-size="10.00">() const</text>
<text text-anchor="start" x="97.5" y="-155.5" font-family="Helvetica,sans-Serif" font-size="10.00">+</text>
<text text-anchor="start" x="110.5" y="-155.5" font-family="Helvetica,sans-Serif" font-size="10.00">int getTicketFini() const</text>
<text text-anchor="start" x="97.5" y="-140.5" font-family="Helvetica,sans-Serif" font-size="10.00">+</text>
<text text-anchor="start" x="110.5" y="-140.5" font-family="Helvetica,sans-Serif" font-size="10.00">Joueur(const std::string</text>
<text text-anchor="start" x="110.5" y="-129.5" font-family="Helvetica,sans-Serif" font-size="10.00"> &amp;nom, couleurJoueur couleur)</text>
<text text-anchor="start" x="97.5" y="-114.5" font-family="Helvetica,sans-Serif" font-size="10.00">+</text>
<text text-anchor="start" x="110.5" y="-114.5" font-family="Helvetica,sans-Serif" font-size="10.00">bool naPlusDeWagons() const</text>
<text text-anchor="start" x="97.5" y="-99.5" font-family="Helvetica,sans-Serif" font-size="10.00">+</text>
<text text-anchor="start" x="110.5" y="-99.5" font-family="Helvetica,sans-Serif" font-size="10.00">bool peutPrendreVoie(couleur</text>
<text text-anchor="start" x="110.5" y="-88.5" font-family="Helvetica,sans-Serif" font-size="10.00">Train couleurVoie, int longueur) const</text>
<text text-anchor="start" x="97.5" y="-73.5" font-family="Helvetica,sans-Serif" font-size="10.00">+</text>
<text text-anchor="start" x="110.5" y="-73.5" font-family="Helvetica,sans-Serif" font-size="10.00">bool retirerCartes(couleurTrain</text>
<text text-anchor="start" x="110.5" y="-62.5" font-family="Helvetica,sans-Serif" font-size="10.00"> couleur, int quantite)</text>
<text text-anchor="start" x="97.5" y="-47.5" font-family="Helvetica,sans-Serif" font-size="10.00">+</text>
<text text-anchor="start" x="110.5" y="-47.5" font-family="Helvetica,sans-Serif" font-size="10.00">bool utiliserWagons(int nb)</text>
<text text-anchor="start" x="97.5" y="-32.5" font-family="Helvetica,sans-Serif" font-size="10.00">+</text>
<text text-anchor="start" x="110.5" y="-32.5" font-family="Helvetica,sans-Serif" font-size="10.00">bool validerTicket(Ticket</text>
<text text-anchor="start" x="110.5" y="-21.5" font-family="Helvetica,sans-Serif" font-size="10.00"> *ticket, Plateau &amp;plateau)</text>
<text text-anchor="start" x="97.5" y="-6.5" font-family="Helvetica,sans-Serif" font-size="10.00">+</text>
<text text-anchor="start" x="110.5" y="-6.5" font-family="Helvetica,sans-Serif" font-size="10.00">~Joueur()=default</text>
<polygon fill="#666666" stroke="#666666" points="93.5,-537.5 93.5,-537.5 295.5,-537.5 295.5,-537.5 93.5,-537.5"/>
<polygon fill="#666666" stroke="#666666" points="93.5,-492.5 93.5,-492.5 108.5,-492.5 108.5,-492.5 93.5,-492.5"/>
<polygon fill="#666666" stroke="#666666" points="108.5,-492.5 108.5,-492.5 295.5,-492.5 295.5,-492.5 108.5,-492.5"/>
<polygon fill="none" stroke="#666666" points="93.5,0 93.5,-555 295.5,-555 295.5,0 93.5,0"/>
</a>
</g>
</g>
<!-- Node2 -->
<g id="Node000002" class="node">
<title>Node2</title>
<g id="a_Node000002"><a xlink:title=" ">
<polygon fill="white" stroke="transparent" points="405.5,-651 283.5,-651 283.5,-602 405.5,-602 405.5,-651"/>
<text text-anchor="start" x="288.5" y="-638.5" font-family="Helvetica,sans-Serif" font-size="10.00">std::vector&lt; Ticket * &gt;</text>
<text text-anchor="start" x="342.5" y="-623.5" font-family="Helvetica,sans-Serif" font-size="10.00"> </text>
<text text-anchor="start" x="342.5" y="-608.5" font-family="Helvetica,sans-Serif" font-size="10.00"> </text>
<polygon fill="#666666" stroke="#666666" points="283.5,-633.5 283.5,-633.5 405.5,-633.5 405.5,-633.5 283.5,-633.5"/>
<polygon fill="#666666" stroke="#666666" points="283.5,-618.5 283.5,-618.5 405.5,-618.5 405.5,-618.5 283.5,-618.5"/>
<polygon fill="none" stroke="#666666" points="283.5,-602 283.5,-651 405.5,-651 405.5,-602 283.5,-602"/>
</a>
</g>
</g>
<!-- Node2&#45;&gt;Node1 -->
<g id="edge1_Node000001_Node000002" class="edge">
<title>Node2&#45;&gt;Node1</title>
<g id="a_edge1_Node000001_Node000002"><a xlink:title=" ">
<path fill="none" stroke="#63b8ff" d="M334.31,-601.92C326.32,-583.43 314.27,-555.57 300.54,-523.81"/>
<polygon fill="none" stroke="#63b8ff" points="300.38,-523.44 294.33,-519.52 295.62,-512.43 301.67,-516.35 300.38,-523.44"/>
</a>
</g>
<text text-anchor="middle" x="352" y="-576" font-family="Helvetica,sans-Serif" font-size="10.00" fill="grey"> &#45;missions</text>
</g>
<!-- Node3 -->
<g id="Node000003" class="node">
<title>Node3</title>
<g id="a_Node000003"><a xlink:href="classTicket.html" target="_top" xlink:title="Représente un ticket dans le jeu.">
<polygon fill="white" stroke="transparent" points="536.5,-825 394.5,-825 394.5,-698 536.5,-698 536.5,-825"/>
<text text-anchor="start" x="450.5" y="-812.5" font-family="Helvetica,sans-Serif" font-size="10.00">Ticket</text>
<text text-anchor="start" x="463.5" y="-797.5" font-family="Helvetica,sans-Serif" font-size="10.00"> </text>
<text text-anchor="start" x="398.5" y="-782.5" font-family="Helvetica,sans-Serif" font-size="10.00">+</text>
<text text-anchor="start" x="411.5" y="-782.5" font-family="Helvetica,sans-Serif" font-size="10.00">Ville * getVilleArrivee</text>
<text text-anchor="start" x="411.5" y="-771.5" font-family="Helvetica,sans-Serif" font-size="10.00">() const</text>
<text text-anchor="start" x="398.5" y="-756.5" font-family="Helvetica,sans-Serif" font-size="10.00">+</text>
<text text-anchor="start" x="411.5" y="-756.5" font-family="Helvetica,sans-Serif" font-size="10.00">Ville * getVilleDepart</text>
<text text-anchor="start" x="411.5" y="-745.5" font-family="Helvetica,sans-Serif" font-size="10.00">() const</text>
<text text-anchor="start" x="398.5" y="-730.5" font-family="Helvetica,sans-Serif" font-size="10.00">+</text>
<text text-anchor="start" x="411.5" y="-730.5" font-family="Helvetica,sans-Serif" font-size="10.00">Ticket(Ville *villeDepart,</text>
<text text-anchor="start" x="411.5" y="-719.5" font-family="Helvetica,sans-Serif" font-size="10.00"> Ville *villeArrivee)</text>
<text text-anchor="start" x="398.5" y="-704.5" font-family="Helvetica,sans-Serif" font-size="10.00">+</text>
<text text-anchor="start" x="411.5" y="-704.5" font-family="Helvetica,sans-Serif" font-size="10.00">~Ticket()</text>
<polygon fill="#666666" stroke="#666666" points="394.5,-807.5 394.5,-807.5 536.5,-807.5 536.5,-807.5 394.5,-807.5"/>
<polygon fill="#666666" stroke="#666666" points="394.5,-792.5 394.5,-792.5 536.5,-792.5 536.5,-792.5 394.5,-792.5"/>
<polygon fill="none" stroke="#666666" points="394.5,-698 394.5,-825 536.5,-825 536.5,-698 394.5,-698"/>
</a>
</g>
</g>
<!-- Node3&#45;&gt;Node2 -->
<g id="edge2_Node000002_Node000003" class="edge">
<title>Node3&#45;&gt;Node2</title>
<g id="a_edge2_Node000002_Node000003"><a xlink:title=" ">
<path fill="none" stroke="#63b8ff" d="M430.8,-697.79C423.78,-687.6 415.94,-677.59 407.5,-669 403.89,-665.32 399.89,-661.79 395.72,-658.46"/>
<polygon fill="none" stroke="#63b8ff" points="395.39,-658.21 388.19,-657.83 385.77,-651.03 392.97,-651.41 395.39,-658.21"/>
</a>
</g>
<text text-anchor="middle" x="445.5" y="-672" font-family="Helvetica,sans-Serif" font-size="10.00" fill="grey"> +elements</text>
</g>
<!-- Node4 -->
<g id="Node000004" class="node">
<title>Node4</title>
<g id="a_Node000004"><a xlink:href="classVille.html" target="_top" xlink:title=" ">
<polygon fill="white" stroke="transparent" points="507.5,-947 379.5,-947 379.5,-883 507.5,-883 507.5,-947"/>
<text text-anchor="start" x="432.5" y="-935" font-family="Helvetica,sans-Serif" font-size="10.00">Ville</text>
<text text-anchor="start" x="441.5" y="-920" font-family="Helvetica,sans-Serif" font-size="10.00"> </text>
<text text-anchor="start" x="383.5" y="-905" font-family="Helvetica,sans-Serif" font-size="10.00">+</text>
<text text-anchor="start" x="396.5" y="-905" font-family="Helvetica,sans-Serif" font-size="10.00">string getNom() const</text>
<text text-anchor="start" x="383.5" y="-890" font-family="Helvetica,sans-Serif" font-size="10.00">+</text>
<text text-anchor="start" x="396.5" y="-890" font-family="Helvetica,sans-Serif" font-size="10.00">Ville(string nom)</text>
<polygon fill="#666666" stroke="#666666" points="379.5,-930 379.5,-930 507.5,-930 507.5,-930 379.5,-930"/>
<polygon fill="#666666" stroke="#666666" points="379.5,-915 379.5,-915 507.5,-915 507.5,-915 379.5,-915"/>
<polygon fill="none" stroke="#666666" points="379.5,-883 379.5,-947 507.5,-947 507.5,-883 379.5,-883"/>
</a>
</g>
</g>
<!-- Node4&#45;&gt;Node3 -->
<g id="edge3_Node000003_Node000004" class="edge">
<title>Node4&#45;&gt;Node3</title>
<g id="a_edge3_Node000003_Node000004"><a xlink:title=" ">
<path fill="none" stroke="#63b8ff" d="M448.01,-882.98C449.94,-869.66 452.29,-853.48 454.63,-837.34"/>
<polygon fill="none" stroke="#63b8ff" points="454.69,-836.94 451.59,-830.43 456.41,-825.07 459.51,-831.58 454.69,-836.94"/>
</a>
</g>
<text text-anchor="middle" x="484" y="-857" font-family="Helvetica,sans-Serif" font-size="10.00" fill="grey"> &#45;villeArrivee</text>
<text text-anchor="middle" x="484" y="-846" font-family="Helvetica,sans-Serif" font-size="10.00" fill="grey">&#45;villeDepart</text>
</g>
<!-- Node5 -->
<g id="Node000005" class="node">
<title>Node5</title>
<g id="a_Node000005"><a xlink:title=" ">
<polygon fill="white" stroke="transparent" points="97,-1043 38,-1043 38,-994 97,-994 97,-1043"/>
<text text-anchor="start" x="43.5" y="-1030.5" font-family="Helvetica,sans-Serif" font-size="10.00">std::string</text>
<text text-anchor="start" x="66" y="-1015.5" font-family="Helvetica,sans-Serif" font-size="10.00"> </text>
<text text-anchor="start" x="66" y="-1000.5" font-family="Helvetica,sans-Serif" font-size="10.00"> </text>
<polygon fill="#666666" stroke="#666666" points="38.5,-1025.5 38.5,-1025.5 97.5,-1025.5 97.5,-1025.5 38.5,-1025.5"/>
<polygon fill="#666666" stroke="#666666" points="38.5,-1010.5 38.5,-1010.5 97.5,-1010.5 97.5,-1010.5 38.5,-1010.5"/>
<polygon fill="none" stroke="#666666" points="38,-994 38,-1043 97,-1043 97,-994 38,-994"/>
</a>
</g>
</g>
<!-- Node5&#45;&gt;Node1 -->
<g id="edge8_Node000001_Node000005" class="edge">
<title>Node5&#45;&gt;Node1</title>
<g id="a_edge8_Node000001_Node000005"><a xlink:title=" ">
<path fill="none" stroke="#63b8ff" d="M61.63,-993.88C57.07,-973.41 51.5,-942.94 51.5,-916 51.5,-916 51.5,-916 51.5,-625.5 51.5,-569.8 67.44,-512.62 88.68,-461.14"/>
<polygon fill="none" stroke="#63b8ff" points="88.76,-460.95 87.42,-453.87 93.44,-449.9 94.78,-456.99 88.76,-460.95"/>
</a>
</g>
<text text-anchor="middle" x="66" y="-759" font-family="Helvetica,sans-Serif" font-size="10.00" fill="grey"> &#45;nom</text>
</g>
<!-- Node5&#45;&gt;Node4 -->
<g id="edge4_Node000004_Node000005" class="edge">
<title>Node5&#45;&gt;Node4</title>
<g id="a_edge4_Node000004_Node000005"><a xlink:title=" ">
<path fill="none" stroke="#63b8ff" d="M97.21,-1010.76C148.69,-998.93 257.64,-973.19 348.5,-947 354.75,-945.2 361.21,-943.26 367.68,-941.26"/>
<polygon fill="none" stroke="#63b8ff" points="367.85,-941.21 372.38,-935.6 379.3,-937.62 374.77,-943.23 367.85,-941.21"/>
</a>
</g>
<text text-anchor="middle" x="295" y="-968" font-family="Helvetica,sans-Serif" font-size="10.00" fill="grey"> &#45;nom</text>
</g>
<!-- Node6 -->
<g id="Node000006" class="node">
<title>Node6</title>
<g id="a_Node000006"><a xlink:title=" ">
<polygon fill="white" stroke="transparent" points="135,-1129 0,-1129 0,-1080 135,-1080 135,-1129"/>
<text text-anchor="start" x="5.5" y="-1116.5" font-family="Helvetica,sans-Serif" font-size="10.00">std::basic_string&lt; Char &gt;</text>
<text text-anchor="start" x="66" y="-1101.5" font-family="Helvetica,sans-Serif" font-size="10.00"> </text>
<text text-anchor="start" x="66" y="-1086.5" font-family="Helvetica,sans-Serif" font-size="10.00"> </text>
<polygon fill="#666666" stroke="#666666" points="0.5,-1111.5 0.5,-1111.5 135.5,-1111.5 135.5,-1111.5 0.5,-1111.5"/>
<polygon fill="#666666" stroke="#666666" points="0.5,-1096.5 0.5,-1096.5 135.5,-1096.5 135.5,-1096.5 0.5,-1096.5"/>
<polygon fill="none" stroke="#666666" points="0,-1080 0,-1129 135,-1129 135,-1080 0,-1080"/>
</a>
</g>
</g>
<!-- Node6&#45;&gt;Node5 -->
<g id="edge5_Node000005_Node000006" class="edge">
<title>Node6&#45;&gt;Node5</title>
<g id="a_edge5_Node000005_Node000006"><a xlink:title=" ">
<path fill="none" stroke="#63b8ff" d="M67.5,-1069.57C67.5,-1060.69 67.5,-1051.32 67.5,-1043.12"/>
<polygon fill="none" stroke="#63b8ff" points="64,-1069.65 67.5,-1079.65 71,-1069.65 64,-1069.65"/>
</a>
</g>
</g>
<!-- Node7 -->
<g id="Node000007" class="node">
<title>Node7</title>
<g id="a_Node000007"><a xlink:title=" ">
<polygon fill="white" stroke="transparent" points="376,-786 285,-786 285,-737 376,-737 376,-786"/>
<text text-anchor="start" x="290.5" y="-773.5" font-family="Helvetica,sans-Serif" font-size="10.00">std::vector&lt; T &gt;</text>
<text text-anchor="start" x="329" y="-758.5" font-family="Helvetica,sans-Serif" font-size="10.00"> </text>
<text text-anchor="start" x="329" y="-743.5" font-family="Helvetica,sans-Serif" font-size="10.00"> </text>
<polygon fill="#666666" stroke="#666666" points="285.5,-768.5 285.5,-768.5 376.5,-768.5 376.5,-768.5 285.5,-768.5"/>
<polygon fill="#666666" stroke="#666666" points="285.5,-753.5 285.5,-753.5 376.5,-753.5 376.5,-753.5 285.5,-753.5"/>
<polygon fill="none" stroke="#666666" points="285,-737 285,-786 376,-786 376,-737 285,-737"/>
</a>
</g>
</g>
<!-- Node7&#45;&gt;Node2 -->
<g id="edge6_Node000002_Node000007" class="edge">
<title>Node7&#45;&gt;Node2</title>
<g id="a_edge6_Node000002_Node000007"><a xlink:title=" ">
<path fill="none" stroke="orange" d="M334.05,-726.76C336.54,-703.11 339.81,-672.09 342.02,-651.07"/>
<polygon fill="orange" stroke="orange" points="330.57,-726.41 333,-736.72 337.53,-727.14 330.57,-726.41"/>
</a>
</g>
<text text-anchor="middle" x="371.5" y="-672" font-family="Helvetica,sans-Serif" font-size="10.00" fill="grey"> &lt; Ticket * &gt;</text>
</g>
<!-- Node9 -->
<g id="Node000009" class="node">
<title>Node9</title>
<g id="a_Node000009"><a xlink:title=" ">
<polygon fill="white" stroke="transparent" points="252.5,-651 136.5,-651 136.5,-602 252.5,-602 252.5,-651"/>
<text text-anchor="start" x="141.5" y="-638.5" font-family="Helvetica,sans-Serif" font-size="10.00">std::vector&lt; Train * &gt;</text>
<text text-anchor="start" x="192.5" y="-623.5" font-family="Helvetica,sans-Serif" font-size="10.00"> </text>
<text text-anchor="start" x="192.5" y="-608.5" font-family="Helvetica,sans-Serif" font-size="10.00"> </text>
<polygon fill="#666666" stroke="#666666" points="136.5,-633.5 136.5,-633.5 252.5,-633.5 252.5,-633.5 136.5,-633.5"/>
<polygon fill="#666666" stroke="#666666" points="136.5,-618.5 136.5,-618.5 252.5,-618.5 252.5,-618.5 136.5,-618.5"/>
<polygon fill="none" stroke="#666666" points="136.5,-602 136.5,-651 252.5,-651 252.5,-602 136.5,-602"/>
</a>
</g>
</g>
<!-- Node7&#45;&gt;Node9 -->
<g id="edge11_Node000009_Node000007" class="edge">
<title>Node7&#45;&gt;Node9</title>
<g id="a_edge11_Node000009_Node000007"><a xlink:title=" ">
<path fill="none" stroke="orange" d="M304.55,-729.38C295.62,-719.12 285.38,-707.83 275.5,-698 258.98,-681.57 239.28,-664.37 223.44,-651.08"/>
<polygon fill="orange" stroke="orange" points="301.92,-731.68 311.09,-736.98 307.22,-727.12 301.92,-731.68"/>
</a>
</g>
<text text-anchor="middle" x="285.5" y="-672" font-family="Helvetica,sans-Serif" font-size="10.00" fill="grey"> &lt; Train * &gt;</text>
</g>
<!-- Node8 -->
<g id="Node000008" class="node">
<title>Node8</title>
<g id="a_Node000008"><a xlink:title=" ">
<polygon fill="white" stroke="transparent" points="339,-939.5 322,-939.5 322,-890.5 339,-890.5 339,-939.5"/>
<text text-anchor="start" x="327.5" y="-927" font-family="Helvetica,sans-Serif" font-size="10.00">T</text>
<text text-anchor="start" x="329" y="-912" font-family="Helvetica,sans-Serif" font-size="10.00"> </text>
<text text-anchor="start" x="329" y="-897" font-family="Helvetica,sans-Serif" font-size="10.00"> </text>
<polygon fill="#666666" stroke="#666666" points="322.5,-922 322.5,-922 339.5,-922 339.5,-922 322.5,-922"/>
<polygon fill="#666666" stroke="#666666" points="322.5,-907 322.5,-907 339.5,-907 339.5,-907 322.5,-907"/>
<polygon fill="none" stroke="#666666" points="322,-890.5 322,-939.5 339,-939.5 339,-890.5 322,-890.5"/>
</a>
</g>
</g>
<!-- Node8&#45;&gt;Node7 -->
<g id="edge7_Node000007_Node000008" class="edge">
<title>Node8&#45;&gt;Node7</title>
<g id="a_edge7_Node000007_Node000008"><a xlink:title=" ">
<path fill="none" stroke="#63b8ff" d="M330.5,-890.33C330.5,-865.65 330.5,-826.67 330.5,-798.24"/>
<polygon fill="none" stroke="#63b8ff" points="330.5,-798.01 326.5,-792.01 330.5,-786.01 334.5,-792.01 330.5,-798.01"/>
</a>
</g>
<text text-anchor="middle" x="359.5" y="-851.5" font-family="Helvetica,sans-Serif" font-size="10.00" fill="grey"> +elements</text>
</g>
<!-- Node9&#45;&gt;Node1 -->
<g id="edge9_Node000001_Node000009" class="edge">
<title>Node9&#45;&gt;Node1</title>
<g id="a_edge9_Node000001_Node000009"><a xlink:title=" ">
<path fill="none" stroke="#63b8ff" d="M194.5,-601.92C194.5,-592.6 194.5,-580.9 194.5,-567.52"/>
<polygon fill="none" stroke="#63b8ff" points="194.5,-567.34 190.5,-561.34 194.5,-555.34 198.5,-561.34 194.5,-567.34"/>
</a>
</g>
<text text-anchor="middle" x="226.5" y="-576" font-family="Helvetica,sans-Serif" font-size="10.00" fill="grey"> &#45;mainCartes</text>
</g>
<!-- Node10 -->
<g id="Node000010" class="node">
<title>Node10</title>
<g id="a_Node000010"><a xlink:href="classTrain.html" target="_top" xlink:title="Représente un train dans le jeu.">
<polygon fill="white" stroke="transparent" points="266.5,-812 98.5,-812 98.5,-711 266.5,-711 266.5,-812"/>
<text text-anchor="start" x="170.5" y="-799.5" font-family="Helvetica,sans-Serif" font-size="10.00">Train</text>
<text text-anchor="start" x="105" y="-784.5" font-family="Helvetica,sans-Serif" font-size="10.00">&#45;</text>
<text text-anchor="start" x="115.5" y="-784.5" font-family="Helvetica,sans-Serif" font-size="10.00">enum couleurTrain couleur</text>
<text text-anchor="start" x="102.5" y="-769.5" font-family="Helvetica,sans-Serif" font-size="10.00">+</text>
<text text-anchor="start" x="115.5" y="-769.5" font-family="Helvetica,sans-Serif" font-size="10.00">enum couleurTrain getCouleur</text>
<text text-anchor="start" x="115.5" y="-758.5" font-family="Helvetica,sans-Serif" font-size="10.00">Train() const</text>
<text text-anchor="start" x="102.5" y="-743.5" font-family="Helvetica,sans-Serif" font-size="10.00">+</text>
<text text-anchor="start" x="115.5" y="-743.5" font-family="Helvetica,sans-Serif" font-size="10.00">Train(enum couleurTrain</text>
<text text-anchor="start" x="115.5" y="-732.5" font-family="Helvetica,sans-Serif" font-size="10.00"> couleur)</text>
<text text-anchor="start" x="102.5" y="-717.5" font-family="Helvetica,sans-Serif" font-size="10.00">+</text>
<text text-anchor="start" x="115.5" y="-717.5" font-family="Helvetica,sans-Serif" font-size="10.00">~Train()</text>
<polygon fill="#666666" stroke="#666666" points="98.5,-794.5 98.5,-794.5 266.5,-794.5 266.5,-794.5 98.5,-794.5"/>
<polygon fill="#666666" stroke="#666666" points="98.5,-779.5 98.5,-779.5 113.5,-779.5 113.5,-779.5 98.5,-779.5"/>
<polygon fill="#666666" stroke="#666666" points="113.5,-779.5 113.5,-779.5 266.5,-779.5 266.5,-779.5 113.5,-779.5"/>
<polygon fill="none" stroke="#666666" points="98.5,-711 98.5,-812 266.5,-812 266.5,-711 98.5,-711"/>
</a>
</g>
</g>
<!-- Node10&#45;&gt;Node9 -->
<g id="edge10_Node000009_Node000010" class="edge">
<title>Node10&#45;&gt;Node9</title>
<g id="a_edge10_Node000009_Node000010"><a xlink:title=" ">
<path fill="none" stroke="#63b8ff" d="M180.8,-710.95C180.94,-697.31 181.66,-682.54 183.5,-669 183.76,-667.11 184.07,-665.18 184.43,-663.24"/>
<polygon fill="none" stroke="#63b8ff" points="184.45,-663.14 181.86,-656.42 187.08,-651.43 189.67,-658.16 184.45,-663.14"/>
</a>
</g>
<text text-anchor="middle" x="212.5" y="-672" font-family="Helvetica,sans-Serif" font-size="10.00" fill="grey"> +elements</text>
</g>
</g>
</svg>
