<?xml version="1.0" encoding="UTF-8" standalone="no"?>
<!DOCTYPE svg PUBLIC "-//W3C//DTD SVG 1.1//EN"
 "http://www.w3.org/Graphics/SVG/1.1/DTD/svg11.dtd">
<!-- Generated by graphviz version 2.43.0 (0)
 -->
<!-- Title: Ville Pages: 1 -->
<svg width="143pt" height="254pt"
 viewBox="0.00 0.00 143.00 254.00" xmlns="http://www.w3.org/2000/svg" xmlns:xlink="http://www.w3.org/1999/xlink">

<svg id="main" version="1.1" xmlns="http://www.w3.org/2000/svg" xmlns:xlink="http://www.w3.org/1999/xlink" xml:space="preserve" onload="init(evt)">
<style type="text/css"><![CDATA[
.node, .edge {opacity: 0.7;}
.node.selected, .edge.selected {opacity: 1;}
.edge:hover path { stroke: red; }
.edge:hover polygon { stroke: red; fill: red; }
]]></style>
<script type="application/ecmascript" xlink:href="svg.min.js"/>
<svg id="graph" class="graph">
<g id="graph0" class="graph" transform="scale(1 1) rotate(0) translate(4 250)">
<title>Ville</title>
<!-- Node1 -->
<g id="Node000001" class="node">
<title>Node1</title>
<g id="a_Node000001"><a xlink:title=" ">
<polygon fill="#999999" stroke="transparent" points="131.5,-64 3.5,-64 3.5,0 131.5,0 131.5,-64"/>
<text text-anchor="start" x="56.5" y="-52" font-family="Helvetica,sans-Serif" font-size="10.00">Ville</text>
<text text-anchor="start" x="65.5" y="-37" font-family="Helvetica,sans-Serif" font-size="10.00"> </text>
<text text-anchor="start" x="7.5" y="-22" font-family="Helvetica,sans-Serif" font-size="10.00">+</text>
<text text-anchor="start" x="20.5" y="-22" font-family="Helvetica,sans-Serif" font-size="10.00">string getNom() const</text>
<text text-anchor="start" x="7.5" y="-7" font-family="Helvetica,sans-Serif" font-size="10.00">+</text>
<text text-anchor="start" x="20.5" y="-7" font-family="Helvetica,sans-Serif" font-size="10.00">Ville(string nom)</text>
<polygon fill="#666666" stroke="#666666" points="3.5,-47 3.5,-47 131.5,-47 131.5,-47 3.5,-47"/>
<polygon fill="#666666" stroke="#666666" points="3.5,-32 3.5,-32 131.5,-32 131.5,-32 3.5,-32"/>
<polygon fill="none" stroke="#666666" points="3.5,0 3.5,-64 131.5,-64 131.5,0 3.5,0"/>
</a>
</g>
</g>
<!-- Node2 -->
<g id="Node000002" class="node">
<title>Node2</title>
<g id="a_Node000002"><a xlink:title=" ">
<polygon fill="white" stroke="transparent" points="97,-160 38,-160 38,-111 97,-111 97,-160"/>
<text text-anchor="start" x="43.5" y="-147.5" font-family="Helvetica,sans-Serif" font-size="10.00">std::string</text>
<text text-anchor="start" x="66" y="-132.5" font-family="Helvetica,sans-Serif" font-size="10.00"> </text>
<text text-anchor="start" x="66" y="-117.5" font-family="Helvetica,sans-Serif" font-size="10.00"> </text>
<polygon fill="#666666" stroke="#666666" points="38.5,-142.5 38.5,-142.5 97.5,-142.5 97.5,-142.5 38.5,-142.5"/>
<polygon fill="#666666" stroke="#666666" points="38.5,-127.5 38.5,-127.5 97.5,-127.5 97.5,-127.5 38.5,-127.5"/>
<polygon fill="none" stroke="#666666" points="38,-111 38,-160 97,-160 97,-111 38,-111"/>
</a>
</g>
</g>
<!-- Node2&#45;&gt;Node1 -->
<g id="edge1_Node000001_Node000002" class="edge">
<title>Node2&#45;&gt;Node1</title>
<g id="a_edge1_Node000001_Node000002"><a xlink:title=" ">
<path fill="none" stroke="#63b8ff" d="M67.5,-110.96C67.5,-100.61 67.5,-88.13 67.5,-76.21"/>
<polygon fill="none" stroke="#63b8ff" points="67.5,-76.11 63.5,-70.11 67.5,-64.11 71.5,-70.11 67.5,-76.11"/>
</a>
</g>
<text text-anchor="middle" x="82" y="-85" font-family="Helvetica,sans-Serif" font-size="10.00" fill="grey"> &#45;nom</text>
</g>
<!-- Node3 -->
<g id="Node000003" class="node">
<title>Node3</title>
<g id="a_Node000003"><a xlink:title=" ">
<polygon fill="white" stroke="transparent" points="135,-246 0,-246 0,-197 135,-197 135,-246"/>
<text text-anchor="start" x="5.5" y="-233.5" font-family="Helvetica,sans-Serif" font-size="10.00">std::basic_string&lt; Char &gt;</text>
<text text-anchor="start" x="66" y="-218.5" font-family="Helvetica,sans-Serif" font-size="10.00"> </text>
<text text-anchor="start" x="66" y="-203.5" font-family="Helvetica,sans-Serif" font-size="10.00"> </text>
<polygon fill="#666666" stroke="#666666" points="0.5,-228.5 0.5,-228.5 135.5,-228.5 135.5,-228.5 0.5,-228.5"/>
<polygon fill="#666666" stroke="#666666" points="0.5,-213.5 0.5,-213.5 135.5,-213.5 135.5,-213.5 0.5,-213.5"/>
<polygon fill="none" stroke="#666666" points="0,-197 0,-246 135,-246 135,-197 0,-197"/>
</a>
</g>
</g>
<!-- Node3&#45;&gt;Node2 -->
<g id="edge2_Node000002_Node000003" class="edge">
<title>Node3&#45;&gt;Node2</title>
<g id="a_edge2_Node000002_Node000003"><a xlink:title=" ">
<path fill="none" stroke="#63b8ff" d="M67.5,-186.57C67.5,-177.69 67.5,-168.32 67.5,-160.12"/>
<polygon fill="none" stroke="#63b8ff" points="64,-186.65 67.5,-196.65 71,-186.65 64,-186.65"/>
</a>
</g>
</g>
</g>
</svg>
</svg>

<style type='text/css'>
<![CDATA[
[data-mouse-over-selected='false'] { opacity: 0.7; }
[data-mouse-over-selected='true']  { opacity: 1.0; }
]]>
</style>
<script type="application/ecmascript"><![CDATA[
document.addEventListener('DOMContentLoaded', (event) => {
  highlightEdges();
  highlightAdjacentNodes();
});
]]></script>
</svg>
