<?xml version="1.0" encoding="UTF-8" standalone="no"?>
<!DOCTYPE svg PUBLIC "-//W3C//DTD SVG 1.1//EN"
 "http://www.w3.org/Graphics/SVG/1.1/DTD/svg11.dtd">
<!-- Generated by graphviz version 2.43.0 (0)
 -->
<!-- Title: VoieFerree Pages: 1 -->
<!--zoomable 1378 -->

<svg id="main" version="1.1" xmlns="http://www.w3.org/2000/svg" xmlns:xlink="http://www.w3.org/1999/xlink" xml:space="preserve" onload="init(evt)">
<style type="text/css"><![CDATA[
.node, .edge {opacity: 0.7;}
.node.selected, .edge.selected {opacity: 1;}
.edge:hover path { stroke: red; }
.edge:hover polygon { stroke: red; fill: red; }
]]></style>

<defs>
  <circle id="rim" cx="0" cy="0" r="7"/>
  <circle id="rim2" cx="0" cy="0" r="3.5"/>
  <g id="zoomPlus">
    <use xlink:href="#rim" fill="#404040"><set attributeName="fill" to="#808080" begin="zoomplus.mouseover" end="zoomplus.mouseout"/></use>
    <path d="M-4,0h8M0,-4v8" fill="none" stroke="white" stroke-width="1.5" pointer-events="none"/>
  </g>
  <g id="zoomMin">
    <use xlink:href="#rim" fill="#404040"><set attributeName="fill" to="#808080" begin="zoomminus.mouseover" end="zoomminus.mouseout"/></use>
    <path d="M-4,0h8" fill="none" stroke="white" stroke-width="1.5" pointer-events="none"/>
  </g>
  <g id="arrowUp" transform="translate(30 24)">
    <use xlink:href="#rim"/>
    <path pointer-events="none" fill="none" stroke="white" stroke-width="1.5" d="M0,-3.0v7 M-2.5,-0.5L0,-3.0L2.5,-0.5"/>
  </g>
  <g id="arrowRight" transform="rotate(90) translate(36 -43)">
    <use xlink:href="#rim"/>
    <path pointer-events="none" fill="none" stroke="white" stroke-width="1.5" d="M0,-3.0v7 M-2.5,-0.5L0,-3.0L2.5,-0.5"/>
  </g>
  <g id="arrowDown" transform="rotate(180) translate(-30 -48)">
    <use xlink:href="#rim"/>
    <path pointer-events="none" fill="none" stroke="white" stroke-width="1.5" d="M0,-3.0v7 M-2.5,-0.5L0,-3.0L2.5,-0.5"/>
  </g>
  <g id="arrowLeft" transform="rotate(270) translate(-36 17)">
    <use xlink:href="#rim"/>
    <path pointer-events="none" fill="none" stroke="white" stroke-width="1.5" d="M0,-3.0v7 M-2.5,-0.5L0,-3.0L2.5,-0.5"/>
  </g>
  <g id="resetDef">
    <use xlink:href="#rim2" fill="#404040"><set attributeName="fill" to="#808080" begin="reset.mouseover" end="reset.mouseout"/></use>
  </g>
</defs>
<script type="application/ecmascript">
var viewWidth = 629;
var viewHeight = 1378;
var sectionId = 'dynsection-0';
</script>
<script type="application/ecmascript" xlink:href="svg.min.js"/>
<svg id="graph" class="graph">
<g id="viewport">
<title>VoieFerree</title>
<!-- Node1 -->
<g id="Node000001" class="node">
<title>Node1</title>
<g id="a_Node000001"><a xlink:title="Représente une voie ferrée reliant deux villes.">
<polygon fill="#999999" stroke="transparent" points="620.5,-194 451.5,-194 451.5,0 620.5,0 620.5,-194"/>
<text text-anchor="start" x="510.5" y="-182" font-family="Helvetica,sans-Serif" font-size="10.00">VoieFerree</text>
<text text-anchor="start" x="458.5" y="-167" font-family="Helvetica,sans-Serif" font-size="10.00">&#45;</text>
<text text-anchor="start" x="469" y="-167" font-family="Helvetica,sans-Serif" font-size="10.00">couleurTrain couleur</text>
<text text-anchor="start" x="458.5" y="-152" font-family="Helvetica,sans-Serif" font-size="10.00">&#45;</text>
<text text-anchor="start" x="469" y="-152" font-family="Helvetica,sans-Serif" font-size="10.00">int poids</text>
<text text-anchor="start" x="456" y="-137" font-family="Helvetica,sans-Serif" font-size="10.00">+</text>
<text text-anchor="start" x="469" y="-137" font-family="Helvetica,sans-Serif" font-size="10.00">couleurTrain getCouleur</text>
<text text-anchor="start" x="469" y="-126" font-family="Helvetica,sans-Serif" font-size="10.00">() const</text>
<text text-anchor="start" x="456" y="-111" font-family="Helvetica,sans-Serif" font-size="10.00">+</text>
<text text-anchor="start" x="469" y="-111" font-family="Helvetica,sans-Serif" font-size="10.00">Joueur * getJoueur() const</text>
<text text-anchor="start" x="456" y="-96" font-family="Helvetica,sans-Serif" font-size="10.00">+</text>
<text text-anchor="start" x="469" y="-96" font-family="Helvetica,sans-Serif" font-size="10.00">vector&lt; Ville * &gt; getListeVille</text>
<text text-anchor="start" x="469" y="-85" font-family="Helvetica,sans-Serif" font-size="10.00">() const</text>
<text text-anchor="start" x="456" y="-70" font-family="Helvetica,sans-Serif" font-size="10.00">+</text>
<text text-anchor="start" x="469" y="-70" font-family="Helvetica,sans-Serif" font-size="10.00">int getPoids() const</text>
<text text-anchor="start" x="456" y="-55" font-family="Helvetica,sans-Serif" font-size="10.00">+</text>
<text text-anchor="start" x="469" y="-55" font-family="Helvetica,sans-Serif" font-size="10.00">void setJoueur(Joueur</text>
<text text-anchor="start" x="469" y="-44" font-family="Helvetica,sans-Serif" font-size="10.00"> *joueur)</text>
<text text-anchor="start" x="456" y="-29" font-family="Helvetica,sans-Serif" font-size="10.00">+</text>
<text text-anchor="start" x="469" y="-29" font-family="Helvetica,sans-Serif" font-size="10.00">VoieFerree(vector&lt; Ville</text>
<text text-anchor="start" x="469" y="-18" font-family="Helvetica,sans-Serif" font-size="10.00"> * &gt; listeVille, couleurTrain</text>
<text text-anchor="start" x="469" y="-7" font-family="Helvetica,sans-Serif" font-size="10.00"> couleur, int poids)</text>
<polygon fill="#666666" stroke="#666666" points="452,-177 452,-177 621,-177 621,-177 452,-177"/>
<polygon fill="#666666" stroke="#666666" points="452,-147 452,-147 467,-147 467,-147 452,-147"/>
<polygon fill="#666666" stroke="#666666" points="467,-147 467,-147 621,-147 621,-147 467,-147"/>
<polygon fill="none" stroke="#666666" points="451.5,0 451.5,-194 620.5,-194 620.5,0 451.5,0"/>
</a>
</g>
</g>
<!-- Node2 -->
<g id="Node000002" class="node">
<title>Node2</title>
<g id="a_Node000002"><a xlink:title=" ">
<polygon fill="white" stroke="transparent" points="547.5,-892 432.5,-892 432.5,-843 547.5,-843 547.5,-892"/>
<text text-anchor="start" x="438" y="-879.5" font-family="Helvetica,sans-Serif" font-size="10.00">std::vector&lt; Ville * &gt;</text>
<text text-anchor="start" x="488.5" y="-864.5" font-family="Helvetica,sans-Serif" font-size="10.00"> </text>
<text text-anchor="start" x="488.5" y="-849.5" font-family="Helvetica,sans-Serif" font-size="10.00"> </text>
<polygon fill="#666666" stroke="#666666" points="433,-874.5 433,-874.5 548,-874.5 548,-874.5 433,-874.5"/>
<polygon fill="#666666" stroke="#666666" points="433,-859.5 433,-859.5 548,-859.5 548,-859.5 433,-859.5"/>
<polygon fill="none" stroke="#666666" points="432.5,-843 432.5,-892 547.5,-892 547.5,-843 432.5,-843"/>
</a>
</g>
</g>
<!-- Node2&#45;&gt;Node1 -->
<g id="edge1_Node000001_Node000002" class="edge">
<title>Node2&#45;&gt;Node1</title>
<g id="a_edge1_Node000001_Node000002"><a xlink:title=" ">
<path fill="none" stroke="#63b8ff" d="M504,-842.92C511.11,-829.62 519.07,-812.43 523,-796 582.23,-548.19 537,-477.76 541,-223 541.08,-217.6 541.11,-212.07 541.08,-206.49"/>
<polygon fill="none" stroke="#63b8ff" points="541.07,-206.21 537,-200.26 540.93,-194.21 545,-200.16 541.07,-206.21"/>
</a>
</g>
<text text-anchor="middle" x="578" y="-516" font-family="Helvetica,sans-Serif" font-size="10.00" fill="grey"> &#45;listeVille</text>
</g>
<!-- Node3 -->
<g id="Node000003" class="node">
<title>Node3</title>
<g id="a_Node000003"><a xlink:href="classVille.html" target="_top" xlink:title=" ">
<polygon fill="white" stroke="transparent" points="550,-1188 422,-1188 422,-1124 550,-1124 550,-1188"/>
<text text-anchor="start" x="475" y="-1176" font-family="Helvetica,sans-Serif" font-size="10.00">Ville</text>
<text text-anchor="start" x="484" y="-1161" font-family="Helvetica,sans-Serif" font-size="10.00"> </text>
<text text-anchor="start" x="426" y="-1146" font-family="Helvetica,sans-Serif" font-size="10.00">+</text>
<text text-anchor="start" x="439" y="-1146" font-family="Helvetica,sans-Serif" font-size="10.00">string getNom() const</text>
<text text-anchor="start" x="426" y="-1131" font-family="Helvetica,sans-Serif" font-size="10.00">+</text>
<text text-anchor="start" x="439" y="-1131" font-family="Helvetica,sans-Serif" font-size="10.00">Ville(string nom)</text>
<polygon fill="#666666" stroke="#666666" points="422,-1171 422,-1171 550,-1171 550,-1171 422,-1171"/>
<polygon fill="#666666" stroke="#666666" points="422,-1156 422,-1156 550,-1156 550,-1156 422,-1156"/>
<polygon fill="none" stroke="#666666" points="422,-1124 422,-1188 550,-1188 550,-1124 422,-1124"/>
</a>
</g>
</g>
<!-- Node3&#45;&gt;Node2 -->
<g id="edge2_Node000002_Node000003" class="edge">
<title>Node3&#45;&gt;Node2</title>
<g id="a_edge2_Node000002_Node000003"><a xlink:title=" ">
<path fill="none" stroke="#63b8ff" d="M486.44,-1123.79C487.18,-1070.24 488.71,-961.16 489.5,-904.49"/>
<polygon fill="none" stroke="#63b8ff" points="489.5,-904.25 485.59,-898.19 489.67,-892.25 493.58,-898.3 489.5,-904.25"/>
</a>
</g>
<text text-anchor="middle" x="517" y="-1000" font-family="Helvetica,sans-Serif" font-size="10.00" fill="grey"> +elements</text>
</g>
<!-- Node10 -->
<g id="Node000010" class="node">
<title>Node10</title>
<g id="a_Node000010"><a xlink:href="classTicket.html" target="_top" xlink:title="Représente un ticket dans le jeu.">
<polygon fill="white" stroke="transparent" points="450,-1066 308,-1066 308,-939 450,-939 450,-1066"/>
<text text-anchor="start" x="364" y="-1053.5" font-family="Helvetica,sans-Serif" font-size="10.00">Ticket</text>
<text text-anchor="start" x="377" y="-1038.5" font-family="Helvetica,sans-Serif" font-size="10.00"> </text>
<text text-anchor="start" x="312" y="-1023.5" font-family="Helvetica,sans-Serif" font-size="10.00">+</text>
<text text-anchor="start" x="325" y="-1023.5" font-family="Helvetica,sans-Serif" font-size="10.00">Ville * getVilleArrivee</text>
<text text-anchor="start" x="325" y="-1012.5" font-family="Helvetica,sans-Serif" font-size="10.00">() const</text>
<text text-anchor="start" x="312" y="-997.5" font-family="Helvetica,sans-Serif" font-size="10.00">+</text>
<text text-anchor="start" x="325" y="-997.5" font-family="Helvetica,sans-Serif" font-size="10.00">Ville * getVilleDepart</text>
<text text-anchor="start" x="325" y="-986.5" font-family="Helvetica,sans-Serif" font-size="10.00">() const</text>
<text text-anchor="start" x="312" y="-971.5" font-family="Helvetica,sans-Serif" font-size="10.00">+</text>
<text text-anchor="start" x="325" y="-971.5" font-family="Helvetica,sans-Serif" font-size="10.00">Ticket(Ville *villeDepart,</text>
<text text-anchor="start" x="325" y="-960.5" font-family="Helvetica,sans-Serif" font-size="10.00"> Ville *villeArrivee)</text>
<text text-anchor="start" x="312" y="-945.5" font-family="Helvetica,sans-Serif" font-size="10.00">+</text>
<text text-anchor="start" x="325" y="-945.5" font-family="Helvetica,sans-Serif" font-size="10.00">~Ticket()</text>
<polygon fill="#666666" stroke="#666666" points="308,-1048.5 308,-1048.5 450,-1048.5 450,-1048.5 308,-1048.5"/>
<polygon fill="#666666" stroke="#666666" points="308,-1033.5 308,-1033.5 450,-1033.5 450,-1033.5 308,-1033.5"/>
<polygon fill="none" stroke="#666666" points="308,-939 308,-1066 450,-1066 450,-939 308,-939"/>
</a>
</g>
</g>
<!-- Node3&#45;&gt;Node10 -->
<g id="edge10_Node000010_Node000003" class="edge">
<title>Node3&#45;&gt;Node10</title>
<g id="a_edge10_Node000010_Node000003"><a xlink:title=" ">
<path fill="none" stroke="#63b8ff" d="M426.67,-1123.79C420.07,-1118.52 413.95,-1112.59 409,-1106 402.65,-1097.55 397.64,-1087.77 393.68,-1077.68"/>
<polygon fill="none" stroke="#63b8ff" points="393.63,-1077.54 387.87,-1073.2 389.66,-1066.21 395.42,-1070.55 393.63,-1077.54"/>
</a>
</g>
<text text-anchor="middle" x="440.5" y="-1098" font-family="Helvetica,sans-Serif" font-size="10.00" fill="grey"> &#45;villeArrivee</text>
<text text-anchor="middle" x="440.5" y="-1087" font-family="Helvetica,sans-Serif" font-size="10.00" fill="grey">&#45;villeDepart</text>
</g>
<!-- Node4 -->
<g id="Node000004" class="node">
<title>Node4</title>
<g id="a_Node000004"><a xlink:title=" ">
<polygon fill="white" stroke="transparent" points="562.5,-1284 503.5,-1284 503.5,-1235 562.5,-1235 562.5,-1284"/>
<text text-anchor="start" x="509" y="-1271.5" font-family="Helvetica,sans-Serif" font-size="10.00">std::string</text>
<text text-anchor="start" x="531.5" y="-1256.5" font-family="Helvetica,sans-Serif" font-size="10.00"> </text>
<text text-anchor="start" x="531.5" y="-1241.5" font-family="Helvetica,sans-Serif" font-size="10.00"> </text>
<polygon fill="#666666" stroke="#666666" points="504,-1266.5 504,-1266.5 563,-1266.5 563,-1266.5 504,-1266.5"/>
<polygon fill="#666666" stroke="#666666" points="504,-1251.5 504,-1251.5 563,-1251.5 563,-1251.5 504,-1251.5"/>
<polygon fill="none" stroke="#666666" points="503.5,-1235 503.5,-1284 562.5,-1284 562.5,-1235 503.5,-1235"/>
</a>
</g>
</g>
<!-- Node4&#45;&gt;Node3 -->
<g id="edge3_Node000003_Node000004" class="edge">
<title>Node4&#45;&gt;Node3</title>
<g id="a_edge3_Node000003_Node000004"><a xlink:title=" ">
<path fill="none" stroke="#63b8ff" d="M522.1,-1234.96C517.16,-1224.29 511.16,-1211.34 505.49,-1199.08"/>
<polygon fill="none" stroke="#63b8ff" points="505.45,-1199 499.3,-1195.23 500.4,-1188.11 506.56,-1191.87 505.45,-1199"/>
</a>
</g>
<text text-anchor="middle" x="527.5" y="-1209" font-family="Helvetica,sans-Serif" font-size="10.00" fill="grey"> &#45;nom</text>
</g>
<!-- Node8 -->
<g id="Node000008" class="node">
<title>Node8</title>
<g id="a_Node000008"><a xlink:href="classJoueur.html" target="_top" xlink:title="Représente un joueur d&#39;une partie des Aventuriers du Rail.">
<polygon fill="white" stroke="transparent" points="514,-796 312,-796 312,-241 514,-241 514,-796"/>
<text text-anchor="start" x="397.5" y="-783.5" font-family="Helvetica,sans-Serif" font-size="10.00">Joueur</text>
<text text-anchor="start" x="318.5" y="-768.5" font-family="Helvetica,sans-Serif" font-size="10.00">&#45;</text>
<text text-anchor="start" x="329" y="-768.5" font-family="Helvetica,sans-Serif" font-size="10.00">couleurJoueur couleur</text>
<text text-anchor="start" x="318.5" y="-753.5" font-family="Helvetica,sans-Serif" font-size="10.00">&#45;</text>
<text text-anchor="start" x="329" y="-753.5" font-family="Helvetica,sans-Serif" font-size="10.00">int nbWagons</text>
<text text-anchor="start" x="318.5" y="-738.5" font-family="Helvetica,sans-Serif" font-size="10.00">&#45;</text>
<text text-anchor="start" x="329" y="-738.5" font-family="Helvetica,sans-Serif" font-size="10.00">int ticketFini</text>
<text text-anchor="start" x="316" y="-723.5" font-family="Helvetica,sans-Serif" font-size="10.00">+</text>
<text text-anchor="start" x="329" y="-723.5" font-family="Helvetica,sans-Serif" font-size="10.00">void afficherMain(std</text>
<text text-anchor="start" x="329" y="-712.5" font-family="Helvetica,sans-Serif" font-size="10.00">::ostream &amp;os) const</text>
<text text-anchor="start" x="316" y="-697.5" font-family="Helvetica,sans-Serif" font-size="10.00">+</text>
<text text-anchor="start" x="329" y="-697.5" font-family="Helvetica,sans-Serif" font-size="10.00">bool aGagne() const</text>
<text text-anchor="start" x="316" y="-682.5" font-family="Helvetica,sans-Serif" font-size="10.00">+</text>
<text text-anchor="start" x="329" y="-682.5" font-family="Helvetica,sans-Serif" font-size="10.00">void ajouterCarte(Train</text>
<text text-anchor="start" x="329" y="-671.5" font-family="Helvetica,sans-Serif" font-size="10.00"> *carte)</text>
<text text-anchor="start" x="316" y="-656.5" font-family="Helvetica,sans-Serif" font-size="10.00">+</text>
<text text-anchor="start" x="329" y="-656.5" font-family="Helvetica,sans-Serif" font-size="10.00">void ajouterTicket(Ticket</text>
<text text-anchor="start" x="329" y="-645.5" font-family="Helvetica,sans-Serif" font-size="10.00"> *ticket)</text>
<text text-anchor="start" x="316" y="-630.5" font-family="Helvetica,sans-Serif" font-size="10.00">+</text>
<text text-anchor="start" x="329" y="-630.5" font-family="Helvetica,sans-Serif" font-size="10.00">bool defausserCartesVoie</text>
<text text-anchor="start" x="329" y="-619.5" font-family="Helvetica,sans-Serif" font-size="10.00">(couleurTrain couleurVoie,</text>
<text text-anchor="start" x="329" y="-608.5" font-family="Helvetica,sans-Serif" font-size="10.00"> int longueur)</text>
<text text-anchor="start" x="316" y="-593.5" font-family="Helvetica,sans-Serif" font-size="10.00">+</text>
<text text-anchor="start" x="329" y="-593.5" font-family="Helvetica,sans-Serif" font-size="10.00">std::vector&lt; Ticket *</text>
<text text-anchor="start" x="329" y="-582.5" font-family="Helvetica,sans-Serif" font-size="10.00"> &gt; defausserTickets()</text>
<text text-anchor="start" x="316" y="-567.5" font-family="Helvetica,sans-Serif" font-size="10.00">+</text>
<text text-anchor="start" x="329" y="-567.5" font-family="Helvetica,sans-Serif" font-size="10.00">couleurJoueur getCouleur</text>
<text text-anchor="start" x="329" y="-556.5" font-family="Helvetica,sans-Serif" font-size="10.00">() const</text>
<text text-anchor="start" x="316" y="-541.5" font-family="Helvetica,sans-Serif" font-size="10.00">+</text>
<text text-anchor="start" x="329" y="-541.5" font-family="Helvetica,sans-Serif" font-size="10.00">const std::vector&lt; Train</text>
<text text-anchor="start" x="329" y="-530.5" font-family="Helvetica,sans-Serif" font-size="10.00"> * &gt; &amp; getMainCartes() const</text>
<text text-anchor="start" x="316" y="-515.5" font-family="Helvetica,sans-Serif" font-size="10.00">+</text>
<text text-anchor="start" x="329" y="-515.5" font-family="Helvetica,sans-Serif" font-size="10.00">const std::vector&lt; Ticket</text>
<text text-anchor="start" x="329" y="-504.5" font-family="Helvetica,sans-Serif" font-size="10.00"> * &gt; &amp; getMissions() const</text>
<text text-anchor="start" x="316" y="-489.5" font-family="Helvetica,sans-Serif" font-size="10.00">+</text>
<text text-anchor="start" x="329" y="-489.5" font-family="Helvetica,sans-Serif" font-size="10.00">int getNbCartes(couleurTrain</text>
<text text-anchor="start" x="329" y="-478.5" font-family="Helvetica,sans-Serif" font-size="10.00"> couleur) const</text>
<text text-anchor="start" x="316" y="-463.5" font-family="Helvetica,sans-Serif" font-size="10.00">+</text>
<text text-anchor="start" x="329" y="-463.5" font-family="Helvetica,sans-Serif" font-size="10.00">int getNbCartesTotales</text>
<text text-anchor="start" x="329" y="-452.5" font-family="Helvetica,sans-Serif" font-size="10.00">() const</text>
<text text-anchor="start" x="316" y="-437.5" font-family="Helvetica,sans-Serif" font-size="10.00">+</text>
<text text-anchor="start" x="329" y="-437.5" font-family="Helvetica,sans-Serif" font-size="10.00">int getNbWagons() const</text>
<text text-anchor="start" x="316" y="-422.5" font-family="Helvetica,sans-Serif" font-size="10.00">+</text>
<text text-anchor="start" x="329" y="-422.5" font-family="Helvetica,sans-Serif" font-size="10.00">const std::string &amp; getNom</text>
<text text-anchor="start" x="329" y="-411.5" font-family="Helvetica,sans-Serif" font-size="10.00">() const</text>
<text text-anchor="start" x="316" y="-396.5" font-family="Helvetica,sans-Serif" font-size="10.00">+</text>
<text text-anchor="start" x="329" y="-396.5" font-family="Helvetica,sans-Serif" font-size="10.00">int getTicketFini() const</text>
<text text-anchor="start" x="316" y="-381.5" font-family="Helvetica,sans-Serif" font-size="10.00">+</text>
<text text-anchor="start" x="329" y="-381.5" font-family="Helvetica,sans-Serif" font-size="10.00">Joueur(const std::string</text>
<text text-anchor="start" x="329" y="-370.5" font-family="Helvetica,sans-Serif" font-size="10.00"> &amp;nom, couleurJoueur couleur)</text>
<text text-anchor="start" x="316" y="-355.5" font-family="Helvetica,sans-Serif" font-size="10.00">+</text>
<text text-anchor="start" x="329" y="-355.5" font-family="Helvetica,sans-Serif" font-size="10.00">bool naPlusDeWagons() const</text>
<text text-anchor="start" x="316" y="-340.5" font-family="Helvetica,sans-Serif" font-size="10.00">+</text>
<text text-anchor="start" x="329" y="-340.5" font-family="Helvetica,sans-Serif" font-size="10.00">bool peutPrendreVoie(couleur</text>
<text text-anchor="start" x="329" y="-329.5" font-family="Helvetica,sans-Serif" font-size="10.00">Train couleurVoie, int longueur) const</text>
<text text-anchor="start" x="316" y="-314.5" font-family="Helvetica,sans-Serif" font-size="10.00">+</text>
<text text-anchor="start" x="329" y="-314.5" font-family="Helvetica,sans-Serif" font-size="10.00">bool retirerCartes(couleurTrain</text>
<text text-anchor="start" x="329" y="-303.5" font-family="Helvetica,sans-Serif" font-size="10.00"> couleur, int quantite)</text>
<text text-anchor="start" x="316" y="-288.5" font-family="Helvetica,sans-Serif" font-size="10.00">+</text>
<text text-anchor="start" x="329" y="-288.5" font-family="Helvetica,sans-Serif" font-size="10.00">bool utiliserWagons(int nb)</text>
<text text-anchor="start" x="316" y="-273.5" font-family="Helvetica,sans-Serif" font-size="10.00">+</text>
<text text-anchor="start" x="329" y="-273.5" font-family="Helvetica,sans-Serif" font-size="10.00">bool validerTicket(Ticket</text>
<text text-anchor="start" x="329" y="-262.5" font-family="Helvetica,sans-Serif" font-size="10.00"> *ticket, Plateau &amp;plateau)</text>
<text text-anchor="start" x="316" y="-247.5" font-family="Helvetica,sans-Serif" font-size="10.00">+</text>
<text text-anchor="start" x="329" y="-247.5" font-family="Helvetica,sans-Serif" font-size="10.00">~Joueur()=default</text>
<polygon fill="#666666" stroke="#666666" points="312,-778.5 312,-778.5 514,-778.5 514,-778.5 312,-778.5"/>
<polygon fill="#666666" stroke="#666666" points="312,-733.5 312,-733.5 327,-733.5 327,-733.5 312,-733.5"/>
<polygon fill="#666666" stroke="#666666" points="327,-733.5 327,-733.5 514,-733.5 514,-733.5 327,-733.5"/>
<polygon fill="none" stroke="#666666" points="312,-241 312,-796 514,-796 514,-241 312,-241"/>
</a>
</g>
</g>
<!-- Node4&#45;&gt;Node8 -->
<g id="edge12_Node000008_Node000004" class="edge">
<title>Node4&#45;&gt;Node8</title>
<g id="a_edge12_Node000008_Node000004"><a xlink:title=" ">
<path fill="none" stroke="#63b8ff" d="M551.04,-1234.89C564.29,-1215.17 580,-1185.74 580,-1157 580,-1157 580,-1157 580,-866.5 580,-828.63 546.82,-830.79 521.12,-797.91"/>
<polygon fill="none" stroke="#63b8ff" points="520.87,-797.55 514.18,-794.85 514.1,-787.64 520.79,-790.34 520.87,-797.55"/>
</a>
</g>
<text text-anchor="middle" x="594.5" y="-1000" font-family="Helvetica,sans-Serif" font-size="10.00" fill="grey"> &#45;nom</text>
</g>
<!-- Node5 -->
<g id="Node000005" class="node">
<title>Node5</title>
<g id="a_Node000005"><a xlink:title=" ">
<polygon fill="white" stroke="transparent" points="600.5,-1370 465.5,-1370 465.5,-1321 600.5,-1321 600.5,-1370"/>
<text text-anchor="start" x="471" y="-1357.5" font-family="Helvetica,sans-Serif" font-size="10.00">std::basic_string&lt; Char &gt;</text>
<text text-anchor="start" x="531.5" y="-1342.5" font-family="Helvetica,sans-Serif" font-size="10.00"> </text>
<text text-anchor="start" x="531.5" y="-1327.5" font-family="Helvetica,sans-Serif" font-size="10.00"> </text>
<polygon fill="#666666" stroke="#666666" points="466,-1352.5 466,-1352.5 601,-1352.5 601,-1352.5 466,-1352.5"/>
<polygon fill="#666666" stroke="#666666" points="466,-1337.5 466,-1337.5 601,-1337.5 601,-1337.5 466,-1337.5"/>
<polygon fill="none" stroke="#666666" points="465.5,-1321 465.5,-1370 600.5,-1370 600.5,-1321 465.5,-1321"/>
</a>
</g>
</g>
<!-- Node5&#45;&gt;Node4 -->
<g id="edge4_Node000004_Node000005" class="edge">
<title>Node5&#45;&gt;Node4</title>
<g id="a_edge4_Node000004_Node000005"><a xlink:title=" ">
<path fill="none" stroke="#63b8ff" d="M533,-1310.57C533,-1301.69 533,-1292.32 533,-1284.12"/>
<polygon fill="none" stroke="#63b8ff" points="529.5,-1310.65 533,-1320.65 536.5,-1310.65 529.5,-1310.65"/>
</a>
</g>
</g>
<!-- Node6 -->
<g id="Node000006" class="node">
<title>Node6</title>
<g id="a_Node000006"><a xlink:title=" ">
<polygon fill="white" stroke="transparent" points="289.5,-1027 198.5,-1027 198.5,-978 289.5,-978 289.5,-1027"/>
<text text-anchor="start" x="204" y="-1014.5" font-family="Helvetica,sans-Serif" font-size="10.00">std::vector&lt; T &gt;</text>
<text text-anchor="start" x="242.5" y="-999.5" font-family="Helvetica,sans-Serif" font-size="10.00"> </text>
<text text-anchor="start" x="242.5" y="-984.5" font-family="Helvetica,sans-Serif" font-size="10.00"> </text>
<polygon fill="#666666" stroke="#666666" points="199,-1009.5 199,-1009.5 290,-1009.5 290,-1009.5 199,-1009.5"/>
<polygon fill="#666666" stroke="#666666" points="199,-994.5 199,-994.5 290,-994.5 290,-994.5 199,-994.5"/>
<polygon fill="none" stroke="#666666" points="198.5,-978 198.5,-1027 289.5,-1027 289.5,-978 198.5,-978"/>
</a>
</g>
</g>
<!-- Node6&#45;&gt;Node2 -->
<g id="edge5_Node000002_Node000006" class="edge">
<title>Node6&#45;&gt;Node2</title>
<g id="a_edge5_Node000002_Node000006"><a xlink:title=" ">
<path fill="none" stroke="orange" d="M265.19,-969.41C280.6,-948.86 303.37,-923.58 330,-910 367.5,-890.87 382.36,-903 423,-892 426.09,-891.16 429.25,-890.25 432.42,-889.29"/>
<polygon fill="orange" stroke="orange" points="262.29,-967.45 259.25,-977.6 267.95,-971.56 262.29,-967.45"/>
</a>
</g>
<text text-anchor="middle" x="358" y="-913" font-family="Helvetica,sans-Serif" font-size="10.00" fill="grey"> &lt; Ville * &gt;</text>
</g>
<!-- Node9 -->
<g id="Node000009" class="node">
<title>Node9</title>
<g id="a_Node000009"><a xlink:title=" ">
<polygon fill="white" stroke="transparent" points="414,-892 292,-892 292,-843 414,-843 414,-892"/>
<text text-anchor="start" x="297" y="-879.5" font-family="Helvetica,sans-Serif" font-size="10.00">std::vector&lt; Ticket * &gt;</text>
<text text-anchor="start" x="351" y="-864.5" font-family="Helvetica,sans-Serif" font-size="10.00"> </text>
<text text-anchor="start" x="351" y="-849.5" font-family="Helvetica,sans-Serif" font-size="10.00"> </text>
<polygon fill="#666666" stroke="#666666" points="292,-874.5 292,-874.5 414,-874.5 414,-874.5 292,-874.5"/>
<polygon fill="#666666" stroke="#666666" points="292,-859.5 292,-859.5 414,-859.5 414,-859.5 292,-859.5"/>
<polygon fill="none" stroke="#666666" points="292,-843 292,-892 414,-892 414,-843 292,-843"/>
</a>
</g>
</g>
<!-- Node6&#45;&gt;Node9 -->
<g id="edge11_Node000009_Node000006" class="edge">
<title>Node6&#45;&gt;Node9</title>
<g id="a_edge11_Node000009_Node000006"><a xlink:title=" ">
<path fill="none" stroke="orange" d="M236.63,-967.69C234.52,-949.07 235.37,-926.46 247,-910 257.66,-894.91 274.68,-885.31 291.98,-879.19"/>
<polygon fill="orange" stroke="orange" points="233.21,-968.45 238.11,-977.84 240.13,-967.44 233.21,-968.45"/>
</a>
</g>
<text text-anchor="middle" x="279" y="-913" font-family="Helvetica,sans-Serif" font-size="10.00" fill="grey"> &lt; Ticket * &gt;</text>
</g>
<!-- Node11 -->
<g id="Node000011" class="node">
<title>Node11</title>
<g id="a_Node000011"><a xlink:title=" ">
<polygon fill="white" stroke="transparent" points="223,-892 107,-892 107,-843 223,-843 223,-892"/>
<text text-anchor="start" x="112" y="-879.5" font-family="Helvetica,sans-Serif" font-size="10.00">std::vector&lt; Train * &gt;</text>
<text text-anchor="start" x="163" y="-864.5" font-family="Helvetica,sans-Serif" font-size="10.00"> </text>
<text text-anchor="start" x="163" y="-849.5" font-family="Helvetica,sans-Serif" font-size="10.00"> </text>
<polygon fill="#666666" stroke="#666666" points="107,-874.5 107,-874.5 223,-874.5 223,-874.5 107,-874.5"/>
<polygon fill="#666666" stroke="#666666" points="107,-859.5 107,-859.5 223,-859.5 223,-859.5 107,-859.5"/>
<polygon fill="none" stroke="#666666" points="107,-843 107,-892 223,-892 223,-843 107,-843"/>
</a>
</g>
</g>
<!-- Node6&#45;&gt;Node11 -->
<g id="edge15_Node000011_Node000006" class="edge">
<title>Node6&#45;&gt;Node11</title>
<g id="a_edge15_Node000011_Node000006"><a xlink:title=" ">
<path fill="none" stroke="orange" d="M209.23,-970.48C190.74,-953.1 170.84,-932.63 166,-921 162.29,-912.08 161.48,-901.54 161.8,-892.26"/>
<polygon fill="orange" stroke="orange" points="207.31,-973.47 217.02,-977.71 212.07,-968.34 207.31,-973.47"/>
</a>
</g>
<text text-anchor="middle" x="195" y="-913" font-family="Helvetica,sans-Serif" font-size="10.00" fill="grey"> &lt; Train * &gt;</text>
</g>
<!-- Node7 -->
<g id="Node000007" class="node">
<title>Node7</title>
<g id="a_Node000007"><a xlink:title=" ">
<polygon fill="white" stroke="transparent" points="252.5,-1180.5 235.5,-1180.5 235.5,-1131.5 252.5,-1131.5 252.5,-1180.5"/>
<text text-anchor="start" x="241" y="-1168" font-family="Helvetica,sans-Serif" font-size="10.00">T</text>
<text text-anchor="start" x="242.5" y="-1153" font-family="Helvetica,sans-Serif" font-size="10.00"> </text>
<text text-anchor="start" x="242.5" y="-1138" font-family="Helvetica,sans-Serif" font-size="10.00"> </text>
<polygon fill="#666666" stroke="#666666" points="236,-1163 236,-1163 253,-1163 253,-1163 236,-1163"/>
<polygon fill="#666666" stroke="#666666" points="236,-1148 236,-1148 253,-1148 253,-1148 236,-1148"/>
<polygon fill="none" stroke="#666666" points="235.5,-1131.5 235.5,-1180.5 252.5,-1180.5 252.5,-1131.5 235.5,-1131.5"/>
</a>
</g>
</g>
<!-- Node7&#45;&gt;Node6 -->
<g id="edge6_Node000006_Node000007" class="edge">
<title>Node7&#45;&gt;Node6</title>
<g id="a_edge6_Node000006_Node000007"><a xlink:title=" ">
<path fill="none" stroke="#63b8ff" d="M244,-1131.33C244,-1106.65 244,-1067.67 244,-1039.24"/>
<polygon fill="none" stroke="#63b8ff" points="244,-1039.01 240,-1033.01 244,-1027.01 248,-1033.01 244,-1039.01"/>
</a>
</g>
<text text-anchor="middle" x="273" y="-1092.5" font-family="Helvetica,sans-Serif" font-size="10.00" fill="grey"> +elements</text>
</g>
<!-- Node8&#45;&gt;Node1 -->
<g id="edge7_Node000001_Node000008" class="edge">
<title>Node8&#45;&gt;Node1</title>
<g id="a_edge7_Node000001_Node000008"><a xlink:title=" ">
<path fill="none" stroke="#63b8ff" d="M494.1,-240.9C497.67,-228.74 501.13,-216.91 504.45,-205.61"/>
<polygon fill="none" stroke="#63b8ff" points="504.47,-205.54 502.32,-198.66 507.84,-194.03 509.99,-200.91 504.47,-205.54"/>
</a>
</g>
<text text-anchor="middle" x="518" y="-215" font-family="Helvetica,sans-Serif" font-size="10.00" fill="grey"> &#45;joueur</text>
</g>
<!-- Node9&#45;&gt;Node8 -->
<g id="edge8_Node000008_Node000009" class="edge">
<title>Node9&#45;&gt;Node8</title>
<g id="a_edge8_Node000008_Node000009"><a xlink:title=" ">
<path fill="none" stroke="#63b8ff" d="M357.08,-842.92C358.69,-833.6 360.71,-821.9 363.03,-808.52"/>
<polygon fill="none" stroke="#63b8ff" points="363.09,-808.17 360.17,-801.57 365.13,-796.34 368.05,-802.94 363.09,-808.17"/>
</a>
</g>
<text text-anchor="middle" x="386.5" y="-817" font-family="Helvetica,sans-Serif" font-size="10.00" fill="grey"> &#45;missions</text>
</g>
<!-- Node10&#45;&gt;Node9 -->
<g id="edge9_Node000009_Node000010" class="edge">
<title>Node10&#45;&gt;Node9</title>
<g id="a_edge9_Node000009_Node000010"><a xlink:title=" ">
<path fill="none" stroke="#63b8ff" d="M394.47,-938.98C394.67,-929.09 393.48,-919.12 390,-910 389.02,-907.43 387.81,-904.93 386.41,-902.5"/>
<polygon fill="none" stroke="#63b8ff" points="386.24,-902.25 379.54,-899.6 379.4,-892.39 386.11,-895.04 386.24,-902.25"/>
</a>
</g>
<text text-anchor="middle" x="421" y="-913" font-family="Helvetica,sans-Serif" font-size="10.00" fill="grey"> +elements</text>
</g>
<!-- Node11&#45;&gt;Node8 -->
<g id="edge13_Node000008_Node000011" class="edge">
<title>Node11&#45;&gt;Node8</title>
<g id="a_edge13_Node000008_Node000011"><a xlink:title=" ">
<path fill="none" stroke="#63b8ff" d="M181.85,-842.92C207.26,-807.37 257.42,-737.19 304.54,-671.25"/>
<polygon fill="none" stroke="#63b8ff" points="304.79,-670.9 305.03,-663.69 311.77,-661.14 311.54,-668.35 304.79,-670.9"/>
</a>
</g>
<text text-anchor="middle" x="233" y="-817" font-family="Helvetica,sans-Serif" font-size="10.00" fill="grey"> &#45;mainCartes</text>
</g>
<!-- Node12 -->
<g id="Node000012" class="node">
<title>Node12</title>
<g id="a_Node000012"><a xlink:href="classTrain.html" target="_top" xlink:title="Représente un train dans le jeu.">
<polygon fill="white" stroke="transparent" points="168,-1053 0,-1053 0,-952 168,-952 168,-1053"/>
<text text-anchor="start" x="72" y="-1040.5" font-family="Helvetica,sans-Serif" font-size="10.00">Train</text>
<text text-anchor="start" x="6.5" y="-1025.5" font-family="Helvetica,sans-Serif" font-size="10.00">&#45;</text>
<text text-anchor="start" x="17" y="-1025.5" font-family="Helvetica,sans-Serif" font-size="10.00">enum couleurTrain couleur</text>
<text text-anchor="start" x="4" y="-1010.5" font-family="Helvetica,sans-Serif" font-size="10.00">+</text>
<text text-anchor="start" x="17" y="-1010.5" font-family="Helvetica,sans-Serif" font-size="10.00">enum couleurTrain getCouleur</text>
<text text-anchor="start" x="17" y="-999.5" font-family="Helvetica,sans-Serif" font-size="10.00">Train() const</text>
<text text-anchor="start" x="4" y="-984.5" font-family="Helvetica,sans-Serif" font-size="10.00">+</text>
<text text-anchor="start" x="17" y="-984.5" font-family="Helvetica,sans-Serif" font-size="10.00">Train(enum couleurTrain</text>
<text text-anchor="start" x="17" y="-973.5" font-family="Helvetica,sans-Serif" font-size="10.00"> couleur)</text>
<text text-anchor="start" x="4" y="-958.5" font-family="Helvetica,sans-Serif" font-size="10.00">+</text>
<text text-anchor="start" x="17" y="-958.5" font-family="Helvetica,sans-Serif" font-size="10.00">~Train()</text>
<polygon fill="#666666" stroke="#666666" points="0,-1035.5 0,-1035.5 168,-1035.5 168,-1035.5 0,-1035.5"/>
<polygon fill="#666666" stroke="#666666" points="0,-1020.5 0,-1020.5 15,-1020.5 15,-1020.5 0,-1020.5"/>
<polygon fill="#666666" stroke="#666666" points="15,-1020.5 15,-1020.5 168,-1020.5 168,-1020.5 15,-1020.5"/>
<polygon fill="none" stroke="#666666" points="0,-952 0,-1053 168,-1053 168,-952 0,-952"/>
</a>
</g>
</g>
<!-- Node12&#45;&gt;Node11 -->
<g id="edge14_Node000011_Node000012" class="edge">
<title>Node12&#45;&gt;Node11</title>
<g id="a_edge14_Node000011_Node000012"><a xlink:title=" ">
<path fill="none" stroke="#63b8ff" d="M85.89,-951.7C88.31,-937.31 92.82,-922.22 101,-910 103.35,-906.48 106.12,-903.19 109.15,-900.14"/>
<polygon fill="none" stroke="#63b8ff" points="109.28,-900.02 111.16,-893.06 118.31,-892.12 116.43,-899.08 109.28,-900.02"/>
</a>
</g>
<text text-anchor="middle" x="130" y="-913" font-family="Helvetica,sans-Serif" font-size="10.00" fill="grey"> +elements</text>
</g>
</g>
</svg>

<g id="navigator" transform="translate(0 0)" fill="#404254">
  <rect fill="#f2f5e9" fill-opacity="0.5" stroke="#606060" stroke-width=".5" x="0" y="0" width="60" height="60"/>
  <use id="zoomplus" xlink:href="#zoomPlus" x="17" y="9" onmousedown="handleZoom(evt,'in')"/>
  <use id="zoomminus" xlink:href="#zoomMin" x="42" y="9" onmousedown="handleZoom(evt,'out')"/>
  <use id="reset" xlink:href="#resetDef" x="30" y="36" onmousedown="handleReset()"/>
   <use id="arrowup" xlink:href="#arrowUp" x="0" y="0" onmousedown="handlePan(0,-1)"/>
  <use id="arrowright" xlink:href="#arrowRight" x="0" y="0" onmousedown="handlePan(1,0)"/>
  <use id="arrowdown" xlink:href="#arrowDown" x="0" y="0" onmousedown="handlePan(0,1)"/>
  <use id="arrowleft" xlink:href="#arrowLeft" x="0" y="0" onmousedown="handlePan(-1,0)"/>
</g>
<svg viewBox="0 0 15 15" width="100%" height="30px" preserveAspectRatio="xMaxYMin meet">
 <g id="arrow_out" transform="scale(0.3 0.3)">
  <a xlink:href="classVoieFerree__coll__graph_org.svg" target="_base">
   <rect id="button" ry="5" rx="5" y="6" x="6" height="38" width="38"
        fill="#f2f5e9" fill-opacity="0.5" stroke="#606060" stroke-width="1.0"/>
   <path id="arrow"
     d="M 11.500037,31.436501 C 11.940474,20.09759 22.043105,11.32322 32.158766,21.979434 L 37.068811,17.246167 C 37.068811,17.246167 37.088388,32 37.088388,32 L 22.160133,31.978069 C 22.160133,31.978069 26.997745,27.140456 26.997745,27.140456 C 18.528582,18.264221 13.291696,25.230495 11.500037,31.436501 z"
     style="fill:#404040;"/>
  </a>
 </g>
</svg>

<style type='text/css'>
<![CDATA[
[data-mouse-over-selected='false'] { opacity: 0.7; }
[data-mouse-over-selected='true']  { opacity: 1.0; }
]]>
</style>
<script type="application/ecmascript"><![CDATA[
document.addEventListener('DOMContentLoaded', (event) => {
  highlightEdges();
  highlightAdjacentNodes();
});
]]></script>
</svg>
