<?xml version="1.0" encoding="UTF-8" standalone="no"?>
<!DOCTYPE svg PUBLIC "-//W3C//DTD SVG 1.1//EN"
 "http://www.w3.org/Graphics/SVG/1.1/DTD/svg11.dtd">
<!-- Generated by graphviz version 2.43.0 (0)
 -->
<!-- Title: include/couleurEnum.hpp Pages: 1 -->
<!--zoomable 302 -->

<svg id="main" version="1.1" xmlns="http://www.w3.org/2000/svg" xmlns:xlink="http://www.w3.org/1999/xlink" xml:space="preserve" onload="init(evt)">
<style type="text/css"><![CDATA[
.node, .edge {opacity: 0.7;}
.node.selected, .edge.selected {opacity: 1;}
.edge:hover path { stroke: red; }
.edge:hover polygon { stroke: red; fill: red; }
]]></style>

<defs>
  <circle id="rim" cx="0" cy="0" r="7"/>
  <circle id="rim2" cx="0" cy="0" r="3.5"/>
  <g id="zoomPlus">
    <use xlink:href="#rim" fill="#404040"><set attributeName="fill" to="#808080" begin="zoomplus.mouseover" end="zoomplus.mouseout"/></use>
    <path d="M-4,0h8M0,-4v8" fill="none" stroke="white" stroke-width="1.5" pointer-events="none"/>
  </g>
  <g id="zoomMin">
    <use xlink:href="#rim" fill="#404040"><set attributeName="fill" to="#808080" begin="zoomminus.mouseover" end="zoomminus.mouseout"/></use>
    <path d="M-4,0h8" fill="none" stroke="white" stroke-width="1.5" pointer-events="none"/>
  </g>
  <g id="arrowUp" transform="translate(30 24)">
    <use xlink:href="#rim"/>
    <path pointer-events="none" fill="none" stroke="white" stroke-width="1.5" d="M0,-3.0v7 M-2.5,-0.5L0,-3.0L2.5,-0.5"/>
  </g>
  <g id="arrowRight" transform="rotate(90) translate(36 -43)">
    <use xlink:href="#rim"/>
    <path pointer-events="none" fill="none" stroke="white" stroke-width="1.5" d="M0,-3.0v7 M-2.5,-0.5L0,-3.0L2.5,-0.5"/>
  </g>
  <g id="arrowDown" transform="rotate(180) translate(-30 -48)">
    <use xlink:href="#rim"/>
    <path pointer-events="none" fill="none" stroke="white" stroke-width="1.5" d="M0,-3.0v7 M-2.5,-0.5L0,-3.0L2.5,-0.5"/>
  </g>
  <g id="arrowLeft" transform="rotate(270) translate(-36 17)">
    <use xlink:href="#rim"/>
    <path pointer-events="none" fill="none" stroke="white" stroke-width="1.5" d="M0,-3.0v7 M-2.5,-0.5L0,-3.0L2.5,-0.5"/>
  </g>
  <g id="resetDef">
    <use xlink:href="#rim2" fill="#404040"><set attributeName="fill" to="#808080" begin="reset.mouseover" end="reset.mouseout"/></use>
  </g>
</defs>
<script type="application/ecmascript">
var viewWidth = 702;
var viewHeight = 302;
var sectionId = 'dynsection-0';
</script>
<script type="application/ecmascript" xlink:href="svg.min.js"/>
<svg id="graph" class="graph">
<g id="viewport">
<title>include/couleurEnum.hpp</title>
<!-- Node1 -->
<g id="Node000001" class="node">
<title>Node1</title>
<g id="a_Node000001"><a xlink:title=" ">
<polygon fill="#999999" stroke="#666666" points="351,-294 211,-294 211,-275 351,-275 351,-294"/>
<text text-anchor="middle" x="281" y="-282" font-family="Helvetica,sans-Serif" font-size="10.00">include/couleurEnum.hpp</text>
</a>
</g>
</g>
<!-- Node2 -->
<g id="Node000002" class="node">
<title>Node2</title>
<g id="a_Node000002"><a xlink:href="Joueur_8hpp.html" target="_top" xlink:title="Déclaration de la classe Joueur, participant à une partie des Aventuriers du Rail.">
<polygon fill="white" stroke="#666666" points="296,-129 190,-129 190,-110 296,-110 296,-129"/>
<text text-anchor="middle" x="243" y="-117" font-family="Helvetica,sans-Serif" font-size="10.00">include/Joueur.hpp</text>
</a>
</g>
</g>
<!-- Node1&#45;&gt;Node2 -->
<g id="edge1_Node000001_Node000002" class="edge">
<title>Node1&#45;&gt;Node2</title>
<g id="a_edge1_Node000001_Node000002"><a xlink:title=" ">
<path fill="none" stroke="#63b8ff" d="M245.79,-271.2C210.04,-256.6 156.68,-228.46 133,-184 117.4,-154.71 158.16,-137.91 194.4,-129.04"/>
<polygon fill="#63b8ff" stroke="#63b8ff" points="244.78,-274.57 255.37,-274.96 247.34,-268.05 244.78,-274.57"/>
</a>
</g>
</g>
<!-- Node5 -->
<g id="Node000005" class="node">
<title>Node5</title>
<g id="a_Node000005"><a xlink:href="gui__main_8cpp.html" target="_top" xlink:title=" ">
<polygon fill="white" stroke="#666666" points="635.5,-19 536.5,-19 536.5,0 635.5,0 635.5,-19"/>
<text text-anchor="middle" x="586" y="-7" font-family="Helvetica,sans-Serif" font-size="10.00">src/gui_main.cpp</text>
</a>
</g>
</g>
<!-- Node1&#45;&gt;Node5 -->
<g id="edge28_Node000001_Node000005" class="edge">
<title>Node1&#45;&gt;Node5</title>
<g id="a_edge28_Node000001_Node000005"><a xlink:title=" ">
<path fill="none" stroke="#63b8ff" d="M361.32,-278.8C481.46,-269.55 694,-243.55 694,-175.5 694,-175.5 694,-175.5 694,-118.5 694,-68.91 636.37,-34.14 605.31,-19"/>
<polygon fill="#63b8ff" stroke="#63b8ff" points="360.77,-275.33 351.06,-279.57 361.29,-282.32 360.77,-275.33"/>
</a>
</g>
</g>
<!-- Node6 -->
<g id="Node000006" class="node">
<title>Node6</title>
<g id="a_Node000006"><a xlink:href="main_8cpp.html" target="_top" xlink:title=" ">
<polygon fill="white" stroke="#666666" points="131.5,-19 52.5,-19 52.5,0 131.5,0 131.5,-19"/>
<text text-anchor="middle" x="92" y="-7" font-family="Helvetica,sans-Serif" font-size="10.00">src/main.cpp</text>
</a>
</g>
</g>
<!-- Node1&#45;&gt;Node6 -->
<g id="edge29_Node000001_Node000006" class="edge">
<title>Node1&#45;&gt;Node6</title>
<g id="a_edge29_Node000001_Node000006"><a xlink:title=" ">
<path fill="none" stroke="#63b8ff" d="M221.4,-273.03C138.91,-256.82 0,-222.54 0,-175.5 0,-175.5 0,-175.5 0,-118.5 0,-71.7 50.68,-34.88 76.81,-19"/>
<polygon fill="#63b8ff" stroke="#63b8ff" points="220.93,-276.5 231.41,-274.96 222.25,-269.63 220.93,-276.5"/>
</a>
</g>
</g>
<!-- Node8 -->
<g id="Node000008" class="node">
<title>Node8</title>
<g id="a_Node000008"><a xlink:href="Train_8hpp.html" target="_top" xlink:title=" ">
<polygon fill="white" stroke="#666666" points="330.5,-239 231.5,-239 231.5,-220 330.5,-220 330.5,-239"/>
<text text-anchor="middle" x="281" y="-227" font-family="Helvetica,sans-Serif" font-size="10.00">include/Train.hpp</text>
</a>
</g>
</g>
<!-- Node1&#45;&gt;Node8 -->
<g id="edge10_Node000001_Node000008" class="edge">
<title>Node1&#45;&gt;Node8</title>
<g id="a_edge10_Node000001_Node000008"><a xlink:title=" ">
<path fill="none" stroke="#63b8ff" d="M281,-264.66C281,-255.93 281,-245.99 281,-239.09"/>
<polygon fill="#63b8ff" stroke="#63b8ff" points="277.5,-264.75 281,-274.75 284.5,-264.75 277.5,-264.75"/>
</a>
</g>
</g>
<!-- Node12 -->
<g id="Node000012" class="node">
<title>Node12</title>
<g id="a_Node000012"><a xlink:href="VoieFerree_8hpp.html" target="_top" xlink:title="Classe VoieFerree – Représente une voie ferrée du plateau.">
<polygon fill="white" stroke="#666666" points="477,-239 349,-239 349,-220 477,-220 477,-239"/>
<text text-anchor="middle" x="413" y="-227" font-family="Helvetica,sans-Serif" font-size="10.00">include/VoieFerree.hpp</text>
</a>
</g>
</g>
<!-- Node1&#45;&gt;Node12 -->
<g id="edge23_Node000001_Node000012" class="edge">
<title>Node1&#45;&gt;Node12</title>
<g id="a_edge23_Node000001_Node000012"><a xlink:title=" ">
<path fill="none" stroke="#63b8ff" d="M311.73,-271.16C336.17,-261.35 369.74,-247.87 391.41,-239.17"/>
<polygon fill="#63b8ff" stroke="#63b8ff" points="310.18,-268.01 302.21,-274.98 312.79,-274.51 310.18,-268.01"/>
</a>
</g>
</g>
<!-- Node3 -->
<g id="Node000003" class="node">
<title>Node3</title>
<g id="a_Node000003"><a xlink:href="Partie_8hpp.html" target="_top" xlink:title=" ">
<polygon fill="white" stroke="#666666" points="376,-74 272,-74 272,-55 376,-55 376,-74"/>
<text text-anchor="middle" x="324" y="-62" font-family="Helvetica,sans-Serif" font-size="10.00">include/Partie.hpp</text>
</a>
</g>
</g>
<!-- Node2&#45;&gt;Node3 -->
<g id="edge2_Node000002_Node000003" class="edge">
<title>Node2&#45;&gt;Node3</title>
<g id="a_edge2_Node000002_Node000003"><a xlink:title=" ">
<path fill="none" stroke="#63b8ff" d="M264.51,-104.42C279.21,-94.81 298.22,-82.37 310.75,-74.17"/>
<polygon fill="#63b8ff" stroke="#63b8ff" points="262.47,-101.58 256.01,-109.98 266.3,-107.44 262.47,-101.58"/>
</a>
</g>
</g>
<!-- Node4 -->
<g id="Node000004" class="node">
<title>Node4</title>
<g id="a_Node000004"><a xlink:href="Partie_8cpp.html" target="_top" xlink:title=" ">
<polygon fill="white" stroke="#666666" points="306,-19 224,-19 224,0 306,0 306,-19"/>
<text text-anchor="middle" x="265" y="-7" font-family="Helvetica,sans-Serif" font-size="10.00">src/Partie.cpp</text>
</a>
</g>
</g>
<!-- Node2&#45;&gt;Node4 -->
<g id="edge7_Node000002_Node000004" class="edge">
<title>Node2&#45;&gt;Node4</title>
<g id="a_edge7_Node000002_Node000004"><a xlink:title=" ">
<path fill="none" stroke="#63b8ff" d="M234.29,-100.5C229.25,-87.6 224.83,-69.94 230,-55 234.95,-40.7 246.61,-27.5 255.12,-19.25"/>
<polygon fill="#63b8ff" stroke="#63b8ff" points="231.08,-101.91 238.29,-109.68 237.5,-99.11 231.08,-101.91"/>
</a>
</g>
</g>
<!-- Node2&#45;&gt;Node5 -->
<g id="edge8_Node000002_Node000005" class="edge">
<title>Node2&#45;&gt;Node5</title>
<g id="a_edge8_Node000002_Node000005"><a xlink:title=" ">
<path fill="none" stroke="#63b8ff" d="M243.74,-99.66C245.37,-85.21 250.04,-65.94 263,-55 303.33,-20.94 456.32,-12.89 536.42,-11.03"/>
<polygon fill="#63b8ff" stroke="#63b8ff" points="240.22,-99.74 242.98,-109.96 247.2,-100.25 240.22,-99.74"/>
</a>
</g>
</g>
<!-- Node2&#45;&gt;Node6 -->
<g id="edge9_Node000002_Node000006" class="edge">
<title>Node2&#45;&gt;Node6</title>
<g id="a_edge9_Node000002_Node000006"><a xlink:title=" ">
<path fill="none" stroke="#63b8ff" d="M222.73,-104.01C190.88,-81.22 130.05,-37.72 104.16,-19.2"/>
<polygon fill="#63b8ff" stroke="#63b8ff" points="220.73,-106.87 230.9,-109.84 224.8,-101.18 220.73,-106.87"/>
</a>
</g>
</g>
<!-- Node7 -->
<g id="Node000007" class="node">
<title>Node7</title>
<g id="a_Node000007"><a xlink:href="Joueur_8cpp.html" target="_top" xlink:title="Implémentation de la classe Joueur.">
<polygon fill="white" stroke="#666666" points="478,-74 394,-74 394,-55 478,-55 478,-74"/>
<text text-anchor="middle" x="436" y="-62" font-family="Helvetica,sans-Serif" font-size="10.00">src/Joueur.cpp</text>
</a>
</g>
</g>
<!-- Node2&#45;&gt;Node7 -->
<g id="edge6_Node000002_Node000007" class="edge">
<title>Node2&#45;&gt;Node7</title>
<g id="a_edge6_Node000002_Node000007"><a xlink:title=" ">
<path fill="none" stroke="#63b8ff" d="M283.75,-107.31C319.86,-97.39 371.83,-83.12 404.75,-74.08"/>
<polygon fill="#63b8ff" stroke="#63b8ff" points="282.72,-103.96 274.01,-109.98 284.58,-110.71 282.72,-103.96"/>
</a>
</g>
</g>
<!-- Node3&#45;&gt;Node4 -->
<g id="edge3_Node000003_Node000004" class="edge">
<title>Node3&#45;&gt;Node4</title>
<g id="a_edge3_Node000003_Node000004"><a xlink:title=" ">
<path fill="none" stroke="#63b8ff" d="M306.8,-48.04C296.33,-38.64 283.35,-26.98 274.65,-19.17"/>
<polygon fill="#63b8ff" stroke="#63b8ff" points="304.74,-50.91 314.52,-54.98 309.42,-45.7 304.74,-50.91"/>
</a>
</g>
</g>
<!-- Node3&#45;&gt;Node5 -->
<g id="edge4_Node000003_Node000005" class="edge">
<title>Node3&#45;&gt;Node5</title>
<g id="a_edge4_Node000003_Node000005"><a xlink:title=" ">
<path fill="none" stroke="#63b8ff" d="M376.2,-52.94C425.31,-43.01 497.93,-28.31 543.58,-19.08"/>
<polygon fill="#63b8ff" stroke="#63b8ff" points="375.2,-49.57 366.09,-54.98 376.59,-56.43 375.2,-49.57"/>
</a>
</g>
</g>
<!-- Node3&#45;&gt;Node6 -->
<g id="edge5_Node000003_Node000006" class="edge">
<title>Node3&#45;&gt;Node6</title>
<g id="a_edge5_Node000003_Node000006"><a xlink:title=" ">
<path fill="none" stroke="#63b8ff" d="M276.96,-52.75C233.48,-42.82 169.73,-28.26 129.57,-19.08"/>
<polygon fill="#63b8ff" stroke="#63b8ff" points="276.2,-56.17 286.73,-54.98 277.76,-49.35 276.2,-56.17"/>
</a>
</g>
</g>
<!-- Node8&#45;&gt;Node2 -->
<g id="edge11_Node000008_Node000002" class="edge">
<title>Node8&#45;&gt;Node2</title>
<g id="a_edge11_Node000008_Node000002"><a xlink:title=" ">
<path fill="none" stroke="#63b8ff" d="M274.53,-210.12C266.24,-186.56 252.2,-146.66 246.05,-129.16"/>
<polygon fill="#63b8ff" stroke="#63b8ff" points="271.27,-211.39 277.89,-219.66 277.87,-209.07 271.27,-211.39"/>
</a>
</g>
</g>
<!-- Node8&#45;&gt;Node3 -->
<g id="edge12_Node000008_Node000003" class="edge">
<title>Node8&#45;&gt;Node3</title>
<g id="a_edge12_Node000008_Node000003"><a xlink:title=" ">
<path fill="none" stroke="#63b8ff" d="M285.93,-209.83C295.2,-174.67 314.92,-99.9 321.68,-74.31"/>
<polygon fill="#63b8ff" stroke="#63b8ff" points="282.48,-209.17 283.31,-219.74 289.25,-210.96 282.48,-209.17"/>
</a>
</g>
</g>
<!-- Node8&#45;&gt;Node4 -->
<g id="edge19_Node000008_Node000004" class="edge">
<title>Node8&#45;&gt;Node4</title>
<g id="a_edge19_Node000008_Node000004"><a xlink:title=" ">
<path fill="none" stroke="#63b8ff" d="M221.12,-226.75C189.53,-222.39 153.22,-211.2 133,-184 85.58,-120.22 204.78,-44.33 249.15,-19.11"/>
<polygon fill="#63b8ff" stroke="#63b8ff" points="220.84,-230.24 231.18,-227.94 221.66,-223.29 220.84,-230.24"/>
</a>
</g>
</g>
<!-- Node8&#45;&gt;Node5 -->
<g id="edge21_Node000008_Node000005" class="edge">
<title>Node8&#45;&gt;Node5</title>
<g id="a_edge21_Node000008_Node000005"><a xlink:title=" ">
<path fill="none" stroke="#63b8ff" d="M339.62,-218.07C387.66,-208.97 451.43,-195.47 475,-184 509.95,-167 520.43,-160.65 543,-129 568.67,-93 580.6,-40.03 584.49,-19.29"/>
<polygon fill="#63b8ff" stroke="#63b8ff" points="338.81,-214.66 329.63,-219.94 340.1,-221.54 338.81,-214.66"/>
</a>
</g>
</g>
<!-- Node8&#45;&gt;Node6 -->
<g id="edge22_Node000008_Node000006" class="edge">
<title>Node8&#45;&gt;Node6</title>
<g id="a_edge22_Node000008_Node000006"><a xlink:title=" ">
<path fill="none" stroke="#63b8ff" d="M221.28,-225C187.86,-220.14 147.52,-209.02 120,-184 75.39,-143.44 68.85,-114.6 78,-55 79.97,-42.19 84.94,-28.01 88.4,-19.18"/>
<polygon fill="#63b8ff" stroke="#63b8ff" points="221.04,-228.5 231.41,-226.32 221.94,-221.56 221.04,-228.5"/>
</a>
</g>
</g>
<!-- Node9 -->
<g id="Node000009" class="node">
<title>Node9</title>
<g id="a_Node000009"><a xlink:href="Plateau_8hpp.html" target="_top" xlink:title="Classe Plateau – Gère le plateau de jeu avec villes et voies ferrées.">
<polygon fill="white" stroke="#666666" points="465.5,-184 352.5,-184 352.5,-165 465.5,-165 465.5,-184"/>
<text text-anchor="middle" x="409" y="-172" font-family="Helvetica,sans-Serif" font-size="10.00">include/Plateau.hpp</text>
</a>
</g>
</g>
<!-- Node8&#45;&gt;Node9 -->
<g id="edge13_Node000008_Node000009" class="edge">
<title>Node8&#45;&gt;Node9</title>
<g id="a_edge13_Node000008_Node000009"><a xlink:title=" ">
<path fill="none" stroke="#63b8ff" d="M311.12,-216.03C334.79,-206.23 367.15,-192.83 388.06,-184.17"/>
<polygon fill="#63b8ff" stroke="#63b8ff" points="309.47,-212.93 301.57,-219.98 312.14,-219.39 309.47,-212.93"/>
</a>
</g>
</g>
<!-- Node11 -->
<g id="Node000011" class="node">
<title>Node11</title>
<g id="a_Node000011"><a xlink:href="Train_8cpp.html" target="_top" xlink:title=" ">
<polygon fill="white" stroke="#666666" points="219.5,-184 142.5,-184 142.5,-165 219.5,-165 219.5,-184"/>
<text text-anchor="middle" x="181" y="-172" font-family="Helvetica,sans-Serif" font-size="10.00">src/Train.cpp</text>
</a>
</g>
</g>
<!-- Node8&#45;&gt;Node11 -->
<g id="edge20_Node000008_Node000011" class="edge">
<title>Node8&#45;&gt;Node11</title>
<g id="a_edge20_Node000008_Node000011"><a xlink:title=" ">
<path fill="none" stroke="#63b8ff" d="M255.97,-215.23C237.63,-205.51 213.26,-192.6 197.36,-184.17"/>
<polygon fill="#63b8ff" stroke="#63b8ff" points="254.46,-218.39 264.93,-219.98 257.74,-212.21 254.46,-218.39"/>
</a>
</g>
</g>
<!-- Node9&#45;&gt;Node2 -->
<g id="edge14_Node000009_Node000002" class="edge">
<title>Node9&#45;&gt;Node2</title>
<g id="a_edge14_Node000009_Node000002"><a xlink:title=" ">
<path fill="none" stroke="#63b8ff" d="M372.75,-161.93C341.75,-152.03 297.83,-138.01 269.88,-129.08"/>
<polygon fill="#63b8ff" stroke="#63b8ff" points="371.74,-165.28 382.33,-164.98 373.87,-158.61 371.74,-165.28"/>
</a>
</g>
</g>
<!-- Node9&#45;&gt;Node3 -->
<g id="edge15_Node000009_Node000003" class="edge">
<title>Node9&#45;&gt;Node3</title>
<g id="a_edge15_Node000009_Node000003"><a xlink:title=" ">
<path fill="none" stroke="#63b8ff" d="M395.77,-156.69C377.42,-133.37 344.9,-92.05 330.81,-74.16"/>
<polygon fill="#63b8ff" stroke="#63b8ff" points="393.11,-158.97 402.04,-164.66 398.61,-154.64 393.11,-158.97"/>
</a>
</g>
</g>
<!-- Node9&#45;&gt;Node4 -->
<g id="edge17_Node000009_Node000004" class="edge">
<title>Node9&#45;&gt;Node4</title>
<g id="a_edge17_Node000009_Node000004"><a xlink:title=" ">
<path fill="none" stroke="#63b8ff" d="M475.3,-163.44C508.08,-154.76 538.76,-138.86 529,-110 519.15,-80.86 513.09,-71.29 487,-55 431.15,-20.12 353.35,-11.84 306.23,-10.27"/>
<polygon fill="#63b8ff" stroke="#63b8ff" points="474.47,-160.04 465.57,-165.8 476.12,-166.84 474.47,-160.04"/>
</a>
</g>
</g>
<!-- Node9&#45;&gt;Node7 -->
<g id="edge16_Node000009_Node000007" class="edge">
<title>Node9&#45;&gt;Node7</title>
<g id="a_edge16_Node000009_Node000007"><a xlink:title=" ">
<path fill="none" stroke="#63b8ff" d="M411.41,-154.5C413.24,-141.78 416.1,-124.74 420,-110 423.36,-97.3 428.77,-83.09 432.35,-74.22"/>
<polygon fill="#63b8ff" stroke="#63b8ff" points="407.89,-154.39 410.02,-164.77 414.83,-155.33 407.89,-154.39"/>
</a>
</g>
</g>
<!-- Node10 -->
<g id="Node000010" class="node">
<title>Node10</title>
<g id="a_Node000010"><a xlink:href="Plateau_8cpp.html" target="_top" xlink:title=" ">
<polygon fill="white" stroke="#666666" points="519.5,-129 428.5,-129 428.5,-110 519.5,-110 519.5,-129"/>
<text text-anchor="middle" x="474" y="-117" font-family="Helvetica,sans-Serif" font-size="10.00">src/Plateau.cpp</text>
</a>
</g>
</g>
<!-- Node9&#45;&gt;Node10 -->
<g id="edge18_Node000009_Node000010" class="edge">
<title>Node9&#45;&gt;Node10</title>
<g id="a_edge18_Node000009_Node000010"><a xlink:title=" ">
<path fill="none" stroke="#63b8ff" d="M427.27,-158.6C438.92,-149.11 453.6,-137.13 463.37,-129.17"/>
<polygon fill="#63b8ff" stroke="#63b8ff" points="424.98,-155.95 419.44,-164.98 429.41,-161.38 424.98,-155.95"/>
</a>
</g>
</g>
<!-- Node12&#45;&gt;Node5 -->
<g id="edge26_Node000012_Node000005" class="edge">
<title>Node12&#45;&gt;Node5</title>
<g id="a_edge26_Node000012_Node000005"><a xlink:title=" ">
<path fill="none" stroke="#63b8ff" d="M487.26,-223.7C544.94,-218.24 618.19,-206.91 637,-184 679.43,-132.31 615.95,-46.53 593.42,-19.17"/>
<polygon fill="#63b8ff" stroke="#63b8ff" points="486.7,-220.24 477.05,-224.62 487.32,-227.21 486.7,-220.24"/>
</a>
</g>
</g>
<!-- Node12&#45;&gt;Node6 -->
<g id="edge27_Node000012_Node000006" class="edge">
<title>Node12&#45;&gt;Node6</title>
<g id="a_edge27_Node000012_Node000006"><a xlink:title=" ">
<path fill="none" stroke="#63b8ff" d="M369.24,-217.18C319.74,-202.78 238.55,-174.21 181,-129 139.73,-96.58 107.72,-40.58 96.42,-19.17"/>
<polygon fill="#63b8ff" stroke="#63b8ff" points="368.42,-220.58 379,-219.95 370.34,-213.85 368.42,-220.58"/>
</a>
</g>
</g>
<!-- Node12&#45;&gt;Node9 -->
<g id="edge24_Node000012_Node000009" class="edge">
<title>Node12&#45;&gt;Node9</title>
<g id="a_edge24_Node000012_Node000009"><a xlink:title=" ">
<path fill="none" stroke="#63b8ff" d="M411.58,-209.66C410.92,-200.93 410.17,-190.99 409.65,-184.09"/>
<polygon fill="#63b8ff" stroke="#63b8ff" points="408.1,-210.04 412.34,-219.75 415.08,-209.51 408.1,-210.04"/>
</a>
</g>
</g>
<!-- Node13 -->
<g id="Node000013" class="node">
<title>Node13</title>
<g id="a_Node000013"><a xlink:href="VoieFerree_8cpp.html" target="_top" xlink:title=" ">
<polygon fill="white" stroke="#666666" points="628,-184 522,-184 522,-165 628,-165 628,-184"/>
<text text-anchor="middle" x="575" y="-172" font-family="Helvetica,sans-Serif" font-size="10.00">src/VoieFerree.cpp</text>
</a>
</g>
</g>
<!-- Node12&#45;&gt;Node13 -->
<g id="edge25_Node000012_Node000013" class="edge">
<title>Node12&#45;&gt;Node13</title>
<g id="a_edge25_Node000012_Node000013"><a xlink:title=" ">
<path fill="none" stroke="#63b8ff" d="M448.77,-216.8C479,-206.91 521.61,-192.97 548.77,-184.08"/>
<polygon fill="#63b8ff" stroke="#63b8ff" points="447.44,-213.55 439.03,-219.98 449.62,-220.2 447.44,-213.55"/>
</a>
</g>
</g>
</g>
</svg>

<g id="navigator" transform="translate(0 0)" fill="#404254">
  <rect fill="#f2f5e9" fill-opacity="0.5" stroke="#606060" stroke-width=".5" x="0" y="0" width="60" height="60"/>
  <use id="zoomplus" xlink:href="#zoomPlus" x="17" y="9" onmousedown="handleZoom(evt,'in')"/>
  <use id="zoomminus" xlink:href="#zoomMin" x="42" y="9" onmousedown="handleZoom(evt,'out')"/>
  <use id="reset" xlink:href="#resetDef" x="30" y="36" onmousedown="handleReset()"/>
   <use id="arrowup" xlink:href="#arrowUp" x="0" y="0" onmousedown="handlePan(0,-1)"/>
  <use id="arrowright" xlink:href="#arrowRight" x="0" y="0" onmousedown="handlePan(1,0)"/>
  <use id="arrowdown" xlink:href="#arrowDown" x="0" y="0" onmousedown="handlePan(0,1)"/>
  <use id="arrowleft" xlink:href="#arrowLeft" x="0" y="0" onmousedown="handlePan(-1,0)"/>
</g>
<svg viewBox="0 0 15 15" width="100%" height="30px" preserveAspectRatio="xMaxYMin meet">
 <g id="arrow_out" transform="scale(0.3 0.3)">
  <a xlink:href="couleurEnum_8hpp__dep__incl_org.svg" target="_base">
   <rect id="button" ry="5" rx="5" y="6" x="6" height="38" width="38"
        fill="#f2f5e9" fill-opacity="0.5" stroke="#606060" stroke-width="1.0"/>
   <path id="arrow"
     d="M 11.500037,31.436501 C 11.940474,20.09759 22.043105,11.32322 32.158766,21.979434 L 37.068811,17.246167 C 37.068811,17.246167 37.088388,32 37.088388,32 L 22.160133,31.978069 C 22.160133,31.978069 26.997745,27.140456 26.997745,27.140456 C 18.528582,18.264221 13.291696,25.230495 11.500037,31.436501 z"
     style="fill:#404040;"/>
  </a>
 </g>
</svg>

<style type='text/css'>
<![CDATA[
[data-mouse-over-selected='false'] { opacity: 0.7; }
[data-mouse-over-selected='true']  { opacity: 1.0; }
]]>
</style>
<script type="application/ecmascript"><![CDATA[
document.addEventListener('DOMContentLoaded', (event) => {
  highlightEdges();
  highlightAdjacentNodes();
});
]]></script>
</svg>
