<?xml version="1.0" encoding="UTF-8" standalone="no"?>
<!DOCTYPE svg PUBLIC "-//W3C//DTD SVG 1.1//EN"
 "http://www.w3.org/Graphics/SVG/1.1/DTD/svg11.dtd">
<!-- Generated by graphviz version 2.43.0 (0)
 -->
<!-- Title: architecture Pages: 1 -->
<svg width="774pt" height="218pt"
 viewBox="0.00 0.00 774.00 218.00" xmlns="http://www.w3.org/2000/svg" xmlns:xlink="http://www.w3.org/1999/xlink">
<g id="graph0" class="graph" transform="scale(1 1) rotate(0) translate(4 214)">
<title>architecture</title>
<polygon fill="white" stroke="transparent" points="-4,4 -4,-214 770,-214 770,4 -4,4"/>
<!-- Partie -->
<g id="node1" class="node">
<title>Partie</title>
<g id="a_node1"><a xlink:href="classPartie.html" target="_top" xlink:title="Partie">
<path fill="#f5f5f5" stroke="black" d="M42,-89C42,-89 12,-89 12,-89 6,-89 0,-83 0,-77 0,-77 0,-65 0,-65 0,-59 6,-53 12,-53 12,-53 42,-53 42,-53 48,-53 54,-59 54,-65 54,-65 54,-77 54,-77 54,-83 48,-89 42,-89"/>
<text text-anchor="middle" x="27" y="-68.2" font-family="Helvetica,sans-Serif" font-size="11.00">Partie</text>
</a>
</g>
</g>
<!-- Plateau -->
<g id="node2" class="node">
<title>Plateau</title>
<g id="a_node2"><a xlink:href="classPlateau.html" target="_top" xlink:title="Plateau">
<path fill="#f5f5f5" stroke="black" d="M146,-165C146,-165 112,-165 112,-165 106,-165 100,-159 100,-153 100,-153 100,-141 100,-141 100,-135 106,-129 112,-129 112,-129 146,-129 146,-129 152,-129 158,-135 158,-141 158,-141 158,-153 158,-153 158,-159 152,-165 146,-165"/>
<text text-anchor="middle" x="129" y="-144.2" font-family="Helvetica,sans-Serif" font-size="11.00">Plateau</text>
</a>
</g>
</g>
<!-- Partie&#45;&gt;Plateau -->
<g id="edge1" class="edge">
<title>Partie&#45;&gt;Plateau</title>
<path fill="none" stroke="black" d="M48.72,-89.09C55.97,-95.23 64.24,-102.05 72,-108 78.05,-112.63 84.59,-117.4 91,-121.94"/>
<polygon fill="black" stroke="black" points="91.03,-121.96 98.24,-122.12 100.87,-128.84 93.66,-128.68 91.03,-121.96"/>
<text text-anchor="middle" x="77" y="-117" font-family="Helvetica,sans-Serif" font-size="10.00"> 1</text>
</g>
<!-- Joueur -->
<g id="node3" class="node">
<title>Joueur</title>
<g id="a_node3"><a xlink:href="classJoueur.html" target="_top" xlink:title="Joueur">
<path fill="#f5f5f5" stroke="black" d="M438,-66C438,-66 408,-66 408,-66 402,-66 396,-60 396,-54 396,-54 396,-42 396,-42 396,-36 402,-30 408,-30 408,-30 438,-30 438,-30 444,-30 450,-36 450,-42 450,-42 450,-54 450,-54 450,-60 444,-66 438,-66"/>
<text text-anchor="middle" x="423" y="-45.2" font-family="Helvetica,sans-Serif" font-size="11.00">Joueur</text>
</a>
</g>
</g>
<!-- Partie&#45;&gt;Joueur -->
<g id="edge2" class="edge">
<title>Partie&#45;&gt;Joueur</title>
<path fill="none" stroke="black" d="M54.16,-69.47C121.97,-65.51 303.69,-54.91 383.51,-50.25"/>
<polygon fill="black" stroke="black" points="383.87,-50.23 389.63,-45.88 395.85,-49.53 390.1,-53.87 383.87,-50.23"/>
<text text-anchor="middle" x="187" y="-66" font-family="Helvetica,sans-Serif" font-size="10.00"> 2..4</text>
</g>
<!-- Train -->
<g id="node6" class="node">
<title>Train</title>
<g id="a_node6"><a xlink:href="classTrain.html" target="_top" xlink:title="Train">
<path fill="#f5f5f5" stroke="black" d="M585,-36C585,-36 555,-36 555,-36 549,-36 543,-30 543,-24 543,-24 543,-12 543,-12 543,-6 549,0 555,0 555,0 585,0 585,0 591,0 597,-6 597,-12 597,-12 597,-24 597,-24 597,-30 591,-36 585,-36"/>
<text text-anchor="middle" x="570" y="-15.2" font-family="Helvetica,sans-Serif" font-size="11.00">Train</text>
</a>
</g>
</g>
<!-- Partie&#45;&gt;Train -->
<g id="edge4" class="edge">
<title>Partie&#45;&gt;Train</title>
<path fill="none" stroke="black" d="M41.77,-52.97C59.32,-32.23 91.76,-1 128,-1 128,-1 128,-1 424,-1 460.43,-1 501.66,-6.36 530.82,-11.06"/>
<polygon fill="black" stroke="black" points="531.08,-11.1 537.66,-8.15 542.91,-13.08 536.34,-16.04 531.08,-11.1"/>
<text text-anchor="middle" x="253.5" y="-4" font-family="Helvetica,sans-Serif" font-size="10.00"> pioche</text>
</g>
<!-- Ticket -->
<g id="node7" class="node">
<title>Ticket</title>
<g id="a_node7"><a xlink:href="classTicket.html" target="_top" xlink:title="Ticket">
<path fill="#f5f5f5" stroke="black" d="M585,-112C585,-112 555,-112 555,-112 549,-112 543,-106 543,-100 543,-100 543,-88 543,-88 543,-82 549,-76 555,-76 555,-76 585,-76 585,-76 591,-76 597,-82 597,-88 597,-88 597,-100 597,-100 597,-106 591,-112 585,-112"/>
<text text-anchor="middle" x="570" y="-91.2" font-family="Helvetica,sans-Serif" font-size="11.00">Ticket</text>
</a>
</g>
</g>
<!-- Partie&#45;&gt;Ticket -->
<g id="edge3" class="edge">
<title>Partie&#45;&gt;Ticket</title>
<path fill="none" stroke="black" d="M54.36,-80.49C74.31,-86.82 102.53,-94 128,-94 128,-94 128,-94 424,-94 460.18,-94 501.44,-94 530.67,-94"/>
<polygon fill="black" stroke="black" points="530.81,-94 536.81,-90 542.81,-94 536.81,-98 530.81,-94"/>
<text text-anchor="middle" x="253.5" y="-97" font-family="Helvetica,sans-Serif" font-size="10.00"> pioche</text>
</g>
<!-- Ville -->
<g id="node4" class="node">
<title>Ville</title>
<g id="a_node4"><a xlink:href="classVille.html" target="_top" xlink:title="Ville">
<path fill="#f5f5f5" stroke="black" d="M754,-171C754,-171 724,-171 724,-171 718,-171 712,-165 712,-159 712,-159 712,-147 712,-147 712,-141 718,-135 724,-135 724,-135 754,-135 754,-135 760,-135 766,-141 766,-147 766,-147 766,-159 766,-159 766,-165 760,-171 754,-171"/>
<text text-anchor="middle" x="739" y="-150.2" font-family="Helvetica,sans-Serif" font-size="11.00">Ville</text>
</a>
</g>
</g>
<!-- Plateau&#45;&gt;Ville -->
<g id="edge7" class="edge">
<title>Plateau&#45;&gt;Ville</title>
<path fill="none" stroke="black" d="M155.9,-165.19C179.82,-180.18 216.92,-199 252.5,-199 252.5,-199 252.5,-199 571,-199 616.67,-199 666.92,-182.81 700.24,-169.65"/>
<polygon fill="black" stroke="black" points="700.61,-169.5 704.65,-163.53 711.72,-164.97 707.67,-170.94 700.61,-169.5"/>
<text text-anchor="middle" x="423" y="-202" font-family="Helvetica,sans-Serif" font-size="10.00"> *</text>
</g>
<!-- VoieFerree -->
<g id="node5" class="node">
<title>VoieFerree</title>
<g id="a_node5"><a xlink:href="classVoieFerree.html" target="_top" xlink:title="VoieFerree">
<path fill="#f5f5f5" stroke="black" d="M279,-165C279,-165 228,-165 228,-165 222,-165 216,-159 216,-153 216,-153 216,-141 216,-141 216,-135 222,-129 228,-129 228,-129 279,-129 279,-129 285,-129 291,-135 291,-141 291,-141 291,-153 291,-153 291,-159 285,-165 279,-165"/>
<text text-anchor="middle" x="253.5" y="-144.2" font-family="Helvetica,sans-Serif" font-size="11.00">VoieFerree</text>
</a>
</g>
</g>
<!-- Plateau&#45;&gt;VoieFerree -->
<g id="edge8" class="edge">
<title>Plateau&#45;&gt;VoieFerree</title>
<path fill="none" stroke="black" d="M158.1,-147C171.59,-147 188.15,-147 203.61,-147"/>
<polygon fill="black" stroke="black" points="203.7,-147 209.7,-143 215.7,-147 209.7,-151 203.7,-147"/>
<text text-anchor="middle" x="187" y="-150" font-family="Helvetica,sans-Serif" font-size="10.00"> *</text>
</g>
<!-- Joueur&#45;&gt;Train -->
<g id="edge5" class="edge">
<title>Joueur&#45;&gt;Train</title>
<path fill="none" stroke="black" d="M450.39,-39.64C456.16,-37.97 462.26,-36.33 468,-35 488.51,-30.26 511.65,-26.27 530.6,-23.35"/>
<polygon fill="black" stroke="black" points="530.8,-23.32 536.14,-18.48 542.67,-21.54 537.33,-26.39 530.8,-23.32"/>
<text text-anchor="middle" x="496.5" y="-38" font-family="Helvetica,sans-Serif" font-size="10.00"> main</text>
</g>
<!-- Joueur&#45;&gt;Ticket -->
<g id="edge6" class="edge">
<title>Joueur&#45;&gt;Ticket</title>
<path fill="none" stroke="black" d="M450.37,-51.19C471.13,-54.24 500.54,-59.77 525,-69 527.22,-69.84 529.46,-70.78 531.69,-71.79"/>
<polygon fill="black" stroke="black" points="531.93,-71.9 539.08,-71.02 542.66,-77.28 535.5,-78.17 531.93,-71.9"/>
<text text-anchor="middle" x="496.5" y="-72" font-family="Helvetica,sans-Serif" font-size="10.00"> missions</text>
</g>
<!-- VoieFerree&#45;&gt;Joueur -->
<g id="edge10" class="edge">
<title>VoieFerree&#45;&gt;Joueur</title>
<path fill="none" stroke="black" stroke-dasharray="5,2" d="M285.22,-128.84C313.98,-111.84 356.91,-86.47 386.98,-68.7"/>
<polygon fill="black" stroke="black" points="389.05,-71.54 395.87,-63.44 385.48,-65.52 389.05,-71.54"/>
<text text-anchor="middle" x="343.5" y="-115" font-family="Helvetica,sans-Serif" font-size="10.00"> propriétaire ?</text>
</g>
<!-- VoieFerree&#45;&gt;Ville -->
<g id="edge9" class="edge">
<title>VoieFerree&#45;&gt;Ville</title>
<path fill="none" stroke="black" d="M291.24,-147.46C381.24,-148.57 611.91,-151.44 701.58,-152.55"/>
<polygon fill="black" stroke="black" points="701.76,-156.05 711.8,-152.67 701.84,-149.05 701.76,-156.05"/>
<text text-anchor="middle" x="496.5" y="-153" font-family="Helvetica,sans-Serif" font-size="10.00"> extrémités</text>
</g>
<!-- Ticket&#45;&gt;Ville -->
<g id="edge11" class="edge">
<title>Ticket&#45;&gt;Ville</title>
<path fill="none" stroke="black" d="M597.06,-99.24C622.39,-104.78 661.67,-114.59 694,-128 696.83,-129.17 699.71,-130.49 702.56,-131.89"/>
<polygon fill="black" stroke="black" points="701.05,-135.05 711.54,-136.58 704.29,-128.85 701.05,-135.05"/>
<text text-anchor="middle" x="654.5" y="-131" font-family="Helvetica,sans-Serif" font-size="10.00"> départ / arrivée</text>
</g>
</g>
</svg>
