<?xml version="1.0" encoding="UTF-8" standalone="no"?>
<!DOCTYPE svg PUBLIC "-//W3C//DTD SVG 1.1//EN"
 "http://www.w3.org/Graphics/SVG/1.1/DTD/svg11.dtd">
<!-- Generated by graphviz version 2.43.0 (0)
 -->
<!-- Title: src/gui_main.cpp Pages: 1 -->
<!--zoomable 357 -->

<svg id="main" version="1.1" xmlns="http://www.w3.org/2000/svg" xmlns:xlink="http://www.w3.org/1999/xlink" xml:space="preserve" onload="init(evt)">
<style type="text/css"><![CDATA[
.node, .edge {opacity: 0.7;}
.node.selected, .edge.selected {opacity: 1;}
.edge:hover path { stroke: red; }
.edge:hover polygon { stroke: red; fill: red; }
]]></style>

<defs>
  <circle id="rim" cx="0" cy="0" r="7"/>
  <circle id="rim2" cx="0" cy="0" r="3.5"/>
  <g id="zoomPlus">
    <use xlink:href="#rim" fill="#404040"><set attributeName="fill" to="#808080" begin="zoomplus.mouseover" end="zoomplus.mouseout"/></use>
    <path d="M-4,0h8M0,-4v8" fill="none" stroke="white" stroke-width="1.5" pointer-events="none"/>
  </g>
  <g id="zoomMin">
    <use xlink:href="#rim" fill="#404040"><set attributeName="fill" to="#808080" begin="zoomminus.mouseover" end="zoomminus.mouseout"/></use>
    <path d="M-4,0h8" fill="none" stroke="white" stroke-width="1.5" pointer-events="none"/>
  </g>
  <g id="arrowUp" transform="translate(30 24)">
    <use xlink:href="#rim"/>
    <path pointer-events="none" fill="none" stroke="white" stroke-width="1.5" d="M0,-3.0v7 M-2.5,-0.5L0,-3.0L2.5,-0.5"/>
  </g>
  <g id="arrowRight" transform="rotate(90) translate(36 -43)">
    <use xlink:href="#rim"/>
    <path pointer-events="none" fill="none" stroke="white" stroke-width="1.5" d="M0,-3.0v7 M-2.5,-0.5L0,-3.0L2.5,-0.5"/>
  </g>
  <g id="arrowDown" transform="rotate(180) translate(-30 -48)">
    <use xlink:href="#rim"/>
    <path pointer-events="none" fill="none" stroke="white" stroke-width="1.5" d="M0,-3.0v7 M-2.5,-0.5L0,-3.0L2.5,-0.5"/>
  </g>
  <g id="arrowLeft" transform="rotate(270) translate(-36 17)">
    <use xlink:href="#rim"/>
    <path pointer-events="none" fill="none" stroke="white" stroke-width="1.5" d="M0,-3.0v7 M-2.5,-0.5L0,-3.0L2.5,-0.5"/>
  </g>
  <g id="resetDef">
    <use xlink:href="#rim2" fill="#404040"><set attributeName="fill" to="#808080" begin="reset.mouseover" end="reset.mouseout"/></use>
  </g>
</defs>
<script type="application/ecmascript">
var viewWidth = 2548;
var viewHeight = 357;
var sectionId = 'dynsection-0';
</script>
<script type="application/ecmascript" xlink:href="svg.min.js"/>
<svg id="graph" class="graph">
<g id="viewport">
<title>src/gui_main.cpp</title>
<!-- Node1 -->
<g id="Node000001" class="node">
<title>Node1</title>
<g id="a_Node000001"><a xlink:title=" ">
<polygon fill="#999999" stroke="#666666" points="1414,-349 1315,-349 1315,-330 1414,-330 1414,-349"/>
<text text-anchor="middle" x="1364.5" y="-337" font-family="Helvetica,sans-Serif" font-size="10.00">src/gui_main.cpp</text>
</a>
</g>
</g>
<!-- Node2 -->
<g id="Node000002" class="node">
<title>Node2</title>
<g id="a_Node000002"><a xlink:title=" ">
<polygon fill="#e0e0e0" stroke="#999999" points="79,-294 0,-294 0,-275 79,-275 79,-294"/>
<text text-anchor="middle" x="39.5" y="-282" font-family="Helvetica,sans-Serif" font-size="10.00">QApplication</text>
</a>
</g>
</g>
<!-- Node1&#45;&gt;Node2 -->
<g id="edge1_Node000001_Node000002" class="edge">
<title>Node1&#45;&gt;Node2</title>
<g id="a_edge1_Node000001_Node000002"><a xlink:title=" ">
<path fill="none" stroke="#63b8ff" d="M1314.83,-337.7C1112.93,-334.32 352.39,-320.16 89.52,-294.04"/>
<polygon fill="#63b8ff" stroke="#63b8ff" points="89.56,-290.52 79.25,-292.98 88.84,-297.48 89.56,-290.52"/>
</a>
</g>
</g>
<!-- Node3 -->
<g id="Node000003" class="node">
<title>Node3</title>
<g id="a_Node000003"><a xlink:title=" ">
<polygon fill="#e0e0e0" stroke="#999999" points="156,-294 97,-294 97,-275 156,-275 156,-294"/>
<text text-anchor="middle" x="126.5" y="-282" font-family="Helvetica,sans-Serif" font-size="10.00">QWidget</text>
</a>
</g>
</g>
<!-- Node1&#45;&gt;Node3 -->
<g id="edge2_Node000001_Node000003" class="edge">
<title>Node1&#45;&gt;Node3</title>
<g id="a_edge2_Node000001_Node000003"><a xlink:title=" ">
<path fill="none" stroke="#63b8ff" d="M1314.87,-337.83C1120.9,-335.05 413.06,-323.16 166.21,-293.78"/>
<polygon fill="#63b8ff" stroke="#63b8ff" points="166.57,-290.29 156.22,-292.55 165.71,-297.24 166.57,-290.29"/>
</a>
</g>
</g>
<!-- Node4 -->
<g id="Node000004" class="node">
<title>Node4</title>
<g id="a_Node000004"><a xlink:title=" ">
<polygon fill="#e0e0e0" stroke="#999999" points="232.5,-294 174.5,-294 174.5,-275 232.5,-275 232.5,-294"/>
<text text-anchor="middle" x="203.5" y="-282" font-family="Helvetica,sans-Serif" font-size="10.00">QPainter</text>
</a>
</g>
</g>
<!-- Node1&#45;&gt;Node4 -->
<g id="edge3_Node000001_Node000004" class="edge">
<title>Node1&#45;&gt;Node4</title>
<g id="a_edge3_Node000001_Node000004"><a xlink:title=" ">
<path fill="none" stroke="#63b8ff" d="M1314.83,-337.72C1128.88,-334.64 473.2,-322.07 242.85,-293.89"/>
<polygon fill="#63b8ff" stroke="#63b8ff" points="243.23,-290.4 232.86,-292.62 242.34,-297.35 243.23,-290.4"/>
</a>
</g>
</g>
<!-- Node5 -->
<g id="Node000005" class="node">
<title>Node5</title>
<g id="a_Node000005"><a xlink:title=" ">
<polygon fill="#e0e0e0" stroke="#999999" points="330,-294 251,-294 251,-275 330,-275 330,-294"/>
<text text-anchor="middle" x="290.5" y="-282" font-family="Helvetica,sans-Serif" font-size="10.00">QPainterPath</text>
</a>
</g>
</g>
<!-- Node1&#45;&gt;Node5 -->
<g id="edge4_Node000001_Node000005" class="edge">
<title>Node1&#45;&gt;Node5</title>
<g id="a_edge4_Node000001_Node000005"><a xlink:title=" ">
<path fill="none" stroke="#63b8ff" d="M1314.94,-338.66C1167.73,-338.65 720.19,-335.08 340.34,-294.06"/>
<polygon fill="#63b8ff" stroke="#63b8ff" points="340.57,-290.56 330.25,-292.96 339.82,-297.52 340.57,-290.56"/>
</a>
</g>
</g>
<!-- Node6 -->
<g id="Node000006" class="node">
<title>Node6</title>
<g id="a_Node000006"><a xlink:title=" ">
<polygon fill="#e0e0e0" stroke="#999999" points="401,-294 348,-294 348,-275 401,-275 401,-294"/>
<text text-anchor="middle" x="374.5" y="-282" font-family="Helvetica,sans-Serif" font-size="10.00">QTimer</text>
</a>
</g>
</g>
<!-- Node1&#45;&gt;Node6 -->
<g id="edge5_Node000001_Node000006" class="edge">
<title>Node1&#45;&gt;Node6</title>
<g id="a_edge5_Node000001_Node000006"><a xlink:title=" ">
<path fill="none" stroke="#63b8ff" d="M1314.84,-337.44C1147.82,-333.7 606.44,-319.94 411.29,-293.94"/>
<polygon fill="#63b8ff" stroke="#63b8ff" points="411.54,-290.44 401.15,-292.53 410.57,-297.37 411.54,-290.44"/>
</a>
</g>
</g>
<!-- Node7 -->
<g id="Node000007" class="node">
<title>Node7</title>
<g id="a_Node000007"><a xlink:title=" ">
<polygon fill="#e0e0e0" stroke="#999999" points="510,-294 419,-294 419,-275 510,-275 510,-294"/>
<text text-anchor="middle" x="464.5" y="-282" font-family="Helvetica,sans-Serif" font-size="10.00">QElapsedTimer</text>
</a>
</g>
</g>
<!-- Node1&#45;&gt;Node7 -->
<g id="edge6_Node000001_Node000007" class="edge">
<title>Node1&#45;&gt;Node7</title>
<g id="a_edge6_Node000001_Node000007"><a xlink:title=" ">
<path fill="none" stroke="#63b8ff" d="M1314.84,-337.63C1185.65,-334.99 828.31,-325.32 520.1,-293.93"/>
<polygon fill="#63b8ff" stroke="#63b8ff" points="520.38,-290.45 510.07,-292.9 519.66,-297.41 520.38,-290.45"/>
</a>
</g>
</g>
<!-- Node8 -->
<g id="Node000008" class="node">
<title>Node8</title>
<g id="a_Node000008"><a xlink:title=" ">
<polygon fill="#e0e0e0" stroke="#999999" points="612.5,-294 528.5,-294 528.5,-275 612.5,-275 612.5,-294"/>
<text text-anchor="middle" x="570.5" y="-282" font-family="Helvetica,sans-Serif" font-size="10.00">QMouseEvent</text>
</a>
</g>
</g>
<!-- Node1&#45;&gt;Node8 -->
<g id="edge7_Node000001_Node000008" class="edge">
<title>Node1&#45;&gt;Node8</title>
<g id="a_edge7_Node000001_Node000008"><a xlink:title=" ">
<path fill="none" stroke="#63b8ff" d="M1314.78,-337.33C1196.6,-334.16 889.46,-323.64 623.01,-294.05"/>
<polygon fill="#63b8ff" stroke="#63b8ff" points="623.08,-290.53 612.75,-292.89 622.3,-297.49 623.08,-290.53"/>
</a>
</g>
</g>
<!-- Node9 -->
<g id="Node000009" class="node">
<title>Node9</title>
<g id="a_Node000009"><a xlink:title=" ">
<polygon fill="#e0e0e0" stroke="#999999" points="700.5,-294 630.5,-294 630.5,-275 700.5,-275 700.5,-294"/>
<text text-anchor="middle" x="665.5" y="-282" font-family="Helvetica,sans-Serif" font-size="10.00">QKeyEvent</text>
</a>
</g>
</g>
<!-- Node1&#45;&gt;Node9 -->
<g id="edge8_Node000001_Node000009" class="edge">
<title>Node1&#45;&gt;Node9</title>
<g id="a_edge8_Node000001_Node000009"><a xlink:title=" ">
<path fill="none" stroke="#63b8ff" d="M1315,-337.21C1207,-333.96 942.06,-323.55 710.46,-293.95"/>
<polygon fill="#63b8ff" stroke="#63b8ff" points="710.87,-290.48 700.5,-292.66 709.97,-297.42 710.87,-290.48"/>
</a>
</g>
</g>
<!-- Node10 -->
<g id="Node000010" class="node">
<title>Node10</title>
<g id="a_Node000010"><a xlink:title=" ">
<polygon fill="#e0e0e0" stroke="#999999" points="764,-294 719,-294 719,-275 764,-275 764,-294"/>
<text text-anchor="middle" x="741.5" y="-282" font-family="Helvetica,sans-Serif" font-size="10.00">QFont</text>
</a>
</g>
</g>
<!-- Node1&#45;&gt;Node10 -->
<g id="edge9_Node000001_Node000010" class="edge">
<title>Node1&#45;&gt;Node10</title>
<g id="a_edge9_Node000001_Node000010"><a xlink:title=" ">
<path fill="none" stroke="#63b8ff" d="M1314.99,-337.99C1214.47,-336.26 979.29,-328.69 774.13,-293.96"/>
<polygon fill="#63b8ff" stroke="#63b8ff" points="774.52,-290.47 764.07,-292.23 773.34,-297.37 774.52,-290.47"/>
</a>
</g>
</g>
<!-- Node11 -->
<g id="Node000011" class="node">
<title>Node11</title>
<g id="a_Node000011"><a xlink:title=" ">
<polygon fill="#e0e0e0" stroke="#999999" points="863,-294 782,-294 782,-275 863,-275 863,-294"/>
<text text-anchor="middle" x="822.5" y="-282" font-family="Helvetica,sans-Serif" font-size="10.00">QFontMetrics</text>
</a>
</g>
</g>
<!-- Node1&#45;&gt;Node11 -->
<g id="edge10_Node000001_Node000011" class="edge">
<title>Node1&#45;&gt;Node11</title>
<g id="a_edge10_Node000001_Node000011"><a xlink:title=" ">
<path fill="none" stroke="#63b8ff" d="M1314.78,-335.29C1227.56,-329.39 1041.14,-315.51 873.14,-293.97"/>
<polygon fill="#63b8ff" stroke="#63b8ff" points="873.49,-290.49 863.12,-292.68 872.59,-297.43 873.49,-290.49"/>
</a>
</g>
</g>
<!-- Node12 -->
<g id="Node000012" class="node">
<title>Node12</title>
<g id="a_Node000012"><a xlink:title=" ">
<polygon fill="#e0e0e0" stroke="#999999" points="931.5,-294 881.5,-294 881.5,-275 931.5,-275 931.5,-294"/>
<text text-anchor="middle" x="906.5" y="-282" font-family="Helvetica,sans-Serif" font-size="10.00">QColor</text>
</a>
</g>
</g>
<!-- Node1&#45;&gt;Node12 -->
<g id="edge11_Node000001_Node000012" class="edge">
<title>Node1&#45;&gt;Node12</title>
<g id="a_edge11_Node000001_Node000012"><a xlink:title=" ">
<path fill="none" stroke="#63b8ff" d="M1314.9,-335.56C1237.28,-330.47 1082.28,-318.3 941.76,-293.98"/>
<polygon fill="#63b8ff" stroke="#63b8ff" points="942.12,-290.49 931.67,-292.21 940.91,-297.39 942.12,-290.49"/>
</a>
</g>
</g>
<!-- Node13 -->
<g id="Node000013" class="node">
<title>Node13</title>
<g id="a_Node000013"><a xlink:title=" ">
<polygon fill="#e0e0e0" stroke="#999999" points="1011,-294 950,-294 950,-275 1011,-275 1011,-294"/>
<text text-anchor="middle" x="980.5" y="-282" font-family="Helvetica,sans-Serif" font-size="10.00">QPixmap</text>
</a>
</g>
</g>
<!-- Node1&#45;&gt;Node13 -->
<g id="edge12_Node000001_Node000013" class="edge">
<title>Node1&#45;&gt;Node13</title>
<g id="a_edge12_Node000001_Node000013"><a xlink:title=" ">
<path fill="none" stroke="#63b8ff" d="M1314.75,-333.34C1249.66,-326.31 1131.84,-312.61 1021.04,-293.95"/>
<polygon fill="#63b8ff" stroke="#63b8ff" points="1021.47,-290.48 1011.03,-292.25 1020.3,-297.38 1021.47,-290.48"/>
</a>
</g>
</g>
<!-- Node14 -->
<g id="Node000014" class="node">
<title>Node14</title>
<g id="a_Node000014"><a xlink:title=" ">
<polygon fill="#e0e0e0" stroke="#999999" points="1081.5,-294 1029.5,-294 1029.5,-275 1081.5,-275 1081.5,-294"/>
<text text-anchor="middle" x="1055.5" y="-282" font-family="Helvetica,sans-Serif" font-size="10.00">QRectF</text>
</a>
</g>
</g>
<!-- Node1&#45;&gt;Node14 -->
<g id="edge13_Node000001_Node000014" class="edge">
<title>Node1&#45;&gt;Node14</title>
<g id="a_edge13_Node000001_Node000014"><a xlink:title=" ">
<path fill="none" stroke="#63b8ff" d="M1314.79,-331.61C1261.83,-324 1175.34,-310.82 1091.74,-294.12"/>
<polygon fill="#63b8ff" stroke="#63b8ff" points="1092.32,-290.67 1081.82,-292.12 1090.94,-297.53 1092.32,-290.67"/>
</a>
</g>
</g>
<!-- Node15 -->
<g id="Node000015" class="node">
<title>Node15</title>
<g id="a_Node000015"><a xlink:title=" ">
<polygon fill="#e0e0e0" stroke="#999999" points="1155,-294 1100,-294 1100,-275 1155,-275 1155,-294"/>
<text text-anchor="middle" x="1127.5" y="-282" font-family="Helvetica,sans-Serif" font-size="10.00">QPointF</text>
</a>
</g>
</g>
<!-- Node1&#45;&gt;Node15 -->
<g id="edge14_Node000001_Node000015" class="edge">
<title>Node1&#45;&gt;Node15</title>
<g id="a_edge14_Node000001_Node000015"><a xlink:title=" ">
<path fill="none" stroke="#63b8ff" d="M1325.18,-329.96C1286.69,-321.57 1226.14,-308.27 1164.85,-294.29"/>
<polygon fill="#63b8ff" stroke="#63b8ff" points="1165.54,-290.85 1155.01,-292.04 1163.98,-297.68 1165.54,-290.85"/>
</a>
</g>
</g>
<!-- Node16 -->
<g id="Node000016" class="node">
<title>Node16</title>
<g id="a_Node000016"><a xlink:title=" ">
<polygon fill="#e0e0e0" stroke="#999999" points="1226,-294 1173,-294 1173,-275 1226,-275 1226,-294"/>
<text text-anchor="middle" x="1199.5" y="-282" font-family="Helvetica,sans-Serif" font-size="10.00">QString</text>
</a>
</g>
</g>
<!-- Node1&#45;&gt;Node16 -->
<g id="edge15_Node000001_Node000016" class="edge">
<title>Node1&#45;&gt;Node16</title>
<g id="a_edge15_Node000001_Node000016"><a xlink:title=" ">
<path fill="none" stroke="#63b8ff" d="M1337.99,-329.98C1310.29,-321.09 1266.64,-307.07 1235.76,-297.15"/>
<polygon fill="#63b8ff" stroke="#63b8ff" points="1236.81,-293.81 1226.22,-294.08 1234.67,-300.47 1236.81,-293.81"/>
</a>
</g>
</g>
<!-- Node17 -->
<g id="Node000017" class="node">
<title>Node17</title>
<g id="a_Node000017"><a xlink:title=" ">
<polygon fill="#e0e0e0" stroke="#999999" points="1286.5,-294 1244.5,-294 1244.5,-275 1286.5,-275 1286.5,-294"/>
<text text-anchor="middle" x="1265.5" y="-282" font-family="Helvetica,sans-Serif" font-size="10.00">QPen</text>
</a>
</g>
</g>
<!-- Node1&#45;&gt;Node17 -->
<g id="edge16_Node000001_Node000017" class="edge">
<title>Node1&#45;&gt;Node17</title>
<g id="a_edge16_Node000001_Node000017"><a xlink:title=" ">
<path fill="none" stroke="#63b8ff" d="M1348.59,-329.98C1332.95,-321.61 1308.84,-308.7 1290.62,-298.95"/>
<polygon fill="#63b8ff" stroke="#63b8ff" points="1292.16,-295.8 1281.7,-294.17 1288.86,-301.98 1292.16,-295.8"/>
</a>
</g>
</g>
<!-- Node18 -->
<g id="Node000018" class="node">
<title>Node18</title>
<g id="a_Node000018"><a xlink:title=" ">
<polygon fill="#e0e0e0" stroke="#999999" points="1356.5,-294 1304.5,-294 1304.5,-275 1356.5,-275 1356.5,-294"/>
<text text-anchor="middle" x="1330.5" y="-282" font-family="Helvetica,sans-Serif" font-size="10.00">QBrush</text>
</a>
</g>
</g>
<!-- Node1&#45;&gt;Node18 -->
<g id="edge17_Node000001_Node000018" class="edge">
<title>Node1&#45;&gt;Node18</title>
<g id="a_edge17_Node000001_Node000018"><a xlink:title=" ">
<path fill="none" stroke="#63b8ff" d="M1358.89,-329.75C1354.18,-322.42 1347.33,-311.73 1341.53,-302.7"/>
<polygon fill="#63b8ff" stroke="#63b8ff" points="1344.36,-300.62 1336.01,-294.09 1338.46,-304.4 1344.36,-300.62"/>
</a>
</g>
</g>
<!-- Node19 -->
<g id="Node000019" class="node">
<title>Node19</title>
<g id="a_Node000019"><a xlink:title=" ">
<polygon fill="#e0e0e0" stroke="#999999" points="1422,-294 1375,-294 1375,-275 1422,-275 1422,-294"/>
<text text-anchor="middle" x="1398.5" y="-282" font-family="Helvetica,sans-Serif" font-size="10.00">cmath</text>
</a>
</g>
</g>
<!-- Node1&#45;&gt;Node19 -->
<g id="edge18_Node000001_Node000019" class="edge">
<title>Node1&#45;&gt;Node19</title>
<g id="a_edge18_Node000001_Node000019"><a xlink:title=" ">
<path fill="none" stroke="#63b8ff" d="M1370.11,-329.75C1374.82,-322.42 1381.67,-311.73 1387.47,-302.7"/>
<polygon fill="#63b8ff" stroke="#63b8ff" points="1390.54,-304.4 1392.99,-294.09 1384.64,-300.62 1390.54,-304.4"/>
</a>
</g>
</g>
<!-- Node20 -->
<g id="Node000020" class="node">
<title>Node20</title>
<g id="a_Node000020"><a xlink:title=" ">
<polygon fill="#e0e0e0" stroke="#999999" points="1483,-129 1428,-129 1428,-110 1483,-110 1483,-129"/>
<text text-anchor="middle" x="1455.5" y="-117" font-family="Helvetica,sans-Serif" font-size="10.00">fstream</text>
</a>
</g>
</g>
<!-- Node1&#45;&gt;Node20 -->
<g id="edge19_Node000001_Node000020" class="edge">
<title>Node1&#45;&gt;Node20</title>
<g id="a_edge19_Node000001_Node000020"><a xlink:title=" ">
<path fill="none" stroke="#63b8ff" d="M1414.1,-336.53C1444.94,-332.42 1482.42,-321.57 1502.5,-294 1538.1,-245.12 1492.87,-170.82 1468.79,-137.6"/>
<polygon fill="#63b8ff" stroke="#63b8ff" points="1471.43,-135.29 1462.64,-129.37 1465.82,-139.48 1471.43,-135.29"/>
</a>
</g>
</g>
<!-- Node21 -->
<g id="Node000021" class="node">
<title>Node21</title>
<g id="a_Node000021"><a xlink:title=" ">
<polygon fill="#e0e0e0" stroke="#999999" points="1557.5,-129 1501.5,-129 1501.5,-110 1557.5,-110 1557.5,-129"/>
<text text-anchor="middle" x="1529.5" y="-117" font-family="Helvetica,sans-Serif" font-size="10.00">sstream</text>
</a>
</g>
</g>
<!-- Node1&#45;&gt;Node21 -->
<g id="edge20_Node000001_Node000021" class="edge">
<title>Node1&#45;&gt;Node21</title>
<g id="a_edge20_Node000001_Node000021"><a xlink:title=" ">
<path fill="none" stroke="#63b8ff" d="M1414.35,-338.2C1449.75,-335.13 1495.44,-324.84 1521.5,-294 1558.91,-249.73 1544.66,-174.14 1535.23,-139.21"/>
<polygon fill="#63b8ff" stroke="#63b8ff" points="1538.53,-138.03 1532.41,-129.39 1531.8,-139.97 1538.53,-138.03"/>
</a>
</g>
</g>
<!-- Node22 -->
<g id="Node000022" class="node">
<title>Node22</title>
<g id="a_Node000022"><a xlink:title=" ">
<polygon fill="#e0e0e0" stroke="#999999" points="2010.5,-19 1966.5,-19 1966.5,0 2010.5,0 2010.5,-19"/>
<text text-anchor="middle" x="1988.5" y="-7" font-family="Helvetica,sans-Serif" font-size="10.00">string</text>
</a>
</g>
</g>
<!-- Node1&#45;&gt;Node22 -->
<g id="edge21_Node000001_Node000022" class="edge">
<title>Node1&#45;&gt;Node22</title>
<g id="a_edge21_Node000001_Node000022"><a xlink:title=" ">
<path fill="none" stroke="#63b8ff" d="M1387.28,-329.89C1402.53,-322.79 1421.42,-311.08 1430.5,-294 1469.31,-221.02 1350.18,-173.16 1403.5,-110 1475.45,-24.78 1844.15,-12.54 1956.18,-10.79"/>
<polygon fill="#63b8ff" stroke="#63b8ff" points="1956.25,-14.29 1966.2,-10.65 1956.15,-7.29 1956.25,-14.29"/>
</a>
</g>
</g>
<!-- Node23 -->
<g id="Node000023" class="node">
<title>Node23</title>
<g id="a_Node000023"><a xlink:title=" ">
<polygon fill="#e0e0e0" stroke="#999999" points="2352,-74 2305,-74 2305,-55 2352,-55 2352,-74"/>
<text text-anchor="middle" x="2328.5" y="-62" font-family="Helvetica,sans-Serif" font-size="10.00">vector</text>
</a>
</g>
</g>
<!-- Node1&#45;&gt;Node23 -->
<g id="edge22_Node000001_Node000023" class="edge">
<title>Node1&#45;&gt;Node23</title>
<g id="a_edge22_Node000001_Node000023"><a xlink:title=" ">
<path fill="none" stroke="#63b8ff" d="M1414.47,-338.1C1551,-336.55 1928.05,-329.13 2046.5,-294 2172.01,-256.78 2202.99,-226.36 2290.5,-129 2302.82,-115.29 2313.26,-97.01 2320.07,-83.58"/>
<polygon fill="#63b8ff" stroke="#63b8ff" points="2323.3,-84.94 2324.53,-74.42 2317,-81.88 2323.3,-84.94"/>
</a>
</g>
</g>
<!-- Node24 -->
<g id="Node000024" class="node">
<title>Node24</title>
<g id="a_Node000024"><a xlink:title=" ">
<polygon fill="#e0e0e0" stroke="#999999" points="2417.5,-294 2375.5,-294 2375.5,-275 2417.5,-275 2417.5,-294"/>
<text text-anchor="middle" x="2396.5" y="-282" font-family="Helvetica,sans-Serif" font-size="10.00">array</text>
</a>
</g>
</g>
<!-- Node1&#45;&gt;Node24 -->
<g id="edge23_Node000001_Node000024" class="edge">
<title>Node1&#45;&gt;Node24</title>
<g id="a_edge23_Node000001_Node000024"><a xlink:title=" ">
<path fill="none" stroke="#63b8ff" d="M1414.21,-337.56C1589.1,-334.03 2175.49,-320.48 2361.5,-294 2362.75,-293.82 2364.03,-293.62 2365.31,-293.39"/>
<polygon fill="#63b8ff" stroke="#63b8ff" points="2366.06,-296.81 2375.16,-291.38 2364.66,-289.96 2366.06,-296.81"/>
</a>
</g>
</g>
<!-- Node25 -->
<g id="Node000025" class="node">
<title>Node25</title>
<g id="a_Node000025"><a xlink:title=" ">
<polygon fill="#e0e0e0" stroke="#999999" points="1613.5,-129 1575.5,-129 1575.5,-110 1613.5,-110 1613.5,-129"/>
<text text-anchor="middle" x="1594.5" y="-117" font-family="Helvetica,sans-Serif" font-size="10.00">map</text>
</a>
</g>
</g>
<!-- Node1&#45;&gt;Node25 -->
<g id="edge24_Node000001_Node000025" class="edge">
<title>Node1&#45;&gt;Node25</title>
<g id="a_edge24_Node000001_Node000025"><a xlink:title=" ">
<path fill="none" stroke="#63b8ff" d="M1414.11,-338.5C1453.4,-335.86 1507.2,-325.98 1541.5,-294 1585.79,-252.71 1593.45,-175.57 1594.52,-139.73"/>
<polygon fill="#63b8ff" stroke="#63b8ff" points="1598.02,-139.32 1594.67,-129.27 1591.02,-139.21 1598.02,-139.32"/>
</a>
</g>
</g>
<!-- Node26 -->
<g id="Node000026" class="node">
<title>Node26</title>
<g id="a_Node000026"><a xlink:title=" ">
<polygon fill="#e0e0e0" stroke="#999999" points="2467.5,-294 2435.5,-294 2435.5,-275 2467.5,-275 2467.5,-294"/>
<text text-anchor="middle" x="2451.5" y="-282" font-family="Helvetica,sans-Serif" font-size="10.00">set</text>
</a>
</g>
</g>
<!-- Node1&#45;&gt;Node26 -->
<g id="edge25_Node000001_Node000026" class="edge">
<title>Node1&#45;&gt;Node26</title>
<g id="a_edge25_Node000001_Node000026"><a xlink:title=" ">
<path fill="none" stroke="#63b8ff" d="M1414.06,-338.3C1593.39,-337.27 2208.9,-331.2 2425.27,-293.58"/>
<polygon fill="#63b8ff" stroke="#63b8ff" points="2426.06,-296.99 2435.27,-291.76 2424.81,-290.1 2426.06,-296.99"/>
</a>
</g>
</g>
<!-- Node27 -->
<g id="Node000027" class="node">
<title>Node27</title>
<g id="a_Node000027"><a xlink:title=" ">
<polygon fill="#e0e0e0" stroke="#999999" points="1695.5,-129 1631.5,-129 1631.5,-110 1695.5,-110 1695.5,-129"/>
<text text-anchor="middle" x="1663.5" y="-117" font-family="Helvetica,sans-Serif" font-size="10.00">algorithm</text>
</a>
</g>
</g>
<!-- Node1&#45;&gt;Node27 -->
<g id="edge26_Node000001_Node000027" class="edge">
<title>Node1&#45;&gt;Node27</title>
<g id="a_edge26_Node000001_Node000027"><a xlink:title=" ">
<path fill="none" stroke="#63b8ff" d="M1414.03,-338.27C1457.3,-335.71 1519.86,-326.08 1563.5,-294 1617.84,-254.05 1647.25,-175.01 1658.31,-139.07"/>
<polygon fill="#63b8ff" stroke="#63b8ff" points="1661.8,-139.6 1661.26,-129.02 1655.08,-137.63 1661.8,-139.6"/>
</a>
</g>
</g>
<!-- Node28 -->
<g id="Node000028" class="node">
<title>Node28</title>
<g id="a_Node000028"><a xlink:title=" ">
<polygon fill="#e0e0e0" stroke="#999999" points="2539.5,-294 2485.5,-294 2485.5,-275 2539.5,-275 2539.5,-294"/>
<text text-anchor="middle" x="2512.5" y="-282" font-family="Helvetica,sans-Serif" font-size="10.00">random</text>
</a>
</g>
</g>
<!-- Node1&#45;&gt;Node28 -->
<g id="edge27_Node000001_Node000028" class="edge">
<title>Node1&#45;&gt;Node28</title>
<g id="a_edge27_Node000001_Node000028"><a xlink:title=" ">
<path fill="none" stroke="#63b8ff" d="M1414.01,-337.78C1598.52,-334.91 2246.73,-323.05 2475.24,-293.83"/>
<polygon fill="#63b8ff" stroke="#63b8ff" points="2476.03,-297.25 2485.48,-292.47 2475.1,-290.31 2476.03,-297.25"/>
</a>
</g>
</g>
<!-- Node29 -->
<g id="Node000029" class="node">
<title>Node29</title>
<g id="a_Node000029"><a xlink:href="Partie_8hpp.html" target="_top" xlink:title=" ">
<polygon fill="white" stroke="#666666" points="1910,-294 1845,-294 1845,-275 1910,-275 1910,-294"/>
<text text-anchor="middle" x="1877.5" y="-282" font-family="Helvetica,sans-Serif" font-size="10.00">Partie.hpp</text>
</a>
</g>
</g>
<!-- Node1&#45;&gt;Node29 -->
<g id="edge28_Node000001_Node000029" class="edge">
<title>Node1&#45;&gt;Node29</title>
<g id="a_edge28_Node000001_Node000029"><a xlink:title=" ">
<path fill="none" stroke="#63b8ff" d="M1414.08,-334.61C1498.22,-327.79 1674.28,-312.64 1822.5,-294 1826.48,-293.5 1830.62,-292.94 1834.77,-292.35"/>
<polygon fill="#63b8ff" stroke="#63b8ff" points="1835.59,-295.76 1844.97,-290.84 1834.57,-288.84 1835.59,-295.76"/>
</a>
</g>
</g>
<!-- Node30 -->
<g id="Node000030" class="node">
<title>Node30</title>
<g id="a_Node000030"><a xlink:href="Ticket_8hpp.html" target="_top" xlink:title=" ">
<polygon fill="white" stroke="#666666" points="1959,-129 1892,-129 1892,-110 1959,-110 1959,-129"/>
<text text-anchor="middle" x="1925.5" y="-117" font-family="Helvetica,sans-Serif" font-size="10.00">Ticket.hpp</text>
</a>
</g>
</g>
<!-- Node1&#45;&gt;Node30 -->
<g id="edge62_Node000001_Node000030" class="edge">
<title>Node1&#45;&gt;Node30</title>
<g id="a_edge62_Node000001_Node000030"><a xlink:title=" ">
<path fill="none" stroke="#63b8ff" d="M1414.05,-332.7C1460.15,-326.37 1530.29,-314.32 1588.5,-294 1713.96,-250.21 1851.18,-167.55 1903.54,-134.59"/>
<polygon fill="#63b8ff" stroke="#63b8ff" points="1905.74,-137.34 1912.31,-129.03 1901.99,-131.43 1905.74,-137.34"/>
</a>
</g>
</g>
<!-- Node31 -->
<g id="Node000031" class="node">
<title>Node31</title>
<g id="a_Node000031"><a xlink:href="Ville_8hpp.html" target="_top" xlink:title=" ">
<polygon fill="white" stroke="#666666" points="1941,-74 1882,-74 1882,-55 1941,-55 1941,-74"/>
<text text-anchor="middle" x="1911.5" y="-62" font-family="Helvetica,sans-Serif" font-size="10.00">Ville.hpp</text>
</a>
</g>
</g>
<!-- Node1&#45;&gt;Node31 -->
<g id="edge65_Node000001_Node000031" class="edge">
<title>Node1&#45;&gt;Node31</title>
<g id="a_edge65_Node000001_Node000031"><a xlink:title=" ">
<path fill="none" stroke="#63b8ff" d="M1409.96,-329.96C1430.27,-323.64 1452.34,-312.72 1464.5,-294 1510.42,-223.31 1361.64,-172.23 1418.5,-110 1448.86,-76.77 1759.68,-68.13 1871.6,-66.08"/>
<polygon fill="#63b8ff" stroke="#63b8ff" points="1871.86,-69.58 1881.8,-65.9 1871.74,-62.58 1871.86,-69.58"/>
</a>
</g>
</g>
<!-- Node32 -->
<g id="Node000032" class="node">
<title>Node32</title>
<g id="a_Node000032"><a xlink:href="Joueur_8hpp.html" target="_top" xlink:title="Déclaration de la classe Joueur, participant à une partie des Aventuriers du Rail.">
<polygon fill="white" stroke="#666666" points="2013.5,-239 1945.5,-239 1945.5,-220 2013.5,-220 2013.5,-239"/>
<text text-anchor="middle" x="1979.5" y="-227" font-family="Helvetica,sans-Serif" font-size="10.00">Joueur.hpp</text>
</a>
</g>
</g>
<!-- Node1&#45;&gt;Node32 -->
<g id="edge61_Node000001_Node000032" class="edge">
<title>Node1&#45;&gt;Node32</title>
<g id="a_edge61_Node000001_Node000032"><a xlink:title=" ">
<path fill="none" stroke="#63b8ff" d="M1414.2,-339.02C1533.15,-339.55 1830.91,-336.45 1919.5,-294 1940.57,-283.9 1958,-262.97 1968.55,-247.89"/>
<polygon fill="#63b8ff" stroke="#63b8ff" points="1971.57,-249.68 1974.2,-239.41 1965.75,-245.8 1971.57,-249.68"/>
</a>
</g>
</g>
<!-- Node33 -->
<g id="Node000033" class="node">
<title>Node33</title>
<g id="a_Node000033"><a xlink:href="couleurEnum_8hpp.html" target="_top" xlink:title=" ">
<polygon fill="white" stroke="#666666" points="2287,-74 2186,-74 2186,-55 2287,-55 2287,-74"/>
<text text-anchor="middle" x="2236.5" y="-62" font-family="Helvetica,sans-Serif" font-size="10.00">couleurEnum.hpp</text>
</a>
</g>
</g>
<!-- Node1&#45;&gt;Node33 -->
<g id="edge66_Node000001_Node000033" class="edge">
<title>Node1&#45;&gt;Node33</title>
<g id="a_edge66_Node000001_Node000033"><a xlink:title=" ">
<path fill="none" stroke="#63b8ff" d="M1414.06,-338.89C1545.8,-339.34 1902.03,-336.48 2010.5,-294 2119.4,-251.35 2148.86,-225.12 2215.5,-129 2224.8,-115.58 2230.22,-97.74 2233.22,-84.39"/>
<polygon fill="#63b8ff" stroke="#63b8ff" points="2236.68,-84.92 2235.2,-74.43 2229.82,-83.55 2236.68,-84.92"/>
</a>
</g>
</g>
<!-- Node34 -->
<g id="Node000034" class="node">
<title>Node34</title>
<g id="a_Node000034"><a xlink:href="Train_8hpp.html" target="_top" xlink:title=" ">
<polygon fill="white" stroke="#666666" points="2038,-129 1977,-129 1977,-110 2038,-110 2038,-129"/>
<text text-anchor="middle" x="2007.5" y="-117" font-family="Helvetica,sans-Serif" font-size="10.00">Train.hpp</text>
</a>
</g>
</g>
<!-- Node1&#45;&gt;Node34 -->
<g id="edge63_Node000001_Node000034" class="edge">
<title>Node1&#45;&gt;Node34</title>
<g id="a_edge63_Node000001_Node000034"><a xlink:title=" ">
<path fill="none" stroke="#63b8ff" d="M1414.22,-338.1C1536.39,-336.58 1848.39,-329.27 1945.5,-294 1985.03,-279.64 1999.98,-274.52 2022.5,-239 2040.27,-210.97 2040.9,-197.11 2032.5,-165 2029.95,-155.26 2024.75,-145.41 2019.74,-137.46"/>
<polygon fill="#63b8ff" stroke="#63b8ff" points="2022.61,-135.46 2014.13,-129.12 2016.81,-139.37 2022.61,-135.46"/>
</a>
</g>
</g>
<!-- Node36 -->
<g id="Node000036" class="node">
<title>Node36</title>
<g id="a_Node000036"><a xlink:href="VoieFerree_8hpp.html" target="_top" xlink:title="Classe VoieFerree – Représente une voie ferrée du plateau.">
<polygon fill="white" stroke="#666666" points="2184,-129 2095,-129 2095,-110 2184,-110 2184,-129"/>
<text text-anchor="middle" x="2139.5" y="-117" font-family="Helvetica,sans-Serif" font-size="10.00">VoieFerree.hpp</text>
</a>
</g>
</g>
<!-- Node1&#45;&gt;Node36 -->
<g id="edge64_Node000001_Node000036" class="edge">
<title>Node1&#45;&gt;Node36</title>
<g id="a_edge64_Node000001_Node000036"><a xlink:title=" ">
<path fill="none" stroke="#63b8ff" d="M1414.19,-339.03C1541.94,-339.73 1878.9,-337.3 1980.5,-294 2054.71,-262.37 2109.03,-176.33 2129.99,-138.62"/>
<polygon fill="#63b8ff" stroke="#63b8ff" points="2133.33,-139.81 2135.01,-129.35 2127.17,-136.48 2133.33,-139.81"/>
</a>
</g>
</g>
<!-- Node29&#45;&gt;Node23 -->
<g id="edge29_Node000029_Node000023" class="edge">
<title>Node29&#45;&gt;Node23</title>
<g id="a_edge29_Node000029_Node000023"><a xlink:title=" ">
<path fill="none" stroke="#63b8ff" d="M1910.27,-276.94C1981.3,-261.44 2152.25,-217.05 2266.5,-129 2284.89,-114.82 2303.12,-95.33 2315,-81.69"/>
<polygon fill="#63b8ff" stroke="#63b8ff" points="2317.69,-83.94 2321.52,-74.06 2312.36,-79.39 2317.69,-83.94"/>
</a>
</g>
</g>
<!-- Node29&#45;&gt;Node30 -->
<g id="edge30_Node000029_Node000030" class="edge">
<title>Node29&#45;&gt;Node30</title>
<g id="a_edge30_Node000029_Node000030"><a xlink:title=" ">
<path fill="none" stroke="#63b8ff" d="M1874.3,-274.92C1867.29,-254.63 1852.57,-202.57 1870.5,-165 1876.59,-152.23 1888.34,-141.94 1899.42,-134.49"/>
<polygon fill="#63b8ff" stroke="#63b8ff" points="1901.4,-137.38 1908.04,-129.12 1897.7,-131.43 1901.4,-137.38"/>
</a>
</g>
</g>
<!-- Node29&#45;&gt;Node32 -->
<g id="edge34_Node000029_Node000032" class="edge">
<title>Node29&#45;&gt;Node32</title>
<g id="a_edge34_Node000029_Node000032"><a xlink:title=" ">
<path fill="none" stroke="#63b8ff" d="M1893.89,-274.98C1910.07,-266.57 1935.07,-253.59 1953.88,-243.81"/>
<polygon fill="#63b8ff" stroke="#63b8ff" points="1955.55,-246.89 1962.81,-239.17 1952.33,-240.68 1955.55,-246.89"/>
</a>
</g>
</g>
<!-- Node29&#45;&gt;Node34 -->
<g id="edge59_Node000029_Node000034" class="edge">
<title>Node29&#45;&gt;Node34</title>
<g id="a_edge59_Node000029_Node000034"><a xlink:title=" ">
<path fill="none" stroke="#63b8ff" d="M1880.59,-274.9C1888.39,-254.13 1910.52,-200.3 1942.5,-165 1953.66,-152.68 1968.87,-142.04 1981.77,-134.24"/>
<polygon fill="#63b8ff" stroke="#63b8ff" points="1983.76,-137.13 1990.66,-129.09 1980.26,-131.08 1983.76,-137.13"/>
</a>
</g>
</g>
<!-- Node35 -->
<g id="Node000035" class="node">
<title>Node35</title>
<g id="a_Node000035"><a xlink:href="Plateau_8hpp.html" target="_top" xlink:title="Classe Plateau – Gère le plateau de jeu avec villes et voies ferrées.">
<polygon fill="white" stroke="#666666" points="1780.5,-184 1706.5,-184 1706.5,-165 1780.5,-165 1780.5,-184"/>
<text text-anchor="middle" x="1743.5" y="-172" font-family="Helvetica,sans-Serif" font-size="10.00">Plateau.hpp</text>
</a>
</g>
</g>
<!-- Node29&#45;&gt;Node35 -->
<g id="edge60_Node000029_Node000035" class="edge">
<title>Node29&#45;&gt;Node35</title>
<g id="a_edge60_Node000029_Node000035"><a xlink:title=" ">
<path fill="none" stroke="#63b8ff" d="M1866.53,-274.66C1843.65,-256.22 1790.58,-213.45 1762.2,-190.57"/>
<polygon fill="#63b8ff" stroke="#63b8ff" points="1764.23,-187.71 1754.24,-184.16 1759.83,-193.16 1764.23,-187.71"/>
</a>
</g>
</g>
<!-- Node30&#45;&gt;Node22 -->
<g id="edge31_Node000030_Node000022" class="edge">
<title>Node30&#45;&gt;Node22</title>
<g id="a_edge31_Node000030_Node000022"><a xlink:title=" ">
<path fill="none" stroke="#63b8ff" d="M1930.66,-109.66C1941.04,-91.85 1964.66,-51.37 1978.29,-28.01"/>
<polygon fill="#63b8ff" stroke="#63b8ff" points="1981.43,-29.56 1983.45,-19.16 1975.39,-26.03 1981.43,-29.56"/>
</a>
</g>
</g>
<!-- Node30&#45;&gt;Node31 -->
<g id="edge32_Node000030_Node000031" class="edge">
<title>Node30&#45;&gt;Node31</title>
<g id="a_edge32_Node000030_Node000031"><a xlink:title=" ">
<path fill="none" stroke="#63b8ff" d="M1923.19,-109.75C1921.33,-102.72 1918.66,-92.62 1916.35,-83.84"/>
<polygon fill="#63b8ff" stroke="#63b8ff" points="1919.71,-82.86 1913.77,-74.09 1912.94,-84.65 1919.71,-82.86"/>
</a>
</g>
</g>
<!-- Node31&#45;&gt;Node22 -->
<g id="edge33_Node000031_Node000022" class="edge">
<title>Node31&#45;&gt;Node22</title>
<g id="a_edge33_Node000031_Node000022"><a xlink:title=" ">
<path fill="none" stroke="#63b8ff" d="M1923.87,-54.98C1935.59,-46.92 1953.42,-34.65 1967.39,-25.03"/>
<polygon fill="#63b8ff" stroke="#63b8ff" points="1969.65,-27.72 1975.9,-19.17 1965.68,-21.96 1969.65,-27.72"/>
</a>
</g>
</g>
<!-- Node32&#45;&gt;Node22 -->
<g id="edge57_Node000032_Node000022" class="edge">
<title>Node32&#45;&gt;Node22</title>
<g id="a_edge57_Node000032_Node000022"><a xlink:title=" ">
<path fill="none" stroke="#63b8ff" d="M1994.24,-219.74C2006.26,-211.85 2022.79,-199.18 2032.5,-184 2046.16,-162.66 2044.14,-154.11 2047.5,-129 2052.83,-89.18 2023.38,-48.49 2004.15,-26.69"/>
<polygon fill="#63b8ff" stroke="#63b8ff" points="2006.48,-24.05 1997.14,-19.05 2001.32,-28.78 2006.48,-24.05"/>
</a>
</g>
</g>
<!-- Node32&#45;&gt;Node23 -->
<g id="edge56_Node000032_Node000023" class="edge">
<title>Node32&#45;&gt;Node23</title>
<g id="a_edge56_Node000032_Node000023"><a xlink:title=" ">
<path fill="none" stroke="#63b8ff" d="M2013.66,-221.9C2046.53,-214.86 2097.19,-202.21 2138.5,-184 2204.83,-154.75 2275.34,-105.24 2308.74,-80.5"/>
<polygon fill="#63b8ff" stroke="#63b8ff" points="2311.24,-83.01 2317.15,-74.22 2307.04,-77.41 2311.24,-83.01"/>
</a>
</g>
</g>
<!-- Node32&#45;&gt;Node30 -->
<g id="edge36_Node000032_Node000030" class="edge">
<title>Node32&#45;&gt;Node30</title>
<g id="a_edge36_Node000032_Node000030"><a xlink:title=" ">
<path fill="none" stroke="#63b8ff" d="M1970.27,-219.81C1961.87,-211.4 1949.7,-197.92 1942.5,-184 1935.2,-169.89 1930.81,-152.35 1928.33,-139.28"/>
<polygon fill="#63b8ff" stroke="#63b8ff" points="1931.73,-138.42 1926.61,-129.14 1924.83,-139.59 1931.73,-138.42"/>
</a>
</g>
</g>
<!-- Node32&#45;&gt;Node33 -->
<g id="edge35_Node000032_Node000033" class="edge">
<title>Node32&#45;&gt;Node33</title>
<g id="a_edge35_Node000032_Node000033"><a xlink:title=" ">
<path fill="none" stroke="#63b8ff" d="M2011.84,-219.95C2056.89,-206.71 2139.11,-177.58 2193.5,-129 2208.04,-116.01 2220.02,-97.1 2227.61,-83.3"/>
<polygon fill="#63b8ff" stroke="#63b8ff" points="2230.78,-84.78 2232.33,-74.3 2224.58,-81.53 2230.78,-84.78"/>
</a>
</g>
</g>
<!-- Node32&#45;&gt;Node34 -->
<g id="edge37_Node000032_Node000034" class="edge">
<title>Node32&#45;&gt;Node34</title>
<g id="a_edge37_Node000032_Node000034"><a xlink:title=" ">
<path fill="none" stroke="#63b8ff" d="M1990.21,-219.93C1999.43,-211.8 2012.09,-198.68 2017.5,-184 2022.87,-169.44 2019.46,-151.96 2015.22,-139.03"/>
<polygon fill="#63b8ff" stroke="#63b8ff" points="2018.4,-137.55 2011.63,-129.4 2011.84,-139.99 2018.4,-137.55"/>
</a>
</g>
</g>
<!-- Node32&#45;&gt;Node35 -->
<g id="edge40_Node000032_Node000035" class="edge">
<title>Node32&#45;&gt;Node35</title>
<g id="a_edge40_Node000032_Node000035"><a xlink:title=" ">
<path fill="none" stroke="#63b8ff" d="M1945.44,-220.85C1904.73,-211.71 1836.4,-196.36 1790.64,-186.09"/>
<polygon fill="#63b8ff" stroke="#63b8ff" points="1791.19,-182.62 1780.67,-183.85 1789.66,-189.45 1791.19,-182.62"/>
</a>
</g>
</g>
<!-- Node40 -->
<g id="Node000040" class="node">
<title>Node40</title>
<g id="a_Node000040"><a xlink:title=" ">
<polygon fill="#e0e0e0" stroke="#999999" points="2008,-184 1951,-184 1951,-165 2008,-165 2008,-184"/>
<text text-anchor="middle" x="1979.5" y="-172" font-family="Helvetica,sans-Serif" font-size="10.00">ostream</text>
</a>
</g>
</g>
<!-- Node32&#45;&gt;Node40 -->
<g id="edge58_Node000032_Node000040" class="edge">
<title>Node32&#45;&gt;Node40</title>
<g id="a_edge58_Node000032_Node000040"><a xlink:title=" ">
<path fill="none" stroke="#63b8ff" d="M1979.5,-219.75C1979.5,-212.8 1979.5,-202.85 1979.5,-194.13"/>
<polygon fill="#63b8ff" stroke="#63b8ff" points="1983,-194.09 1979.5,-184.09 1976,-194.09 1983,-194.09"/>
</a>
</g>
</g>
<!-- Node34&#45;&gt;Node22 -->
<g id="edge38_Node000034_Node000022" class="edge">
<title>Node34&#45;&gt;Node22</title>
<g id="a_edge38_Node000034_Node000022"><a xlink:title=" ">
<path fill="none" stroke="#63b8ff" d="M2005.95,-109.66C2002.87,-92.17 1995.94,-52.8 1991.8,-29.27"/>
<polygon fill="#63b8ff" stroke="#63b8ff" points="1995.2,-28.4 1990.02,-19.16 1988.31,-29.61 1995.2,-28.4"/>
</a>
</g>
</g>
<!-- Node34&#45;&gt;Node33 -->
<g id="edge39_Node000034_Node000033" class="edge">
<title>Node34&#45;&gt;Node33</title>
<g id="a_edge39_Node000034_Node000033"><a xlink:title=" ">
<path fill="none" stroke="#63b8ff" d="M2038.38,-111.35C2077.31,-102.34 2144.6,-86.77 2189.82,-76.3"/>
<polygon fill="#63b8ff" stroke="#63b8ff" points="2190.73,-79.69 2199.68,-74.02 2189.15,-72.87 2190.73,-79.69"/>
</a>
</g>
</g>
<!-- Node35&#45;&gt;Node20 -->
<g id="edge53_Node000035_Node000020" class="edge">
<title>Node35&#45;&gt;Node20</title>
<g id="a_edge53_Node000035_Node000020"><a xlink:title=" ">
<path fill="none" stroke="#63b8ff" d="M1706.39,-167.52C1659.23,-159.79 1575.08,-145.56 1493.31,-129.08"/>
<polygon fill="#63b8ff" stroke="#63b8ff" points="1493.84,-125.61 1483.35,-127.06 1492.45,-132.47 1493.84,-125.61"/>
</a>
</g>
</g>
<!-- Node35&#45;&gt;Node21 -->
<g id="edge52_Node000035_Node000021" class="edge">
<title>Node35&#45;&gt;Node21</title>
<g id="a_edge52_Node000035_Node000021"><a xlink:title=" ">
<path fill="none" stroke="#63b8ff" d="M1709.12,-164.98C1670.42,-155.4 1607.74,-139.88 1567.59,-129.93"/>
<polygon fill="#63b8ff" stroke="#63b8ff" points="1568.2,-126.48 1557.65,-127.47 1566.51,-133.27 1568.2,-126.48"/>
</a>
</g>
</g>
<!-- Node35&#45;&gt;Node25 -->
<g id="edge49_Node000035_Node000025" class="edge">
<title>Node35&#45;&gt;Node25</title>
<g id="a_edge49_Node000035_Node000025"><a xlink:title=" ">
<path fill="none" stroke="#63b8ff" d="M1719.56,-164.98C1693.33,-155.65 1651.27,-140.69 1623.27,-130.73"/>
<polygon fill="#63b8ff" stroke="#63b8ff" points="1624.24,-127.36 1613.64,-127.31 1621.89,-133.96 1624.24,-127.36"/>
</a>
</g>
</g>
<!-- Node35&#45;&gt;Node27 -->
<g id="edge50_Node000035_Node000027" class="edge">
<title>Node35&#45;&gt;Node27</title>
<g id="a_edge50_Node000035_Node000027"><a xlink:title=" ">
<path fill="none" stroke="#63b8ff" d="M1730.65,-164.98C1718.36,-156.84 1699.59,-144.41 1685.02,-134.76"/>
<polygon fill="#63b8ff" stroke="#63b8ff" points="1686.86,-131.78 1676.59,-129.17 1682.99,-137.61 1686.86,-131.78"/>
</a>
</g>
</g>
<!-- Node35&#45;&gt;Node30 -->
<g id="edge54_Node000035_Node000030" class="edge">
<title>Node35&#45;&gt;Node30</title>
<g id="a_edge54_Node000035_Node000030"><a xlink:title=" ">
<path fill="none" stroke="#63b8ff" d="M1772.74,-164.98C1803.56,-156.01 1852.28,-141.82 1886.39,-131.89"/>
<polygon fill="#63b8ff" stroke="#63b8ff" points="1887.41,-135.24 1896.03,-129.08 1885.45,-128.52 1887.41,-135.24"/>
</a>
</g>
</g>
<!-- Node35&#45;&gt;Node31 -->
<g id="edge47_Node000035_Node000031" class="edge">
<title>Node35&#45;&gt;Node31</title>
<g id="a_edge47_Node000035_Node000031"><a xlink:title=" ">
<path fill="none" stroke="#63b8ff" d="M1752.44,-164.93C1766.25,-151.97 1793.99,-127.08 1820.5,-110 1839.8,-97.57 1863.08,-86.24 1881.26,-78.13"/>
<polygon fill="#63b8ff" stroke="#63b8ff" points="1882.76,-81.3 1890.52,-74.08 1879.95,-74.88 1882.76,-81.3"/>
</a>
</g>
</g>
<!-- Node35&#45;&gt;Node34 -->
<g id="edge55_Node000035_Node000034" class="edge">
<title>Node35&#45;&gt;Node34</title>
<g id="a_edge55_Node000035_Node000034"><a xlink:title=" ">
<path fill="none" stroke="#63b8ff" d="M1780.57,-166.4C1823.2,-158.18 1895.55,-144.07 1966.81,-129.32"/>
<polygon fill="#63b8ff" stroke="#63b8ff" points="1967.78,-132.7 1976.86,-127.24 1966.35,-125.84 1967.78,-132.7"/>
</a>
</g>
</g>
<!-- Node35&#45;&gt;Node36 -->
<g id="edge41_Node000035_Node000036" class="edge">
<title>Node35&#45;&gt;Node36</title>
<g id="a_edge41_Node000035_Node000036"><a xlink:title=" ">
<path fill="none" stroke="#63b8ff" d="M1780.75,-168.51C1850.92,-159.12 2002.94,-138.78 2084.75,-127.83"/>
<polygon fill="#63b8ff" stroke="#63b8ff" points="2085.4,-131.27 2094.85,-126.48 2084.47,-124.33 2085.4,-131.27"/>
</a>
</g>
</g>
<!-- Node38 -->
<g id="Node000038" class="node">
<title>Node38</title>
<g id="a_Node000038"><a xlink:title=" ">
<polygon fill="#e0e0e0" stroke="#999999" points="1873.5,-129 1829.5,-129 1829.5,-110 1873.5,-110 1873.5,-129"/>
<text text-anchor="middle" x="1851.5" y="-117" font-family="Helvetica,sans-Serif" font-size="10.00">limits</text>
</a>
</g>
</g>
<!-- Node35&#45;&gt;Node38 -->
<g id="edge48_Node000035_Node000038" class="edge">
<title>Node35&#45;&gt;Node38</title>
<g id="a_edge48_Node000035_Node000038"><a xlink:title=" ">
<path fill="none" stroke="#63b8ff" d="M1760.85,-164.98C1778.07,-156.54 1804.7,-143.47 1824.65,-133.68"/>
<polygon fill="#63b8ff" stroke="#63b8ff" points="1826.4,-136.72 1833.83,-129.17 1823.31,-130.43 1826.4,-136.72"/>
</a>
</g>
</g>
<!-- Node39 -->
<g id="Node000039" class="node">
<title>Node39</title>
<g id="a_Node000039"><a xlink:title=" ">
<polygon fill="#e0e0e0" stroke="#999999" points="1773.5,-129 1713.5,-129 1713.5,-110 1773.5,-110 1773.5,-129"/>
<text text-anchor="middle" x="1743.5" y="-117" font-family="Helvetica,sans-Serif" font-size="10.00">iostream</text>
</a>
</g>
</g>
<!-- Node35&#45;&gt;Node39 -->
<g id="edge51_Node000035_Node000039" class="edge">
<title>Node35&#45;&gt;Node39</title>
<g id="a_edge51_Node000035_Node000039"><a xlink:title=" ">
<path fill="none" stroke="#63b8ff" d="M1743.5,-164.75C1743.5,-157.8 1743.5,-147.85 1743.5,-139.13"/>
<polygon fill="#63b8ff" stroke="#63b8ff" points="1747,-139.09 1743.5,-129.09 1740,-139.09 1747,-139.09"/>
</a>
</g>
</g>
<!-- Node36&#45;&gt;Node22 -->
<g id="edge42_Node000036_Node000022" class="edge">
<title>Node36&#45;&gt;Node22</title>
<g id="a_edge42_Node000036_Node000022"><a xlink:title=" ">
<path fill="none" stroke="#63b8ff" d="M2129.43,-109.91C2114.53,-97.33 2085.56,-73.43 2059.5,-55 2044.01,-44.05 2025.87,-32.7 2011.81,-24.21"/>
<polygon fill="#63b8ff" stroke="#63b8ff" points="2013.6,-21.2 2003.22,-19.07 2010.01,-27.21 2013.6,-21.2"/>
</a>
</g>
</g>
<!-- Node36&#45;&gt;Node23 -->
<g id="edge43_Node000036_Node000023" class="edge">
<title>Node36&#45;&gt;Node23</title>
<g id="a_edge43_Node000036_Node000023"><a xlink:title=" ">
<path fill="none" stroke="#63b8ff" d="M2169.87,-109.98C2204.06,-100.4 2259.45,-84.86 2294.91,-74.92"/>
<polygon fill="#63b8ff" stroke="#63b8ff" points="2296.11,-78.22 2304.79,-72.15 2294.22,-71.48 2296.11,-78.22"/>
</a>
</g>
</g>
<!-- Node36&#45;&gt;Node31 -->
<g id="edge45_Node000036_Node000031" class="edge">
<title>Node36&#45;&gt;Node31</title>
<g id="a_edge45_Node000036_Node000031"><a xlink:title=" ">
<path fill="none" stroke="#63b8ff" d="M2102.87,-109.98C2061.26,-100.31 1993.63,-84.59 1950.91,-74.66"/>
<polygon fill="#63b8ff" stroke="#63b8ff" points="1951.67,-71.25 1941.14,-72.39 1950.09,-78.06 1951.67,-71.25"/>
</a>
</g>
</g>
<!-- Node36&#45;&gt;Node33 -->
<g id="edge46_Node000036_Node000033" class="edge">
<title>Node36&#45;&gt;Node33</title>
<g id="a_edge46_Node000036_Node000033"><a xlink:title=" ">
<path fill="none" stroke="#63b8ff" d="M2155.08,-109.98C2170.27,-101.69 2193.6,-88.94 2211.4,-79.22"/>
<polygon fill="#63b8ff" stroke="#63b8ff" points="2213.53,-82.04 2220.63,-74.17 2210.18,-75.89 2213.53,-82.04"/>
</a>
</g>
</g>
<!-- Node37 -->
<g id="Node000037" class="node">
<title>Node37</title>
<g id="a_Node000037"><a xlink:title=" ">
<polygon fill="#e0e0e0" stroke="#999999" points="2167.5,-74 2111.5,-74 2111.5,-55 2167.5,-55 2167.5,-74"/>
<text text-anchor="middle" x="2139.5" y="-62" font-family="Helvetica,sans-Serif" font-size="10.00">assert.h</text>
</a>
</g>
</g>
<!-- Node36&#45;&gt;Node37 -->
<g id="edge44_Node000036_Node000037" class="edge">
<title>Node36&#45;&gt;Node37</title>
<g id="a_edge44_Node000036_Node000037"><a xlink:title=" ">
<path fill="none" stroke="#63b8ff" d="M2139.5,-109.75C2139.5,-102.8 2139.5,-92.85 2139.5,-84.13"/>
<polygon fill="#63b8ff" stroke="#63b8ff" points="2143,-84.09 2139.5,-74.09 2136,-84.09 2143,-84.09"/>
</a>
</g>
</g>
</g>
</svg>

<g id="navigator" transform="translate(0 0)" fill="#404254">
  <rect fill="#f2f5e9" fill-opacity="0.5" stroke="#606060" stroke-width=".5" x="0" y="0" width="60" height="60"/>
  <use id="zoomplus" xlink:href="#zoomPlus" x="17" y="9" onmousedown="handleZoom(evt,'in')"/>
  <use id="zoomminus" xlink:href="#zoomMin" x="42" y="9" onmousedown="handleZoom(evt,'out')"/>
  <use id="reset" xlink:href="#resetDef" x="30" y="36" onmousedown="handleReset()"/>
   <use id="arrowup" xlink:href="#arrowUp" x="0" y="0" onmousedown="handlePan(0,-1)"/>
  <use id="arrowright" xlink:href="#arrowRight" x="0" y="0" onmousedown="handlePan(1,0)"/>
  <use id="arrowdown" xlink:href="#arrowDown" x="0" y="0" onmousedown="handlePan(0,1)"/>
  <use id="arrowleft" xlink:href="#arrowLeft" x="0" y="0" onmousedown="handlePan(-1,0)"/>
</g>
<svg viewBox="0 0 15 15" width="100%" height="30px" preserveAspectRatio="xMaxYMin meet">
 <g id="arrow_out" transform="scale(0.3 0.3)">
  <a xlink:href="gui__main_8cpp__incl_org.svg" target="_base">
   <rect id="button" ry="5" rx="5" y="6" x="6" height="38" width="38"
        fill="#f2f5e9" fill-opacity="0.5" stroke="#606060" stroke-width="1.0"/>
   <path id="arrow"
     d="M 11.500037,31.436501 C 11.940474,20.09759 22.043105,11.32322 32.158766,21.979434 L 37.068811,17.246167 C 37.068811,17.246167 37.088388,32 37.088388,32 L 22.160133,31.978069 C 22.160133,31.978069 26.997745,27.140456 26.997745,27.140456 C 18.528582,18.264221 13.291696,25.230495 11.500037,31.436501 z"
     style="fill:#404040;"/>
  </a>
 </g>
</svg>

<style type='text/css'>
<![CDATA[
[data-mouse-over-selected='false'] { opacity: 0.7; }
[data-mouse-over-selected='true']  { opacity: 1.0; }
]]>
</style>
<script type="application/ecmascript"><![CDATA[
document.addEventListener('DOMContentLoaded', (event) => {
  highlightEdges();
  highlightAdjacentNodes();
});
]]></script>
</svg>
