<?xml version="1.0" encoding="UTF-8" standalone="no"?>
<!DOCTYPE svg PUBLIC "-//W3C//DTD SVG 1.1//EN"
 "http://www.w3.org/Graphics/SVG/1.1/DTD/svg11.dtd">
<!-- Generated by graphviz version 2.43.0 (0)
 -->
<!-- Title: include/Joueur.hpp Pages: 1 -->
<svg width="862pt" height="247pt"
 viewBox="0.00 0.00 861.67 247.00" xmlns="http://www.w3.org/2000/svg" xmlns:xlink="http://www.w3.org/1999/xlink">
<g id="graph0" class="graph" transform="scale(1 1) rotate(0) translate(4 243)">
<title>include/Joueur.hpp</title>
<!-- Node1 -->
<g id="Node000001" class="node">
<title>Node1</title>
<g id="a_Node000001"><a xlink:title="Déclaration de la classe Joueur, participant à une partie des Aventuriers du Rail.">
<polygon fill="#999999" stroke="#666666" points="449.17,-239 343.17,-239 343.17,-220 449.17,-220 449.17,-239"/>
<text text-anchor="middle" x="396.17" y="-227" font-family="Helvetica,sans-Serif" font-size="10.00">include/Joueur.hpp</text>
</a>
</g>
</g>
<!-- Node2 -->
<g id="Node000002" class="node">
<title>Node2</title>
<g id="a_Node000002"><a xlink:href="couleurEnum_8hpp.html" target="_top" xlink:title=" ">
<polygon fill="white" stroke="#666666" points="139.67,-74 38.67,-74 38.67,-55 139.67,-55 139.67,-74"/>
<text text-anchor="middle" x="89.17" y="-62" font-family="Helvetica,sans-Serif" font-size="10.00">couleurEnum.hpp</text>
</a>
</g>
</g>
<!-- Node1&#45;&gt;Node2 -->
<g id="edge1_Node000001_Node000002" class="edge">
<title>Node1&#45;&gt;Node2</title>
<g id="a_edge1_Node000001_Node000002"><a xlink:title=" ">
<path fill="none" stroke="#63b8ff" d="M343.09,-222.86C247.08,-211.42 50.83,-182 11.17,-129 -4.78,-107.68 25.96,-89.22 53.42,-77.79"/>
<polygon fill="#63b8ff" stroke="#63b8ff" points="54.9,-80.97 62.91,-74.04 52.33,-74.45 54.9,-80.97"/>
</a>
</g>
</g>
<!-- Node3 -->
<g id="Node000003" class="node">
<title>Node3</title>
<g id="a_Node000003"><a xlink:href="Ticket_8hpp.html" target="_top" xlink:title=" ">
<polygon fill="white" stroke="#666666" points="739.67,-129 672.67,-129 672.67,-110 739.67,-110 739.67,-129"/>
<text text-anchor="middle" x="706.17" y="-117" font-family="Helvetica,sans-Serif" font-size="10.00">Ticket.hpp</text>
</a>
</g>
</g>
<!-- Node1&#45;&gt;Node3 -->
<g id="edge2_Node000001_Node000003" class="edge">
<title>Node1&#45;&gt;Node3</title>
<g id="a_edge2_Node000001_Node000003"><a xlink:title=" ">
<path fill="none" stroke="#63b8ff" d="M420.76,-219.94C475.81,-200.76 609.1,-154.32 672.1,-132.37"/>
<polygon fill="#63b8ff" stroke="#63b8ff" points="673.29,-135.66 681.59,-129.07 670.99,-129.05 673.29,-135.66"/>
</a>
</g>
</g>
<!-- Node4 -->
<g id="Node000004" class="node">
<title>Node4</title>
<g id="a_Node000004"><a xlink:title=" ">
<polygon fill="#e0e0e0" stroke="#999999" points="264.17,-19 220.17,-19 220.17,0 264.17,0 264.17,-19"/>
<text text-anchor="middle" x="242.17" y="-7" font-family="Helvetica,sans-Serif" font-size="10.00">string</text>
</a>
</g>
</g>
<!-- Node1&#45;&gt;Node4 -->
<g id="edge26_Node000001_Node000004" class="edge">
<title>Node1&#45;&gt;Node4</title>
<g id="a_edge26_Node000001_Node000004"><a xlink:title=" ">
<path fill="none" stroke="#63b8ff" d="M343.09,-224.92C263.18,-218.93 116.22,-205.37 68.17,-184 33.6,-168.62 19.1,-163.33 3.17,-129 -7.37,-106.26 15.68,-59.88 21.17,-55 48.74,-30.5 155.46,-17.96 209.88,-13.04"/>
<polygon fill="#63b8ff" stroke="#63b8ff" points="210.37,-16.51 220.02,-12.16 209.76,-9.54 210.37,-16.51"/>
</a>
</g>
</g>
<!-- Node6 -->
<g id="Node000006" class="node">
<title>Node6</title>
<g id="a_Node000006"><a xlink:href="Train_8hpp.html" target="_top" xlink:title=" ">
<polygon fill="white" stroke="#666666" points="81.67,-129 20.67,-129 20.67,-110 81.67,-110 81.67,-129"/>
<text text-anchor="middle" x="51.17" y="-117" font-family="Helvetica,sans-Serif" font-size="10.00">Train.hpp</text>
</a>
</g>
</g>
<!-- Node1&#45;&gt;Node6 -->
<g id="edge6_Node000001_Node000006" class="edge">
<title>Node1&#45;&gt;Node6</title>
<g id="a_edge6_Node000001_Node000006"><a xlink:title=" ">
<path fill="none" stroke="#63b8ff" d="M368.81,-219.94C307.29,-200.68 157.98,-153.94 88.23,-132.1"/>
<polygon fill="#63b8ff" stroke="#63b8ff" points="89.12,-128.71 78.54,-129.07 87.03,-135.39 89.12,-128.71"/>
</a>
</g>
</g>
<!-- Node7 -->
<g id="Node000007" class="node">
<title>Node7</title>
<g id="a_Node000007"><a xlink:href="Plateau_8hpp.html" target="_top" xlink:title="Classe Plateau – Gère le plateau de jeu avec villes et voies ferrées.">
<polygon fill="white" stroke="#666666" points="433.17,-184 359.17,-184 359.17,-165 433.17,-165 433.17,-184"/>
<text text-anchor="middle" x="396.17" y="-172" font-family="Helvetica,sans-Serif" font-size="10.00">Plateau.hpp</text>
</a>
</g>
</g>
<!-- Node1&#45;&gt;Node7 -->
<g id="edge9_Node000001_Node000007" class="edge">
<title>Node1&#45;&gt;Node7</title>
<g id="a_edge9_Node000001_Node000007"><a xlink:title=" ">
<path fill="none" stroke="#63b8ff" d="M396.17,-219.75C396.17,-212.8 396.17,-202.85 396.17,-194.13"/>
<polygon fill="#63b8ff" stroke="#63b8ff" points="399.67,-194.09 396.17,-184.09 392.67,-194.09 399.67,-194.09"/>
</a>
</g>
</g>
<!-- Node9 -->
<g id="Node000009" class="node">
<title>Node9</title>
<g id="a_Node000009"><a xlink:title=" ">
<polygon fill="#e0e0e0" stroke="#999999" points="535.67,-74 488.67,-74 488.67,-55 535.67,-55 535.67,-74"/>
<text text-anchor="middle" x="512.17" y="-62" font-family="Helvetica,sans-Serif" font-size="10.00">vector</text>
</a>
</g>
</g>
<!-- Node1&#45;&gt;Node9 -->
<g id="edge25_Node000001_Node000009" class="edge">
<title>Node1&#45;&gt;Node9</title>
<g id="a_edge25_Node000001_Node000009"><a xlink:title=" ">
<path fill="none" stroke="#63b8ff" d="M449.38,-221.43C538.88,-208.33 713.33,-177.13 749.17,-129 754.22,-122.23 754.57,-116.5 749.17,-110 723.76,-79.37 605.32,-69.69 546.09,-66.74"/>
<polygon fill="#63b8ff" stroke="#63b8ff" points="545.91,-63.23 535.76,-66.26 545.58,-70.22 545.91,-63.23"/>
</a>
</g>
</g>
<!-- Node17 -->
<g id="Node000017" class="node">
<title>Node17</title>
<g id="a_Node000017"><a xlink:title=" ">
<polygon fill="#e0e0e0" stroke="#999999" points="853.67,-184 796.67,-184 796.67,-165 853.67,-165 853.67,-184"/>
<text text-anchor="middle" x="825.17" y="-172" font-family="Helvetica,sans-Serif" font-size="10.00">ostream</text>
</a>
</g>
</g>
<!-- Node1&#45;&gt;Node17 -->
<g id="edge27_Node000001_Node000017" class="edge">
<title>Node1&#45;&gt;Node17</title>
<g id="a_edge27_Node000001_Node000017"><a xlink:title=" ">
<path fill="none" stroke="#63b8ff" d="M449.43,-223.73C524.05,-216.73 663.87,-202.48 782.17,-184 783.63,-183.77 785.11,-183.53 786.61,-183.28"/>
<polygon fill="#63b8ff" stroke="#63b8ff" points="787.33,-186.71 796.55,-181.49 786.09,-179.82 787.33,-186.71"/>
</a>
</g>
</g>
<!-- Node3&#45;&gt;Node4 -->
<g id="edge3_Node000003_Node000004" class="edge">
<title>Node3&#45;&gt;Node4</title>
<g id="a_edge3_Node000003_Node000004"><a xlink:title=" ">
<path fill="none" stroke="#63b8ff" d="M688.28,-109.86C659.04,-96.11 598.88,-69.33 545.17,-55 448.41,-29.18 330,-17.27 274.19,-12.77"/>
<polygon fill="#63b8ff" stroke="#63b8ff" points="274.44,-9.28 264.2,-11.99 273.9,-16.26 274.44,-9.28"/>
</a>
</g>
</g>
<!-- Node5 -->
<g id="Node000005" class="node">
<title>Node5</title>
<g id="a_Node000005"><a xlink:href="Ville_8hpp.html" target="_top" xlink:title=" ">
<polygon fill="white" stroke="#666666" points="329.67,-74 270.67,-74 270.67,-55 329.67,-55 329.67,-74"/>
<text text-anchor="middle" x="300.17" y="-62" font-family="Helvetica,sans-Serif" font-size="10.00">Ville.hpp</text>
</a>
</g>
</g>
<!-- Node3&#45;&gt;Node5 -->
<g id="edge4_Node000003_Node000005" class="edge">
<title>Node3&#45;&gt;Node5</title>
<g id="a_edge4_Node000003_Node000005"><a xlink:title=" ">
<path fill="none" stroke="#63b8ff" d="M672.41,-111.58C669.3,-111.02 666.18,-110.48 663.17,-110 546.23,-91.3 407,-76.23 340.03,-69.42"/>
<polygon fill="#63b8ff" stroke="#63b8ff" points="340.22,-65.92 329.92,-68.4 339.52,-72.89 340.22,-65.92"/>
</a>
</g>
</g>
<!-- Node5&#45;&gt;Node4 -->
<g id="edge5_Node000005_Node000004" class="edge">
<title>Node5&#45;&gt;Node4</title>
<g id="a_edge5_Node000005_Node000004"><a xlink:title=" ">
<path fill="none" stroke="#63b8ff" d="M290.85,-54.98C282.36,-47.23 269.61,-35.58 259.29,-26.14"/>
<polygon fill="#63b8ff" stroke="#63b8ff" points="261.4,-23.33 251.66,-19.17 256.68,-28.5 261.4,-23.33"/>
</a>
</g>
</g>
<!-- Node6&#45;&gt;Node2 -->
<g id="edge8_Node000006_Node000002" class="edge">
<title>Node6&#45;&gt;Node2</title>
<g id="a_edge8_Node000006_Node000002"><a xlink:title=" ">
<path fill="none" stroke="#63b8ff" d="M57.45,-109.75C62.76,-102.34 70.53,-91.5 77.05,-82.41"/>
<polygon fill="#63b8ff" stroke="#63b8ff" points="80.03,-84.26 83.02,-74.09 74.34,-80.18 80.03,-84.26"/>
</a>
</g>
</g>
<!-- Node6&#45;&gt;Node4 -->
<g id="edge7_Node000006_Node000004" class="edge">
<title>Node6&#45;&gt;Node4</title>
<g id="a_edge7_Node000006_Node000004"><a xlink:title=" ">
<path fill="none" stroke="#63b8ff" d="M43.36,-109.78C32.55,-96.62 15.78,-71.48 29.17,-55 51.57,-27.45 155.91,-16.36 209.79,-12.42"/>
<polygon fill="#63b8ff" stroke="#63b8ff" points="210.11,-15.91 219.85,-11.72 209.63,-8.92 210.11,-15.91"/>
</a>
</g>
</g>
<!-- Node7&#45;&gt;Node3 -->
<g id="edge23_Node000007_Node000003" class="edge">
<title>Node7&#45;&gt;Node3</title>
<g id="a_edge23_Node000007_Node000003"><a xlink:title=" ">
<path fill="none" stroke="#63b8ff" d="M433.38,-167.66C483.16,-159.77 574.44,-145.02 662.5,-129.08"/>
<polygon fill="#63b8ff" stroke="#63b8ff" points="663.18,-132.51 672.39,-127.28 661.93,-125.62 663.18,-132.51"/>
</a>
</g>
</g>
<!-- Node7&#45;&gt;Node5 -->
<g id="edge16_Node000007_Node000005" class="edge">
<title>Node7&#45;&gt;Node5</title>
<g id="a_edge16_Node000007_Node000005"><a xlink:title=" ">
<path fill="none" stroke="#63b8ff" d="M371.69,-164.97C354.66,-157.85 332.67,-146.08 319.17,-129 309.03,-116.16 304.29,-98 302.09,-84.38"/>
<polygon fill="#63b8ff" stroke="#63b8ff" points="305.53,-83.7 300.76,-74.23 298.58,-84.6 305.53,-83.7"/>
</a>
</g>
</g>
<!-- Node7&#45;&gt;Node6 -->
<g id="edge24_Node000007_Node000006" class="edge">
<title>Node7&#45;&gt;Node6</title>
<g id="a_edge24_Node000007_Node000006"><a xlink:title=" ">
<path fill="none" stroke="#63b8ff" d="M358.96,-168.86C303.18,-161.73 194.38,-147.16 91.63,-128.97"/>
<polygon fill="#63b8ff" stroke="#63b8ff" points="92.17,-125.51 81.71,-127.2 90.94,-132.4 92.17,-125.51"/>
</a>
</g>
</g>
<!-- Node8 -->
<g id="Node000008" class="node">
<title>Node8</title>
<g id="a_Node000008"><a xlink:href="VoieFerree_8hpp.html" target="_top" xlink:title="Classe VoieFerree – Représente une voie ferrée du plateau.">
<polygon fill="white" stroke="#666666" points="271.67,-129 182.67,-129 182.67,-110 271.67,-110 271.67,-129"/>
<text text-anchor="middle" x="227.17" y="-117" font-family="Helvetica,sans-Serif" font-size="10.00">VoieFerree.hpp</text>
</a>
</g>
</g>
<!-- Node7&#45;&gt;Node8 -->
<g id="edge10_Node000007_Node000008" class="edge">
<title>Node7&#45;&gt;Node8</title>
<g id="a_edge10_Node000007_Node000008"><a xlink:title=" ">
<path fill="none" stroke="#63b8ff" d="M369.02,-164.98C340.65,-156.09 295.94,-142.07 264.31,-132.15"/>
<polygon fill="#63b8ff" stroke="#63b8ff" points="265.13,-128.73 254.54,-129.08 263.03,-135.41 265.13,-128.73"/>
</a>
</g>
</g>
<!-- Node11 -->
<g id="Node000011" class="node">
<title>Node11</title>
<g id="a_Node000011"><a xlink:title=" ">
<polygon fill="#e0e0e0" stroke="#999999" points="598.17,-129 554.17,-129 554.17,-110 598.17,-110 598.17,-129"/>
<text text-anchor="middle" x="576.17" y="-117" font-family="Helvetica,sans-Serif" font-size="10.00">limits</text>
</a>
</g>
</g>
<!-- Node7&#45;&gt;Node11 -->
<g id="edge17_Node000007_Node000011" class="edge">
<title>Node7&#45;&gt;Node11</title>
<g id="a_edge17_Node000007_Node000011"><a xlink:title=" ">
<path fill="none" stroke="#63b8ff" d="M425.09,-164.98C457.7,-155.39 510.55,-139.82 544.31,-129.88"/>
<polygon fill="#63b8ff" stroke="#63b8ff" points="545.53,-133.17 554.13,-126.99 543.55,-126.46 545.53,-133.17"/>
</a>
</g>
</g>
<!-- Node12 -->
<g id="Node000012" class="node">
<title>Node12</title>
<g id="a_Node000012"><a xlink:title=" ">
<polygon fill="#e0e0e0" stroke="#999999" points="654.17,-129 616.17,-129 616.17,-110 654.17,-110 654.17,-129"/>
<text text-anchor="middle" x="635.17" y="-117" font-family="Helvetica,sans-Serif" font-size="10.00">map</text>
</a>
</g>
</g>
<!-- Node7&#45;&gt;Node12 -->
<g id="edge18_Node000007_Node000012" class="edge">
<title>Node7&#45;&gt;Node12</title>
<g id="a_edge18_Node000007_Node000012"><a xlink:title=" ">
<path fill="none" stroke="#63b8ff" d="M433.37,-166.67C473.72,-159.04 540.2,-145.81 606.22,-129.07"/>
<polygon fill="#63b8ff" stroke="#63b8ff" points="607.14,-132.45 615.96,-126.57 605.4,-125.67 607.14,-132.45"/>
</a>
</g>
</g>
<!-- Node13 -->
<g id="Node000013" class="node">
<title>Node13</title>
<g id="a_Node000013"><a xlink:title=" ">
<polygon fill="#e0e0e0" stroke="#999999" points="164.17,-129 100.17,-129 100.17,-110 164.17,-110 164.17,-129"/>
<text text-anchor="middle" x="132.17" y="-117" font-family="Helvetica,sans-Serif" font-size="10.00">algorithm</text>
</a>
</g>
</g>
<!-- Node7&#45;&gt;Node13 -->
<g id="edge19_Node000007_Node000013" class="edge">
<title>Node7&#45;&gt;Node13</title>
<g id="a_edge19_Node000007_Node000013"><a xlink:title=" ">
<path fill="none" stroke="#63b8ff" d="M358.85,-166.04C314.74,-157.22 239.1,-142.08 174.17,-129 174.07,-128.98 173.97,-128.96 173.87,-128.94"/>
<polygon fill="#63b8ff" stroke="#63b8ff" points="174.77,-125.55 164.28,-127 173.39,-132.41 174.77,-125.55"/>
</a>
</g>
</g>
<!-- Node14 -->
<g id="Node000014" class="node">
<title>Node14</title>
<g id="a_Node000014"><a xlink:title=" ">
<polygon fill="#e0e0e0" stroke="#999999" points="388.17,-129 328.17,-129 328.17,-110 388.17,-110 388.17,-129"/>
<text text-anchor="middle" x="358.17" y="-117" font-family="Helvetica,sans-Serif" font-size="10.00">iostream</text>
</a>
</g>
</g>
<!-- Node7&#45;&gt;Node14 -->
<g id="edge20_Node000007_Node000014" class="edge">
<title>Node7&#45;&gt;Node14</title>
<g id="a_edge20_Node000007_Node000014"><a xlink:title=" ">
<path fill="none" stroke="#63b8ff" d="M389.9,-164.75C384.59,-157.34 376.82,-146.5 370.3,-137.41"/>
<polygon fill="#63b8ff" stroke="#63b8ff" points="373,-135.18 364.33,-129.09 367.31,-139.26 373,-135.18"/>
</a>
</g>
</g>
<!-- Node15 -->
<g id="Node000015" class="node">
<title>Node15</title>
<g id="a_Node000015"><a xlink:title=" ">
<polygon fill="#e0e0e0" stroke="#999999" points="462.17,-129 406.17,-129 406.17,-110 462.17,-110 462.17,-129"/>
<text text-anchor="middle" x="434.17" y="-117" font-family="Helvetica,sans-Serif" font-size="10.00">sstream</text>
</a>
</g>
</g>
<!-- Node7&#45;&gt;Node15 -->
<g id="edge21_Node000007_Node000015" class="edge">
<title>Node7&#45;&gt;Node15</title>
<g id="a_edge21_Node000007_Node000015"><a xlink:title=" ">
<path fill="none" stroke="#63b8ff" d="M402.45,-164.75C407.76,-157.34 415.53,-146.5 422.05,-137.41"/>
<polygon fill="#63b8ff" stroke="#63b8ff" points="425.03,-139.26 428.02,-129.09 419.34,-135.18 425.03,-139.26"/>
</a>
</g>
</g>
<!-- Node16 -->
<g id="Node000016" class="node">
<title>Node16</title>
<g id="a_Node000016"><a xlink:title=" ">
<polygon fill="#e0e0e0" stroke="#999999" points="535.67,-129 480.67,-129 480.67,-110 535.67,-110 535.67,-129"/>
<text text-anchor="middle" x="508.17" y="-117" font-family="Helvetica,sans-Serif" font-size="10.00">fstream</text>
</a>
</g>
</g>
<!-- Node7&#45;&gt;Node16 -->
<g id="edge22_Node000007_Node000016" class="edge">
<title>Node7&#45;&gt;Node16</title>
<g id="a_edge22_Node000007_Node000016"><a xlink:title=" ">
<path fill="none" stroke="#63b8ff" d="M414.17,-164.98C432.1,-156.5 459.89,-143.35 480.61,-133.54"/>
<polygon fill="#63b8ff" stroke="#63b8ff" points="482.31,-136.61 489.85,-129.17 479.31,-130.28 482.31,-136.61"/>
</a>
</g>
</g>
<!-- Node8&#45;&gt;Node2 -->
<g id="edge15_Node000008_Node000002" class="edge">
<title>Node8&#45;&gt;Node2</title>
<g id="a_edge15_Node000008_Node000002"><a xlink:title=" ">
<path fill="none" stroke="#63b8ff" d="M205,-109.98C182.4,-101.3 147.11,-87.75 121.42,-77.88"/>
<polygon fill="#63b8ff" stroke="#63b8ff" points="122.34,-74.49 111.75,-74.17 119.83,-81.02 122.34,-74.49"/>
</a>
</g>
</g>
<!-- Node8&#45;&gt;Node4 -->
<g id="edge11_Node000008_Node000004" class="edge">
<title>Node8&#45;&gt;Node4</title>
<g id="a_edge11_Node000008_Node000004"><a xlink:title=" ">
<path fill="none" stroke="#63b8ff" d="M228.4,-109.66C230.83,-92.17 236.3,-52.8 239.57,-29.27"/>
<polygon fill="#63b8ff" stroke="#63b8ff" points="243.06,-29.54 240.97,-19.16 236.13,-28.58 243.06,-29.54"/>
</a>
</g>
</g>
<!-- Node8&#45;&gt;Node5 -->
<g id="edge14_Node000008_Node000005" class="edge">
<title>Node8&#45;&gt;Node5</title>
<g id="a_edge14_Node000008_Node000005"><a xlink:title=" ">
<path fill="none" stroke="#63b8ff" d="M238.9,-109.98C249.9,-102 266.59,-89.88 279.78,-80.31"/>
<polygon fill="#63b8ff" stroke="#63b8ff" points="282.2,-82.88 288.23,-74.17 278.08,-77.21 282.2,-82.88"/>
</a>
</g>
</g>
<!-- Node8&#45;&gt;Node9 -->
<g id="edge12_Node000008_Node000009" class="edge">
<title>Node8&#45;&gt;Node9</title>
<g id="a_edge12_Node000008_Node000009"><a xlink:title=" ">
<path fill="none" stroke="#63b8ff" d="M271.7,-110.22C328.97,-99.57 427.15,-81.31 478.56,-71.75"/>
<polygon fill="#63b8ff" stroke="#63b8ff" points="479.29,-75.17 488.49,-69.9 478.01,-68.29 479.29,-75.17"/>
</a>
</g>
</g>
<!-- Node10 -->
<g id="Node000010" class="node">
<title>Node10</title>
<g id="a_Node000010"><a xlink:title=" ">
<polygon fill="#e0e0e0" stroke="#999999" points="214.17,-74 158.17,-74 158.17,-55 214.17,-55 214.17,-74"/>
<text text-anchor="middle" x="186.17" y="-62" font-family="Helvetica,sans-Serif" font-size="10.00">assert.h</text>
</a>
</g>
</g>
<!-- Node8&#45;&gt;Node10 -->
<g id="edge13_Node000008_Node000010" class="edge">
<title>Node8&#45;&gt;Node10</title>
<g id="a_edge13_Node000008_Node000010"><a xlink:title=" ">
<path fill="none" stroke="#63b8ff" d="M220.4,-109.75C214.61,-102.26 206.11,-91.28 199.04,-82.13"/>
<polygon fill="#63b8ff" stroke="#63b8ff" points="201.7,-79.86 192.82,-74.09 196.17,-84.14 201.7,-79.86"/>
</a>
</g>
</g>
</g>
</svg>
