<?xml version="1.0" encoding="UTF-8" standalone="no"?>
<!DOCTYPE svg PUBLIC "-//W3C//DTD SVG 1.1//EN"
 "http://www.w3.org/Graphics/SVG/1.1/DTD/svg11.dtd">
<!-- Generated by graphviz version 2.43.0 (0)
 -->
<!-- Title: include/Joueur.hpp Pages: 1 -->
<svg width="372pt" height="137pt"
 viewBox="0.00 0.00 372.00 137.00" xmlns="http://www.w3.org/2000/svg" xmlns:xlink="http://www.w3.org/1999/xlink">
<g id="graph0" class="graph" transform="scale(1 1) rotate(0) translate(4 133)">
<title>include/Joueur.hpp</title>
<!-- Node1 -->
<g id="Node000001" class="node">
<title>Node1</title>
<g id="a_Node000001"><a xlink:title="Déclaration de la classe Joueur, participant à une partie des Aventuriers du Rail.">
<polygon fill="#999999" stroke="#666666" points="225,-129 119,-129 119,-110 225,-110 225,-129"/>
<text text-anchor="middle" x="172" y="-117" font-family="Helvetica,sans-Serif" font-size="10.00">include/Joueur.hpp</text>
</a>
</g>
</g>
<!-- Node2 -->
<g id="Node000002" class="node">
<title>Node2</title>
<g id="a_Node000002"><a xlink:href="Partie_8hpp.html" target="_top" xlink:title=" ">
<polygon fill="white" stroke="#666666" points="224,-74 120,-74 120,-55 224,-55 224,-74"/>
<text text-anchor="middle" x="172" y="-62" font-family="Helvetica,sans-Serif" font-size="10.00">include/Partie.hpp</text>
</a>
</g>
</g>
<!-- Node1&#45;&gt;Node2 -->
<g id="edge1_Node000001_Node000002" class="edge">
<title>Node1&#45;&gt;Node2</title>
<g id="a_edge1_Node000001_Node000002"><a xlink:title=" ">
<path fill="none" stroke="#63b8ff" d="M172,-99.66C172,-90.93 172,-80.99 172,-74.09"/>
<polygon fill="#63b8ff" stroke="#63b8ff" points="168.5,-99.75 172,-109.75 175.5,-99.75 168.5,-99.75"/>
</a>
</g>
</g>
<!-- Node3 -->
<g id="Node000003" class="node">
<title>Node3</title>
<g id="a_Node000003"><a xlink:href="Partie_8cpp.html" target="_top" xlink:title=" ">
<polygon fill="white" stroke="#666666" points="82,-19 0,-19 0,0 82,0 82,-19"/>
<text text-anchor="middle" x="41" y="-7" font-family="Helvetica,sans-Serif" font-size="10.00">src/Partie.cpp</text>
</a>
</g>
</g>
<!-- Node1&#45;&gt;Node3 -->
<g id="edge6_Node000001_Node000003" class="edge">
<title>Node1&#45;&gt;Node3</title>
<g id="a_edge6_Node000001_Node000003"><a xlink:title=" ">
<path fill="none" stroke="#63b8ff" d="M148.36,-104.73C134.88,-96.47 117.94,-85.38 104,-74 82.34,-56.33 59.99,-32.11 48.63,-19.29"/>
<polygon fill="#63b8ff" stroke="#63b8ff" points="146.68,-107.81 157.06,-109.97 150.29,-101.81 146.68,-107.81"/>
</a>
</g>
</g>
<!-- Node4 -->
<g id="Node000004" class="node">
<title>Node4</title>
<g id="a_Node000004"><a xlink:href="gui__main_8cpp.html" target="_top" xlink:title=" ">
<polygon fill="white" stroke="#666666" points="199.5,-19 100.5,-19 100.5,0 199.5,0 199.5,-19"/>
<text text-anchor="middle" x="150" y="-7" font-family="Helvetica,sans-Serif" font-size="10.00">src/gui_main.cpp</text>
</a>
</g>
</g>
<!-- Node1&#45;&gt;Node4 -->
<g id="edge7_Node000001_Node000004" class="edge">
<title>Node1&#45;&gt;Node4</title>
<g id="a_edge7_Node000001_Node000004"><a xlink:title=" ">
<path fill="none" stroke="#63b8ff" d="M142.75,-104.9C130.6,-97.59 117.77,-87.32 111,-74 100.62,-53.59 123.24,-31.05 138.19,-19.08"/>
<polygon fill="#63b8ff" stroke="#63b8ff" points="141.36,-108.13 151.8,-109.91 144.75,-102.01 141.36,-108.13"/>
</a>
</g>
</g>
<!-- Node5 -->
<g id="Node000005" class="node">
<title>Node5</title>
<g id="a_Node000005"><a xlink:href="main_8cpp.html" target="_top" xlink:title=" ">
<polygon fill="white" stroke="#666666" points="296.5,-19 217.5,-19 217.5,0 296.5,0 296.5,-19"/>
<text text-anchor="middle" x="257" y="-7" font-family="Helvetica,sans-Serif" font-size="10.00">src/main.cpp</text>
</a>
</g>
</g>
<!-- Node1&#45;&gt;Node5 -->
<g id="edge8_Node000001_Node000005" class="edge">
<title>Node1&#45;&gt;Node5</title>
<g id="a_edge8_Node000001_Node000005"><a xlink:title=" ">
<path fill="none" stroke="#63b8ff" d="M197.43,-104.67C209.58,-96.99 223.51,-86.46 233,-74 246,-56.94 252.64,-32.04 255.4,-19.07"/>
<polygon fill="#63b8ff" stroke="#63b8ff" points="195.36,-101.83 188.59,-109.98 198.96,-107.83 195.36,-101.83"/>
</a>
</g>
</g>
<!-- Node6 -->
<g id="Node000006" class="node">
<title>Node6</title>
<g id="a_Node000006"><a xlink:href="Joueur_8cpp.html" target="_top" xlink:title="Implémentation de la classe Joueur.">
<polygon fill="white" stroke="#666666" points="364,-74 280,-74 280,-55 364,-55 364,-74"/>
<text text-anchor="middle" x="322" y="-62" font-family="Helvetica,sans-Serif" font-size="10.00">src/Joueur.cpp</text>
</a>
</g>
</g>
<!-- Node1&#45;&gt;Node6 -->
<g id="edge5_Node000001_Node000006" class="edge">
<title>Node1&#45;&gt;Node6</title>
<g id="a_edge5_Node000001_Node000006"><a xlink:title=" ">
<path fill="none" stroke="#63b8ff" d="M205.82,-106.55C233.68,-96.71 272.51,-82.98 297.46,-74.17"/>
<polygon fill="#63b8ff" stroke="#63b8ff" points="204.36,-103.35 196.1,-109.98 206.69,-109.95 204.36,-103.35"/>
</a>
</g>
</g>
<!-- Node2&#45;&gt;Node3 -->
<g id="edge2_Node000002_Node000003" class="edge">
<title>Node2&#45;&gt;Node3</title>
<g id="a_edge2_Node000002_Node000003"><a xlink:title=" ">
<path fill="none" stroke="#63b8ff" d="M141.5,-51.16C117.25,-41.35 83.93,-27.87 62.43,-19.17"/>
<polygon fill="#63b8ff" stroke="#63b8ff" points="140.37,-54.48 150.95,-54.98 143,-47.99 140.37,-54.48"/>
</a>
</g>
</g>
<!-- Node2&#45;&gt;Node4 -->
<g id="edge3_Node000002_Node000004" class="edge">
<title>Node2&#45;&gt;Node4</title>
<g id="a_edge3_Node000002_Node000004"><a xlink:title=" ">
<path fill="none" stroke="#63b8ff" d="M164.42,-45.24C160.74,-36.37 156.49,-26.14 153.57,-19.09"/>
<polygon fill="#63b8ff" stroke="#63b8ff" points="161.3,-46.85 168.37,-54.75 167.77,-44.17 161.3,-46.85"/>
</a>
</g>
</g>
<!-- Node2&#45;&gt;Node5 -->
<g id="edge4_Node000002_Node000005" class="edge">
<title>Node2&#45;&gt;Node5</title>
<g id="a_edge4_Node000002_Node000005"><a xlink:title=" ">
<path fill="none" stroke="#63b8ff" d="M194.57,-49.42C210,-39.81 229.95,-27.37 243.09,-19.17"/>
<polygon fill="#63b8ff" stroke="#63b8ff" points="192.29,-46.72 185.66,-54.98 195.99,-52.66 192.29,-46.72"/>
</a>
</g>
</g>
</g>
</svg>
