<?xml version="1.0" encoding="UTF-8" standalone="no"?>
<!DOCTYPE svg PUBLIC "-//W3C//DTD SVG 1.1//EN"
 "http://www.w3.org/Graphics/SVG/1.1/DTD/svg11.dtd">
<!-- Generated by graphviz version 2.43.0 (0)
 -->
<!-- Title: src/Joueur.cpp Pages: 1 -->
<!--zoomable 302 -->

<svg id="main" version="1.1" xmlns="http://www.w3.org/2000/svg" xmlns:xlink="http://www.w3.org/1999/xlink" xml:space="preserve" onload="init(evt)">
<style type="text/css"><![CDATA[
.node, .edge {opacity: 0.7;}
.node.selected, .edge.selected {opacity: 1;}
.edge:hover path { stroke: red; }
.edge:hover polygon { stroke: red; fill: red; }
]]></style>

<defs>
  <circle id="rim" cx="0" cy="0" r="7"/>
  <circle id="rim2" cx="0" cy="0" r="3.5"/>
  <g id="zoomPlus">
    <use xlink:href="#rim" fill="#404040"><set attributeName="fill" to="#808080" begin="zoomplus.mouseover" end="zoomplus.mouseout"/></use>
    <path d="M-4,0h8M0,-4v8" fill="none" stroke="white" stroke-width="1.5" pointer-events="none"/>
  </g>
  <g id="zoomMin">
    <use xlink:href="#rim" fill="#404040"><set attributeName="fill" to="#808080" begin="zoomminus.mouseover" end="zoomminus.mouseout"/></use>
    <path d="M-4,0h8" fill="none" stroke="white" stroke-width="1.5" pointer-events="none"/>
  </g>
  <g id="arrowUp" transform="translate(30 24)">
    <use xlink:href="#rim"/>
    <path pointer-events="none" fill="none" stroke="white" stroke-width="1.5" d="M0,-3.0v7 M-2.5,-0.5L0,-3.0L2.5,-0.5"/>
  </g>
  <g id="arrowRight" transform="rotate(90) translate(36 -43)">
    <use xlink:href="#rim"/>
    <path pointer-events="none" fill="none" stroke="white" stroke-width="1.5" d="M0,-3.0v7 M-2.5,-0.5L0,-3.0L2.5,-0.5"/>
  </g>
  <g id="arrowDown" transform="rotate(180) translate(-30 -48)">
    <use xlink:href="#rim"/>
    <path pointer-events="none" fill="none" stroke="white" stroke-width="1.5" d="M0,-3.0v7 M-2.5,-0.5L0,-3.0L2.5,-0.5"/>
  </g>
  <g id="arrowLeft" transform="rotate(270) translate(-36 17)">
    <use xlink:href="#rim"/>
    <path pointer-events="none" fill="none" stroke="white" stroke-width="1.5" d="M0,-3.0v7 M-2.5,-0.5L0,-3.0L2.5,-0.5"/>
  </g>
  <g id="resetDef">
    <use xlink:href="#rim2" fill="#404040"><set attributeName="fill" to="#808080" begin="reset.mouseover" end="reset.mouseout"/></use>
  </g>
</defs>
<script type="application/ecmascript">
var viewWidth = 882;
var viewHeight = 302;
var sectionId = 'dynsection-0';
</script>
<script type="application/ecmascript" xlink:href="svg.min.js"/>
<svg id="graph" class="graph">
<g id="viewport">
<title>src/Joueur.cpp</title>
<!-- Node1 -->
<g id="Node000001" class="node">
<title>Node1</title>
<g id="a_Node000001"><a xlink:title="Implémentation de la classe Joueur.">
<polygon fill="#999999" stroke="#666666" points="588.5,-294 504.5,-294 504.5,-275 588.5,-275 588.5,-294"/>
<text text-anchor="middle" x="546.5" y="-282" font-family="Helvetica,sans-Serif" font-size="10.00">src/Joueur.cpp</text>
</a>
</g>
</g>
<!-- Node2 -->
<g id="Node000002" class="node">
<title>Node2</title>
<g id="a_Node000002"><a xlink:href="Joueur_8hpp.html" target="_top" xlink:title="Déclaration de la classe Joueur, participant à une partie des Aventuriers du Rail.">
<polygon fill="white" stroke="#666666" points="351.5,-239 283.5,-239 283.5,-220 351.5,-220 351.5,-239"/>
<text text-anchor="middle" x="317.5" y="-227" font-family="Helvetica,sans-Serif" font-size="10.00">Joueur.hpp</text>
</a>
</g>
</g>
<!-- Node1&#45;&gt;Node2 -->
<g id="edge1_Node000001_Node000002" class="edge">
<title>Node1&#45;&gt;Node2</title>
<g id="a_edge1_Node000001_Node000002"><a xlink:title=" ">
<path fill="none" stroke="#63b8ff" d="M509.71,-274.98C469.33,-265.64 404.53,-250.64 361.49,-240.68"/>
<polygon fill="#63b8ff" stroke="#63b8ff" points="362.12,-237.23 351.58,-238.39 360.54,-244.05 362.12,-237.23"/>
</a>
</g>
</g>
<!-- Node8 -->
<g id="Node000008" class="node">
<title>Node8</title>
<g id="a_Node000008"><a xlink:href="Plateau_8hpp.html" target="_top" xlink:title="Classe Plateau – Gère le plateau de jeu avec villes et voies ferrées.">
<polygon fill="white" stroke="#666666" points="583.5,-184 509.5,-184 509.5,-165 583.5,-165 583.5,-184"/>
<text text-anchor="middle" x="546.5" y="-172" font-family="Helvetica,sans-Serif" font-size="10.00">Plateau.hpp</text>
</a>
</g>
</g>
<!-- Node1&#45;&gt;Node8 -->
<g id="edge29_Node000001_Node000008" class="edge">
<title>Node1&#45;&gt;Node8</title>
<g id="a_edge29_Node000001_Node000008"><a xlink:title=" ">
<path fill="none" stroke="#63b8ff" d="M546.5,-274.66C546.5,-257.17 546.5,-217.8 546.5,-194.27"/>
<polygon fill="#63b8ff" stroke="#63b8ff" points="550,-194.16 546.5,-184.16 543,-194.16 550,-194.16"/>
</a>
</g>
</g>
<!-- Node14 -->
<g id="Node000014" class="node">
<title>Node14</title>
<g id="a_Node000014"><a xlink:title=" ">
<polygon fill="#e0e0e0" stroke="#999999" points="873.5,-129 809.5,-129 809.5,-110 873.5,-110 873.5,-129"/>
<text text-anchor="middle" x="841.5" y="-117" font-family="Helvetica,sans-Serif" font-size="10.00">algorithm</text>
</a>
</g>
</g>
<!-- Node1&#45;&gt;Node14 -->
<g id="edge30_Node000001_Node000014" class="edge">
<title>Node1&#45;&gt;Node14</title>
<g id="a_edge30_Node000001_Node000014"><a xlink:title=" ">
<path fill="none" stroke="#63b8ff" d="M561.95,-274.97C610.12,-248.35 757.93,-166.67 816.87,-134.11"/>
<polygon fill="#63b8ff" stroke="#63b8ff" points="818.79,-137.05 825.85,-129.15 815.41,-130.92 818.79,-137.05"/>
</a>
</g>
</g>
<!-- Node3 -->
<g id="Node000003" class="node">
<title>Node3</title>
<g id="a_Node000003"><a xlink:href="couleurEnum_8hpp.html" target="_top" xlink:title=" ">
<polygon fill="white" stroke="#666666" points="101,-74 0,-74 0,-55 101,-55 101,-74"/>
<text text-anchor="middle" x="50.5" y="-62" font-family="Helvetica,sans-Serif" font-size="10.00">couleurEnum.hpp</text>
</a>
</g>
</g>
<!-- Node2&#45;&gt;Node3 -->
<g id="edge2_Node000002_Node000003" class="edge">
<title>Node2&#45;&gt;Node3</title>
<g id="a_edge2_Node000002_Node000003"><a xlink:title=" ">
<path fill="none" stroke="#63b8ff" d="M283.21,-225.28C244.53,-220.55 180.63,-209.35 131.5,-184 98.47,-166.96 88.39,-160.4 68.5,-129 59.88,-115.39 55.3,-97.57 52.92,-84.27"/>
<polygon fill="#63b8ff" stroke="#63b8ff" points="56.37,-83.71 51.4,-74.36 49.45,-84.77 56.37,-83.71"/>
</a>
</g>
</g>
<!-- Node4 -->
<g id="Node000004" class="node">
<title>Node4</title>
<g id="a_Node000004"><a xlink:href="Ticket_8hpp.html" target="_top" xlink:title=" ">
<polygon fill="white" stroke="#666666" points="263,-129 196,-129 196,-110 263,-110 263,-129"/>
<text text-anchor="middle" x="229.5" y="-117" font-family="Helvetica,sans-Serif" font-size="10.00">Ticket.hpp</text>
</a>
</g>
</g>
<!-- Node2&#45;&gt;Node4 -->
<g id="edge3_Node000002_Node000004" class="edge">
<title>Node2&#45;&gt;Node4</title>
<g id="a_edge3_Node000002_Node000004"><a xlink:title=" ">
<path fill="none" stroke="#63b8ff" d="M310.3,-219.66C295.59,-201.61 261.91,-160.28 243.01,-137.08"/>
<polygon fill="#63b8ff" stroke="#63b8ff" points="245.59,-134.7 236.55,-129.16 240.16,-139.12 245.59,-134.7"/>
</a>
</g>
</g>
<!-- Node5 -->
<g id="Node000005" class="node">
<title>Node5</title>
<g id="a_Node000005"><a xlink:title=" ">
<polygon fill="#e0e0e0" stroke="#999999" points="227.5,-19 183.5,-19 183.5,0 227.5,0 227.5,-19"/>
<text text-anchor="middle" x="205.5" y="-7" font-family="Helvetica,sans-Serif" font-size="10.00">string</text>
</a>
</g>
</g>
<!-- Node2&#45;&gt;Node5 -->
<g id="edge27_Node000002_Node000005" class="edge">
<title>Node2&#45;&gt;Node5</title>
<g id="a_edge27_Node000002_Node000005"><a xlink:title=" ">
<path fill="none" stroke="#63b8ff" d="M296.93,-219.99C266.45,-206.1 210.41,-175.38 187.5,-129 171.29,-96.17 185.86,-52.49 196.57,-28.38"/>
<polygon fill="#63b8ff" stroke="#63b8ff" points="199.86,-29.6 200.95,-19.06 193.53,-26.62 199.86,-29.6"/>
</a>
</g>
</g>
<!-- Node7 -->
<g id="Node000007" class="node">
<title>Node7</title>
<g id="a_Node000007"><a xlink:href="Train_8hpp.html" target="_top" xlink:title=" ">
<polygon fill="white" stroke="#666666" points="139,-129 78,-129 78,-110 139,-110 139,-129"/>
<text text-anchor="middle" x="108.5" y="-117" font-family="Helvetica,sans-Serif" font-size="10.00">Train.hpp</text>
</a>
</g>
</g>
<!-- Node2&#45;&gt;Node7 -->
<g id="edge7_Node000002_Node000007" class="edge">
<title>Node2&#45;&gt;Node7</title>
<g id="a_edge7_Node000002_Node000007"><a xlink:title=" ">
<path fill="none" stroke="#63b8ff" d="M283.25,-225.97C247.95,-221.92 192.68,-211.36 153.5,-184 137.1,-172.55 124.62,-153.1 117.01,-138.74"/>
<polygon fill="#63b8ff" stroke="#63b8ff" points="119.93,-136.76 112.34,-129.37 113.66,-139.88 119.93,-136.76"/>
</a>
</g>
</g>
<!-- Node2&#45;&gt;Node8 -->
<g id="edge10_Node000002_Node000008" class="edge">
<title>Node2&#45;&gt;Node8</title>
<g id="a_edge10_Node000002_Node000008"><a xlink:title=" ">
<path fill="none" stroke="#63b8ff" d="M351.78,-220.57C391.14,-211.46 455.91,-196.47 499.84,-186.3"/>
<polygon fill="#63b8ff" stroke="#63b8ff" points="500.75,-189.68 509.7,-184.02 499.17,-182.86 500.75,-189.68"/>
</a>
</g>
</g>
<!-- Node10 -->
<g id="Node000010" class="node">
<title>Node10</title>
<g id="a_Node000010"><a xlink:title=" ">
<polygon fill="#e0e0e0" stroke="#999999" points="471,-74 424,-74 424,-55 471,-55 471,-74"/>
<text text-anchor="middle" x="447.5" y="-62" font-family="Helvetica,sans-Serif" font-size="10.00">vector</text>
</a>
</g>
</g>
<!-- Node2&#45;&gt;Node10 -->
<g id="edge26_Node000002_Node000010" class="edge">
<title>Node2&#45;&gt;Node10</title>
<g id="a_edge26_Node000002_Node000010"><a xlink:title=" ">
<path fill="none" stroke="#63b8ff" d="M328.51,-219.96C348.59,-203.95 391.54,-167.52 418.5,-129 428.37,-114.9 436.21,-96.9 441.24,-83.67"/>
<polygon fill="#63b8ff" stroke="#63b8ff" points="444.54,-84.84 444.66,-74.24 437.96,-82.45 444.54,-84.84"/>
</a>
</g>
</g>
<!-- Node18 -->
<g id="Node000018" class="node">
<title>Node18</title>
<g id="a_Node000018"><a xlink:title=" ">
<polygon fill="#e0e0e0" stroke="#999999" points="491,-184 434,-184 434,-165 491,-165 491,-184"/>
<text text-anchor="middle" x="462.5" y="-172" font-family="Helvetica,sans-Serif" font-size="10.00">ostream</text>
</a>
</g>
</g>
<!-- Node2&#45;&gt;Node18 -->
<g id="edge28_Node000002_Node000018" class="edge">
<title>Node2&#45;&gt;Node18</title>
<g id="a_edge28_Node000002_Node000018"><a xlink:title=" ">
<path fill="none" stroke="#63b8ff" d="M340.8,-219.98C364.75,-211.23 402.28,-197.51 429.33,-187.62"/>
<polygon fill="#63b8ff" stroke="#63b8ff" points="430.59,-190.89 438.78,-184.17 428.19,-184.32 430.59,-190.89"/>
</a>
</g>
</g>
<!-- Node4&#45;&gt;Node5 -->
<g id="edge4_Node000004_Node000005" class="edge">
<title>Node4&#45;&gt;Node5</title>
<g id="a_edge4_Node000004_Node000005"><a xlink:title=" ">
<path fill="none" stroke="#63b8ff" d="M227.54,-109.66C223.63,-92.09 214.82,-52.45 209.6,-28.95"/>
<polygon fill="#63b8ff" stroke="#63b8ff" points="213.01,-28.16 207.42,-19.16 206.18,-29.68 213.01,-28.16"/>
</a>
</g>
</g>
<!-- Node6 -->
<g id="Node000006" class="node">
<title>Node6</title>
<g id="a_Node000006"><a xlink:href="Ville_8hpp.html" target="_top" xlink:title=" ">
<polygon fill="white" stroke="#666666" points="293,-74 234,-74 234,-55 293,-55 293,-74"/>
<text text-anchor="middle" x="263.5" y="-62" font-family="Helvetica,sans-Serif" font-size="10.00">Ville.hpp</text>
</a>
</g>
</g>
<!-- Node4&#45;&gt;Node6 -->
<g id="edge5_Node000004_Node000006" class="edge">
<title>Node4&#45;&gt;Node6</title>
<g id="a_edge5_Node000004_Node000006"><a xlink:title=" ">
<path fill="none" stroke="#63b8ff" d="M235.11,-109.75C239.82,-102.42 246.67,-91.73 252.47,-82.7"/>
<polygon fill="#63b8ff" stroke="#63b8ff" points="255.54,-84.4 257.99,-74.09 249.64,-80.62 255.54,-84.4"/>
</a>
</g>
</g>
<!-- Node6&#45;&gt;Node5 -->
<g id="edge6_Node000006_Node000005" class="edge">
<title>Node6&#45;&gt;Node5</title>
<g id="a_edge6_Node000006_Node000005"><a xlink:title=" ">
<path fill="none" stroke="#63b8ff" d="M254.18,-54.98C245.69,-47.23 232.94,-35.58 222.62,-26.14"/>
<polygon fill="#63b8ff" stroke="#63b8ff" points="224.73,-23.33 214.99,-19.17 220.01,-28.5 224.73,-23.33"/>
</a>
</g>
</g>
<!-- Node7&#45;&gt;Node3 -->
<g id="edge9_Node000007_Node000003" class="edge">
<title>Node7&#45;&gt;Node3</title>
<g id="a_edge9_Node000007_Node000003"><a xlink:title=" ">
<path fill="none" stroke="#63b8ff" d="M99.18,-109.98C90.69,-102.23 77.94,-90.58 67.62,-81.14"/>
<polygon fill="#63b8ff" stroke="#63b8ff" points="69.73,-78.33 59.99,-74.17 65.01,-83.5 69.73,-78.33"/>
</a>
</g>
</g>
<!-- Node7&#45;&gt;Node5 -->
<g id="edge8_Node000007_Node000005" class="edge">
<title>Node7&#45;&gt;Node5</title>
<g id="a_edge8_Node000007_Node000005"><a xlink:title=" ">
<path fill="none" stroke="#63b8ff" d="M113.71,-109.78C121.52,-97.06 137.11,-72.96 153.5,-55 163.26,-44.3 175.51,-33.71 185.67,-25.54"/>
<polygon fill="#63b8ff" stroke="#63b8ff" points="187.91,-28.23 193.62,-19.3 183.59,-22.72 187.91,-28.23"/>
</a>
</g>
</g>
<!-- Node8&#45;&gt;Node4 -->
<g id="edge24_Node000008_Node000004" class="edge">
<title>Node8&#45;&gt;Node4</title>
<g id="a_edge24_Node000008_Node000004"><a xlink:title=" ">
<path fill="none" stroke="#63b8ff" d="M509.36,-166.56C506.36,-166.03 503.38,-165.5 500.5,-165 401.58,-147.88 376.49,-145.75 277.5,-129 276.04,-128.75 274.55,-128.5 273.06,-128.24"/>
<polygon fill="#63b8ff" stroke="#63b8ff" points="273.51,-124.77 263.06,-126.51 272.31,-131.67 273.51,-124.77"/>
</a>
</g>
</g>
<!-- Node8&#45;&gt;Node6 -->
<g id="edge17_Node000008_Node000006" class="edge">
<title>Node8&#45;&gt;Node6</title>
<g id="a_edge17_Node000008_Node000006"><a xlink:title=" ">
<path fill="none" stroke="#63b8ff" d="M509.41,-166.65C443.72,-154.5 313.61,-130.31 311.5,-129 293.75,-117.99 280.23,-97.85 272.13,-83.2"/>
<polygon fill="#63b8ff" stroke="#63b8ff" points="275.12,-81.36 267.4,-74.11 268.91,-84.59 275.12,-81.36"/>
</a>
</g>
</g>
<!-- Node8&#45;&gt;Node7 -->
<g id="edge25_Node000008_Node000007" class="edge">
<title>Node8&#45;&gt;Node7</title>
<g id="a_edge25_Node000008_Node000007"><a xlink:title=" ">
<path fill="none" stroke="#63b8ff" d="M509.38,-166.41C506.38,-165.91 503.39,-165.43 500.5,-165 466.34,-159.91 242.61,-135.21 149.28,-124.97"/>
<polygon fill="#63b8ff" stroke="#63b8ff" points="149.41,-121.46 139.09,-123.85 148.65,-128.42 149.41,-121.46"/>
</a>
</g>
</g>
<!-- Node9 -->
<g id="Node000009" class="node">
<title>Node9</title>
<g id="a_Node000009"><a xlink:href="VoieFerree_8hpp.html" target="_top" xlink:title="Classe VoieFerree – Représente une voie ferrée du plateau.">
<polygon fill="white" stroke="#666666" points="409,-129 320,-129 320,-110 409,-110 409,-129"/>
<text text-anchor="middle" x="364.5" y="-117" font-family="Helvetica,sans-Serif" font-size="10.00">VoieFerree.hpp</text>
</a>
</g>
</g>
<!-- Node8&#45;&gt;Node9 -->
<g id="edge11_Node000008_Node000009" class="edge">
<title>Node8&#45;&gt;Node9</title>
<g id="a_edge11_Node000008_Node000009"><a xlink:title=" ">
<path fill="none" stroke="#63b8ff" d="M517.26,-164.98C486.44,-156.01 437.72,-141.82 403.61,-131.89"/>
<polygon fill="#63b8ff" stroke="#63b8ff" points="404.55,-128.52 393.97,-129.08 402.59,-135.24 404.55,-128.52"/>
</a>
</g>
</g>
<!-- Node12 -->
<g id="Node000012" class="node">
<title>Node12</title>
<g id="a_Node000012"><a xlink:title=" ">
<polygon fill="#e0e0e0" stroke="#999999" points="509.5,-129 465.5,-129 465.5,-110 509.5,-110 509.5,-129"/>
<text text-anchor="middle" x="487.5" y="-117" font-family="Helvetica,sans-Serif" font-size="10.00">limits</text>
</a>
</g>
</g>
<!-- Node8&#45;&gt;Node12 -->
<g id="edge18_Node000008_Node000012" class="edge">
<title>Node8&#45;&gt;Node12</title>
<g id="a_edge18_Node000008_Node000012"><a xlink:title=" ">
<path fill="none" stroke="#63b8ff" d="M537.02,-164.98C528.3,-157.15 515.16,-145.34 504.6,-135.86"/>
<polygon fill="#63b8ff" stroke="#63b8ff" points="506.93,-133.25 497.15,-129.17 502.25,-138.46 506.93,-133.25"/>
</a>
</g>
</g>
<!-- Node13 -->
<g id="Node000013" class="node">
<title>Node13</title>
<g id="a_Node000013"><a xlink:title=" ">
<polygon fill="#e0e0e0" stroke="#999999" points="565.5,-129 527.5,-129 527.5,-110 565.5,-110 565.5,-129"/>
<text text-anchor="middle" x="546.5" y="-117" font-family="Helvetica,sans-Serif" font-size="10.00">map</text>
</a>
</g>
</g>
<!-- Node8&#45;&gt;Node13 -->
<g id="edge19_Node000008_Node000013" class="edge">
<title>Node8&#45;&gt;Node13</title>
<g id="a_edge19_Node000008_Node000013"><a xlink:title=" ">
<path fill="none" stroke="#63b8ff" d="M546.5,-164.75C546.5,-157.8 546.5,-147.85 546.5,-139.13"/>
<polygon fill="#63b8ff" stroke="#63b8ff" points="550,-139.09 546.5,-129.09 543,-139.09 550,-139.09"/>
</a>
</g>
</g>
<!-- Node8&#45;&gt;Node14 -->
<g id="edge20_Node000008_Node000014" class="edge">
<title>Node8&#45;&gt;Node14</title>
<g id="a_edge20_Node000008_Node000014"><a xlink:title=" ">
<path fill="none" stroke="#63b8ff" d="M583.58,-167.37C631.18,-159.43 716.55,-144.91 799.22,-129.2"/>
<polygon fill="#63b8ff" stroke="#63b8ff" points="800.12,-132.59 809.29,-127.28 798.81,-125.71 800.12,-132.59"/>
</a>
</g>
</g>
<!-- Node15 -->
<g id="Node000015" class="node">
<title>Node15</title>
<g id="a_Node000015"><a xlink:title=" ">
<polygon fill="#e0e0e0" stroke="#999999" points="643.5,-129 583.5,-129 583.5,-110 643.5,-110 643.5,-129"/>
<text text-anchor="middle" x="613.5" y="-117" font-family="Helvetica,sans-Serif" font-size="10.00">iostream</text>
</a>
</g>
</g>
<!-- Node8&#45;&gt;Node15 -->
<g id="edge21_Node000008_Node000015" class="edge">
<title>Node8&#45;&gt;Node15</title>
<g id="a_edge21_Node000008_Node000015"><a xlink:title=" ">
<path fill="none" stroke="#63b8ff" d="M557.26,-164.98C567.27,-157.07 582.39,-145.11 594.43,-135.58"/>
<polygon fill="#63b8ff" stroke="#63b8ff" points="596.87,-138.12 602.54,-129.17 592.53,-132.63 596.87,-138.12"/>
</a>
</g>
</g>
<!-- Node16 -->
<g id="Node000016" class="node">
<title>Node16</title>
<g id="a_Node000016"><a xlink:title=" ">
<polygon fill="#e0e0e0" stroke="#999999" points="717.5,-129 661.5,-129 661.5,-110 717.5,-110 717.5,-129"/>
<text text-anchor="middle" x="689.5" y="-117" font-family="Helvetica,sans-Serif" font-size="10.00">sstream</text>
</a>
</g>
</g>
<!-- Node8&#45;&gt;Node16 -->
<g id="edge22_Node000008_Node000016" class="edge">
<title>Node8&#45;&gt;Node16</title>
<g id="a_edge22_Node000008_Node000016"><a xlink:title=" ">
<path fill="none" stroke="#63b8ff" d="M569.48,-164.98C593,-156.27 629.79,-142.63 656.44,-132.75"/>
<polygon fill="#63b8ff" stroke="#63b8ff" points="657.95,-135.93 666.11,-129.17 655.51,-129.36 657.95,-135.93"/>
</a>
</g>
</g>
<!-- Node17 -->
<g id="Node000017" class="node">
<title>Node17</title>
<g id="a_Node000017"><a xlink:title=" ">
<polygon fill="#e0e0e0" stroke="#999999" points="791,-129 736,-129 736,-110 791,-110 791,-129"/>
<text text-anchor="middle" x="763.5" y="-117" font-family="Helvetica,sans-Serif" font-size="10.00">fstream</text>
</a>
</g>
</g>
<!-- Node8&#45;&gt;Node17 -->
<g id="edge23_Node000008_Node000017" class="edge">
<title>Node8&#45;&gt;Node17</title>
<g id="a_edge23_Node000008_Node000017"><a xlink:title=" ">
<path fill="none" stroke="#63b8ff" d="M581.36,-164.98C621.02,-155.3 685.51,-139.55 726.16,-129.62"/>
<polygon fill="#63b8ff" stroke="#63b8ff" points="727.07,-133 735.95,-127.23 725.4,-126.2 727.07,-133"/>
</a>
</g>
</g>
<!-- Node9&#45;&gt;Node3 -->
<g id="edge16_Node000009_Node000003" class="edge">
<title>Node9&#45;&gt;Node3</title>
<g id="a_edge16_Node000009_Node000003"><a xlink:title=" ">
<path fill="none" stroke="#63b8ff" d="M319.84,-110.96C265.07,-101.72 171.99,-86.01 110.87,-75.69"/>
<polygon fill="#63b8ff" stroke="#63b8ff" points="111.42,-72.23 100.98,-74.02 110.26,-79.14 111.42,-72.23"/>
</a>
</g>
</g>
<!-- Node9&#45;&gt;Node5 -->
<g id="edge12_Node000009_Node000005" class="edge">
<title>Node9&#45;&gt;Node5</title>
<g id="a_edge12_Node000009_Node000005"><a xlink:title=" ">
<path fill="none" stroke="#63b8ff" d="M357.7,-109.7C347.09,-96.43 325.42,-71.15 302.5,-55 282.29,-40.76 256.79,-29.27 237.01,-21.54"/>
<polygon fill="#63b8ff" stroke="#63b8ff" points="238.11,-18.22 227.52,-17.95 235.63,-24.76 238.11,-18.22"/>
</a>
</g>
</g>
<!-- Node9&#45;&gt;Node6 -->
<g id="edge15_Node000009_Node000006" class="edge">
<title>Node9&#45;&gt;Node6</title>
<g id="a_edge15_Node000009_Node000006"><a xlink:title=" ">
<path fill="none" stroke="#63b8ff" d="M348.27,-109.98C332.32,-101.61 307.72,-88.7 289.12,-78.95"/>
<polygon fill="#63b8ff" stroke="#63b8ff" points="290.5,-75.72 280.02,-74.17 287.25,-81.92 290.5,-75.72"/>
</a>
</g>
</g>
<!-- Node9&#45;&gt;Node10 -->
<g id="edge13_Node000009_Node000010" class="edge">
<title>Node9&#45;&gt;Node10</title>
<g id="a_edge13_Node000009_Node000010"><a xlink:title=" ">
<path fill="none" stroke="#63b8ff" d="M377.84,-109.98C390.59,-101.84 410.05,-89.41 425.17,-79.76"/>
<polygon fill="#63b8ff" stroke="#63b8ff" points="427.38,-82.5 433.92,-74.17 423.61,-76.6 427.38,-82.5"/>
</a>
</g>
</g>
<!-- Node11 -->
<g id="Node000011" class="node">
<title>Node11</title>
<g id="a_Node000011"><a xlink:title=" ">
<polygon fill="#e0e0e0" stroke="#999999" points="405.5,-74 349.5,-74 349.5,-55 405.5,-55 405.5,-74"/>
<text text-anchor="middle" x="377.5" y="-62" font-family="Helvetica,sans-Serif" font-size="10.00">assert.h</text>
</a>
</g>
</g>
<!-- Node9&#45;&gt;Node11 -->
<g id="edge14_Node000009_Node000011" class="edge">
<title>Node9&#45;&gt;Node11</title>
<g id="a_edge14_Node000009_Node000011"><a xlink:title=" ">
<path fill="none" stroke="#63b8ff" d="M366.65,-109.75C368.37,-102.72 370.85,-92.62 373,-83.84"/>
<polygon fill="#63b8ff" stroke="#63b8ff" points="376.41,-84.63 375.39,-74.09 369.61,-82.97 376.41,-84.63"/>
</a>
</g>
</g>
</g>
</svg>

<g id="navigator" transform="translate(0 0)" fill="#404254">
  <rect fill="#f2f5e9" fill-opacity="0.5" stroke="#606060" stroke-width=".5" x="0" y="0" width="60" height="60"/>
  <use id="zoomplus" xlink:href="#zoomPlus" x="17" y="9" onmousedown="handleZoom(evt,'in')"/>
  <use id="zoomminus" xlink:href="#zoomMin" x="42" y="9" onmousedown="handleZoom(evt,'out')"/>
  <use id="reset" xlink:href="#resetDef" x="30" y="36" onmousedown="handleReset()"/>
   <use id="arrowup" xlink:href="#arrowUp" x="0" y="0" onmousedown="handlePan(0,-1)"/>
  <use id="arrowright" xlink:href="#arrowRight" x="0" y="0" onmousedown="handlePan(1,0)"/>
  <use id="arrowdown" xlink:href="#arrowDown" x="0" y="0" onmousedown="handlePan(0,1)"/>
  <use id="arrowleft" xlink:href="#arrowLeft" x="0" y="0" onmousedown="handlePan(-1,0)"/>
</g>
<svg viewBox="0 0 15 15" width="100%" height="30px" preserveAspectRatio="xMaxYMin meet">
 <g id="arrow_out" transform="scale(0.3 0.3)">
  <a xlink:href="Joueur_8cpp__incl_org.svg" target="_base">
   <rect id="button" ry="5" rx="5" y="6" x="6" height="38" width="38"
        fill="#f2f5e9" fill-opacity="0.5" stroke="#606060" stroke-width="1.0"/>
   <path id="arrow"
     d="M 11.500037,31.436501 C 11.940474,20.09759 22.043105,11.32322 32.158766,21.979434 L 37.068811,17.246167 C 37.068811,17.246167 37.088388,32 37.088388,32 L 22.160133,31.978069 C 22.160133,31.978069 26.997745,27.140456 26.997745,27.140456 C 18.528582,18.264221 13.291696,25.230495 11.500037,31.436501 z"
     style="fill:#404040;"/>
  </a>
 </g>
</svg>

<style type='text/css'>
<![CDATA[
[data-mouse-over-selected='false'] { opacity: 0.7; }
[data-mouse-over-selected='true']  { opacity: 1.0; }
]]>
</style>
<script type="application/ecmascript"><![CDATA[
document.addEventListener('DOMContentLoaded', (event) => {
  highlightEdges();
  highlightAdjacentNodes();
});
]]></script>
</svg>
