<?xml version="1.0" encoding="UTF-8" standalone="no"?>
<!DOCTYPE svg PUBLIC "-//W3C//DTD SVG 1.1//EN"
 "http://www.w3.org/Graphics/SVG/1.1/DTD/svg11.dtd">
<!-- Generated by graphviz version 2.43.0 (0)
 -->
<!-- Title: src/main.cpp Pages: 1 -->
<!--zoomable 357 -->

<svg id="main" version="1.1" xmlns="http://www.w3.org/2000/svg" xmlns:xlink="http://www.w3.org/1999/xlink" xml:space="preserve" onload="init(evt)">
<style type="text/css"><![CDATA[
.node, .edge {opacity: 0.7;}
.node.selected, .edge.selected {opacity: 1;}
.edge:hover path { stroke: red; }
.edge:hover polygon { stroke: red; fill: red; }
]]></style>

<defs>
  <circle id="rim" cx="0" cy="0" r="7"/>
  <circle id="rim2" cx="0" cy="0" r="3.5"/>
  <g id="zoomPlus">
    <use xlink:href="#rim" fill="#404040"><set attributeName="fill" to="#808080" begin="zoomplus.mouseover" end="zoomplus.mouseout"/></use>
    <path d="M-4,0h8M0,-4v8" fill="none" stroke="white" stroke-width="1.5" pointer-events="none"/>
  </g>
  <g id="zoomMin">
    <use xlink:href="#rim" fill="#404040"><set attributeName="fill" to="#808080" begin="zoomminus.mouseover" end="zoomminus.mouseout"/></use>
    <path d="M-4,0h8" fill="none" stroke="white" stroke-width="1.5" pointer-events="none"/>
  </g>
  <g id="arrowUp" transform="translate(30 24)">
    <use xlink:href="#rim"/>
    <path pointer-events="none" fill="none" stroke="white" stroke-width="1.5" d="M0,-3.0v7 M-2.5,-0.5L0,-3.0L2.5,-0.5"/>
  </g>
  <g id="arrowRight" transform="rotate(90) translate(36 -43)">
    <use xlink:href="#rim"/>
    <path pointer-events="none" fill="none" stroke="white" stroke-width="1.5" d="M0,-3.0v7 M-2.5,-0.5L0,-3.0L2.5,-0.5"/>
  </g>
  <g id="arrowDown" transform="rotate(180) translate(-30 -48)">
    <use xlink:href="#rim"/>
    <path pointer-events="none" fill="none" stroke="white" stroke-width="1.5" d="M0,-3.0v7 M-2.5,-0.5L0,-3.0L2.5,-0.5"/>
  </g>
  <g id="arrowLeft" transform="rotate(270) translate(-36 17)">
    <use xlink:href="#rim"/>
    <path pointer-events="none" fill="none" stroke="white" stroke-width="1.5" d="M0,-3.0v7 M-2.5,-0.5L0,-3.0L2.5,-0.5"/>
  </g>
  <g id="resetDef">
    <use xlink:href="#rim2" fill="#404040"><set attributeName="fill" to="#808080" begin="reset.mouseover" end="reset.mouseout"/></use>
  </g>
</defs>
<script type="application/ecmascript">
var viewWidth = 1181;
var viewHeight = 357;
var sectionId = 'dynsection-0';
</script>
<script type="application/ecmascript" xlink:href="svg.min.js"/>
<svg id="graph" class="graph">
<g id="viewport">
<title>src/main.cpp</title>
<!-- Node1 -->
<g id="Node000001" class="node">
<title>Node1</title>
<g id="a_Node000001"><a xlink:title=" ">
<polygon fill="#999999" stroke="#666666" points="494.5,-349 415.5,-349 415.5,-330 494.5,-330 494.5,-349"/>
<text text-anchor="middle" x="455" y="-337" font-family="Helvetica,sans-Serif" font-size="10.00">src/main.cpp</text>
</a>
</g>
</g>
<!-- Node2 -->
<g id="Node000002" class="node">
<title>Node2</title>
<g id="a_Node000002"><a xlink:title=" ">
<polygon fill="#e0e0e0" stroke="#999999" points="159.5,-129 104.5,-129 104.5,-110 159.5,-110 159.5,-129"/>
<text text-anchor="middle" x="132" y="-117" font-family="Helvetica,sans-Serif" font-size="10.00">fstream</text>
</a>
</g>
</g>
<!-- Node1&#45;&gt;Node2 -->
<g id="edge1_Node000001_Node000002" class="edge">
<title>Node1&#45;&gt;Node2</title>
<g id="a_edge1_Node000001_Node000002"><a xlink:title=" ">
<path fill="none" stroke="#63b8ff" d="M437.91,-329.87C421.28,-321.3 395.45,-307.51 374,-294 288.02,-239.83 191.39,-166.55 151.17,-135.45"/>
<polygon fill="#63b8ff" stroke="#63b8ff" points="153.3,-132.67 143.25,-129.31 149.01,-138.2 153.3,-132.67"/>
</a>
</g>
</g>
<!-- Node3 -->
<g id="Node000003" class="node">
<title>Node3</title>
<g id="a_Node000003"><a xlink:title=" ">
<polygon fill="#e0e0e0" stroke="#999999" points="234,-129 178,-129 178,-110 234,-110 234,-129"/>
<text text-anchor="middle" x="206" y="-117" font-family="Helvetica,sans-Serif" font-size="10.00">sstream</text>
</a>
</g>
</g>
<!-- Node1&#45;&gt;Node3 -->
<g id="edge2_Node000001_Node000003" class="edge">
<title>Node1&#45;&gt;Node3</title>
<g id="a_edge2_Node000001_Node000003"><a xlink:title=" ">
<path fill="none" stroke="#63b8ff" d="M443.45,-329.87C431.8,-321.07 413.38,-306.92 398,-294 331.1,-237.78 255.01,-166.83 222.33,-135.99"/>
<polygon fill="#63b8ff" stroke="#63b8ff" points="224.66,-133.37 214.98,-129.05 219.85,-138.46 224.66,-133.37"/>
</a>
</g>
</g>
<!-- Node4 -->
<g id="Node000004" class="node">
<title>Node4</title>
<g id="a_Node000004"><a xlink:title=" ">
<polygon fill="#e0e0e0" stroke="#999999" points="737,-19 693,-19 693,0 737,0 737,-19"/>
<text text-anchor="middle" x="715" y="-7" font-family="Helvetica,sans-Serif" font-size="10.00">string</text>
</a>
</g>
</g>
<!-- Node1&#45;&gt;Node4 -->
<g id="edge3_Node000001_Node000004" class="edge">
<title>Node1&#45;&gt;Node4</title>
<g id="a_edge3_Node000001_Node000004"><a xlink:title=" ">
<path fill="none" stroke="#63b8ff" d="M415.47,-338.51C324.44,-337.85 103.08,-332.26 41,-294 12.4,-276.38 0,-264.09 0,-230.5 0,-230.5 0,-230.5 0,-118.5 0,-48.45 543.45,-18.46 682.77,-11.92"/>
<polygon fill="#63b8ff" stroke="#63b8ff" points="682.99,-15.41 692.82,-11.45 682.67,-8.42 682.99,-15.41"/>
</a>
</g>
</g>
<!-- Node5 -->
<g id="Node000005" class="node">
<title>Node5</title>
<g id="a_Node000005"><a xlink:title=" ">
<polygon fill="#e0e0e0" stroke="#999999" points="424.5,-74 377.5,-74 377.5,-55 424.5,-55 424.5,-74"/>
<text text-anchor="middle" x="401" y="-62" font-family="Helvetica,sans-Serif" font-size="10.00">vector</text>
</a>
</g>
</g>
<!-- Node1&#45;&gt;Node5 -->
<g id="edge4_Node000001_Node000005" class="edge">
<title>Node1&#45;&gt;Node5</title>
<g id="a_edge4_Node000001_Node000005"><a xlink:title=" ">
<path fill="none" stroke="#63b8ff" d="M415.26,-339.09C326.63,-339.62 116.33,-336.26 62,-294 38.19,-275.48 38,-260.67 38,-230.5 38,-230.5 38,-230.5 38,-173.5 38,-143.33 38.35,-128.74 62,-110 108.77,-72.95 291.16,-66.65 367.31,-65.65"/>
<polygon fill="#63b8ff" stroke="#63b8ff" points="367.36,-69.15 377.32,-65.54 367.28,-62.15 367.36,-69.15"/>
</a>
</g>
</g>
<!-- Node6 -->
<g id="Node000006" class="node">
<title>Node6</title>
<g id="a_Node000006"><a xlink:title=" ">
<polygon fill="#e0e0e0" stroke="#999999" points="1101,-294 1069,-294 1069,-275 1101,-275 1101,-294"/>
<text text-anchor="middle" x="1085" y="-282" font-family="Helvetica,sans-Serif" font-size="10.00">set</text>
</a>
</g>
</g>
<!-- Node1&#45;&gt;Node6 -->
<g id="edge5_Node000001_Node000006" class="edge">
<title>Node1&#45;&gt;Node6</title>
<g id="a_edge5_Node000001_Node000006"><a xlink:title=" ">
<path fill="none" stroke="#63b8ff" d="M494.65,-338.32C591.26,-337.27 846.2,-330.93 1055,-294 1056.29,-293.77 1057.6,-293.51 1058.92,-293.23"/>
<polygon fill="#63b8ff" stroke="#63b8ff" points="1060.11,-296.54 1068.95,-290.69 1058.39,-289.75 1060.11,-296.54"/>
</a>
</g>
</g>
<!-- Node7 -->
<g id="Node000007" class="node">
<title>Node7</title>
<g id="a_Node000007"><a xlink:title=" ">
<polygon fill="#e0e0e0" stroke="#999999" points="290,-129 252,-129 252,-110 290,-110 290,-129"/>
<text text-anchor="middle" x="271" y="-117" font-family="Helvetica,sans-Serif" font-size="10.00">map</text>
</a>
</g>
</g>
<!-- Node1&#45;&gt;Node7 -->
<g id="edge6_Node000001_Node000007" class="edge">
<title>Node1&#45;&gt;Node7</title>
<g id="a_edge6_Node000001_Node000007"><a xlink:title=" ">
<path fill="none" stroke="#63b8ff" d="M447.79,-329.95C420.25,-297.33 321.49,-180.32 284.83,-136.88"/>
<polygon fill="#63b8ff" stroke="#63b8ff" points="287.49,-134.61 278.36,-129.22 282.14,-139.12 287.49,-134.61"/>
</a>
</g>
</g>
<!-- Node8 -->
<g id="Node000008" class="node">
<title>Node8</title>
<g id="a_Node000008"><a xlink:title=" ">
<polygon fill="#e0e0e0" stroke="#999999" points="410,-129 346,-129 346,-110 410,-110 410,-129"/>
<text text-anchor="middle" x="378" y="-117" font-family="Helvetica,sans-Serif" font-size="10.00">algorithm</text>
</a>
</g>
</g>
<!-- Node1&#45;&gt;Node8 -->
<g id="edge7_Node000001_Node000008" class="edge">
<title>Node1&#45;&gt;Node8</title>
<g id="a_edge7_Node000001_Node000008"><a xlink:title=" ">
<path fill="none" stroke="#63b8ff" d="M451.98,-329.95C440.63,-297.81 400.33,-183.72 384.47,-138.83"/>
<polygon fill="#63b8ff" stroke="#63b8ff" points="387.71,-137.49 381.08,-129.22 381.11,-139.82 387.71,-137.49"/>
</a>
</g>
</g>
<!-- Node9 -->
<g id="Node000009" class="node">
<title>Node9</title>
<g id="a_Node000009"><a xlink:title=" ">
<polygon fill="#e0e0e0" stroke="#999999" points="1173,-294 1119,-294 1119,-275 1173,-275 1173,-294"/>
<text text-anchor="middle" x="1146" y="-282" font-family="Helvetica,sans-Serif" font-size="10.00">random</text>
</a>
</g>
</g>
<!-- Node1&#45;&gt;Node9 -->
<g id="edge8_Node000001_Node000009" class="edge">
<title>Node1&#45;&gt;Node9</title>
<g id="a_edge8_Node000001_Node000009"><a xlink:title=" ">
<path fill="none" stroke="#63b8ff" d="M494.75,-338.06C595.79,-336.48 870.75,-329.14 1108.73,-293.92"/>
<polygon fill="#63b8ff" stroke="#63b8ff" points="1109.6,-297.33 1118.97,-292.39 1108.56,-290.41 1109.6,-297.33"/>
</a>
</g>
</g>
<!-- Node10 -->
<g id="Node000010" class="node">
<title>Node10</title>
<g id="a_Node000010"><a xlink:title=" ">
<polygon fill="#e0e0e0" stroke="#999999" points="472,-129 428,-129 428,-110 472,-110 472,-129"/>
<text text-anchor="middle" x="450" y="-117" font-family="Helvetica,sans-Serif" font-size="10.00">limits</text>
</a>
</g>
</g>
<!-- Node1&#45;&gt;Node10 -->
<g id="edge9_Node000001_Node000010" class="edge">
<title>Node1&#45;&gt;Node10</title>
<g id="a_edge9_Node000001_Node000010"><a xlink:title=" ">
<path fill="none" stroke="#63b8ff" d="M454.8,-329.95C454.07,-297.95 451.47,-184.68 450.43,-139.4"/>
<polygon fill="#63b8ff" stroke="#63b8ff" points="453.93,-139.14 450.2,-129.22 446.93,-139.3 453.93,-139.14"/>
</a>
</g>
</g>
<!-- Node11 -->
<g id="Node000011" class="node">
<title>Node11</title>
<g id="a_Node000011"><a xlink:href="Partie_8hpp.html" target="_top" xlink:title=" ">
<polygon fill="white" stroke="#666666" points="625.5,-294 560.5,-294 560.5,-275 625.5,-275 625.5,-294"/>
<text text-anchor="middle" x="593" y="-282" font-family="Helvetica,sans-Serif" font-size="10.00">Partie.hpp</text>
</a>
</g>
</g>
<!-- Node1&#45;&gt;Node11 -->
<g id="edge10_Node000001_Node000011" class="edge">
<title>Node1&#45;&gt;Node11</title>
<g id="a_edge10_Node000001_Node000011"><a xlink:title=" ">
<path fill="none" stroke="#63b8ff" d="M477.17,-329.98C499.77,-321.3 535.06,-307.75 560.75,-297.88"/>
<polygon fill="#63b8ff" stroke="#63b8ff" points="562.34,-301.02 570.42,-294.17 559.83,-294.49 562.34,-301.02"/>
</a>
</g>
</g>
<!-- Node12 -->
<g id="Node000012" class="node">
<title>Node12</title>
<g id="a_Node000012"><a xlink:href="Ticket_8hpp.html" target="_top" xlink:title=" ">
<polygon fill="white" stroke="#666666" points="780.5,-129 713.5,-129 713.5,-110 780.5,-110 780.5,-129"/>
<text text-anchor="middle" x="747" y="-117" font-family="Helvetica,sans-Serif" font-size="10.00">Ticket.hpp</text>
</a>
</g>
</g>
<!-- Node1&#45;&gt;Node12 -->
<g id="edge44_Node000001_Node000012" class="edge">
<title>Node1&#45;&gt;Node12</title>
<g id="a_edge44_Node000001_Node000012"><a xlink:title=" ">
<path fill="none" stroke="#63b8ff" d="M494.76,-336.89C533.51,-333.54 592.52,-323.53 634,-294 690.8,-253.57 726.39,-174.83 740.31,-139.02"/>
<polygon fill="#63b8ff" stroke="#63b8ff" points="743.69,-139.97 743.93,-129.38 737.14,-137.51 743.69,-139.97"/>
</a>
</g>
</g>
<!-- Node13 -->
<g id="Node000013" class="node">
<title>Node13</title>
<g id="a_Node000013"><a xlink:href="Ville_8hpp.html" target="_top" xlink:title=" ">
<polygon fill="white" stroke="#666666" points="714.5,-74 655.5,-74 655.5,-55 714.5,-55 714.5,-74"/>
<text text-anchor="middle" x="685" y="-62" font-family="Helvetica,sans-Serif" font-size="10.00">Ville.hpp</text>
</a>
</g>
</g>
<!-- Node1&#45;&gt;Node13 -->
<g id="edge47_Node000001_Node000013" class="edge">
<title>Node1&#45;&gt;Node13</title>
<g id="a_edge47_Node000001_Node000013"><a xlink:title=" ">
<path fill="none" stroke="#63b8ff" d="M415.16,-335.64C317.85,-327.56 76,-300.46 76,-230.5 76,-230.5 76,-230.5 76,-173.5 76,-144.04 71.98,-128.38 95,-110 141.39,-72.97 568.99,-80.38 628,-74 633.6,-73.39 639.48,-72.65 645.27,-71.84"/>
<polygon fill="#63b8ff" stroke="#63b8ff" points="646.08,-75.26 655.47,-70.37 645.08,-68.34 646.08,-75.26"/>
</a>
</g>
</g>
<!-- Node14 -->
<g id="Node000014" class="node">
<title>Node14</title>
<g id="a_Node000014"><a xlink:href="Joueur_8hpp.html" target="_top" xlink:title="Déclaration de la classe Joueur, participant à une partie des Aventuriers du Rail.">
<polygon fill="white" stroke="#666666" points="809,-239 741,-239 741,-220 809,-220 809,-239"/>
<text text-anchor="middle" x="775" y="-227" font-family="Helvetica,sans-Serif" font-size="10.00">Joueur.hpp</text>
</a>
</g>
</g>
<!-- Node1&#45;&gt;Node14 -->
<g id="edge43_Node000001_Node000014" class="edge">
<title>Node1&#45;&gt;Node14</title>
<g id="a_edge43_Node000001_Node000014"><a xlink:title=" ">
<path fill="none" stroke="#63b8ff" d="M494.8,-334.87C539.85,-329.76 614.81,-318.23 675,-294 705.61,-281.68 737.13,-259.86 756.39,-245.29"/>
<polygon fill="#63b8ff" stroke="#63b8ff" points="758.55,-248.04 764.34,-239.17 754.28,-242.5 758.55,-248.04"/>
</a>
</g>
</g>
<!-- Node15 -->
<g id="Node000015" class="node">
<title>Node15</title>
<g id="a_Node000015"><a xlink:href="couleurEnum_8hpp.html" target="_top" xlink:title=" ">
<polygon fill="white" stroke="#666666" points="946.5,-74 845.5,-74 845.5,-55 946.5,-55 946.5,-74"/>
<text text-anchor="middle" x="896" y="-62" font-family="Helvetica,sans-Serif" font-size="10.00">couleurEnum.hpp</text>
</a>
</g>
</g>
<!-- Node1&#45;&gt;Node15 -->
<g id="edge48_Node000001_Node000015" class="edge">
<title>Node1&#45;&gt;Node15</title>
<g id="a_edge48_Node000001_Node000015"><a xlink:title=" ">
<path fill="none" stroke="#63b8ff" d="M494.57,-336.16C552.1,-331.96 661.69,-320.91 751,-294 806.4,-277.31 826.27,-278.02 869,-239 909.07,-202.41 912.16,-182.37 922,-129 923.53,-120.7 924.21,-118.15 922,-110 919.34,-100.19 913.93,-90.33 908.72,-82.39"/>
<polygon fill="#63b8ff" stroke="#63b8ff" points="911.5,-80.25 902.89,-74.07 905.77,-84.27 911.5,-80.25"/>
</a>
</g>
</g>
<!-- Node16 -->
<g id="Node000016" class="node">
<title>Node16</title>
<g id="a_Node000016"><a xlink:href="Train_8hpp.html" target="_top" xlink:title=" ">
<polygon fill="white" stroke="#666666" points="898.5,-129 837.5,-129 837.5,-110 898.5,-110 898.5,-129"/>
<text text-anchor="middle" x="868" y="-117" font-family="Helvetica,sans-Serif" font-size="10.00">Train.hpp</text>
</a>
</g>
</g>
<!-- Node1&#45;&gt;Node16 -->
<g id="edge45_Node000001_Node000016" class="edge">
<title>Node1&#45;&gt;Node16</title>
<g id="a_edge45_Node000001_Node000016"><a xlink:title=" ">
<path fill="none" stroke="#63b8ff" d="M494.53,-334.96C544.7,-329.68 633.44,-317.72 706,-294 795.11,-264.87 845.61,-268.61 886,-184 893.08,-169.17 886.58,-151.02 879.49,-137.93"/>
<polygon fill="#63b8ff" stroke="#63b8ff" points="882.31,-135.83 874.17,-129.05 876.3,-139.42 882.31,-135.83"/>
</a>
</g>
</g>
<!-- Node18 -->
<g id="Node000018" class="node">
<title>Node18</title>
<g id="a_Node000018"><a xlink:href="VoieFerree_8hpp.html" target="_top" xlink:title="Classe VoieFerree – Représente une voie ferrée du plateau.">
<polygon fill="white" stroke="#666666" points="579.5,-129 490.5,-129 490.5,-110 579.5,-110 579.5,-129"/>
<text text-anchor="middle" x="535" y="-117" font-family="Helvetica,sans-Serif" font-size="10.00">VoieFerree.hpp</text>
</a>
</g>
</g>
<!-- Node1&#45;&gt;Node18 -->
<g id="edge46_Node000001_Node000018" class="edge">
<title>Node1&#45;&gt;Node18</title>
<g id="a_edge46_Node000001_Node000018"><a xlink:title=" ">
<path fill="none" stroke="#63b8ff" d="M457.64,-329.86C466.99,-299.33 498.69,-196.72 512,-165 515.83,-155.88 520.79,-146.08 525.13,-138"/>
<polygon fill="#63b8ff" stroke="#63b8ff" points="528.24,-139.62 529.99,-129.17 522.11,-136.24 528.24,-139.62"/>
</a>
</g>
</g>
<!-- Node11&#45;&gt;Node5 -->
<g id="edge11_Node000011_Node000005" class="edge">
<title>Node11&#45;&gt;Node5</title>
<g id="a_edge11_Node000011_Node000005"><a xlink:title=" ">
<path fill="none" stroke="#63b8ff" d="M560.39,-275.11C503.02,-258.39 385.48,-214.89 337,-129 325.49,-108.61 349.3,-90.36 371.07,-78.72"/>
<polygon fill="#63b8ff" stroke="#63b8ff" points="372.8,-81.76 380.17,-74.14 369.66,-75.51 372.8,-81.76"/>
</a>
</g>
</g>
<!-- Node11&#45;&gt;Node12 -->
<g id="edge12_Node000011_Node000012" class="edge">
<title>Node11&#45;&gt;Node12</title>
<g id="a_edge12_Node000011_Node000012"><a xlink:title=" ">
<path fill="none" stroke="#63b8ff" d="M594.72,-274.84C599.4,-253.44 614.24,-197.47 647,-165 662.59,-149.55 684.46,-138.98 703.78,-132.04"/>
<polygon fill="#63b8ff" stroke="#63b8ff" points="704.95,-135.34 713.31,-128.82 702.71,-128.7 704.95,-135.34"/>
</a>
</g>
</g>
<!-- Node11&#45;&gt;Node14 -->
<g id="edge16_Node000011_Node000014" class="edge">
<title>Node11&#45;&gt;Node14</title>
<g id="a_edge16_Node000011_Node000014"><a xlink:title=" ">
<path fill="none" stroke="#63b8ff" d="M622.24,-274.98C653.06,-266.01 701.78,-251.82 735.89,-241.89"/>
<polygon fill="#63b8ff" stroke="#63b8ff" points="736.91,-245.24 745.53,-239.08 734.95,-238.52 736.91,-245.24"/>
</a>
</g>
</g>
<!-- Node11&#45;&gt;Node16 -->
<g id="edge41_Node000011_Node000016" class="edge">
<title>Node11&#45;&gt;Node16</title>
<g id="a_edge41_Node000011_Node000016"><a xlink:title=" ">
<path fill="none" stroke="#63b8ff" d="M607.4,-274.97C652.22,-248.4 789.53,-167.01 844.7,-134.31"/>
<polygon fill="#63b8ff" stroke="#63b8ff" points="846.59,-137.26 853.41,-129.15 843.03,-131.23 846.59,-137.26"/>
</a>
</g>
</g>
<!-- Node17 -->
<g id="Node000017" class="node">
<title>Node17</title>
<g id="a_Node000017"><a xlink:href="Plateau_8hpp.html" target="_top" xlink:title="Classe Plateau – Gère le plateau de jeu avec villes et voies ferrées.">
<polygon fill="white" stroke="#666666" points="595,-184 521,-184 521,-165 595,-165 595,-184"/>
<text text-anchor="middle" x="558" y="-172" font-family="Helvetica,sans-Serif" font-size="10.00">Plateau.hpp</text>
</a>
</g>
</g>
<!-- Node11&#45;&gt;Node17 -->
<g id="edge42_Node000011_Node000017" class="edge">
<title>Node11&#45;&gt;Node17</title>
<g id="a_edge42_Node000011_Node000017"><a xlink:title=" ">
<path fill="none" stroke="#63b8ff" d="M590.14,-274.66C584.44,-257.09 571.59,-217.45 563.98,-193.95"/>
<polygon fill="#63b8ff" stroke="#63b8ff" points="567.22,-192.59 560.81,-184.16 560.56,-194.75 567.22,-192.59"/>
</a>
</g>
</g>
<!-- Node12&#45;&gt;Node4 -->
<g id="edge13_Node000012_Node000004" class="edge">
<title>Node12&#45;&gt;Node4</title>
<g id="a_edge13_Node000012_Node000004"><a xlink:title=" ">
<path fill="none" stroke="#63b8ff" d="M744.38,-109.66C739.18,-92.09 727.43,-52.45 720.47,-28.95"/>
<polygon fill="#63b8ff" stroke="#63b8ff" points="723.76,-27.75 717.57,-19.16 717.05,-29.74 723.76,-27.75"/>
</a>
</g>
</g>
<!-- Node12&#45;&gt;Node13 -->
<g id="edge14_Node000012_Node000013" class="edge">
<title>Node12&#45;&gt;Node13</title>
<g id="a_edge14_Node000012_Node000013"><a xlink:title=" ">
<path fill="none" stroke="#63b8ff" d="M737.04,-109.98C727.87,-102.15 714.06,-90.34 702.97,-80.86"/>
<polygon fill="#63b8ff" stroke="#63b8ff" points="705.02,-78.01 695.14,-74.17 700.47,-83.33 705.02,-78.01"/>
</a>
</g>
</g>
<!-- Node13&#45;&gt;Node4 -->
<g id="edge15_Node000013_Node000004" class="edge">
<title>Node13&#45;&gt;Node4</title>
<g id="a_edge15_Node000013_Node000004"><a xlink:title=" ">
<path fill="none" stroke="#63b8ff" d="M689.95,-54.75C694.06,-47.49 700.03,-36.95 705.1,-27.98"/>
<polygon fill="#63b8ff" stroke="#63b8ff" points="708.26,-29.52 710.14,-19.09 702.17,-26.07 708.26,-29.52"/>
</a>
</g>
</g>
<!-- Node14&#45;&gt;Node4 -->
<g id="edge39_Node000014_Node000004" class="edge">
<title>Node14&#45;&gt;Node4</title>
<g id="a_edge39_Node000014_Node000004"><a xlink:title=" ">
<path fill="none" stroke="#63b8ff" d="M809.2,-224.69C838.38,-219.79 879.82,-208.74 907,-184 952.35,-142.72 995.23,-102.14 956,-55 929.86,-23.6 807.31,-14.27 747.71,-11.56"/>
<polygon fill="#63b8ff" stroke="#63b8ff" points="747.49,-8.05 737.35,-11.13 747.2,-15.05 747.49,-8.05"/>
</a>
</g>
</g>
<!-- Node14&#45;&gt;Node5 -->
<g id="edge38_Node000014_Node000005" class="edge">
<title>Node14&#45;&gt;Node5</title>
<g id="a_edge38_Node000014_Node000005"><a xlink:title=" ">
<path fill="none" stroke="#63b8ff" d="M777.68,-219.97C785.12,-195.58 804.5,-126.25 790,-110 778.21,-96.78 527.6,-75.58 435,-68.16"/>
<polygon fill="#63b8ff" stroke="#63b8ff" points="435.01,-64.65 424.76,-67.35 434.45,-71.63 435.01,-64.65"/>
</a>
</g>
</g>
<!-- Node14&#45;&gt;Node12 -->
<g id="edge18_Node000014_Node000012" class="edge">
<title>Node14&#45;&gt;Node12</title>
<g id="a_edge18_Node000014_Node000012"><a xlink:title=" ">
<path fill="none" stroke="#63b8ff" d="M771.98,-219.7C768.98,-210.77 764.34,-196.52 761,-184 756.99,-168.98 753.24,-151.75 750.64,-139.03"/>
<polygon fill="#63b8ff" stroke="#63b8ff" points="754.06,-138.3 748.66,-129.19 747.2,-139.68 754.06,-138.3"/>
</a>
</g>
</g>
<!-- Node14&#45;&gt;Node15 -->
<g id="edge17_Node000014_Node000015" class="edge">
<title>Node14&#45;&gt;Node15</title>
<g id="a_edge17_Node000014_Node000015"><a xlink:title=" ">
<path fill="none" stroke="#63b8ff" d="M809.03,-222.29C833.29,-216.27 865.16,-204.85 886,-184 910.25,-159.73 912.51,-144.01 908,-110 906.84,-101.27 904.47,-91.83 902.13,-83.9"/>
<polygon fill="#63b8ff" stroke="#63b8ff" points="905.43,-82.72 899.09,-74.23 898.75,-84.82 905.43,-82.72"/>
</a>
</g>
</g>
<!-- Node14&#45;&gt;Node16 -->
<g id="edge19_Node000014_Node000016" class="edge">
<title>Node14&#45;&gt;Node16</title>
<g id="a_edge19_Node000014_Node000016"><a xlink:title=" ">
<path fill="none" stroke="#63b8ff" d="M809.29,-222.11C830.73,-216.15 856.71,-204.9 870,-184 878.41,-170.77 876.87,-152.64 873.82,-139.15"/>
<polygon fill="#63b8ff" stroke="#63b8ff" points="877.1,-137.84 871.1,-129.1 870.34,-139.67 877.1,-137.84"/>
</a>
</g>
</g>
<!-- Node14&#45;&gt;Node17 -->
<g id="edge22_Node000014_Node000017" class="edge">
<title>Node14&#45;&gt;Node17</title>
<g id="a_edge22_Node000014_Node000017"><a xlink:title=" ">
<path fill="none" stroke="#63b8ff" d="M740.62,-220.1C703.3,-210.99 643.58,-196.4 602.66,-186.41"/>
<polygon fill="#63b8ff" stroke="#63b8ff" points="603.49,-183.01 592.94,-184.03 601.83,-189.81 603.49,-183.01"/>
</a>
</g>
</g>
<!-- Node21 -->
<g id="Node000021" class="node">
<title>Node21</title>
<g id="a_Node000021"><a xlink:title=" ">
<polygon fill="#e0e0e0" stroke="#999999" points="860.5,-184 803.5,-184 803.5,-165 860.5,-165 860.5,-184"/>
<text text-anchor="middle" x="832" y="-172" font-family="Helvetica,sans-Serif" font-size="10.00">ostream</text>
</a>
</g>
</g>
<!-- Node14&#45;&gt;Node21 -->
<g id="edge40_Node000014_Node000021" class="edge">
<title>Node14&#45;&gt;Node21</title>
<g id="a_edge40_Node000014_Node000021"><a xlink:title=" ">
<path fill="none" stroke="#63b8ff" d="M784.16,-219.98C792.5,-212.23 805.03,-200.58 815.18,-191.14"/>
<polygon fill="#63b8ff" stroke="#63b8ff" points="817.74,-193.54 822.68,-184.17 812.97,-188.42 817.74,-193.54"/>
</a>
</g>
</g>
<!-- Node16&#45;&gt;Node4 -->
<g id="edge20_Node000016_Node000004" class="edge">
<title>Node16&#45;&gt;Node4</title>
<g id="a_edge20_Node000016_Node000004"><a xlink:title=" ">
<path fill="none" stroke="#63b8ff" d="M855.74,-109.84C829.55,-91.36 767.93,-47.86 735.61,-25.05"/>
<polygon fill="#63b8ff" stroke="#63b8ff" points="737.51,-22.1 727.32,-19.2 733.47,-27.82 737.51,-22.1"/>
</a>
</g>
</g>
<!-- Node16&#45;&gt;Node15 -->
<g id="edge21_Node000016_Node000015" class="edge">
<title>Node16&#45;&gt;Node15</title>
<g id="a_edge21_Node000016_Node000015"><a xlink:title=" ">
<path fill="none" stroke="#63b8ff" d="M872.62,-109.75C876.46,-102.49 882.02,-91.95 886.76,-82.98"/>
<polygon fill="#63b8ff" stroke="#63b8ff" points="889.89,-84.57 891.46,-74.09 883.7,-81.3 889.89,-84.57"/>
</a>
</g>
</g>
<!-- Node17&#45;&gt;Node2 -->
<g id="edge35_Node000017_Node000002" class="edge">
<title>Node17&#45;&gt;Node2</title>
<g id="a_edge35_Node000017_Node000002"><a xlink:title=" ">
<path fill="none" stroke="#63b8ff" d="M520.8,-170.64C453.02,-165.13 304.77,-151.68 169.91,-128.96"/>
<polygon fill="#63b8ff" stroke="#63b8ff" points="170.26,-125.47 159.81,-127.24 169.08,-132.37 170.26,-125.47"/>
</a>
</g>
</g>
<!-- Node17&#45;&gt;Node3 -->
<g id="edge34_Node000017_Node000003" class="edge">
<title>Node17&#45;&gt;Node3</title>
<g id="a_edge34_Node000017_Node000003"><a xlink:title=" ">
<path fill="none" stroke="#63b8ff" d="M520.98,-169.31C463.73,-162.61 350.08,-148.4 244.13,-129.07"/>
<polygon fill="#63b8ff" stroke="#63b8ff" points="244.7,-125.62 234.23,-127.25 243.43,-132.5 244.7,-125.62"/>
</a>
</g>
</g>
<!-- Node17&#45;&gt;Node7 -->
<g id="edge31_Node000017_Node000007" class="edge">
<title>Node17&#45;&gt;Node7</title>
<g id="a_edge31_Node000017_Node000007"><a xlink:title=" ">
<path fill="none" stroke="#63b8ff" d="M520.77,-166.63C462.88,-155.93 352.49,-135.55 300.05,-125.86"/>
<polygon fill="#63b8ff" stroke="#63b8ff" points="300.54,-122.4 290.07,-124.02 299.27,-129.28 300.54,-122.4"/>
</a>
</g>
</g>
<!-- Node17&#45;&gt;Node8 -->
<g id="edge32_Node000017_Node000008" class="edge">
<title>Node17&#45;&gt;Node8</title>
<g id="a_edge32_Node000017_Node000008"><a xlink:title=" ">
<path fill="none" stroke="#63b8ff" d="M529.08,-164.98C498.73,-156.05 450.83,-141.94 417.12,-132.02"/>
<polygon fill="#63b8ff" stroke="#63b8ff" points="417.73,-128.55 407.15,-129.08 415.75,-135.26 417.73,-128.55"/>
</a>
</g>
</g>
<!-- Node17&#45;&gt;Node10 -->
<g id="edge30_Node000017_Node000010" class="edge">
<title>Node17&#45;&gt;Node10</title>
<g id="a_edge30_Node000017_Node000010"><a xlink:title=" ">
<path fill="none" stroke="#63b8ff" d="M540.65,-164.98C523.43,-156.54 496.8,-143.47 476.85,-133.68"/>
<polygon fill="#63b8ff" stroke="#63b8ff" points="478.19,-130.43 467.67,-129.17 475.1,-136.72 478.19,-130.43"/>
</a>
</g>
</g>
<!-- Node17&#45;&gt;Node12 -->
<g id="edge36_Node000017_Node000012" class="edge">
<title>Node17&#45;&gt;Node12</title>
<g id="a_edge36_Node000017_Node000012"><a xlink:title=" ">
<path fill="none" stroke="#63b8ff" d="M588.37,-164.98C620.37,-156.01 670.96,-141.82 706.38,-131.89"/>
<polygon fill="#63b8ff" stroke="#63b8ff" points="707.71,-135.15 716.4,-129.08 705.82,-128.41 707.71,-135.15"/>
</a>
</g>
</g>
<!-- Node17&#45;&gt;Node13 -->
<g id="edge29_Node000017_Node000013" class="edge">
<title>Node17&#45;&gt;Node13</title>
<g id="a_edge29_Node000017_Node000013"><a xlink:title=" ">
<path fill="none" stroke="#63b8ff" d="M595.01,-166.75C618.39,-160.65 647.57,-149.38 666,-129 677.1,-116.73 681.72,-98.22 683.65,-84.34"/>
<polygon fill="#63b8ff" stroke="#63b8ff" points="687.17,-84.32 684.71,-74.02 680.2,-83.61 687.17,-84.32"/>
</a>
</g>
</g>
<!-- Node17&#45;&gt;Node16 -->
<g id="edge37_Node000017_Node000016" class="edge">
<title>Node17&#45;&gt;Node16</title>
<g id="a_edge37_Node000017_Node000016"><a xlink:title=" ">
<path fill="none" stroke="#63b8ff" d="M595.09,-167.16C653.58,-157.16 766.81,-137.8 827.41,-127.44"/>
<polygon fill="#63b8ff" stroke="#63b8ff" points="828.11,-130.87 837.38,-125.74 826.93,-123.97 828.11,-130.87"/>
</a>
</g>
</g>
<!-- Node17&#45;&gt;Node18 -->
<g id="edge23_Node000017_Node000018" class="edge">
<title>Node17&#45;&gt;Node18</title>
<g id="a_edge23_Node000017_Node000018"><a xlink:title=" ">
<path fill="none" stroke="#63b8ff" d="M554.2,-164.75C551.09,-157.57 546.58,-147.18 542.71,-138.27"/>
<polygon fill="#63b8ff" stroke="#63b8ff" points="545.92,-136.87 538.73,-129.09 539.5,-139.66 545.92,-136.87"/>
</a>
</g>
</g>
<!-- Node20 -->
<g id="Node000020" class="node">
<title>Node20</title>
<g id="a_Node000020"><a xlink:title=" ">
<polygon fill="#e0e0e0" stroke="#999999" points="657,-129 597,-129 597,-110 657,-110 657,-129"/>
<text text-anchor="middle" x="627" y="-117" font-family="Helvetica,sans-Serif" font-size="10.00">iostream</text>
</a>
</g>
</g>
<!-- Node17&#45;&gt;Node20 -->
<g id="edge33_Node000017_Node000020" class="edge">
<title>Node17&#45;&gt;Node20</title>
<g id="a_edge33_Node000017_Node000020"><a xlink:title=" ">
<path fill="none" stroke="#63b8ff" d="M569.09,-164.98C579.49,-157 595.26,-144.88 607.72,-135.31"/>
<polygon fill="#63b8ff" stroke="#63b8ff" points="609.91,-138.04 615.71,-129.17 605.65,-132.49 609.91,-138.04"/>
</a>
</g>
</g>
<!-- Node18&#45;&gt;Node4 -->
<g id="edge24_Node000018_Node000004" class="edge">
<title>Node18&#45;&gt;Node4</title>
<g id="a_edge24_Node000018_Node000004"><a xlink:title=" ">
<path fill="none" stroke="#63b8ff" d="M535.07,-109.77C535.67,-96.14 538.87,-69.81 554,-55 588.61,-21.12 646.58,-12.5 682.71,-10.61"/>
<polygon fill="#63b8ff" stroke="#63b8ff" points="682.86,-14.11 692.72,-10.23 682.6,-7.11 682.86,-14.11"/>
</a>
</g>
</g>
<!-- Node18&#45;&gt;Node5 -->
<g id="edge25_Node000018_Node000005" class="edge">
<title>Node18&#45;&gt;Node5</title>
<g id="a_edge25_Node000018_Node000005"><a xlink:title=" ">
<path fill="none" stroke="#63b8ff" d="M513.47,-109.98C491.53,-101.3 457.26,-87.75 432.31,-77.88"/>
<polygon fill="#63b8ff" stroke="#63b8ff" points="433.51,-74.59 422.92,-74.17 430.93,-81.1 433.51,-74.59"/>
</a>
</g>
</g>
<!-- Node18&#45;&gt;Node13 -->
<g id="edge27_Node000018_Node000013" class="edge">
<title>Node18&#45;&gt;Node13</title>
<g id="a_edge27_Node000018_Node000013"><a xlink:title=" ">
<path fill="none" stroke="#63b8ff" d="M559.1,-109.98C583.88,-101.23 622.7,-87.51 650.69,-77.62"/>
<polygon fill="#63b8ff" stroke="#63b8ff" points="652.2,-80.8 660.46,-74.17 649.87,-74.2 652.2,-80.8"/>
</a>
</g>
</g>
<!-- Node18&#45;&gt;Node15 -->
<g id="edge28_Node000018_Node000015" class="edge">
<title>Node18&#45;&gt;Node15</title>
<g id="a_edge28_Node000018_Node000015"><a xlink:title=" ">
<path fill="none" stroke="#63b8ff" d="M579.53,-111.31C582.39,-110.86 585.24,-110.42 588,-110 673.76,-96.93 773.1,-82.75 835.25,-73.99"/>
<polygon fill="#63b8ff" stroke="#63b8ff" points="835.86,-77.44 845.28,-72.58 834.89,-70.51 835.86,-77.44"/>
</a>
</g>
</g>
<!-- Node19 -->
<g id="Node000019" class="node">
<title>Node19</title>
<g id="a_Node000019"><a xlink:title=" ">
<polygon fill="#e0e0e0" stroke="#999999" points="619,-74 563,-74 563,-55 619,-55 619,-74"/>
<text text-anchor="middle" x="591" y="-62" font-family="Helvetica,sans-Serif" font-size="10.00">assert.h</text>
</a>
</g>
</g>
<!-- Node18&#45;&gt;Node19 -->
<g id="edge26_Node000018_Node000019" class="edge">
<title>Node18&#45;&gt;Node19</title>
<g id="a_edge26_Node000018_Node000019"><a xlink:title=" ">
<path fill="none" stroke="#63b8ff" d="M544,-109.98C552.19,-102.23 564.51,-90.58 574.47,-81.14"/>
<polygon fill="#63b8ff" stroke="#63b8ff" points="576.98,-83.59 581.84,-74.17 572.17,-78.5 576.98,-83.59"/>
</a>
</g>
</g>
</g>
</svg>

<g id="navigator" transform="translate(0 0)" fill="#404254">
  <rect fill="#f2f5e9" fill-opacity="0.5" stroke="#606060" stroke-width=".5" x="0" y="0" width="60" height="60"/>
  <use id="zoomplus" xlink:href="#zoomPlus" x="17" y="9" onmousedown="handleZoom(evt,'in')"/>
  <use id="zoomminus" xlink:href="#zoomMin" x="42" y="9" onmousedown="handleZoom(evt,'out')"/>
  <use id="reset" xlink:href="#resetDef" x="30" y="36" onmousedown="handleReset()"/>
   <use id="arrowup" xlink:href="#arrowUp" x="0" y="0" onmousedown="handlePan(0,-1)"/>
  <use id="arrowright" xlink:href="#arrowRight" x="0" y="0" onmousedown="handlePan(1,0)"/>
  <use id="arrowdown" xlink:href="#arrowDown" x="0" y="0" onmousedown="handlePan(0,1)"/>
  <use id="arrowleft" xlink:href="#arrowLeft" x="0" y="0" onmousedown="handlePan(-1,0)"/>
</g>
<svg viewBox="0 0 15 15" width="100%" height="30px" preserveAspectRatio="xMaxYMin meet">
 <g id="arrow_out" transform="scale(0.3 0.3)">
  <a xlink:href="main_8cpp__incl_org.svg" target="_base">
   <rect id="button" ry="5" rx="5" y="6" x="6" height="38" width="38"
        fill="#f2f5e9" fill-opacity="0.5" stroke="#606060" stroke-width="1.0"/>
   <path id="arrow"
     d="M 11.500037,31.436501 C 11.940474,20.09759 22.043105,11.32322 32.158766,21.979434 L 37.068811,17.246167 C 37.068811,17.246167 37.088388,32 37.088388,32 L 22.160133,31.978069 C 22.160133,31.978069 26.997745,27.140456 26.997745,27.140456 C 18.528582,18.264221 13.291696,25.230495 11.500037,31.436501 z"
     style="fill:#404040;"/>
  </a>
 </g>
</svg>

<style type='text/css'>
<![CDATA[
[data-mouse-over-selected='false'] { opacity: 0.7; }
[data-mouse-over-selected='true']  { opacity: 1.0; }
]]>
</style>
<script type="application/ecmascript"><![CDATA[
document.addEventListener('DOMContentLoaded', (event) => {
  highlightEdges();
  highlightAdjacentNodes();
});
]]></script>
</svg>
