<?xml version="1.0" encoding="UTF-8" standalone="no"?>
<!DOCTYPE svg PUBLIC "-//W3C//DTD SVG 1.1//EN"
 "http://www.w3.org/Graphics/SVG/1.1/DTD/svg11.dtd">
<!-- Generated by graphviz version 2.43.0 (0)
 -->
<!-- Title: include/Partie.hpp Pages: 1 -->
<!--zoomable 302 -->

<svg id="main" version="1.1" xmlns="http://www.w3.org/2000/svg" xmlns:xlink="http://www.w3.org/1999/xlink" xml:space="preserve" onload="init(evt)">
<style type="text/css"><![CDATA[
.node, .edge {opacity: 0.7;}
.node.selected, .edge.selected {opacity: 1;}
.edge:hover path { stroke: red; }
.edge:hover polygon { stroke: red; fill: red; }
]]></style>

<defs>
  <circle id="rim" cx="0" cy="0" r="7"/>
  <circle id="rim2" cx="0" cy="0" r="3.5"/>
  <g id="zoomPlus">
    <use xlink:href="#rim" fill="#404040"><set attributeName="fill" to="#808080" begin="zoomplus.mouseover" end="zoomplus.mouseout"/></use>
    <path d="M-4,0h8M0,-4v8" fill="none" stroke="white" stroke-width="1.5" pointer-events="none"/>
  </g>
  <g id="zoomMin">
    <use xlink:href="#rim" fill="#404040"><set attributeName="fill" to="#808080" begin="zoomminus.mouseover" end="zoomminus.mouseout"/></use>
    <path d="M-4,0h8" fill="none" stroke="white" stroke-width="1.5" pointer-events="none"/>
  </g>
  <g id="arrowUp" transform="translate(30 24)">
    <use xlink:href="#rim"/>
    <path pointer-events="none" fill="none" stroke="white" stroke-width="1.5" d="M0,-3.0v7 M-2.5,-0.5L0,-3.0L2.5,-0.5"/>
  </g>
  <g id="arrowRight" transform="rotate(90) translate(36 -43)">
    <use xlink:href="#rim"/>
    <path pointer-events="none" fill="none" stroke="white" stroke-width="1.5" d="M0,-3.0v7 M-2.5,-0.5L0,-3.0L2.5,-0.5"/>
  </g>
  <g id="arrowDown" transform="rotate(180) translate(-30 -48)">
    <use xlink:href="#rim"/>
    <path pointer-events="none" fill="none" stroke="white" stroke-width="1.5" d="M0,-3.0v7 M-2.5,-0.5L0,-3.0L2.5,-0.5"/>
  </g>
  <g id="arrowLeft" transform="rotate(270) translate(-36 17)">
    <use xlink:href="#rim"/>
    <path pointer-events="none" fill="none" stroke="white" stroke-width="1.5" d="M0,-3.0v7 M-2.5,-0.5L0,-3.0L2.5,-0.5"/>
  </g>
  <g id="resetDef">
    <use xlink:href="#rim2" fill="#404040"><set attributeName="fill" to="#808080" begin="reset.mouseover" end="reset.mouseout"/></use>
  </g>
</defs>
<script type="application/ecmascript">
var viewWidth = 855;
var viewHeight = 302;
var sectionId = 'dynsection-0';
</script>
<script type="application/ecmascript" xlink:href="svg.min.js"/>
<svg id="graph" class="graph">
<g id="viewport">
<title>include/Partie.hpp</title>
<!-- Node1 -->
<g id="Node000001" class="node">
<title>Node1</title>
<g id="a_Node000001"><a xlink:title=" ">
<polygon fill="#999999" stroke="#666666" points="503.5,-294 399.5,-294 399.5,-275 503.5,-275 503.5,-294"/>
<text text-anchor="middle" x="451.5" y="-282" font-family="Helvetica,sans-Serif" font-size="10.00">include/Partie.hpp</text>
</a>
</g>
</g>
<!-- Node2 -->
<g id="Node000002" class="node">
<title>Node2</title>
<g id="a_Node000002"><a xlink:title=" ">
<polygon fill="#e0e0e0" stroke="#999999" points="47,-74 0,-74 0,-55 47,-55 47,-74"/>
<text text-anchor="middle" x="23.5" y="-62" font-family="Helvetica,sans-Serif" font-size="10.00">vector</text>
</a>
</g>
</g>
<!-- Node1&#45;&gt;Node2 -->
<g id="edge1_Node000001_Node000002" class="edge">
<title>Node1&#45;&gt;Node2</title>
<g id="a_edge1_Node000001_Node000002"><a xlink:title=" ">
<path fill="none" stroke="#63b8ff" d="M399.5,-278.85C312.57,-268.24 137.92,-234.34 42.5,-129 31.39,-116.74 26.77,-98.23 24.85,-84.35"/>
<polygon fill="#63b8ff" stroke="#63b8ff" points="28.29,-83.61 23.79,-74.02 21.33,-84.32 28.29,-83.61"/>
</a>
</g>
</g>
<!-- Node3 -->
<g id="Node000003" class="node">
<title>Node3</title>
<g id="a_Node000003"><a xlink:href="Ticket_8hpp.html" target="_top" xlink:title=" ">
<polygon fill="white" stroke="#666666" points="119,-129 52,-129 52,-110 119,-110 119,-129"/>
<text text-anchor="middle" x="85.5" y="-117" font-family="Helvetica,sans-Serif" font-size="10.00">Ticket.hpp</text>
</a>
</g>
</g>
<!-- Node1&#45;&gt;Node3 -->
<g id="edge2_Node000001_Node000003" class="edge">
<title>Node1&#45;&gt;Node3</title>
<g id="a_edge2_Node000001_Node000003"><a xlink:title=" ">
<path fill="none" stroke="#63b8ff" d="M432.34,-274.97C372.07,-248.13 186.15,-165.32 114.27,-133.31"/>
<polygon fill="#63b8ff" stroke="#63b8ff" points="115.47,-130.02 104.91,-129.15 112.63,-136.41 115.47,-130.02"/>
</a>
</g>
</g>
<!-- Node6 -->
<g id="Node000006" class="node">
<title>Node6</title>
<g id="a_Node000006"><a xlink:href="Joueur_8hpp.html" target="_top" xlink:title="Déclaration de la classe Joueur, participant à une partie des Aventuriers du Rail.">
<polygon fill="white" stroke="#666666" points="612.5,-239 544.5,-239 544.5,-220 612.5,-220 612.5,-239"/>
<text text-anchor="middle" x="578.5" y="-227" font-family="Helvetica,sans-Serif" font-size="10.00">Joueur.hpp</text>
</a>
</g>
</g>
<!-- Node1&#45;&gt;Node6 -->
<g id="edge6_Node000001_Node000006" class="edge">
<title>Node1&#45;&gt;Node6</title>
<g id="a_edge6_Node000001_Node000006"><a xlink:title=" ">
<path fill="none" stroke="#63b8ff" d="M471.9,-274.98C492.52,-266.38 524.61,-252.99 548.19,-243.15"/>
<polygon fill="#63b8ff" stroke="#63b8ff" points="549.84,-246.25 557.72,-239.17 547.15,-239.79 549.84,-246.25"/>
</a>
</g>
</g>
<!-- Node8 -->
<g id="Node000008" class="node">
<title>Node8</title>
<g id="a_Node000008"><a xlink:href="Train_8hpp.html" target="_top" xlink:title=" ">
<polygon fill="white" stroke="#666666" points="847,-129 786,-129 786,-110 847,-110 847,-129"/>
<text text-anchor="middle" x="816.5" y="-117" font-family="Helvetica,sans-Serif" font-size="10.00">Train.hpp</text>
</a>
</g>
</g>
<!-- Node1&#45;&gt;Node8 -->
<g id="edge31_Node000001_Node000008" class="edge">
<title>Node1&#45;&gt;Node8</title>
<g id="a_edge31_Node000001_Node000008"><a xlink:title=" ">
<path fill="none" stroke="#63b8ff" d="M503.73,-282.96C578.23,-279.34 714.8,-261.68 794.5,-184 806.63,-172.18 812.08,-153.34 814.52,-139.25"/>
<polygon fill="#63b8ff" stroke="#63b8ff" points="818.01,-139.57 815.91,-129.19 811.07,-138.62 818.01,-139.57"/>
</a>
</g>
</g>
<!-- Node9 -->
<g id="Node000009" class="node">
<title>Node9</title>
<g id="a_Node000009"><a xlink:href="Plateau_8hpp.html" target="_top" xlink:title="Classe Plateau – Gère le plateau de jeu avec villes et voies ferrées.">
<polygon fill="white" stroke="#666666" points="488.5,-184 414.5,-184 414.5,-165 488.5,-165 488.5,-184"/>
<text text-anchor="middle" x="451.5" y="-172" font-family="Helvetica,sans-Serif" font-size="10.00">Plateau.hpp</text>
</a>
</g>
</g>
<!-- Node1&#45;&gt;Node9 -->
<g id="edge32_Node000001_Node000009" class="edge">
<title>Node1&#45;&gt;Node9</title>
<g id="a_edge32_Node000001_Node000009"><a xlink:title=" ">
<path fill="none" stroke="#63b8ff" d="M451.5,-274.66C451.5,-257.17 451.5,-217.8 451.5,-194.27"/>
<polygon fill="#63b8ff" stroke="#63b8ff" points="455,-194.16 451.5,-184.16 448,-194.16 455,-194.16"/>
</a>
</g>
</g>
<!-- Node4 -->
<g id="Node000004" class="node">
<title>Node4</title>
<g id="a_Node000004"><a xlink:title=" ">
<polygon fill="#e0e0e0" stroke="#999999" points="238.5,-19 194.5,-19 194.5,0 238.5,0 238.5,-19"/>
<text text-anchor="middle" x="216.5" y="-7" font-family="Helvetica,sans-Serif" font-size="10.00">string</text>
</a>
</g>
</g>
<!-- Node3&#45;&gt;Node4 -->
<g id="edge3_Node000003_Node000004" class="edge">
<title>Node3&#45;&gt;Node4</title>
<g id="a_edge3_Node000003_Node000004"><a xlink:title=" ">
<path fill="none" stroke="#63b8ff" d="M87.01,-109.96C89.79,-96.58 96.93,-70.6 112.5,-55 132.11,-35.35 161.77,-23.83 184.4,-17.46"/>
<polygon fill="#63b8ff" stroke="#63b8ff" points="185.46,-20.8 194.25,-14.88 183.69,-14.03 185.46,-20.8"/>
</a>
</g>
</g>
<!-- Node5 -->
<g id="Node000005" class="node">
<title>Node5</title>
<g id="a_Node000005"><a xlink:href="Ville_8hpp.html" target="_top" xlink:title=" ">
<polygon fill="white" stroke="#666666" points="181,-74 122,-74 122,-55 181,-55 181,-74"/>
<text text-anchor="middle" x="151.5" y="-62" font-family="Helvetica,sans-Serif" font-size="10.00">Ville.hpp</text>
</a>
</g>
</g>
<!-- Node3&#45;&gt;Node5 -->
<g id="edge4_Node000003_Node000005" class="edge">
<title>Node3&#45;&gt;Node5</title>
<g id="a_edge4_Node000003_Node000005"><a xlink:title=" ">
<path fill="none" stroke="#63b8ff" d="M96.1,-109.98C105.96,-102.07 120.85,-90.11 132.72,-80.58"/>
<polygon fill="#63b8ff" stroke="#63b8ff" points="135.1,-83.16 140.7,-74.17 130.71,-77.7 135.1,-83.16"/>
</a>
</g>
</g>
<!-- Node5&#45;&gt;Node4 -->
<g id="edge5_Node000005_Node000004" class="edge">
<title>Node5&#45;&gt;Node4</title>
<g id="a_edge5_Node000005_Node000004"><a xlink:title=" ">
<path fill="none" stroke="#63b8ff" d="M161.94,-54.98C171.65,-47.07 186.32,-35.11 198,-25.58"/>
<polygon fill="#63b8ff" stroke="#63b8ff" points="200.33,-28.2 205.87,-19.17 195.9,-22.78 200.33,-28.2"/>
</a>
</g>
</g>
<!-- Node6&#45;&gt;Node2 -->
<g id="edge28_Node000006_Node000002" class="edge">
<title>Node6&#45;&gt;Node2</title>
<g id="a_edge28_Node000006_Node000002"><a xlink:title=" ">
<path fill="none" stroke="#63b8ff" d="M544.48,-226.81C438.42,-220.87 116.51,-197.43 42.5,-129 30.23,-117.66 25.77,-98.76 24.2,-84.52"/>
<polygon fill="#63b8ff" stroke="#63b8ff" points="27.68,-84.06 23.47,-74.33 20.7,-84.56 27.68,-84.06"/>
</a>
</g>
</g>
<!-- Node6&#45;&gt;Node3 -->
<g id="edge8_Node000006_Node000003" class="edge">
<title>Node6&#45;&gt;Node3</title>
<g id="a_edge8_Node000006_Node000003"><a xlink:title=" ">
<path fill="none" stroke="#63b8ff" d="M544.22,-220.99C456.9,-201.86 226.11,-151.3 129.26,-130.09"/>
<polygon fill="#63b8ff" stroke="#63b8ff" points="129.74,-126.61 119.22,-127.89 128.24,-133.45 129.74,-126.61"/>
</a>
</g>
</g>
<!-- Node6&#45;&gt;Node4 -->
<g id="edge29_Node000006_Node000004" class="edge">
<title>Node6&#45;&gt;Node4</title>
<g id="a_edge29_Node000006_Node000004"><a xlink:title=" ">
<path fill="none" stroke="#63b8ff" d="M612.56,-223.88C654.86,-217.35 723.32,-203.97 738.5,-184 773.19,-138.35 777.28,-97.23 738.5,-55 705.31,-18.86 357.1,-12.03 248.6,-10.77"/>
<polygon fill="#63b8ff" stroke="#63b8ff" points="248.61,-7.27 238.58,-10.67 248.54,-14.27 248.61,-7.27"/>
</a>
</g>
</g>
<!-- Node7 -->
<g id="Node000007" class="node">
<title>Node7</title>
<g id="a_Node000007"><a xlink:href="couleurEnum_8hpp.html" target="_top" xlink:title=" ">
<polygon fill="white" stroke="#666666" points="729,-74 628,-74 628,-55 729,-55 729,-74"/>
<text text-anchor="middle" x="678.5" y="-62" font-family="Helvetica,sans-Serif" font-size="10.00">couleurEnum.hpp</text>
</a>
</g>
</g>
<!-- Node6&#45;&gt;Node7 -->
<g id="edge7_Node000006_Node000007" class="edge">
<title>Node6&#45;&gt;Node7</title>
<g id="a_edge7_Node000006_Node000007"><a xlink:title=" ">
<path fill="none" stroke="#63b8ff" d="M590.38,-219.73C619.87,-197.85 694.49,-141.65 700.5,-129 707.67,-113.9 699.93,-95.82 691.72,-82.82"/>
<polygon fill="#63b8ff" stroke="#63b8ff" points="694.43,-80.6 685.86,-74.37 688.68,-84.58 694.43,-80.6"/>
</a>
</g>
</g>
<!-- Node6&#45;&gt;Node8 -->
<g id="edge9_Node000006_Node000008" class="edge">
<title>Node6&#45;&gt;Node8</title>
<g id="a_edge9_Node000006_Node000008"><a xlink:title=" ">
<path fill="none" stroke="#63b8ff" d="M612.77,-227.83C653.77,-225.49 722.94,-216.54 771.5,-184 788.46,-172.63 801.08,-152.56 808.57,-138.02"/>
<polygon fill="#63b8ff" stroke="#63b8ff" points="811.72,-139.53 812.93,-129.01 805.42,-136.49 811.72,-139.53"/>
</a>
</g>
</g>
<!-- Node6&#45;&gt;Node9 -->
<g id="edge12_Node000006_Node000009" class="edge">
<title>Node6&#45;&gt;Node9</title>
<g id="a_edge12_Node000006_Node000009"><a xlink:title=" ">
<path fill="none" stroke="#63b8ff" d="M558.1,-219.98C537.48,-211.38 505.39,-197.99 481.81,-188.15"/>
<polygon fill="#63b8ff" stroke="#63b8ff" points="482.85,-184.79 472.28,-184.17 480.16,-191.25 482.85,-184.79"/>
</a>
</g>
</g>
<!-- Node18 -->
<g id="Node000018" class="node">
<title>Node18</title>
<g id="a_Node000018"><a xlink:title=" ">
<polygon fill="#e0e0e0" stroke="#999999" points="729,-184 672,-184 672,-165 729,-165 729,-184"/>
<text text-anchor="middle" x="700.5" y="-172" font-family="Helvetica,sans-Serif" font-size="10.00">ostream</text>
</a>
</g>
</g>
<!-- Node6&#45;&gt;Node18 -->
<g id="edge30_Node000006_Node000018" class="edge">
<title>Node6&#45;&gt;Node18</title>
<g id="a_edge30_Node000006_Node000018"><a xlink:title=" ">
<path fill="none" stroke="#63b8ff" d="M598.1,-219.98C617.82,-211.42 648.45,-198.11 671.08,-188.28"/>
<polygon fill="#63b8ff" stroke="#63b8ff" points="672.76,-191.37 680.54,-184.17 669.98,-184.94 672.76,-191.37"/>
</a>
</g>
</g>
<!-- Node8&#45;&gt;Node4 -->
<g id="edge10_Node000008_Node000004" class="edge">
<title>Node8&#45;&gt;Node4</title>
<g id="a_edge10_Node000008_Node000004"><a xlink:title=" ">
<path fill="none" stroke="#63b8ff" d="M813.15,-109.64C807.2,-95.32 793.35,-67.43 771.5,-55 726.02,-29.13 360.47,-15.19 248.79,-11.5"/>
<polygon fill="#63b8ff" stroke="#63b8ff" points="248.9,-8.01 238.79,-11.18 248.67,-15 248.9,-8.01"/>
</a>
</g>
</g>
<!-- Node8&#45;&gt;Node7 -->
<g id="edge11_Node000008_Node000007" class="edge">
<title>Node8&#45;&gt;Node7</title>
<g id="a_edge11_Node000008_Node000007"><a xlink:title=" ">
<path fill="none" stroke="#63b8ff" d="M794.33,-109.98C771.73,-101.3 736.44,-87.75 710.75,-77.88"/>
<polygon fill="#63b8ff" stroke="#63b8ff" points="711.67,-74.49 701.08,-74.17 709.16,-81.02 711.67,-74.49"/>
</a>
</g>
</g>
<!-- Node9&#45;&gt;Node3 -->
<g id="edge26_Node000009_Node000003" class="edge">
<title>Node9&#45;&gt;Node3</title>
<g id="a_edge26_Node000009_Node000003"><a xlink:title=" ">
<path fill="none" stroke="#63b8ff" d="M414.23,-168.73C354.77,-161.02 234.81,-145.05 133.5,-129 132.04,-128.77 130.55,-128.53 129.05,-128.28"/>
<polygon fill="#63b8ff" stroke="#63b8ff" points="129.49,-124.81 119.04,-126.6 128.32,-131.71 129.49,-124.81"/>
</a>
</g>
</g>
<!-- Node9&#45;&gt;Node5 -->
<g id="edge19_Node000009_Node000005" class="edge">
<title>Node9&#45;&gt;Node5</title>
<g id="a_edge19_Node000009_Node000005"><a xlink:title=" ">
<path fill="none" stroke="#63b8ff" d="M414.43,-169.97C341.64,-162.72 185.52,-145.44 167.5,-129 155.31,-117.87 151.8,-98.94 151.04,-84.64"/>
<polygon fill="#63b8ff" stroke="#63b8ff" points="154.54,-84.35 150.92,-74.4 147.54,-84.44 154.54,-84.35"/>
</a>
</g>
</g>
<!-- Node9&#45;&gt;Node8 -->
<g id="edge27_Node000009_Node000008" class="edge">
<title>Node9&#45;&gt;Node8</title>
<g id="a_edge27_Node000009_Node000008"><a xlink:title=" ">
<path fill="none" stroke="#63b8ff" d="M488.51,-168.13C557.34,-158.13 704.55,-136.76 775.97,-126.39"/>
<polygon fill="#63b8ff" stroke="#63b8ff" points="776.55,-129.84 785.94,-124.94 775.54,-122.91 776.55,-129.84"/>
</a>
</g>
</g>
<!-- Node10 -->
<g id="Node000010" class="node">
<title>Node10</title>
<g id="a_Node000010"><a xlink:href="VoieFerree_8hpp.html" target="_top" xlink:title="Classe VoieFerree – Représente une voie ferrée du plateau.">
<polygon fill="white" stroke="#666666" points="265,-129 176,-129 176,-110 265,-110 265,-129"/>
<text text-anchor="middle" x="220.5" y="-117" font-family="Helvetica,sans-Serif" font-size="10.00">VoieFerree.hpp</text>
</a>
</g>
</g>
<!-- Node9&#45;&gt;Node10 -->
<g id="edge13_Node000009_Node000010" class="edge">
<title>Node9&#45;&gt;Node10</title>
<g id="a_edge13_Node000009_Node000010"><a xlink:title=" ">
<path fill="none" stroke="#63b8ff" d="M414.39,-164.98C374.51,-155.84 311.04,-141.27 267.66,-131.32"/>
<polygon fill="#63b8ff" stroke="#63b8ff" points="268.43,-127.91 257.91,-129.08 266.87,-134.73 268.43,-127.91"/>
</a>
</g>
</g>
<!-- Node12 -->
<g id="Node000012" class="node">
<title>Node12</title>
<g id="a_Node000012"><a xlink:title=" ">
<polygon fill="#e0e0e0" stroke="#999999" points="691.5,-129 647.5,-129 647.5,-110 691.5,-110 691.5,-129"/>
<text text-anchor="middle" x="669.5" y="-117" font-family="Helvetica,sans-Serif" font-size="10.00">limits</text>
</a>
</g>
</g>
<!-- Node9&#45;&gt;Node12 -->
<g id="edge20_Node000009_Node000012" class="edge">
<title>Node9&#45;&gt;Node12</title>
<g id="a_edge20_Node000009_Node000012"><a xlink:title=" ">
<path fill="none" stroke="#63b8ff" d="M488.85,-165.01C524.59,-156.79 580.26,-143.77 637.27,-129.25"/>
<polygon fill="#63b8ff" stroke="#63b8ff" points="638.35,-132.59 647.17,-126.72 636.62,-125.81 638.35,-132.59"/>
</a>
</g>
</g>
<!-- Node13 -->
<g id="Node000013" class="node">
<title>Node13</title>
<g id="a_Node000013"><a xlink:title=" ">
<polygon fill="#e0e0e0" stroke="#999999" points="321.5,-129 283.5,-129 283.5,-110 321.5,-110 321.5,-129"/>
<text text-anchor="middle" x="302.5" y="-117" font-family="Helvetica,sans-Serif" font-size="10.00">map</text>
</a>
</g>
</g>
<!-- Node9&#45;&gt;Node13 -->
<g id="edge21_Node000009_Node000013" class="edge">
<title>Node9&#45;&gt;Node13</title>
<g id="a_edge21_Node000009_Node000013"><a xlink:title=" ">
<path fill="none" stroke="#63b8ff" d="M427.56,-164.98C401.33,-155.65 359.27,-140.69 331.27,-130.73"/>
<polygon fill="#63b8ff" stroke="#63b8ff" points="332.24,-127.36 321.64,-127.31 329.89,-133.96 332.24,-127.36"/>
</a>
</g>
</g>
<!-- Node14 -->
<g id="Node000014" class="node">
<title>Node14</title>
<g id="a_Node000014"><a xlink:title=" ">
<polygon fill="#e0e0e0" stroke="#999999" points="403.5,-129 339.5,-129 339.5,-110 403.5,-110 403.5,-129"/>
<text text-anchor="middle" x="371.5" y="-117" font-family="Helvetica,sans-Serif" font-size="10.00">algorithm</text>
</a>
</g>
</g>
<!-- Node9&#45;&gt;Node14 -->
<g id="edge22_Node000009_Node000014" class="edge">
<title>Node9&#45;&gt;Node14</title>
<g id="a_edge22_Node000009_Node000014"><a xlink:title=" ">
<path fill="none" stroke="#63b8ff" d="M438.65,-164.98C426.36,-156.84 407.59,-144.41 393.02,-134.76"/>
<polygon fill="#63b8ff" stroke="#63b8ff" points="394.86,-131.78 384.59,-129.17 390.99,-137.61 394.86,-131.78"/>
</a>
</g>
</g>
<!-- Node15 -->
<g id="Node000015" class="node">
<title>Node15</title>
<g id="a_Node000015"><a xlink:title=" ">
<polygon fill="#e0e0e0" stroke="#999999" points="481.5,-129 421.5,-129 421.5,-110 481.5,-110 481.5,-129"/>
<text text-anchor="middle" x="451.5" y="-117" font-family="Helvetica,sans-Serif" font-size="10.00">iostream</text>
</a>
</g>
</g>
<!-- Node9&#45;&gt;Node15 -->
<g id="edge23_Node000009_Node000015" class="edge">
<title>Node9&#45;&gt;Node15</title>
<g id="a_edge23_Node000009_Node000015"><a xlink:title=" ">
<path fill="none" stroke="#63b8ff" d="M451.5,-164.75C451.5,-157.8 451.5,-147.85 451.5,-139.13"/>
<polygon fill="#63b8ff" stroke="#63b8ff" points="455,-139.09 451.5,-129.09 448,-139.09 455,-139.09"/>
</a>
</g>
</g>
<!-- Node16 -->
<g id="Node000016" class="node">
<title>Node16</title>
<g id="a_Node000016"><a xlink:title=" ">
<polygon fill="#e0e0e0" stroke="#999999" points="555.5,-129 499.5,-129 499.5,-110 555.5,-110 555.5,-129"/>
<text text-anchor="middle" x="527.5" y="-117" font-family="Helvetica,sans-Serif" font-size="10.00">sstream</text>
</a>
</g>
</g>
<!-- Node9&#45;&gt;Node16 -->
<g id="edge24_Node000009_Node000016" class="edge">
<title>Node9&#45;&gt;Node16</title>
<g id="a_edge24_Node000009_Node000016"><a xlink:title=" ">
<path fill="none" stroke="#63b8ff" d="M463.71,-164.98C475.28,-156.92 492.88,-144.65 506.66,-135.03"/>
<polygon fill="#63b8ff" stroke="#63b8ff" points="508.87,-137.76 515.07,-129.17 504.86,-132.02 508.87,-137.76"/>
</a>
</g>
</g>
<!-- Node17 -->
<g id="Node000017" class="node">
<title>Node17</title>
<g id="a_Node000017"><a xlink:title=" ">
<polygon fill="#e0e0e0" stroke="#999999" points="629,-129 574,-129 574,-110 629,-110 629,-129"/>
<text text-anchor="middle" x="601.5" y="-117" font-family="Helvetica,sans-Serif" font-size="10.00">fstream</text>
</a>
</g>
</g>
<!-- Node9&#45;&gt;Node17 -->
<g id="edge25_Node000009_Node000017" class="edge">
<title>Node9&#45;&gt;Node17</title>
<g id="a_edge25_Node000009_Node000017"><a xlink:title=" ">
<path fill="none" stroke="#63b8ff" d="M475.6,-164.98C500.38,-156.23 539.2,-142.51 567.19,-132.62"/>
<polygon fill="#63b8ff" stroke="#63b8ff" points="568.7,-135.8 576.96,-129.17 566.37,-129.2 568.7,-135.8"/>
</a>
</g>
</g>
<!-- Node10&#45;&gt;Node2 -->
<g id="edge15_Node000010_Node000002" class="edge">
<title>Node10&#45;&gt;Node2</title>
<g id="a_edge15_Node000010_Node000002"><a xlink:title=" ">
<path fill="none" stroke="#63b8ff" d="M188.85,-109.98C152.66,-100.25 93.68,-84.38 56.81,-74.46"/>
<polygon fill="#63b8ff" stroke="#63b8ff" points="57.6,-71.05 47.04,-71.83 55.78,-77.81 57.6,-71.05"/>
</a>
</g>
</g>
<!-- Node10&#45;&gt;Node4 -->
<g id="edge14_Node000010_Node000004" class="edge">
<title>Node10&#45;&gt;Node4</title>
<g id="a_edge14_Node000010_Node000004"><a xlink:title=" ">
<path fill="none" stroke="#63b8ff" d="M220.17,-109.66C219.52,-92.17 218.07,-52.8 217.2,-29.27"/>
<polygon fill="#63b8ff" stroke="#63b8ff" points="220.69,-29.02 216.82,-19.16 213.69,-29.28 220.69,-29.02"/>
</a>
</g>
</g>
<!-- Node10&#45;&gt;Node5 -->
<g id="edge17_Node000010_Node000005" class="edge">
<title>Node10&#45;&gt;Node5</title>
<g id="a_edge17_Node000010_Node000005"><a xlink:title=" ">
<path fill="none" stroke="#63b8ff" d="M209.41,-109.98C199.01,-102 183.24,-89.88 170.78,-80.31"/>
<polygon fill="#63b8ff" stroke="#63b8ff" points="172.85,-77.49 162.79,-74.17 168.59,-83.04 172.85,-77.49"/>
</a>
</g>
</g>
<!-- Node10&#45;&gt;Node7 -->
<g id="edge18_Node000010_Node000007" class="edge">
<title>Node10&#45;&gt;Node7</title>
<g id="a_edge18_Node000010_Node000007"><a xlink:title=" ">
<path fill="none" stroke="#63b8ff" d="M265.27,-111.29C268.39,-110.84 271.49,-110.4 274.5,-110 395.82,-93.78 538.22,-79.11 617.43,-71.34"/>
<polygon fill="#63b8ff" stroke="#63b8ff" points="618.09,-74.79 627.71,-70.33 617.41,-67.82 618.09,-74.79"/>
</a>
</g>
</g>
<!-- Node11 -->
<g id="Node000011" class="node">
<title>Node11</title>
<g id="a_Node000011"><a xlink:title=" ">
<polygon fill="#e0e0e0" stroke="#999999" points="300.5,-74 244.5,-74 244.5,-55 300.5,-55 300.5,-74"/>
<text text-anchor="middle" x="272.5" y="-62" font-family="Helvetica,sans-Serif" font-size="10.00">assert.h</text>
</a>
</g>
</g>
<!-- Node10&#45;&gt;Node11 -->
<g id="edge16_Node000010_Node000011" class="edge">
<title>Node10&#45;&gt;Node11</title>
<g id="a_edge16_Node000010_Node000011"><a xlink:title=" ">
<path fill="none" stroke="#63b8ff" d="M229.09,-109.75C236.66,-102.03 247.88,-90.6 257.01,-81.28"/>
<polygon fill="#63b8ff" stroke="#63b8ff" points="259.57,-83.68 264.07,-74.09 254.57,-78.78 259.57,-83.68"/>
</a>
</g>
</g>
</g>
</svg>

<g id="navigator" transform="translate(0 0)" fill="#404254">
  <rect fill="#f2f5e9" fill-opacity="0.5" stroke="#606060" stroke-width=".5" x="0" y="0" width="60" height="60"/>
  <use id="zoomplus" xlink:href="#zoomPlus" x="17" y="9" onmousedown="handleZoom(evt,'in')"/>
  <use id="zoomminus" xlink:href="#zoomMin" x="42" y="9" onmousedown="handleZoom(evt,'out')"/>
  <use id="reset" xlink:href="#resetDef" x="30" y="36" onmousedown="handleReset()"/>
   <use id="arrowup" xlink:href="#arrowUp" x="0" y="0" onmousedown="handlePan(0,-1)"/>
  <use id="arrowright" xlink:href="#arrowRight" x="0" y="0" onmousedown="handlePan(1,0)"/>
  <use id="arrowdown" xlink:href="#arrowDown" x="0" y="0" onmousedown="handlePan(0,1)"/>
  <use id="arrowleft" xlink:href="#arrowLeft" x="0" y="0" onmousedown="handlePan(-1,0)"/>
</g>
<svg viewBox="0 0 15 15" width="100%" height="30px" preserveAspectRatio="xMaxYMin meet">
 <g id="arrow_out" transform="scale(0.3 0.3)">
  <a xlink:href="Partie_8hpp__incl_org.svg" target="_base">
   <rect id="button" ry="5" rx="5" y="6" x="6" height="38" width="38"
        fill="#f2f5e9" fill-opacity="0.5" stroke="#606060" stroke-width="1.0"/>
   <path id="arrow"
     d="M 11.500037,31.436501 C 11.940474,20.09759 22.043105,11.32322 32.158766,21.979434 L 37.068811,17.246167 C 37.068811,17.246167 37.088388,32 37.088388,32 L 22.160133,31.978069 C 22.160133,31.978069 26.997745,27.140456 26.997745,27.140456 C 18.528582,18.264221 13.291696,25.230495 11.500037,31.436501 z"
     style="fill:#404040;"/>
  </a>
 </g>
</svg>

<style type='text/css'>
<![CDATA[
[data-mouse-over-selected='false'] { opacity: 0.7; }
[data-mouse-over-selected='true']  { opacity: 1.0; }
]]>
</style>
<script type="application/ecmascript"><![CDATA[
document.addEventListener('DOMContentLoaded', (event) => {
  highlightEdges();
  highlightAdjacentNodes();
});
]]></script>
</svg>
