<?xml version="1.0" encoding="UTF-8" standalone="no"?>
<!DOCTYPE svg PUBLIC "-//W3C//DTD SVG 1.1//EN"
 "http://www.w3.org/Graphics/SVG/1.1/DTD/svg11.dtd">
<!-- Generated by graphviz version 2.43.0 (0)
 -->
<!-- Title: src/Partie.cpp Pages: 1 -->
<!--zoomable 357 -->

<svg id="main" version="1.1" xmlns="http://www.w3.org/2000/svg" xmlns:xlink="http://www.w3.org/1999/xlink" xml:space="preserve" onload="init(evt)">
<style type="text/css"><![CDATA[
.node, .edge {opacity: 0.7;}
.node.selected, .edge.selected {opacity: 1;}
.edge:hover path { stroke: red; }
.edge:hover polygon { stroke: red; fill: red; }
]]></style>

<defs>
  <circle id="rim" cx="0" cy="0" r="7"/>
  <circle id="rim2" cx="0" cy="0" r="3.5"/>
  <g id="zoomPlus">
    <use xlink:href="#rim" fill="#404040"><set attributeName="fill" to="#808080" begin="zoomplus.mouseover" end="zoomplus.mouseout"/></use>
    <path d="M-4,0h8M0,-4v8" fill="none" stroke="white" stroke-width="1.5" pointer-events="none"/>
  </g>
  <g id="zoomMin">
    <use xlink:href="#rim" fill="#404040"><set attributeName="fill" to="#808080" begin="zoomminus.mouseover" end="zoomminus.mouseout"/></use>
    <path d="M-4,0h8" fill="none" stroke="white" stroke-width="1.5" pointer-events="none"/>
  </g>
  <g id="arrowUp" transform="translate(30 24)">
    <use xlink:href="#rim"/>
    <path pointer-events="none" fill="none" stroke="white" stroke-width="1.5" d="M0,-3.0v7 M-2.5,-0.5L0,-3.0L2.5,-0.5"/>
  </g>
  <g id="arrowRight" transform="rotate(90) translate(36 -43)">
    <use xlink:href="#rim"/>
    <path pointer-events="none" fill="none" stroke="white" stroke-width="1.5" d="M0,-3.0v7 M-2.5,-0.5L0,-3.0L2.5,-0.5"/>
  </g>
  <g id="arrowDown" transform="rotate(180) translate(-30 -48)">
    <use xlink:href="#rim"/>
    <path pointer-events="none" fill="none" stroke="white" stroke-width="1.5" d="M0,-3.0v7 M-2.5,-0.5L0,-3.0L2.5,-0.5"/>
  </g>
  <g id="arrowLeft" transform="rotate(270) translate(-36 17)">
    <use xlink:href="#rim"/>
    <path pointer-events="none" fill="none" stroke="white" stroke-width="1.5" d="M0,-3.0v7 M-2.5,-0.5L0,-3.0L2.5,-0.5"/>
  </g>
  <g id="resetDef">
    <use xlink:href="#rim2" fill="#404040"><set attributeName="fill" to="#808080" begin="reset.mouseover" end="reset.mouseout"/></use>
  </g>
</defs>
<script type="application/ecmascript">
var viewWidth = 989;
var viewHeight = 357;
var sectionId = 'dynsection-0';
</script>
<script type="application/ecmascript" xlink:href="svg.min.js"/>
<svg id="graph" class="graph">
<g id="viewport">
<title>src/Partie.cpp</title>
<!-- Node1 -->
<g id="Node000001" class="node">
<title>Node1</title>
<g id="a_Node000001"><a xlink:title=" ">
<polygon fill="#999999" stroke="#666666" points="549,-349 467,-349 467,-330 549,-330 549,-349"/>
<text text-anchor="middle" x="508" y="-337" font-family="Helvetica,sans-Serif" font-size="10.00">src/Partie.cpp</text>
</a>
</g>
</g>
<!-- Node2 -->
<g id="Node000002" class="node">
<title>Node2</title>
<g id="a_Node000002"><a xlink:title=" ">
<polygon fill="#e0e0e0" stroke="#999999" points="64,-129 0,-129 0,-110 64,-110 64,-129"/>
<text text-anchor="middle" x="32" y="-117" font-family="Helvetica,sans-Serif" font-size="10.00">algorithm</text>
</a>
</g>
</g>
<!-- Node1&#45;&gt;Node2 -->
<g id="edge1_Node000001_Node000002" class="edge">
<title>Node1&#45;&gt;Node2</title>
<g id="a_edge1_Node000001_Node000002"><a xlink:title=" ">
<path fill="none" stroke="#63b8ff" d="M480.38,-329.92C454.39,-321.59 414.58,-308.17 381,-294 256.06,-241.29 112.86,-164.78 56.55,-134.04"/>
<polygon fill="#63b8ff" stroke="#63b8ff" points="58.12,-130.91 47.67,-129.17 54.76,-137.05 58.12,-130.91"/>
</a>
</g>
</g>
<!-- Node3 -->
<g id="Node000003" class="node">
<title>Node3</title>
<g id="a_Node000003"><a xlink:title=" ">
<polygon fill="#e0e0e0" stroke="#999999" points="981,-294 927,-294 927,-275 981,-275 981,-294"/>
<text text-anchor="middle" x="954" y="-282" font-family="Helvetica,sans-Serif" font-size="10.00">random</text>
</a>
</g>
</g>
<!-- Node1&#45;&gt;Node3 -->
<g id="edge2_Node000001_Node000003" class="edge">
<title>Node1&#45;&gt;Node3</title>
<g id="a_edge2_Node000001_Node000003"><a xlink:title=" ">
<path fill="none" stroke="#63b8ff" d="M549.28,-335.27C622.71,-329.23 780.78,-314.92 913,-294 914.25,-293.8 915.52,-293.59 916.81,-293.37"/>
<polygon fill="#63b8ff" stroke="#63b8ff" points="917.53,-296.8 926.72,-291.53 916.25,-289.91 917.53,-296.8"/>
</a>
</g>
</g>
<!-- Node4 -->
<g id="Node000004" class="node">
<title>Node4</title>
<g id="a_Node000004"><a xlink:title=" ">
<polygon fill="#e0e0e0" stroke="#999999" points="820.5,-74 773.5,-74 773.5,-55 820.5,-55 820.5,-74"/>
<text text-anchor="middle" x="797" y="-62" font-family="Helvetica,sans-Serif" font-size="10.00">vector</text>
</a>
</g>
</g>
<!-- Node1&#45;&gt;Node4 -->
<g id="edge3_Node000001_Node000004" class="edge">
<title>Node1&#45;&gt;Node4</title>
<g id="a_edge3_Node000001_Node000004"><a xlink:title=" ">
<path fill="none" stroke="#63b8ff" d="M549.1,-335.89C649.49,-328.39 899,-302.51 899,-230.5 899,-230.5 899,-230.5 899,-173.5 899,-129.56 853.82,-96.27 823.6,-78.92"/>
<polygon fill="#63b8ff" stroke="#63b8ff" points="825.21,-75.81 814.77,-74.05 821.84,-81.94 825.21,-75.81"/>
</a>
</g>
</g>
<!-- Node5 -->
<g id="Node000005" class="node">
<title>Node5</title>
<g id="a_Node000005"><a xlink:href="Partie_8hpp.html" target="_top" xlink:title=" ">
<polygon fill="white" stroke="#666666" points="509.5,-294 444.5,-294 444.5,-275 509.5,-275 509.5,-294"/>
<text text-anchor="middle" x="477" y="-282" font-family="Helvetica,sans-Serif" font-size="10.00">Partie.hpp</text>
</a>
</g>
</g>
<!-- Node1&#45;&gt;Node5 -->
<g id="edge4_Node000001_Node000005" class="edge">
<title>Node1&#45;&gt;Node5</title>
<g id="a_edge4_Node000001_Node000005"><a xlink:title=" ">
<path fill="none" stroke="#63b8ff" d="M502.88,-329.75C498.64,-322.49 492.47,-311.95 487.22,-302.98"/>
<polygon fill="#63b8ff" stroke="#63b8ff" points="490.09,-300.95 482.02,-294.09 484.05,-304.49 490.09,-300.95"/>
</a>
</g>
</g>
<!-- Node6 -->
<g id="Node000006" class="node">
<title>Node6</title>
<g id="a_Node000006"><a xlink:href="Ticket_8hpp.html" target="_top" xlink:title=" ">
<polygon fill="white" stroke="#666666" points="756.5,-129 689.5,-129 689.5,-110 756.5,-110 756.5,-129"/>
<text text-anchor="middle" x="723" y="-117" font-family="Helvetica,sans-Serif" font-size="10.00">Ticket.hpp</text>
</a>
</g>
</g>
<!-- Node1&#45;&gt;Node6 -->
<g id="edge38_Node000001_Node000006" class="edge">
<title>Node1&#45;&gt;Node6</title>
<g id="a_edge38_Node000001_Node000006"><a xlink:title=" ">
<path fill="none" stroke="#63b8ff" d="M516.43,-329.95C548.73,-297.2 664.97,-179.34 707.37,-136.34"/>
<polygon fill="#63b8ff" stroke="#63b8ff" points="709.87,-138.8 714.4,-129.22 704.88,-133.89 709.87,-138.8"/>
</a>
</g>
</g>
<!-- Node9 -->
<g id="Node000009" class="node">
<title>Node9</title>
<g id="a_Node000009"><a xlink:href="Joueur_8hpp.html" target="_top" xlink:title="Déclaration de la classe Joueur, participant à une partie des Aventuriers du Rail.">
<polygon fill="white" stroke="#666666" points="573,-239 505,-239 505,-220 573,-220 573,-239"/>
<text text-anchor="middle" x="539" y="-227" font-family="Helvetica,sans-Serif" font-size="10.00">Joueur.hpp</text>
</a>
</g>
</g>
<!-- Node1&#45;&gt;Node9 -->
<g id="edge37_Node000001_Node000009" class="edge">
<title>Node1&#45;&gt;Node9</title>
<g id="a_edge37_Node000001_Node000009"><a xlink:title=" ">
<path fill="none" stroke="#63b8ff" d="M510.54,-329.66C515.58,-312.09 526.96,-272.45 533.7,-248.95"/>
<polygon fill="#63b8ff" stroke="#63b8ff" points="537.12,-249.74 536.51,-239.16 530.39,-247.8 537.12,-249.74"/>
</a>
</g>
</g>
<!-- Node11 -->
<g id="Node000011" class="node">
<title>Node11</title>
<g id="a_Node000011"><a xlink:href="Train_8hpp.html" target="_top" xlink:title=" ">
<polygon fill="white" stroke="#666666" points="143.5,-129 82.5,-129 82.5,-110 143.5,-110 143.5,-129"/>
<text text-anchor="middle" x="113" y="-117" font-family="Helvetica,sans-Serif" font-size="10.00">Train.hpp</text>
</a>
</g>
</g>
<!-- Node1&#45;&gt;Node11 -->
<g id="edge39_Node000001_Node000011" class="edge">
<title>Node1&#45;&gt;Node11</title>
<g id="a_edge39_Node000001_Node000011"><a xlink:title=" ">
<path fill="none" stroke="#63b8ff" d="M490.94,-329.9C473.37,-321.01 445.19,-306.68 421,-294 329.41,-246.01 305.6,-235.6 216,-184 187.74,-167.73 155.88,-147.84 135.18,-134.71"/>
<polygon fill="#63b8ff" stroke="#63b8ff" points="136.82,-131.6 126.51,-129.19 133.06,-137.51 136.82,-131.6"/>
</a>
</g>
</g>
<!-- Node12 -->
<g id="Node000012" class="node">
<title>Node12</title>
<g id="a_Node000012"><a xlink:href="Plateau_8hpp.html" target="_top" xlink:title="Classe Plateau – Gère le plateau de jeu avec villes et voies ferrées.">
<polygon fill="white" stroke="#666666" points="449,-184 375,-184 375,-165 449,-165 449,-184"/>
<text text-anchor="middle" x="412" y="-172" font-family="Helvetica,sans-Serif" font-size="10.00">Plateau.hpp</text>
</a>
</g>
</g>
<!-- Node1&#45;&gt;Node12 -->
<g id="edge40_Node000001_Node000012" class="edge">
<title>Node1&#45;&gt;Node12</title>
<g id="a_edge40_Node000001_Node000012"><a xlink:title=" ">
<path fill="none" stroke="#63b8ff" d="M484.64,-329.92C468.48,-322.77 447.84,-311 436,-294 414.97,-263.82 411.49,-219.43 411.38,-194.43"/>
<polygon fill="#63b8ff" stroke="#63b8ff" points="414.88,-194.19 411.53,-184.14 407.88,-194.09 414.88,-194.19"/>
</a>
</g>
</g>
<!-- Node5&#45;&gt;Node4 -->
<g id="edge5_Node000005_Node000004" class="edge">
<title>Node5&#45;&gt;Node4</title>
<g id="a_edge5_Node000005_Node000004"><a xlink:title=" ">
<path fill="none" stroke="#63b8ff" d="M506.95,-274.87C564.52,-256.85 691.52,-210.07 766,-129 777.92,-116.03 786.22,-97.63 791.21,-83.97"/>
<polygon fill="#63b8ff" stroke="#63b8ff" points="794.62,-84.82 794.51,-74.23 787.99,-82.58 794.62,-84.82"/>
</a>
</g>
</g>
<!-- Node5&#45;&gt;Node6 -->
<g id="edge6_Node000005_Node000006" class="edge">
<title>Node5&#45;&gt;Node6</title>
<g id="a_edge6_Node000005_Node000006"><a xlink:title=" ">
<path fill="none" stroke="#63b8ff" d="M478.18,-274.71C480.21,-261.9 485.23,-237.69 496,-220 514.31,-189.93 522.31,-182.24 553,-165 574.49,-152.93 636.55,-138.37 679.43,-129.27"/>
<polygon fill="#63b8ff" stroke="#63b8ff" points="680.27,-132.67 689.34,-127.2 678.83,-125.82 680.27,-132.67"/>
</a>
</g>
</g>
<!-- Node5&#45;&gt;Node9 -->
<g id="edge10_Node000005_Node000009" class="edge">
<title>Node5&#45;&gt;Node9</title>
<g id="a_edge10_Node000005_Node000009"><a xlink:title=" ">
<path fill="none" stroke="#63b8ff" d="M486.96,-274.98C496.13,-267.15 509.94,-255.34 521.03,-245.86"/>
<polygon fill="#63b8ff" stroke="#63b8ff" points="523.53,-248.33 528.86,-239.17 518.98,-243.01 523.53,-248.33"/>
</a>
</g>
</g>
<!-- Node5&#45;&gt;Node11 -->
<g id="edge35_Node000005_Node000011" class="edge">
<title>Node5&#45;&gt;Node11</title>
<g id="a_edge35_Node000005_Node000011"><a xlink:title=" ">
<path fill="none" stroke="#63b8ff" d="M457.94,-274.97C398.01,-248.13 213.1,-165.32 141.62,-133.31"/>
<polygon fill="#63b8ff" stroke="#63b8ff" points="142.87,-130.04 132.31,-129.15 140,-136.43 142.87,-130.04"/>
</a>
</g>
</g>
<!-- Node5&#45;&gt;Node12 -->
<g id="edge36_Node000005_Node000012" class="edge">
<title>Node5&#45;&gt;Node12</title>
<g id="a_edge36_Node000005_Node000012"><a xlink:title=" ">
<path fill="none" stroke="#63b8ff" d="M471.68,-274.66C460.96,-256.85 436.6,-216.37 422.54,-193.01"/>
<polygon fill="#63b8ff" stroke="#63b8ff" points="425.37,-190.92 417.21,-184.16 419.37,-194.53 425.37,-190.92"/>
</a>
</g>
</g>
<!-- Node7 -->
<g id="Node000007" class="node">
<title>Node7</title>
<g id="a_Node000007"><a xlink:title=" ">
<polygon fill="#e0e0e0" stroke="#999999" points="687,-19 643,-19 643,0 687,0 687,-19"/>
<text text-anchor="middle" x="665" y="-7" font-family="Helvetica,sans-Serif" font-size="10.00">string</text>
</a>
</g>
</g>
<!-- Node6&#45;&gt;Node7 -->
<g id="edge7_Node000006_Node000007" class="edge">
<title>Node6&#45;&gt;Node7</title>
<g id="a_edge7_Node000006_Node000007"><a xlink:title=" ">
<path fill="none" stroke="#63b8ff" d="M721.62,-109.83C719.35,-97.16 714.02,-73.13 704,-55 698.18,-44.48 689.54,-34.28 681.86,-26.31"/>
<polygon fill="#63b8ff" stroke="#63b8ff" points="684.21,-23.71 674.65,-19.15 679.28,-28.68 684.21,-23.71"/>
</a>
</g>
</g>
<!-- Node8 -->
<g id="Node000008" class="node">
<title>Node8</title>
<g id="a_Node000008"><a xlink:href="Ville_8hpp.html" target="_top" xlink:title=" ">
<polygon fill="white" stroke="#666666" points="694.5,-74 635.5,-74 635.5,-55 694.5,-55 694.5,-74"/>
<text text-anchor="middle" x="665" y="-62" font-family="Helvetica,sans-Serif" font-size="10.00">Ville.hpp</text>
</a>
</g>
</g>
<!-- Node6&#45;&gt;Node8 -->
<g id="edge8_Node000006_Node000008" class="edge">
<title>Node6&#45;&gt;Node8</title>
<g id="a_edge8_Node000006_Node000008"><a xlink:title=" ">
<path fill="none" stroke="#63b8ff" d="M713.68,-109.98C705.19,-102.23 692.44,-90.58 682.12,-81.14"/>
<polygon fill="#63b8ff" stroke="#63b8ff" points="684.23,-78.33 674.49,-74.17 679.51,-83.5 684.23,-78.33"/>
</a>
</g>
</g>
<!-- Node8&#45;&gt;Node7 -->
<g id="edge9_Node000008_Node000007" class="edge">
<title>Node8&#45;&gt;Node7</title>
<g id="a_edge9_Node000008_Node000007"><a xlink:title=" ">
<path fill="none" stroke="#63b8ff" d="M665,-54.75C665,-47.8 665,-37.85 665,-29.13"/>
<polygon fill="#63b8ff" stroke="#63b8ff" points="668.5,-29.09 665,-19.09 661.5,-29.09 668.5,-29.09"/>
</a>
</g>
</g>
<!-- Node9&#45;&gt;Node4 -->
<g id="edge32_Node000009_Node000004" class="edge">
<title>Node9&#45;&gt;Node4</title>
<g id="a_edge32_Node000009_Node000004"><a xlink:title=" ">
<path fill="none" stroke="#63b8ff" d="M573.34,-221.56C621.96,-210.11 711.05,-182.97 766,-129 778.57,-116.65 786.79,-98.18 791.59,-84.33"/>
<polygon fill="#63b8ff" stroke="#63b8ff" points="795.04,-85.02 794.72,-74.43 788.37,-82.91 795.04,-85.02"/>
</a>
</g>
</g>
<!-- Node9&#45;&gt;Node6 -->
<g id="edge12_Node000009_Node000006" class="edge">
<title>Node9&#45;&gt;Node6</title>
<g id="a_edge12_Node000009_Node000006"><a xlink:title=" ">
<path fill="none" stroke="#63b8ff" d="M541.32,-219.71C545.4,-205.98 555.16,-179.54 573,-165 589.38,-151.65 641.26,-138.09 679.44,-129.51"/>
<polygon fill="#63b8ff" stroke="#63b8ff" points="680.3,-132.9 689.31,-127.33 678.79,-126.06 680.3,-132.9"/>
</a>
</g>
</g>
<!-- Node9&#45;&gt;Node7 -->
<g id="edge33_Node000009_Node000007" class="edge">
<title>Node9&#45;&gt;Node7</title>
<g id="a_edge33_Node000009_Node000007"><a xlink:title=" ">
<path fill="none" stroke="#63b8ff" d="M573.08,-224.49C641.64,-214.24 792.84,-179.93 830,-74 849.15,-19.4 750.63,-10.78 697.35,-10.03"/>
<polygon fill="#63b8ff" stroke="#63b8ff" points="697.05,-6.53 687.03,-9.97 697.02,-13.53 697.05,-6.53"/>
</a>
</g>
</g>
<!-- Node10 -->
<g id="Node000010" class="node">
<title>Node10</title>
<g id="a_Node000010"><a xlink:href="couleurEnum_8hpp.html" target="_top" xlink:title=" ">
<polygon fill="white" stroke="#666666" points="504.5,-74 403.5,-74 403.5,-55 504.5,-55 504.5,-74"/>
<text text-anchor="middle" x="454" y="-62" font-family="Helvetica,sans-Serif" font-size="10.00">couleurEnum.hpp</text>
</a>
</g>
</g>
<!-- Node9&#45;&gt;Node10 -->
<g id="edge11_Node000009_Node000010" class="edge">
<title>Node9&#45;&gt;Node10</title>
<g id="a_edge11_Node000009_Node000010"><a xlink:title=" ">
<path fill="none" stroke="#63b8ff" d="M537.16,-219.93C532.56,-199.66 519.19,-147.64 496,-110 489.41,-99.31 479.95,-89 471.68,-81"/>
<polygon fill="#63b8ff" stroke="#63b8ff" points="473.95,-78.34 464.24,-74.11 469.19,-83.47 473.95,-78.34"/>
</a>
</g>
</g>
<!-- Node9&#45;&gt;Node11 -->
<g id="edge13_Node000009_Node000011" class="edge">
<title>Node9&#45;&gt;Node11</title>
<g id="a_edge13_Node000009_Node000011"><a xlink:title=" ">
<path fill="none" stroke="#63b8ff" d="M504.7,-221.42C469.44,-213.75 413.17,-200.36 366,-184 346.26,-177.15 342.89,-171.41 323,-165 252.11,-142.15 229.77,-144.98 153.71,-129.32"/>
<polygon fill="#63b8ff" stroke="#63b8ff" points="154.16,-125.83 143.65,-127.2 152.72,-132.68 154.16,-125.83"/>
</a>
</g>
</g>
<!-- Node9&#45;&gt;Node12 -->
<g id="edge16_Node000009_Node000012" class="edge">
<title>Node9&#45;&gt;Node12</title>
<g id="a_edge16_Node000009_Node000012"><a xlink:title=" ">
<path fill="none" stroke="#63b8ff" d="M518.6,-219.98C497.98,-211.38 465.89,-197.99 442.31,-188.15"/>
<polygon fill="#63b8ff" stroke="#63b8ff" points="443.35,-184.79 432.78,-184.17 440.66,-191.25 443.35,-184.79"/>
</a>
</g>
</g>
<!-- Node20 -->
<g id="Node000020" class="node">
<title>Node20</title>
<g id="a_Node000020"><a xlink:title=" ">
<polygon fill="#e0e0e0" stroke="#999999" points="638.5,-184 581.5,-184 581.5,-165 638.5,-165 638.5,-184"/>
<text text-anchor="middle" x="610" y="-172" font-family="Helvetica,sans-Serif" font-size="10.00">ostream</text>
</a>
</g>
</g>
<!-- Node9&#45;&gt;Node20 -->
<g id="edge34_Node000009_Node000020" class="edge">
<title>Node9&#45;&gt;Node20</title>
<g id="a_edge34_Node000009_Node000020"><a xlink:title=" ">
<path fill="none" stroke="#63b8ff" d="M550.41,-219.98C561.11,-212 577.34,-199.88 590.16,-190.31"/>
<polygon fill="#63b8ff" stroke="#63b8ff" points="592.47,-192.96 598.39,-184.17 588.28,-187.35 592.47,-192.96"/>
</a>
</g>
</g>
<!-- Node11&#45;&gt;Node7 -->
<g id="edge14_Node000011_Node000007" class="edge">
<title>Node11&#45;&gt;Node7</title>
<g id="a_edge14_Node000011_Node000007"><a xlink:title=" ">
<path fill="none" stroke="#63b8ff" d="M143.76,-110.96C195.45,-98.42 303.13,-72.9 395,-55 480.54,-38.33 582.14,-22.7 632.85,-15.18"/>
<polygon fill="#63b8ff" stroke="#63b8ff" points="633.49,-18.62 642.87,-13.7 632.47,-11.7 633.49,-18.62"/>
</a>
</g>
</g>
<!-- Node11&#45;&gt;Node10 -->
<g id="edge15_Node000011_Node000010" class="edge">
<title>Node11&#45;&gt;Node10</title>
<g id="a_edge15_Node000011_Node000010"><a xlink:title=" ">
<path fill="none" stroke="#63b8ff" d="M143.62,-111.62C146.45,-111.05 149.27,-110.5 152,-110 235.17,-94.83 331.95,-81.28 393.09,-73.23"/>
<polygon fill="#63b8ff" stroke="#63b8ff" points="393.87,-76.66 403.33,-71.89 392.96,-69.72 393.87,-76.66"/>
</a>
</g>
</g>
<!-- Node12&#45;&gt;Node2 -->
<g id="edge26_Node000012_Node000002" class="edge">
<title>Node12&#45;&gt;Node2</title>
<g id="a_edge26_Node000012_Node000002"><a xlink:title=" ">
<path fill="none" stroke="#63b8ff" d="M375,-169.55C314.3,-162.87 189.62,-148.33 74.25,-129.1"/>
<polygon fill="#63b8ff" stroke="#63b8ff" points="74.63,-125.62 64.19,-127.41 73.47,-132.52 74.63,-125.62"/>
</a>
</g>
</g>
<!-- Node12&#45;&gt;Node6 -->
<g id="edge30_Node000012_Node000006" class="edge">
<title>Node12&#45;&gt;Node6</title>
<g id="a_edge30_Node000012_Node000006"><a xlink:title=" ">
<path fill="none" stroke="#63b8ff" d="M449.04,-167.33C499.96,-158.81 594.46,-142.94 675,-129 676.46,-128.75 677.94,-128.49 679.44,-128.23"/>
<polygon fill="#63b8ff" stroke="#63b8ff" points="680.19,-131.65 689.44,-126.48 678.98,-124.76 680.19,-131.65"/>
</a>
</g>
</g>
<!-- Node12&#45;&gt;Node8 -->
<g id="edge23_Node000012_Node000008" class="edge">
<title>Node12&#45;&gt;Node8</title>
<g id="a_edge23_Node000012_Node000008"><a xlink:title=" ">
<path fill="none" stroke="#63b8ff" d="M449.01,-167.32C512.17,-156.64 634.68,-135.26 642,-129 654.94,-117.94 660.6,-99 663.08,-84.68"/>
<polygon fill="#63b8ff" stroke="#63b8ff" points="666.59,-84.79 664.46,-74.42 659.65,-83.86 666.59,-84.79"/>
</a>
</g>
</g>
<!-- Node12&#45;&gt;Node11 -->
<g id="edge31_Node000012_Node000011" class="edge">
<title>Node12&#45;&gt;Node11</title>
<g id="a_edge31_Node000012_Node000011"><a xlink:title=" ">
<path fill="none" stroke="#63b8ff" d="M374.9,-167.25C314.05,-156.98 196.19,-137.02 153.55,-129.18"/>
<polygon fill="#63b8ff" stroke="#63b8ff" points="154.11,-125.73 143.63,-127.31 152.81,-132.61 154.11,-125.73"/>
</a>
</g>
</g>
<!-- Node13 -->
<g id="Node000013" class="node">
<title>Node13</title>
<g id="a_Node000013"><a xlink:href="VoieFerree_8hpp.html" target="_top" xlink:title="Classe VoieFerree – Représente une voie ferrée du plateau.">
<polygon fill="white" stroke="#666666" points="632.5,-129 543.5,-129 543.5,-110 632.5,-110 632.5,-129"/>
<text text-anchor="middle" x="588" y="-117" font-family="Helvetica,sans-Serif" font-size="10.00">VoieFerree.hpp</text>
</a>
</g>
</g>
<!-- Node12&#45;&gt;Node13 -->
<g id="edge17_Node000012_Node000013" class="edge">
<title>Node12&#45;&gt;Node13</title>
<g id="a_edge17_Node000012_Node000013"><a xlink:title=" ">
<path fill="none" stroke="#63b8ff" d="M440.28,-164.98C469.95,-156.05 516.79,-141.94 549.75,-132.02"/>
<polygon fill="#63b8ff" stroke="#63b8ff" points="550.93,-135.32 559.5,-129.08 548.92,-128.61 550.93,-135.32"/>
</a>
</g>
</g>
<!-- Node15 -->
<g id="Node000015" class="node">
<title>Node15</title>
<g id="a_Node000015"><a xlink:title=" ">
<polygon fill="#e0e0e0" stroke="#999999" points="279,-129 235,-129 235,-110 279,-110 279,-129"/>
<text text-anchor="middle" x="257" y="-117" font-family="Helvetica,sans-Serif" font-size="10.00">limits</text>
</a>
</g>
</g>
<!-- Node12&#45;&gt;Node15 -->
<g id="edge24_Node000012_Node000015" class="edge">
<title>Node12&#45;&gt;Node15</title>
<g id="a_edge24_Node000012_Node000015"><a xlink:title=" ">
<path fill="none" stroke="#63b8ff" d="M387.1,-164.98C360.46,-155.88 318.12,-141.4 289.02,-131.45"/>
<polygon fill="#63b8ff" stroke="#63b8ff" points="289.92,-128.06 279.33,-128.13 287.66,-134.68 289.92,-128.06"/>
</a>
</g>
</g>
<!-- Node16 -->
<g id="Node000016" class="node">
<title>Node16</title>
<g id="a_Node000016"><a xlink:title=" ">
<polygon fill="#e0e0e0" stroke="#999999" points="335,-129 297,-129 297,-110 335,-110 335,-129"/>
<text text-anchor="middle" x="316" y="-117" font-family="Helvetica,sans-Serif" font-size="10.00">map</text>
</a>
</g>
</g>
<!-- Node12&#45;&gt;Node16 -->
<g id="edge25_Node000012_Node000016" class="edge">
<title>Node12&#45;&gt;Node16</title>
<g id="a_edge25_Node000012_Node000016"><a xlink:title=" ">
<path fill="none" stroke="#63b8ff" d="M396.58,-164.98C381.55,-156.69 358.46,-143.94 340.84,-134.22"/>
<polygon fill="#63b8ff" stroke="#63b8ff" points="342.15,-130.94 331.7,-129.17 338.77,-137.07 342.15,-130.94"/>
</a>
</g>
</g>
<!-- Node17 -->
<g id="Node000017" class="node">
<title>Node17</title>
<g id="a_Node000017"><a xlink:title=" ">
<polygon fill="#e0e0e0" stroke="#999999" points="413,-129 353,-129 353,-110 413,-110 413,-129"/>
<text text-anchor="middle" x="383" y="-117" font-family="Helvetica,sans-Serif" font-size="10.00">iostream</text>
</a>
</g>
</g>
<!-- Node12&#45;&gt;Node17 -->
<g id="edge27_Node000012_Node000017" class="edge">
<title>Node12&#45;&gt;Node17</title>
<g id="a_edge27_Node000012_Node000017"><a xlink:title=" ">
<path fill="none" stroke="#63b8ff" d="M407.21,-164.75C403.24,-157.49 397.47,-146.95 392.57,-137.98"/>
<polygon fill="#63b8ff" stroke="#63b8ff" points="395.57,-136.18 387.7,-129.09 389.43,-139.54 395.57,-136.18"/>
</a>
</g>
</g>
<!-- Node18 -->
<g id="Node000018" class="node">
<title>Node18</title>
<g id="a_Node000018"><a xlink:title=" ">
<polygon fill="#e0e0e0" stroke="#999999" points="487,-129 431,-129 431,-110 487,-110 487,-129"/>
<text text-anchor="middle" x="459" y="-117" font-family="Helvetica,sans-Serif" font-size="10.00">sstream</text>
</a>
</g>
</g>
<!-- Node12&#45;&gt;Node18 -->
<g id="edge28_Node000012_Node000018" class="edge">
<title>Node12&#45;&gt;Node18</title>
<g id="a_edge28_Node000012_Node000018"><a xlink:title=" ">
<path fill="none" stroke="#63b8ff" d="M419.76,-164.75C426.47,-157.18 436.34,-146.05 444.51,-136.84"/>
<polygon fill="#63b8ff" stroke="#63b8ff" points="447.37,-138.89 451.38,-129.09 442.13,-134.25 447.37,-138.89"/>
</a>
</g>
</g>
<!-- Node19 -->
<g id="Node000019" class="node">
<title>Node19</title>
<g id="a_Node000019"><a xlink:title=" ">
<polygon fill="#e0e0e0" stroke="#999999" points="216.5,-129 161.5,-129 161.5,-110 216.5,-110 216.5,-129"/>
<text text-anchor="middle" x="189" y="-117" font-family="Helvetica,sans-Serif" font-size="10.00">fstream</text>
</a>
</g>
</g>
<!-- Node12&#45;&gt;Node19 -->
<g id="edge29_Node000012_Node000019" class="edge">
<title>Node12&#45;&gt;Node19</title>
<g id="a_edge29_Node000012_Node000019"><a xlink:title=" ">
<path fill="none" stroke="#63b8ff" d="M376.17,-164.98C335.11,-155.23 268.13,-139.31 226.41,-129.39"/>
<polygon fill="#63b8ff" stroke="#63b8ff" points="227.18,-125.98 216.64,-127.07 225.56,-132.79 227.18,-125.98"/>
</a>
</g>
</g>
<!-- Node13&#45;&gt;Node4 -->
<g id="edge19_Node000013_Node000004" class="edge">
<title>Node13&#45;&gt;Node4</title>
<g id="a_edge19_Node000013_Node000004"><a xlink:title=" ">
<path fill="none" stroke="#63b8ff" d="M621.58,-109.98C660.56,-100.1 724.47,-83.89 763.44,-74.01"/>
<polygon fill="#63b8ff" stroke="#63b8ff" points="764.42,-77.37 773.25,-71.52 762.7,-70.59 764.42,-77.37"/>
</a>
</g>
</g>
<!-- Node13&#45;&gt;Node7 -->
<g id="edge18_Node000013_Node000007" class="edge">
<title>Node13&#45;&gt;Node7</title>
<g id="a_edge18_Node000013_Node000007"><a xlink:title=" ">
<path fill="none" stroke="#63b8ff" d="M592.88,-109.59C599.89,-97.05 613.46,-73.62 627,-55 634.17,-45.14 642.97,-34.75 650.29,-26.49"/>
<polygon fill="#63b8ff" stroke="#63b8ff" points="652.91,-28.8 657.01,-19.03 647.71,-24.12 652.91,-28.8"/>
</a>
</g>
</g>
<!-- Node13&#45;&gt;Node8 -->
<g id="edge21_Node000013_Node000008" class="edge">
<title>Node13&#45;&gt;Node8</title>
<g id="a_edge21_Node000013_Node000008"><a xlink:title=" ">
<path fill="none" stroke="#63b8ff" d="M600.37,-109.98C612.09,-101.92 629.92,-89.65 643.89,-80.03"/>
<polygon fill="#63b8ff" stroke="#63b8ff" points="646.15,-82.72 652.4,-74.17 642.18,-76.96 646.15,-82.72"/>
</a>
</g>
</g>
<!-- Node13&#45;&gt;Node10 -->
<g id="edge22_Node000013_Node000010" class="edge">
<title>Node13&#45;&gt;Node10</title>
<g id="a_edge22_Node000013_Node000010"><a xlink:title=" ">
<path fill="none" stroke="#63b8ff" d="M566.47,-109.98C544.53,-101.3 510.26,-87.75 485.31,-77.88"/>
<polygon fill="#63b8ff" stroke="#63b8ff" points="486.51,-74.59 475.92,-74.17 483.93,-81.1 486.51,-74.59"/>
</a>
</g>
</g>
<!-- Node14 -->
<g id="Node000014" class="node">
<title>Node14</title>
<g id="a_Node000014"><a xlink:title=" ">
<polygon fill="#e0e0e0" stroke="#999999" points="579,-74 523,-74 523,-55 579,-55 579,-74"/>
<text text-anchor="middle" x="551" y="-62" font-family="Helvetica,sans-Serif" font-size="10.00">assert.h</text>
</a>
</g>
</g>
<!-- Node13&#45;&gt;Node14 -->
<g id="edge20_Node000013_Node000014" class="edge">
<title>Node13&#45;&gt;Node14</title>
<g id="a_edge20_Node000013_Node000014"><a xlink:title=" ">
<path fill="none" stroke="#63b8ff" d="M581.89,-109.75C576.72,-102.34 569.15,-91.5 562.81,-82.41"/>
<polygon fill="#63b8ff" stroke="#63b8ff" points="565.59,-80.29 557,-74.09 559.85,-84.29 565.59,-80.29"/>
</a>
</g>
</g>
</g>
</svg>

<g id="navigator" transform="translate(0 0)" fill="#404254">
  <rect fill="#f2f5e9" fill-opacity="0.5" stroke="#606060" stroke-width=".5" x="0" y="0" width="60" height="60"/>
  <use id="zoomplus" xlink:href="#zoomPlus" x="17" y="9" onmousedown="handleZoom(evt,'in')"/>
  <use id="zoomminus" xlink:href="#zoomMin" x="42" y="9" onmousedown="handleZoom(evt,'out')"/>
  <use id="reset" xlink:href="#resetDef" x="30" y="36" onmousedown="handleReset()"/>
   <use id="arrowup" xlink:href="#arrowUp" x="0" y="0" onmousedown="handlePan(0,-1)"/>
  <use id="arrowright" xlink:href="#arrowRight" x="0" y="0" onmousedown="handlePan(1,0)"/>
  <use id="arrowdown" xlink:href="#arrowDown" x="0" y="0" onmousedown="handlePan(0,1)"/>
  <use id="arrowleft" xlink:href="#arrowLeft" x="0" y="0" onmousedown="handlePan(-1,0)"/>
</g>
<svg viewBox="0 0 15 15" width="100%" height="30px" preserveAspectRatio="xMaxYMin meet">
 <g id="arrow_out" transform="scale(0.3 0.3)">
  <a xlink:href="Partie_8cpp__incl_org.svg" target="_base">
   <rect id="button" ry="5" rx="5" y="6" x="6" height="38" width="38"
        fill="#f2f5e9" fill-opacity="0.5" stroke="#606060" stroke-width="1.0"/>
   <path id="arrow"
     d="M 11.500037,31.436501 C 11.940474,20.09759 22.043105,11.32322 32.158766,21.979434 L 37.068811,17.246167 C 37.068811,17.246167 37.088388,32 37.088388,32 L 22.160133,31.978069 C 22.160133,31.978069 26.997745,27.140456 26.997745,27.140456 C 18.528582,18.264221 13.291696,25.230495 11.500037,31.436501 z"
     style="fill:#404040;"/>
  </a>
 </g>
</svg>

<style type='text/css'>
<![CDATA[
[data-mouse-over-selected='false'] { opacity: 0.7; }
[data-mouse-over-selected='true']  { opacity: 1.0; }
]]>
</style>
<script type="application/ecmascript"><![CDATA[
document.addEventListener('DOMContentLoaded', (event) => {
  highlightEdges();
  highlightAdjacentNodes();
});
]]></script>
</svg>
