<?xml version="1.0" encoding="UTF-8" standalone="no"?>
<!DOCTYPE svg PUBLIC "-//W3C//DTD SVG 1.1//EN"
 "http://www.w3.org/Graphics/SVG/1.1/DTD/svg11.dtd">
<!-- Generated by graphviz version 2.43.0 (0)
 -->
<!-- Title: include/Plateau.hpp Pages: 1 -->
<svg width="428pt" height="192pt"
 viewBox="0.00 0.00 427.50 192.00" xmlns="http://www.w3.org/2000/svg" xmlns:xlink="http://www.w3.org/1999/xlink">

<svg id="main" version="1.1" xmlns="http://www.w3.org/2000/svg" xmlns:xlink="http://www.w3.org/1999/xlink" xml:space="preserve" onload="init(evt)">
<style type="text/css"><![CDATA[
.node, .edge {opacity: 0.7;}
.node.selected, .edge.selected {opacity: 1;}
.edge:hover path { stroke: red; }
.edge:hover polygon { stroke: red; fill: red; }
]]></style>
<script type="application/ecmascript" xlink:href="svg.min.js"/>
<svg id="graph" class="graph">
<g id="graph0" class="graph" transform="scale(1 1) rotate(0) translate(4 188)">
<title>include/Plateau.hpp</title>
<!-- Node1 -->
<g id="Node000001" class="node">
<title>Node1</title>
<g id="a_Node000001"><a xlink:title="Classe Plateau – Gère le plateau de jeu avec villes et voies ferrées.">
<polygon fill="#999999" stroke="#666666" points="275.5,-184 162.5,-184 162.5,-165 275.5,-165 275.5,-184"/>
<text text-anchor="middle" x="219" y="-172" font-family="Helvetica,sans-Serif" font-size="10.00">include/Plateau.hpp</text>
</a>
</g>
</g>
<!-- Node2 -->
<g id="Node000002" class="node">
<title>Node2</title>
<g id="a_Node000002"><a xlink:href="Joueur_8hpp.html" target="_top" xlink:title="Déclaration de la classe Joueur, participant à une partie des Aventuriers du Rail.">
<polygon fill="white" stroke="#666666" points="272,-129 166,-129 166,-110 272,-110 272,-129"/>
<text text-anchor="middle" x="219" y="-117" font-family="Helvetica,sans-Serif" font-size="10.00">include/Joueur.hpp</text>
</a>
</g>
</g>
<!-- Node1&#45;&gt;Node2 -->
<g id="edge1_Node000001_Node000002" class="edge">
<title>Node1&#45;&gt;Node2</title>
<g id="a_edge1_Node000001_Node000002"><a xlink:title=" ">
<path fill="none" stroke="#63b8ff" d="M219,-154.66C219,-145.93 219,-135.99 219,-129.09"/>
<polygon fill="#63b8ff" stroke="#63b8ff" points="215.5,-154.75 219,-164.75 222.5,-154.75 215.5,-154.75"/>
</a>
</g>
</g>
<!-- Node3 -->
<g id="Node000003" class="node">
<title>Node3</title>
<g id="a_Node000003"><a xlink:href="Partie_8hpp.html" target="_top" xlink:title=" ">
<polygon fill="white" stroke="#666666" points="191,-74 87,-74 87,-55 191,-55 191,-74"/>
<text text-anchor="middle" x="139" y="-62" font-family="Helvetica,sans-Serif" font-size="10.00">include/Partie.hpp</text>
</a>
</g>
</g>
<!-- Node1&#45;&gt;Node3 -->
<g id="edge10_Node000001_Node000003" class="edge">
<title>Node1&#45;&gt;Node3</title>
<g id="a_edge10_Node000001_Node000003"><a xlink:title=" ">
<path fill="none" stroke="#63b8ff" d="M192.55,-160.01C180.12,-152.44 166.07,-141.91 157,-129 145.01,-111.93 140.97,-87.04 139.64,-74.07"/>
<polygon fill="#63b8ff" stroke="#63b8ff" points="190.81,-163.05 201.22,-164.99 194.29,-156.98 190.81,-163.05"/>
</a>
</g>
</g>
<!-- Node4 -->
<g id="Node000004" class="node">
<title>Node4</title>
<g id="a_Node000004"><a xlink:href="Partie_8cpp.html" target="_top" xlink:title=" ">
<polygon fill="white" stroke="#666666" points="82,-19 0,-19 0,0 82,0 82,-19"/>
<text text-anchor="middle" x="41" y="-7" font-family="Helvetica,sans-Serif" font-size="10.00">src/Partie.cpp</text>
</a>
</g>
</g>
<!-- Node1&#45;&gt;Node4 -->
<g id="edge12_Node000001_Node000004" class="edge">
<title>Node1&#45;&gt;Node4</title>
<g id="a_edge12_Node000001_Node000004"><a xlink:title=" ">
<path fill="none" stroke="#63b8ff" d="M184.57,-161.05C147.95,-146.03 90.98,-117.29 59,-74 46.61,-57.23 42.74,-32.21 41.54,-19.15"/>
<polygon fill="#63b8ff" stroke="#63b8ff" points="183.73,-164.48 194.32,-164.92 186.32,-157.98 183.73,-164.48"/>
</a>
</g>
</g>
<!-- Node7 -->
<g id="Node000007" class="node">
<title>Node7</title>
<g id="a_Node000007"><a xlink:href="Joueur_8cpp.html" target="_top" xlink:title="Implémentation de la classe Joueur.">
<polygon fill="white" stroke="#666666" points="369,-74 285,-74 285,-55 369,-55 369,-74"/>
<text text-anchor="middle" x="327" y="-62" font-family="Helvetica,sans-Serif" font-size="10.00">src/Joueur.cpp</text>
</a>
</g>
</g>
<!-- Node1&#45;&gt;Node7 -->
<g id="edge11_Node000001_Node000007" class="edge">
<title>Node1&#45;&gt;Node7</title>
<g id="a_edge11_Node000001_Node000007"><a xlink:title=" ">
<path fill="none" stroke="#63b8ff" d="M242.31,-159.36C254.56,-151.31 269.4,-140.55 281,-129 298.36,-111.71 314.05,-87.34 321.84,-74.4"/>
<polygon fill="#63b8ff" stroke="#63b8ff" points="240.09,-156.62 233.54,-164.95 243.85,-162.53 240.09,-156.62"/>
</a>
</g>
</g>
<!-- Node8 -->
<g id="Node000008" class="node">
<title>Node8</title>
<g id="a_Node000008"><a xlink:href="Plateau_8cpp.html" target="_top" xlink:title=" ">
<polygon fill="white" stroke="#666666" points="419.5,-129 328.5,-129 328.5,-110 419.5,-110 419.5,-129"/>
<text text-anchor="middle" x="374" y="-117" font-family="Helvetica,sans-Serif" font-size="10.00">src/Plateau.cpp</text>
</a>
</g>
</g>
<!-- Node1&#45;&gt;Node8 -->
<g id="edge13_Node000001_Node000008" class="edge">
<title>Node1&#45;&gt;Node8</title>
<g id="a_edge13_Node000001_Node000008"><a xlink:title=" ">
<path fill="none" stroke="#63b8ff" d="M253.6,-161.67C282.5,-151.79 323.03,-137.93 348.9,-129.08"/>
<polygon fill="#63b8ff" stroke="#63b8ff" points="252.23,-158.44 243.9,-164.98 254.5,-165.06 252.23,-158.44"/>
</a>
</g>
</g>
<!-- Node2&#45;&gt;Node3 -->
<g id="edge2_Node000002_Node000003" class="edge">
<title>Node2&#45;&gt;Node3</title>
<g id="a_edge2_Node000002_Node000003"><a xlink:title=" ">
<path fill="none" stroke="#63b8ff" d="M197.75,-104.42C183.24,-94.81 164.46,-82.37 152.09,-74.17"/>
<polygon fill="#63b8ff" stroke="#63b8ff" points="195.88,-107.38 206.15,-109.98 199.74,-101.54 195.88,-107.38"/>
</a>
</g>
</g>
<!-- Node2&#45;&gt;Node4 -->
<g id="edge7_Node000002_Node000004" class="edge">
<title>Node2&#45;&gt;Node4</title>
<g id="a_edge7_Node000002_Node000004"><a xlink:title=" ">
<path fill="none" stroke="#63b8ff" d="M155.84,-108.94C129.63,-102.49 100.22,-91.77 78,-74 59.66,-59.34 48.57,-32.95 43.78,-19.26"/>
<polygon fill="#63b8ff" stroke="#63b8ff" points="155.18,-112.38 165.71,-111.21 156.75,-105.56 155.18,-112.38"/>
</a>
</g>
</g>
<!-- Node5 -->
<g id="Node000005" class="node">
<title>Node5</title>
<g id="a_Node000005"><a xlink:href="gui__main_8cpp.html" target="_top" xlink:title=" ">
<polygon fill="white" stroke="#666666" points="199.5,-19 100.5,-19 100.5,0 199.5,0 199.5,-19"/>
<text text-anchor="middle" x="150" y="-7" font-family="Helvetica,sans-Serif" font-size="10.00">src/gui_main.cpp</text>
</a>
</g>
</g>
<!-- Node2&#45;&gt;Node5 -->
<g id="edge8_Node000002_Node000005" class="edge">
<title>Node2&#45;&gt;Node5</title>
<g id="a_edge8_Node000002_Node000005"><a xlink:title=" ">
<path fill="none" stroke="#63b8ff" d="M216.2,-99.75C213.57,-86.46 208.69,-68.65 200,-55 190.51,-40.1 174.66,-27.21 163.35,-19.19"/>
<polygon fill="#63b8ff" stroke="#63b8ff" points="212.76,-100.4 217.91,-109.65 219.66,-99.2 212.76,-100.4"/>
</a>
</g>
</g>
<!-- Node6 -->
<g id="Node000006" class="node">
<title>Node6</title>
<g id="a_Node000006"><a xlink:href="main_8cpp.html" target="_top" xlink:title=" ">
<polygon fill="white" stroke="#666666" points="296.5,-19 217.5,-19 217.5,0 296.5,0 296.5,-19"/>
<text text-anchor="middle" x="257" y="-7" font-family="Helvetica,sans-Serif" font-size="10.00">src/main.cpp</text>
</a>
</g>
</g>
<!-- Node2&#45;&gt;Node6 -->
<g id="edge9_Node000002_Node000006" class="edge">
<title>Node2&#45;&gt;Node6</title>
<g id="a_edge9_Node000002_Node000006"><a xlink:title=" ">
<path fill="none" stroke="#63b8ff" d="M225.47,-100.12C233.76,-76.56 247.8,-36.66 253.95,-19.16"/>
<polygon fill="#63b8ff" stroke="#63b8ff" points="222.13,-99.07 222.11,-109.66 228.73,-101.39 222.13,-99.07"/>
</a>
</g>
</g>
<!-- Node2&#45;&gt;Node7 -->
<g id="edge6_Node000002_Node000007" class="edge">
<title>Node2&#45;&gt;Node7</title>
<g id="a_edge6_Node000002_Node000007"><a xlink:title=" ">
<path fill="none" stroke="#63b8ff" d="M245.49,-105.5C265.36,-95.75 292,-82.68 309.33,-74.17"/>
<polygon fill="#63b8ff" stroke="#63b8ff" points="243.79,-102.44 236.35,-109.98 246.87,-108.72 243.79,-102.44"/>
</a>
</g>
</g>
<!-- Node3&#45;&gt;Node4 -->
<g id="edge3_Node000003_Node000004" class="edge">
<title>Node3&#45;&gt;Node4</title>
<g id="a_edge3_Node000003_Node000004"><a xlink:title=" ">
<path fill="none" stroke="#63b8ff" d="M113.97,-49.97C96.06,-40.28 72.47,-27.52 57.03,-19.17"/>
<polygon fill="#63b8ff" stroke="#63b8ff" points="112.79,-53.31 123.25,-54.98 116.12,-47.15 112.79,-53.31"/>
</a>
</g>
</g>
<!-- Node3&#45;&gt;Node5 -->
<g id="edge4_Node000003_Node000005" class="edge">
<title>Node3&#45;&gt;Node5</title>
<g id="a_edge4_Node000003_Node000005"><a xlink:title=" ">
<path fill="none" stroke="#63b8ff" d="M142.85,-44.95C144.68,-36.15 146.77,-26.06 148.22,-19.09"/>
<polygon fill="#63b8ff" stroke="#63b8ff" points="139.42,-44.25 140.82,-54.75 146.28,-45.67 139.42,-44.25"/>
</a>
</g>
</g>
<!-- Node3&#45;&gt;Node6 -->
<g id="edge5_Node000003_Node000006" class="edge">
<title>Node3&#45;&gt;Node6</title>
<g id="a_edge5_Node000003_Node000006"><a xlink:title=" ">
<path fill="none" stroke="#63b8ff" d="M167.35,-50.77C189.12,-40.99 218.59,-27.75 237.7,-19.17"/>
<polygon fill="#63b8ff" stroke="#63b8ff" points="165.65,-47.69 157.96,-54.98 168.51,-54.08 165.65,-47.69"/>
</a>
</g>
</g>
</g>
</svg>
</svg>

<style type='text/css'>
<![CDATA[
[data-mouse-over-selected='false'] { opacity: 0.7; }
[data-mouse-over-selected='true']  { opacity: 1.0; }
]]>
</style>
<script type="application/ecmascript"><![CDATA[
document.addEventListener('DOMContentLoaded', (event) => {
  highlightEdges();
  highlightAdjacentNodes();
});
]]></script>
</svg>
