<?xml version="1.0" encoding="UTF-8" standalone="no"?>
<!DOCTYPE svg PUBLIC "-//W3C//DTD SVG 1.1//EN"
 "http://www.w3.org/Graphics/SVG/1.1/DTD/svg11.dtd">
<!-- Generated by graphviz version 2.43.0 (0)
 -->
<!-- Title: src/Plateau.cpp Pages: 1 -->
<!--zoomable 247 -->

<svg id="main" version="1.1" xmlns="http://www.w3.org/2000/svg" xmlns:xlink="http://www.w3.org/1999/xlink" xml:space="preserve" onload="init(evt)">
<style type="text/css"><![CDATA[
.node, .edge {opacity: 0.7;}
.node.selected, .edge.selected {opacity: 1;}
.edge:hover path { stroke: red; }
.edge:hover polygon { stroke: red; fill: red; }
]]></style>

<defs>
  <circle id="rim" cx="0" cy="0" r="7"/>
  <circle id="rim2" cx="0" cy="0" r="3.5"/>
  <g id="zoomPlus">
    <use xlink:href="#rim" fill="#404040"><set attributeName="fill" to="#808080" begin="zoomplus.mouseover" end="zoomplus.mouseout"/></use>
    <path d="M-4,0h8M0,-4v8" fill="none" stroke="white" stroke-width="1.5" pointer-events="none"/>
  </g>
  <g id="zoomMin">
    <use xlink:href="#rim" fill="#404040"><set attributeName="fill" to="#808080" begin="zoomminus.mouseover" end="zoomminus.mouseout"/></use>
    <path d="M-4,0h8" fill="none" stroke="white" stroke-width="1.5" pointer-events="none"/>
  </g>
  <g id="arrowUp" transform="translate(30 24)">
    <use xlink:href="#rim"/>
    <path pointer-events="none" fill="none" stroke="white" stroke-width="1.5" d="M0,-3.0v7 M-2.5,-0.5L0,-3.0L2.5,-0.5"/>
  </g>
  <g id="arrowRight" transform="rotate(90) translate(36 -43)">
    <use xlink:href="#rim"/>
    <path pointer-events="none" fill="none" stroke="white" stroke-width="1.5" d="M0,-3.0v7 M-2.5,-0.5L0,-3.0L2.5,-0.5"/>
  </g>
  <g id="arrowDown" transform="rotate(180) translate(-30 -48)">
    <use xlink:href="#rim"/>
    <path pointer-events="none" fill="none" stroke="white" stroke-width="1.5" d="M0,-3.0v7 M-2.5,-0.5L0,-3.0L2.5,-0.5"/>
  </g>
  <g id="arrowLeft" transform="rotate(270) translate(-36 17)">
    <use xlink:href="#rim"/>
    <path pointer-events="none" fill="none" stroke="white" stroke-width="1.5" d="M0,-3.0v7 M-2.5,-0.5L0,-3.0L2.5,-0.5"/>
  </g>
  <g id="resetDef">
    <use xlink:href="#rim2" fill="#404040"><set attributeName="fill" to="#808080" begin="reset.mouseover" end="reset.mouseout"/></use>
  </g>
</defs>
<script type="application/ecmascript">
var viewWidth = 726;
var viewHeight = 247;
var sectionId = 'dynsection-0';
</script>
<script type="application/ecmascript" xlink:href="svg.min.js"/>
<svg id="graph" class="graph">
<g id="viewport">
<title>src/Plateau.cpp</title>
<!-- Node1 -->
<g id="Node000001" class="node">
<title>Node1</title>
<g id="a_Node000001"><a xlink:title=" ">
<polygon fill="#999999" stroke="#666666" points="407,-239 316,-239 316,-220 407,-220 407,-239"/>
<text text-anchor="middle" x="361.5" y="-227" font-family="Helvetica,sans-Serif" font-size="10.00">src/Plateau.cpp</text>
</a>
</g>
</g>
<!-- Node2 -->
<g id="Node000002" class="node">
<title>Node2</title>
<g id="a_Node000002"><a xlink:href="Plateau_8hpp.html" target="_top" xlink:title="Classe Plateau – Gère le plateau de jeu avec villes et voies ferrées.">
<polygon fill="white" stroke="#666666" points="398.5,-184 324.5,-184 324.5,-165 398.5,-165 398.5,-184"/>
<text text-anchor="middle" x="361.5" y="-172" font-family="Helvetica,sans-Serif" font-size="10.00">Plateau.hpp</text>
</a>
</g>
</g>
<!-- Node1&#45;&gt;Node2 -->
<g id="edge1_Node000001_Node000002" class="edge">
<title>Node1&#45;&gt;Node2</title>
<g id="a_edge1_Node000001_Node000002"><a xlink:title=" ">
<path fill="none" stroke="#63b8ff" d="M361.5,-219.75C361.5,-212.8 361.5,-202.85 361.5,-194.13"/>
<polygon fill="#63b8ff" stroke="#63b8ff" points="365,-194.09 361.5,-184.09 358,-194.09 365,-194.09"/>
</a>
</g>
</g>
<!-- Node3 -->
<g id="Node000003" class="node">
<title>Node3</title>
<g id="a_Node000003"><a xlink:href="VoieFerree_8hpp.html" target="_top" xlink:title="Classe VoieFerree – Représente une voie ferrée du plateau.">
<polygon fill="white" stroke="#666666" points="213,-129 124,-129 124,-110 213,-110 213,-129"/>
<text text-anchor="middle" x="168.5" y="-117" font-family="Helvetica,sans-Serif" font-size="10.00">VoieFerree.hpp</text>
</a>
</g>
</g>
<!-- Node2&#45;&gt;Node3 -->
<g id="edge2_Node000002_Node000003" class="edge">
<title>Node2&#45;&gt;Node3</title>
<g id="a_edge2_Node000002_Node000003"><a xlink:title=" ">
<path fill="none" stroke="#63b8ff" d="M330.49,-164.98C297.67,-155.97 245.7,-141.7 209.51,-131.76"/>
<polygon fill="#63b8ff" stroke="#63b8ff" points="210.32,-128.36 199.75,-129.08 208.47,-135.11 210.32,-128.36"/>
</a>
</g>
</g>
<!-- Node7 -->
<g id="Node000007" class="node">
<title>Node7</title>
<g id="a_Node000007"><a xlink:href="Ville_8hpp.html" target="_top" xlink:title=" ">
<polygon fill="white" stroke="#666666" points="76,-74 17,-74 17,-55 76,-55 76,-74"/>
<text text-anchor="middle" x="46.5" y="-62" font-family="Helvetica,sans-Serif" font-size="10.00">Ville.hpp</text>
</a>
</g>
</g>
<!-- Node2&#45;&gt;Node7 -->
<g id="edge9_Node000002_Node000007" class="edge">
<title>Node2&#45;&gt;Node7</title>
<g id="a_edge9_Node000002_Node000007"><a xlink:title=" ">
<path fill="none" stroke="#63b8ff" d="M324.3,-173.25C274.09,-171.51 183.05,-163.37 114.5,-129 92.05,-117.74 71.79,-96.74 59.33,-81.98"/>
<polygon fill="#63b8ff" stroke="#63b8ff" points="61.97,-79.67 52.95,-74.13 56.54,-84.09 61.97,-79.67"/>
</a>
</g>
</g>
<!-- Node9 -->
<g id="Node000009" class="node">
<title>Node9</title>
<g id="a_Node000009"><a xlink:title=" ">
<polygon fill="#e0e0e0" stroke="#999999" points="354.5,-129 310.5,-129 310.5,-110 354.5,-110 354.5,-129"/>
<text text-anchor="middle" x="332.5" y="-117" font-family="Helvetica,sans-Serif" font-size="10.00">limits</text>
</a>
</g>
</g>
<!-- Node2&#45;&gt;Node9 -->
<g id="edge10_Node000002_Node000009" class="edge">
<title>Node2&#45;&gt;Node9</title>
<g id="a_edge10_Node000002_Node000009"><a xlink:title=" ">
<path fill="none" stroke="#63b8ff" d="M356.71,-164.75C352.74,-157.49 346.97,-146.95 342.07,-137.98"/>
<polygon fill="#63b8ff" stroke="#63b8ff" points="345.07,-136.18 337.2,-129.09 338.93,-139.54 345.07,-136.18"/>
</a>
</g>
</g>
<!-- Node10 -->
<g id="Node000010" class="node">
<title>Node10</title>
<g id="a_Node000010"><a xlink:title=" ">
<polygon fill="#e0e0e0" stroke="#999999" points="410.5,-129 372.5,-129 372.5,-110 410.5,-110 410.5,-129"/>
<text text-anchor="middle" x="391.5" y="-117" font-family="Helvetica,sans-Serif" font-size="10.00">map</text>
</a>
</g>
</g>
<!-- Node2&#45;&gt;Node10 -->
<g id="edge11_Node000002_Node000010" class="edge">
<title>Node2&#45;&gt;Node10</title>
<g id="a_edge11_Node000002_Node000010"><a xlink:title=" ">
<path fill="none" stroke="#63b8ff" d="M366.45,-164.75C370.56,-157.49 376.53,-146.95 381.6,-137.98"/>
<polygon fill="#63b8ff" stroke="#63b8ff" points="384.76,-139.52 386.64,-129.09 378.67,-136.07 384.76,-139.52"/>
</a>
</g>
</g>
<!-- Node11 -->
<g id="Node000011" class="node">
<title>Node11</title>
<g id="a_Node000011"><a xlink:title=" ">
<polygon fill="#e0e0e0" stroke="#999999" points="492.5,-129 428.5,-129 428.5,-110 492.5,-110 492.5,-129"/>
<text text-anchor="middle" x="460.5" y="-117" font-family="Helvetica,sans-Serif" font-size="10.00">algorithm</text>
</a>
</g>
</g>
<!-- Node2&#45;&gt;Node11 -->
<g id="edge12_Node000002_Node000011" class="edge">
<title>Node2&#45;&gt;Node11</title>
<g id="a_edge12_Node000002_Node000011"><a xlink:title=" ">
<path fill="none" stroke="#63b8ff" d="M377.41,-164.98C393.05,-156.61 417.16,-143.7 435.38,-133.95"/>
<polygon fill="#63b8ff" stroke="#63b8ff" points="437.14,-136.98 444.3,-129.17 433.84,-130.8 437.14,-136.98"/>
</a>
</g>
</g>
<!-- Node12 -->
<g id="Node000012" class="node">
<title>Node12</title>
<g id="a_Node000012"><a xlink:title=" ">
<polygon fill="#e0e0e0" stroke="#999999" points="570.5,-129 510.5,-129 510.5,-110 570.5,-110 570.5,-129"/>
<text text-anchor="middle" x="540.5" y="-117" font-family="Helvetica,sans-Serif" font-size="10.00">iostream</text>
</a>
</g>
</g>
<!-- Node2&#45;&gt;Node12 -->
<g id="edge13_Node000002_Node000012" class="edge">
<title>Node2&#45;&gt;Node12</title>
<g id="a_edge13_Node000002_Node000012"><a xlink:title=" ">
<path fill="none" stroke="#63b8ff" d="M390.26,-164.98C420.44,-156.05 468.07,-141.94 501.6,-132.02"/>
<polygon fill="#63b8ff" stroke="#63b8ff" points="502.92,-135.28 511.52,-129.08 500.93,-128.57 502.92,-135.28"/>
</a>
</g>
</g>
<!-- Node13 -->
<g id="Node000013" class="node">
<title>Node13</title>
<g id="a_Node000013"><a xlink:title=" ">
<polygon fill="#e0e0e0" stroke="#999999" points="644.5,-129 588.5,-129 588.5,-110 644.5,-110 644.5,-129"/>
<text text-anchor="middle" x="616.5" y="-117" font-family="Helvetica,sans-Serif" font-size="10.00">sstream</text>
</a>
</g>
</g>
<!-- Node2&#45;&gt;Node13 -->
<g id="edge14_Node000002_Node000013" class="edge">
<title>Node2&#45;&gt;Node13</title>
<g id="a_edge14_Node000002_Node000013"><a xlink:title=" ">
<path fill="none" stroke="#63b8ff" d="M398.59,-166.22C439.98,-158.02 509.2,-144.14 578.08,-129.27"/>
<polygon fill="#63b8ff" stroke="#63b8ff" points="579.2,-132.61 588.23,-127.07 577.72,-125.76 579.2,-132.61"/>
</a>
</g>
</g>
<!-- Node14 -->
<g id="Node000014" class="node">
<title>Node14</title>
<g id="a_Node000014"><a xlink:title=" ">
<polygon fill="#e0e0e0" stroke="#999999" points="718,-129 663,-129 663,-110 718,-110 718,-129"/>
<text text-anchor="middle" x="690.5" y="-117" font-family="Helvetica,sans-Serif" font-size="10.00">fstream</text>
</a>
</g>
</g>
<!-- Node2&#45;&gt;Node14 -->
<g id="edge15_Node000002_Node000014" class="edge">
<title>Node2&#45;&gt;Node14</title>
<g id="a_edge15_Node000002_Node000014"><a xlink:title=" ">
<path fill="none" stroke="#63b8ff" d="M398.53,-168.76C452.26,-161.68 555.2,-147.38 652.65,-129.03"/>
<polygon fill="#63b8ff" stroke="#63b8ff" points="653.5,-132.43 662.67,-127.13 652.19,-125.56 653.5,-132.43"/>
</a>
</g>
</g>
<!-- Node15 -->
<g id="Node000015" class="node">
<title>Node15</title>
<g id="a_Node000015"><a xlink:href="Ticket_8hpp.html" target="_top" xlink:title=" ">
<polygon fill="white" stroke="#666666" points="67,-129 0,-129 0,-110 67,-110 67,-129"/>
<text text-anchor="middle" x="33.5" y="-117" font-family="Helvetica,sans-Serif" font-size="10.00">Ticket.hpp</text>
</a>
</g>
</g>
<!-- Node2&#45;&gt;Node15 -->
<g id="edge16_Node000002_Node000015" class="edge">
<title>Node2&#45;&gt;Node15</title>
<g id="a_edge16_Node000002_Node000015"><a xlink:title=" ">
<path fill="none" stroke="#63b8ff" d="M324.33,-167.81C270.66,-159.54 168.39,-143.6 81.5,-129 80.04,-128.75 78.55,-128.5 77.05,-128.25"/>
<polygon fill="#63b8ff" stroke="#63b8ff" points="77.51,-124.77 67.06,-126.52 76.31,-131.67 77.51,-124.77"/>
</a>
</g>
</g>
<!-- Node16 -->
<g id="Node000016" class="node">
<title>Node16</title>
<g id="a_Node000016"><a xlink:href="Train_8hpp.html" target="_top" xlink:title=" ">
<polygon fill="white" stroke="#666666" points="292,-129 231,-129 231,-110 292,-110 292,-129"/>
<text text-anchor="middle" x="261.5" y="-117" font-family="Helvetica,sans-Serif" font-size="10.00">Train.hpp</text>
</a>
</g>
</g>
<!-- Node2&#45;&gt;Node16 -->
<g id="edge19_Node000002_Node000016" class="edge">
<title>Node2&#45;&gt;Node16</title>
<g id="a_edge19_Node000002_Node000016"><a xlink:title=" ">
<path fill="none" stroke="#63b8ff" d="M345.43,-164.98C329.64,-156.61 305.28,-143.7 286.87,-133.95"/>
<polygon fill="#63b8ff" stroke="#63b8ff" points="288.33,-130.76 277.86,-129.17 285.06,-136.95 288.33,-130.76"/>
</a>
</g>
</g>
<!-- Node4 -->
<g id="Node000004" class="node">
<title>Node4</title>
<g id="a_Node000004"><a xlink:title=" ">
<polygon fill="#e0e0e0" stroke="#999999" points="97.5,-19 53.5,-19 53.5,0 97.5,0 97.5,-19"/>
<text text-anchor="middle" x="75.5" y="-7" font-family="Helvetica,sans-Serif" font-size="10.00">string</text>
</a>
</g>
</g>
<!-- Node3&#45;&gt;Node4 -->
<g id="edge3_Node000003_Node000004" class="edge">
<title>Node3&#45;&gt;Node4</title>
<g id="a_edge3_Node000003_Node000004"><a xlink:title=" ">
<path fill="none" stroke="#63b8ff" d="M159.15,-110C149.76,-101.3 135.08,-87.23 123.5,-74 110.31,-58.94 96.68,-40.59 87.33,-27.5"/>
<polygon fill="#63b8ff" stroke="#63b8ff" points="89.97,-25.17 81.35,-19.02 84.25,-29.21 89.97,-25.17"/>
</a>
</g>
</g>
<!-- Node5 -->
<g id="Node000005" class="node">
<title>Node5</title>
<g id="a_Node000005"><a xlink:title=" ">
<polygon fill="#e0e0e0" stroke="#999999" points="180,-74 133,-74 133,-55 180,-55 180,-74"/>
<text text-anchor="middle" x="156.5" y="-62" font-family="Helvetica,sans-Serif" font-size="10.00">vector</text>
</a>
</g>
</g>
<!-- Node3&#45;&gt;Node5 -->
<g id="edge4_Node000003_Node000005" class="edge">
<title>Node3&#45;&gt;Node5</title>
<g id="a_edge4_Node000003_Node000005"><a xlink:title=" ">
<path fill="none" stroke="#63b8ff" d="M166.52,-109.75C164.93,-102.72 162.64,-92.62 160.65,-83.84"/>
<polygon fill="#63b8ff" stroke="#63b8ff" points="164.07,-83.07 158.44,-74.09 157.24,-84.62 164.07,-83.07"/>
</a>
</g>
</g>
<!-- Node6 -->
<g id="Node000006" class="node">
<title>Node6</title>
<g id="a_Node000006"><a xlink:title=" ">
<polygon fill="#e0e0e0" stroke="#999999" points="254.5,-74 198.5,-74 198.5,-55 254.5,-55 254.5,-74"/>
<text text-anchor="middle" x="226.5" y="-62" font-family="Helvetica,sans-Serif" font-size="10.00">assert.h</text>
</a>
</g>
</g>
<!-- Node3&#45;&gt;Node6 -->
<g id="edge5_Node000003_Node000006" class="edge">
<title>Node3&#45;&gt;Node6</title>
<g id="a_edge5_Node000003_Node000006"><a xlink:title=" ">
<path fill="none" stroke="#63b8ff" d="M177.82,-109.98C186.31,-102.23 199.06,-90.58 209.38,-81.14"/>
<polygon fill="#63b8ff" stroke="#63b8ff" points="211.99,-83.5 217.01,-74.17 207.27,-78.33 211.99,-83.5"/>
</a>
</g>
</g>
<!-- Node3&#45;&gt;Node7 -->
<g id="edge6_Node000003_Node000007" class="edge">
<title>Node3&#45;&gt;Node7</title>
<g id="a_edge6_Node000003_Node000007"><a xlink:title=" ">
<path fill="none" stroke="#63b8ff" d="M148.9,-109.98C129.18,-101.42 98.55,-88.11 75.92,-78.28"/>
<polygon fill="#63b8ff" stroke="#63b8ff" points="77.02,-74.94 66.46,-74.17 74.24,-81.37 77.02,-74.94"/>
</a>
</g>
</g>
<!-- Node8 -->
<g id="Node000008" class="node">
<title>Node8</title>
<g id="a_Node000008"><a xlink:href="couleurEnum_8hpp.html" target="_top" xlink:title=" ">
<polygon fill="white" stroke="#666666" points="374,-74 273,-74 273,-55 374,-55 374,-74"/>
<text text-anchor="middle" x="323.5" y="-62" font-family="Helvetica,sans-Serif" font-size="10.00">couleurEnum.hpp</text>
</a>
</g>
</g>
<!-- Node3&#45;&gt;Node8 -->
<g id="edge8_Node000003_Node000008" class="edge">
<title>Node3&#45;&gt;Node8</title>
<g id="a_edge8_Node000003_Node000008"><a xlink:title=" ">
<path fill="none" stroke="#63b8ff" d="M193.4,-109.98C219.2,-101.16 259.72,-87.31 288.68,-77.41"/>
<polygon fill="#63b8ff" stroke="#63b8ff" points="290.07,-80.63 298.4,-74.08 287.81,-74.01 290.07,-80.63"/>
</a>
</g>
</g>
<!-- Node7&#45;&gt;Node4 -->
<g id="edge7_Node000007_Node000004" class="edge">
<title>Node7&#45;&gt;Node4</title>
<g id="a_edge7_Node000007_Node000004"><a xlink:title=" ">
<path fill="none" stroke="#63b8ff" d="M51.29,-54.75C55.26,-47.49 61.03,-36.95 65.93,-27.98"/>
<polygon fill="#63b8ff" stroke="#63b8ff" points="69.07,-29.54 70.8,-19.09 62.93,-26.18 69.07,-29.54"/>
</a>
</g>
</g>
<!-- Node15&#45;&gt;Node4 -->
<g id="edge17_Node000015_Node000004" class="edge">
<title>Node15&#45;&gt;Node4</title>
<g id="a_edge17_Node000015_Node000004"><a xlink:title=" ">
<path fill="none" stroke="#63b8ff" d="M24.92,-109.6C13.92,-97.07 -2.59,-73.65 7.5,-55 15.35,-40.48 30.23,-29.94 44.07,-22.77"/>
<polygon fill="#63b8ff" stroke="#63b8ff" points="45.86,-25.79 53.39,-18.34 42.86,-19.47 45.86,-25.79"/>
</a>
</g>
</g>
<!-- Node15&#45;&gt;Node7 -->
<g id="edge18_Node000015_Node000007" class="edge">
<title>Node15&#45;&gt;Node7</title>
<g id="a_edge18_Node000015_Node000007"><a xlink:title=" ">
<path fill="none" stroke="#63b8ff" d="M35.65,-109.75C37.37,-102.72 39.85,-92.62 42,-83.84"/>
<polygon fill="#63b8ff" stroke="#63b8ff" points="45.41,-84.63 44.39,-74.09 38.61,-82.97 45.41,-84.63"/>
</a>
</g>
</g>
<!-- Node16&#45;&gt;Node4 -->
<g id="edge20_Node000016_Node000004" class="edge">
<title>Node16&#45;&gt;Node4</title>
<g id="a_edge20_Node000016_Node000004"><a xlink:title=" ">
<path fill="none" stroke="#63b8ff" d="M292.16,-111.55C324.66,-103.49 372.77,-89.33 383.5,-74 388.34,-67.08 389.03,-61.38 383.5,-55 348.09,-14.11 179.67,-9.96 107.95,-10.09"/>
<polygon fill="#63b8ff" stroke="#63b8ff" points="107.69,-6.59 97.7,-10.14 107.72,-13.59 107.69,-6.59"/>
</a>
</g>
</g>
<!-- Node16&#45;&gt;Node8 -->
<g id="edge21_Node000016_Node000008" class="edge">
<title>Node16&#45;&gt;Node8</title>
<g id="a_edge21_Node000016_Node000008"><a xlink:title=" ">
<path fill="none" stroke="#63b8ff" d="M271.46,-109.98C280.63,-102.15 294.44,-90.34 305.53,-80.86"/>
<polygon fill="#63b8ff" stroke="#63b8ff" points="308.03,-83.33 313.36,-74.17 303.48,-78.01 308.03,-83.33"/>
</a>
</g>
</g>
</g>
</svg>

<g id="navigator" transform="translate(0 0)" fill="#404254">
  <rect fill="#f2f5e9" fill-opacity="0.5" stroke="#606060" stroke-width=".5" x="0" y="0" width="60" height="60"/>
  <use id="zoomplus" xlink:href="#zoomPlus" x="17" y="9" onmousedown="handleZoom(evt,'in')"/>
  <use id="zoomminus" xlink:href="#zoomMin" x="42" y="9" onmousedown="handleZoom(evt,'out')"/>
  <use id="reset" xlink:href="#resetDef" x="30" y="36" onmousedown="handleReset()"/>
   <use id="arrowup" xlink:href="#arrowUp" x="0" y="0" onmousedown="handlePan(0,-1)"/>
  <use id="arrowright" xlink:href="#arrowRight" x="0" y="0" onmousedown="handlePan(1,0)"/>
  <use id="arrowdown" xlink:href="#arrowDown" x="0" y="0" onmousedown="handlePan(0,1)"/>
  <use id="arrowleft" xlink:href="#arrowLeft" x="0" y="0" onmousedown="handlePan(-1,0)"/>
</g>
<svg viewBox="0 0 15 15" width="100%" height="30px" preserveAspectRatio="xMaxYMin meet">
 <g id="arrow_out" transform="scale(0.3 0.3)">
  <a xlink:href="Plateau_8cpp__incl_org.svg" target="_base">
   <rect id="button" ry="5" rx="5" y="6" x="6" height="38" width="38"
        fill="#f2f5e9" fill-opacity="0.5" stroke="#606060" stroke-width="1.0"/>
   <path id="arrow"
     d="M 11.500037,31.436501 C 11.940474,20.09759 22.043105,11.32322 32.158766,21.979434 L 37.068811,17.246167 C 37.068811,17.246167 37.088388,32 37.088388,32 L 22.160133,31.978069 C 22.160133,31.978069 26.997745,27.140456 26.997745,27.140456 C 18.528582,18.264221 13.291696,25.230495 11.500037,31.436501 z"
     style="fill:#404040;"/>
  </a>
 </g>
</svg>

<style type='text/css'>
<![CDATA[
[data-mouse-over-selected='false'] { opacity: 0.7; }
[data-mouse-over-selected='true']  { opacity: 1.0; }
]]>
</style>
<script type="application/ecmascript"><![CDATA[
document.addEventListener('DOMContentLoaded', (event) => {
  highlightEdges();
  highlightAdjacentNodes();
});
]]></script>
</svg>
