<?xml version="1.0" encoding="UTF-8" standalone="no"?>
<!DOCTYPE svg PUBLIC "-//W3C//DTD SVG 1.1//EN"
 "http://www.w3.org/Graphics/SVG/1.1/DTD/svg11.dtd">
<!-- Generated by graphviz version 2.43.0 (0)
 -->
<!-- Title: PiocheTickets Pages: 1 -->
<!--zoomable 839 -->

<svg id="main" version="1.1" xmlns="http://www.w3.org/2000/svg" xmlns:xlink="http://www.w3.org/1999/xlink" xml:space="preserve" onload="init(evt)">
<style type="text/css"><![CDATA[
.node, .edge {opacity: 0.7;}
.node.selected, .edge.selected {opacity: 1;}
.edge:hover path { stroke: red; }
.edge:hover polygon { stroke: red; fill: red; }
]]></style>

<defs>
  <circle id="rim" cx="0" cy="0" r="7"/>
  <circle id="rim2" cx="0" cy="0" r="3.5"/>
  <g id="zoomPlus">
    <use xlink:href="#rim" fill="#404040"><set attributeName="fill" to="#808080" begin="zoomplus.mouseover" end="zoomplus.mouseout"/></use>
    <path d="M-4,0h8M0,-4v8" fill="none" stroke="white" stroke-width="1.5" pointer-events="none"/>
  </g>
  <g id="zoomMin">
    <use xlink:href="#rim" fill="#404040"><set attributeName="fill" to="#808080" begin="zoomminus.mouseover" end="zoomminus.mouseout"/></use>
    <path d="M-4,0h8" fill="none" stroke="white" stroke-width="1.5" pointer-events="none"/>
  </g>
  <g id="arrowUp" transform="translate(30 24)">
    <use xlink:href="#rim"/>
    <path pointer-events="none" fill="none" stroke="white" stroke-width="1.5" d="M0,-3.0v7 M-2.5,-0.5L0,-3.0L2.5,-0.5"/>
  </g>
  <g id="arrowRight" transform="rotate(90) translate(36 -43)">
    <use xlink:href="#rim"/>
    <path pointer-events="none" fill="none" stroke="white" stroke-width="1.5" d="M0,-3.0v7 M-2.5,-0.5L0,-3.0L2.5,-0.5"/>
  </g>
  <g id="arrowDown" transform="rotate(180) translate(-30 -48)">
    <use xlink:href="#rim"/>
    <path pointer-events="none" fill="none" stroke="white" stroke-width="1.5" d="M0,-3.0v7 M-2.5,-0.5L0,-3.0L2.5,-0.5"/>
  </g>
  <g id="arrowLeft" transform="rotate(270) translate(-36 17)">
    <use xlink:href="#rim"/>
    <path pointer-events="none" fill="none" stroke="white" stroke-width="1.5" d="M0,-3.0v7 M-2.5,-0.5L0,-3.0L2.5,-0.5"/>
  </g>
  <g id="resetDef">
    <use xlink:href="#rim2" fill="#404040"><set attributeName="fill" to="#808080" begin="reset.mouseover" end="reset.mouseout"/></use>
  </g>
</defs>
<script type="application/ecmascript">
var viewWidth = 272;
var viewHeight = 839;
var sectionId = 'dynsection-0';
</script>
<script type="application/ecmascript" xlink:href="svg.min.js"/>
<svg id="graph" class="graph">
<g id="viewport">
<title>PiocheTickets</title>
<!-- Node1 -->
<g id="Node000001" class="node">
<title>Node1</title>
<g id="a_Node000001"><a xlink:title="Représente la pioche de tickets.">
<polygon fill="#999999" stroke="transparent" points="204.5,-246 71.5,-246 71.5,0 204.5,0 204.5,-246"/>
<text text-anchor="start" x="105" y="-234" font-family="Helvetica,sans-Serif" font-size="10.00">PiocheTickets</text>
<text text-anchor="start" x="76" y="-219" font-family="Helvetica,sans-Serif" font-size="10.00">+</text>
<text text-anchor="start" x="89" y="-219" font-family="Helvetica,sans-Serif" font-size="10.00">int partieLeft</text>
<text text-anchor="start" x="76" y="-204" font-family="Helvetica,sans-Serif" font-size="10.00">+</text>
<text text-anchor="start" x="89" y="-204" font-family="Helvetica,sans-Serif" font-size="10.00">mt19937 &amp; rng</text>
<text text-anchor="start" x="76" y="-189" font-family="Helvetica,sans-Serif" font-size="10.00">+</text>
<text text-anchor="start" x="89" y="-189" font-family="Helvetica,sans-Serif" font-size="10.00">void defausser(vector</text>
<text text-anchor="start" x="89" y="-178" font-family="Helvetica,sans-Serif" font-size="10.00">&lt; Ticket * &gt; &amp;tickets)</text>
<text text-anchor="start" x="76" y="-163" font-family="Helvetica,sans-Serif" font-size="10.00">+</text>
<text text-anchor="start" x="89" y="-163" font-family="Helvetica,sans-Serif" font-size="10.00">void defausser(vector</text>
<text text-anchor="start" x="89" y="-152" font-family="Helvetica,sans-Serif" font-size="10.00">&lt; Ticket * &gt; &amp;tickets)</text>
<text text-anchor="start" x="76" y="-137" font-family="Helvetica,sans-Serif" font-size="10.00">+</text>
<text text-anchor="start" x="89" y="-137" font-family="Helvetica,sans-Serif" font-size="10.00">bool piocher(Joueur &amp;j,</text>
<text text-anchor="start" x="89" y="-126" font-family="Helvetica,sans-Serif" font-size="10.00"> Partie &amp;partie)</text>
<text text-anchor="start" x="76" y="-111" font-family="Helvetica,sans-Serif" font-size="10.00">+</text>
<text text-anchor="start" x="89" y="-111" font-family="Helvetica,sans-Serif" font-size="10.00">bool piocher(Joueur &amp;j,</text>
<text text-anchor="start" x="89" y="-100" font-family="Helvetica,sans-Serif" font-size="10.00"> Partie &amp;partie, vector</text>
<text text-anchor="start" x="89" y="-89" font-family="Helvetica,sans-Serif" font-size="10.00">&lt; string &gt; &amp;log)</text>
<text text-anchor="start" x="76" y="-74" font-family="Helvetica,sans-Serif" font-size="10.00">+</text>
<text text-anchor="start" x="89" y="-74" font-family="Helvetica,sans-Serif" font-size="10.00">PiocheTickets(int n,</text>
<text text-anchor="start" x="89" y="-63" font-family="Helvetica,sans-Serif" font-size="10.00"> mt19937 &amp;g)</text>
<text text-anchor="start" x="76" y="-48" font-family="Helvetica,sans-Serif" font-size="10.00">+</text>
<text text-anchor="start" x="89" y="-48" font-family="Helvetica,sans-Serif" font-size="10.00">PiocheTickets(int n,</text>
<text text-anchor="start" x="89" y="-37" font-family="Helvetica,sans-Serif" font-size="10.00"> mt19937 &amp;g)</text>
<text text-anchor="start" x="76" y="-22" font-family="Helvetica,sans-Serif" font-size="10.00">+</text>
<text text-anchor="start" x="89" y="-22" font-family="Helvetica,sans-Serif" font-size="10.00">bool vide() const</text>
<text text-anchor="start" x="76" y="-7" font-family="Helvetica,sans-Serif" font-size="10.00">+</text>
<text text-anchor="start" x="89" y="-7" font-family="Helvetica,sans-Serif" font-size="10.00">bool vide() const</text>
<polygon fill="#666666" stroke="#666666" points="72,-229 72,-229 205,-229 205,-229 72,-229"/>
<polygon fill="#666666" stroke="#666666" points="72,-199 72,-199 87,-199 87,-199 72,-199"/>
<polygon fill="#666666" stroke="#666666" points="87,-199 87,-199 205,-199 205,-199 87,-199"/>
<polygon fill="none" stroke="#666666" points="71.5,0 71.5,-246 204.5,-246 204.5,0 71.5,0"/>
</a>
</g>
</g>
<!-- Node2 -->
<g id="Node000002" class="node">
<title>Node2</title>
<g id="a_Node000002"><a xlink:title=" ">
<polygon fill="white" stroke="transparent" points="199,-353 77,-353 77,-304 199,-304 199,-353"/>
<text text-anchor="start" x="82" y="-340.5" font-family="Helvetica,sans-Serif" font-size="10.00">std::vector&lt; Ticket * &gt;</text>
<text text-anchor="start" x="136" y="-325.5" font-family="Helvetica,sans-Serif" font-size="10.00"> </text>
<text text-anchor="start" x="136" y="-310.5" font-family="Helvetica,sans-Serif" font-size="10.00"> </text>
<polygon fill="#666666" stroke="#666666" points="77,-335.5 77,-335.5 199,-335.5 199,-335.5 77,-335.5"/>
<polygon fill="#666666" stroke="#666666" points="77,-320.5 77,-320.5 199,-320.5 199,-320.5 77,-320.5"/>
<polygon fill="none" stroke="#666666" points="77,-304 77,-353 199,-353 199,-304 77,-304"/>
</a>
</g>
</g>
<!-- Node2&#45;&gt;Node1 -->
<g id="edge1_Node000001_Node000002" class="edge">
<title>Node2&#45;&gt;Node1</title>
<g id="a_edge1_Node000001_Node000002"><a xlink:title=" ">
<path fill="none" stroke="#63b8ff" d="M138,-303.76C138,-291.58 138,-275.67 138,-258.35"/>
<polygon fill="none" stroke="#63b8ff" points="138,-258.16 134,-252.16 138,-246.16 142,-252.16 138,-258.16"/>
</a>
</g>
<text text-anchor="middle" x="166" y="-278" font-family="Helvetica,sans-Serif" font-size="10.00" fill="grey"> +defausse</text>
<text text-anchor="middle" x="166" y="-267" font-family="Helvetica,sans-Serif" font-size="10.00" fill="grey">+locale</text>
</g>
<!-- Node3 -->
<g id="Node000003" class="node">
<title>Node3</title>
<g id="a_Node000003"><a xlink:href="classTicket.html" target="_top" xlink:title="Représente un ticket dans le jeu.">
<polygon fill="white" stroke="transparent" points="142,-527 0,-527 0,-400 142,-400 142,-527"/>
<text text-anchor="start" x="56" y="-514.5" font-family="Helvetica,sans-Serif" font-size="10.00">Ticket</text>
<text text-anchor="start" x="69" y="-499.5" font-family="Helvetica,sans-Serif" font-size="10.00"> </text>
<text text-anchor="start" x="4" y="-484.5" font-family="Helvetica,sans-Serif" font-size="10.00">+</text>
<text text-anchor="start" x="17" y="-484.5" font-family="Helvetica,sans-Serif" font-size="10.00">Ville * getVilleArrivee</text>
<text text-anchor="start" x="17" y="-473.5" font-family="Helvetica,sans-Serif" font-size="10.00">() const</text>
<text text-anchor="start" x="4" y="-458.5" font-family="Helvetica,sans-Serif" font-size="10.00">+</text>
<text text-anchor="start" x="17" y="-458.5" font-family="Helvetica,sans-Serif" font-size="10.00">Ville * getVilleDepart</text>
<text text-anchor="start" x="17" y="-447.5" font-family="Helvetica,sans-Serif" font-size="10.00">() const</text>
<text text-anchor="start" x="4" y="-432.5" font-family="Helvetica,sans-Serif" font-size="10.00">+</text>
<text text-anchor="start" x="17" y="-432.5" font-family="Helvetica,sans-Serif" font-size="10.00">Ticket(Ville *villeDepart,</text>
<text text-anchor="start" x="17" y="-421.5" font-family="Helvetica,sans-Serif" font-size="10.00"> Ville *villeArrivee)</text>
<text text-anchor="start" x="4" y="-406.5" font-family="Helvetica,sans-Serif" font-size="10.00">+</text>
<text text-anchor="start" x="17" y="-406.5" font-family="Helvetica,sans-Serif" font-size="10.00">~Ticket()</text>
<polygon fill="#666666" stroke="#666666" points="0,-509.5 0,-509.5 142,-509.5 142,-509.5 0,-509.5"/>
<polygon fill="#666666" stroke="#666666" points="0,-494.5 0,-494.5 142,-494.5 142,-494.5 0,-494.5"/>
<polygon fill="none" stroke="#666666" points="0,-400 0,-527 142,-527 142,-400 0,-400"/>
</a>
</g>
</g>
<!-- Node3&#45;&gt;Node2 -->
<g id="edge2_Node000002_Node000003" class="edge">
<title>Node3&#45;&gt;Node2</title>
<g id="a_edge2_Node000002_Node000003"><a xlink:title=" ">
<path fill="none" stroke="#63b8ff" d="M97.65,-399.92C102.21,-390.13 107.08,-380.21 112,-371 113.27,-368.62 114.62,-366.2 116.02,-363.78"/>
<polygon fill="none" stroke="#63b8ff" points="116.13,-363.6 115.78,-356.39 122.3,-353.31 122.64,-360.51 116.13,-363.6"/>
</a>
</g>
<text text-anchor="middle" x="141" y="-374" font-family="Helvetica,sans-Serif" font-size="10.00" fill="grey"> +elements</text>
</g>
<!-- Node4 -->
<g id="Node000004" class="node">
<title>Node4</title>
<g id="a_Node000004"><a xlink:href="classVille.html" target="_top" xlink:title=" ">
<polygon fill="white" stroke="transparent" points="135,-649 7,-649 7,-585 135,-585 135,-649"/>
<text text-anchor="start" x="60" y="-637" font-family="Helvetica,sans-Serif" font-size="10.00">Ville</text>
<text text-anchor="start" x="69" y="-622" font-family="Helvetica,sans-Serif" font-size="10.00"> </text>
<text text-anchor="start" x="11" y="-607" font-family="Helvetica,sans-Serif" font-size="10.00">+</text>
<text text-anchor="start" x="24" y="-607" font-family="Helvetica,sans-Serif" font-size="10.00">string getNom() const</text>
<text text-anchor="start" x="11" y="-592" font-family="Helvetica,sans-Serif" font-size="10.00">+</text>
<text text-anchor="start" x="24" y="-592" font-family="Helvetica,sans-Serif" font-size="10.00">Ville(string nom)</text>
<polygon fill="#666666" stroke="#666666" points="7,-632 7,-632 135,-632 135,-632 7,-632"/>
<polygon fill="#666666" stroke="#666666" points="7,-617 7,-617 135,-617 135,-617 7,-617"/>
<polygon fill="none" stroke="#666666" points="7,-585 7,-649 135,-649 135,-585 7,-585"/>
</a>
</g>
</g>
<!-- Node4&#45;&gt;Node3 -->
<g id="edge3_Node000003_Node000004" class="edge">
<title>Node4&#45;&gt;Node3</title>
<g id="a_edge3_Node000003_Node000004"><a xlink:title=" ">
<path fill="none" stroke="#63b8ff" d="M71,-584.98C71,-571.66 71,-555.48 71,-539.34"/>
<polygon fill="none" stroke="#63b8ff" points="71,-539.07 67,-533.07 71,-527.07 75,-533.07 71,-539.07"/>
</a>
</g>
<text text-anchor="middle" x="102.5" y="-559" font-family="Helvetica,sans-Serif" font-size="10.00" fill="grey"> &#45;villeArrivee</text>
<text text-anchor="middle" x="102.5" y="-548" font-family="Helvetica,sans-Serif" font-size="10.00" fill="grey">&#45;villeDepart</text>
</g>
<!-- Node5 -->
<g id="Node000005" class="node">
<title>Node5</title>
<g id="a_Node000005"><a xlink:title=" ">
<polygon fill="white" stroke="transparent" points="100.5,-745 41.5,-745 41.5,-696 100.5,-696 100.5,-745"/>
<text text-anchor="start" x="47" y="-732.5" font-family="Helvetica,sans-Serif" font-size="10.00">std::string</text>
<text text-anchor="start" x="69.5" y="-717.5" font-family="Helvetica,sans-Serif" font-size="10.00"> </text>
<text text-anchor="start" x="69.5" y="-702.5" font-family="Helvetica,sans-Serif" font-size="10.00"> </text>
<polygon fill="#666666" stroke="#666666" points="42,-727.5 42,-727.5 101,-727.5 101,-727.5 42,-727.5"/>
<polygon fill="#666666" stroke="#666666" points="42,-712.5 42,-712.5 101,-712.5 101,-712.5 42,-712.5"/>
<polygon fill="none" stroke="#666666" points="41.5,-696 41.5,-745 100.5,-745 100.5,-696 41.5,-696"/>
</a>
</g>
</g>
<!-- Node5&#45;&gt;Node4 -->
<g id="edge4_Node000004_Node000005" class="edge">
<title>Node5&#45;&gt;Node4</title>
<g id="a_edge4_Node000004_Node000005"><a xlink:title=" ">
<path fill="none" stroke="#63b8ff" d="M71,-695.96C71,-685.61 71,-673.13 71,-661.21"/>
<polygon fill="none" stroke="#63b8ff" points="71,-661.11 67,-655.11 71,-649.11 75,-655.11 71,-661.11"/>
</a>
</g>
<text text-anchor="middle" x="85.5" y="-670" font-family="Helvetica,sans-Serif" font-size="10.00" fill="grey"> &#45;nom</text>
</g>
<!-- Node6 -->
<g id="Node000006" class="node">
<title>Node6</title>
<g id="a_Node000006"><a xlink:title=" ">
<polygon fill="white" stroke="transparent" points="138.5,-831 3.5,-831 3.5,-782 138.5,-782 138.5,-831"/>
<text text-anchor="start" x="9" y="-818.5" font-family="Helvetica,sans-Serif" font-size="10.00">std::basic_string&lt; Char &gt;</text>
<text text-anchor="start" x="69.5" y="-803.5" font-family="Helvetica,sans-Serif" font-size="10.00"> </text>
<text text-anchor="start" x="69.5" y="-788.5" font-family="Helvetica,sans-Serif" font-size="10.00"> </text>
<polygon fill="#666666" stroke="#666666" points="4,-813.5 4,-813.5 139,-813.5 139,-813.5 4,-813.5"/>
<polygon fill="#666666" stroke="#666666" points="4,-798.5 4,-798.5 139,-798.5 139,-798.5 4,-798.5"/>
<polygon fill="none" stroke="#666666" points="3.5,-782 3.5,-831 138.5,-831 138.5,-782 3.5,-782"/>
</a>
</g>
</g>
<!-- Node6&#45;&gt;Node5 -->
<g id="edge5_Node000005_Node000006" class="edge">
<title>Node6&#45;&gt;Node5</title>
<g id="a_edge5_Node000005_Node000006"><a xlink:title=" ">
<path fill="none" stroke="#63b8ff" d="M71,-771.57C71,-762.69 71,-753.32 71,-745.12"/>
<polygon fill="none" stroke="#63b8ff" points="67.5,-771.65 71,-781.65 74.5,-771.65 67.5,-771.65"/>
</a>
</g>
</g>
<!-- Node7 -->
<g id="Node000007" class="node">
<title>Node7</title>
<g id="a_Node000007"><a xlink:title=" ">
<polygon fill="white" stroke="transparent" points="251.5,-488 160.5,-488 160.5,-439 251.5,-439 251.5,-488"/>
<text text-anchor="start" x="166" y="-475.5" font-family="Helvetica,sans-Serif" font-size="10.00">std::vector&lt; T &gt;</text>
<text text-anchor="start" x="204.5" y="-460.5" font-family="Helvetica,sans-Serif" font-size="10.00"> </text>
<text text-anchor="start" x="204.5" y="-445.5" font-family="Helvetica,sans-Serif" font-size="10.00"> </text>
<polygon fill="#666666" stroke="#666666" points="161,-470.5 161,-470.5 252,-470.5 252,-470.5 161,-470.5"/>
<polygon fill="#666666" stroke="#666666" points="161,-455.5 161,-455.5 252,-455.5 252,-455.5 161,-455.5"/>
<polygon fill="none" stroke="#666666" points="160.5,-439 160.5,-488 251.5,-488 251.5,-439 160.5,-439"/>
</a>
</g>
</g>
<!-- Node7&#45;&gt;Node2 -->
<g id="edge6_Node000002_Node000007" class="edge">
<title>Node7&#45;&gt;Node2</title>
<g id="a_edge6_Node000002_Node000007"><a xlink:title=" ">
<path fill="none" stroke="orange" d="M195.31,-428.81C189.06,-411.06 180.35,-389.25 170,-371 166.59,-364.99 162.38,-358.88 158.15,-353.28"/>
<polygon fill="orange" stroke="orange" points="192.16,-430.41 198.71,-438.73 198.78,-428.14 192.16,-430.41"/>
</a>
</g>
<text text-anchor="middle" x="208" y="-374" font-family="Helvetica,sans-Serif" font-size="10.00" fill="grey"> &lt; Ticket * &gt;</text>
</g>
<!-- Node8 -->
<g id="Node000008" class="node">
<title>Node8</title>
<g id="a_Node000008"><a xlink:title=" ">
<polygon fill="white" stroke="transparent" points="214.5,-641.5 197.5,-641.5 197.5,-592.5 214.5,-592.5 214.5,-641.5"/>
<text text-anchor="start" x="203" y="-629" font-family="Helvetica,sans-Serif" font-size="10.00">T</text>
<text text-anchor="start" x="204.5" y="-614" font-family="Helvetica,sans-Serif" font-size="10.00"> </text>
<text text-anchor="start" x="204.5" y="-599" font-family="Helvetica,sans-Serif" font-size="10.00"> </text>
<polygon fill="#666666" stroke="#666666" points="198,-624 198,-624 215,-624 215,-624 198,-624"/>
<polygon fill="#666666" stroke="#666666" points="198,-609 198,-609 215,-609 215,-609 198,-609"/>
<polygon fill="none" stroke="#666666" points="197.5,-592.5 197.5,-641.5 214.5,-641.5 214.5,-592.5 197.5,-592.5"/>
</a>
</g>
</g>
<!-- Node8&#45;&gt;Node7 -->
<g id="edge7_Node000007_Node000008" class="edge">
<title>Node8&#45;&gt;Node7</title>
<g id="a_edge7_Node000007_Node000008"><a xlink:title=" ">
<path fill="none" stroke="#63b8ff" d="M206,-592.33C206,-567.65 206,-528.67 206,-500.24"/>
<polygon fill="none" stroke="#63b8ff" points="206,-500.01 202,-494.01 206,-488.01 210,-494.01 206,-500.01"/>
</a>
</g>
<text text-anchor="middle" x="235" y="-553.5" font-family="Helvetica,sans-Serif" font-size="10.00" fill="grey"> +elements</text>
</g>
</g>
</svg>

<g id="navigator" transform="translate(0 0)" fill="#404254">
  <rect fill="#f2f5e9" fill-opacity="0.5" stroke="#606060" stroke-width=".5" x="0" y="0" width="60" height="60"/>
  <use id="zoomplus" xlink:href="#zoomPlus" x="17" y="9" onmousedown="handleZoom(evt,'in')"/>
  <use id="zoomminus" xlink:href="#zoomMin" x="42" y="9" onmousedown="handleZoom(evt,'out')"/>
  <use id="reset" xlink:href="#resetDef" x="30" y="36" onmousedown="handleReset()"/>
   <use id="arrowup" xlink:href="#arrowUp" x="0" y="0" onmousedown="handlePan(0,-1)"/>
  <use id="arrowright" xlink:href="#arrowRight" x="0" y="0" onmousedown="handlePan(1,0)"/>
  <use id="arrowdown" xlink:href="#arrowDown" x="0" y="0" onmousedown="handlePan(0,1)"/>
  <use id="arrowleft" xlink:href="#arrowLeft" x="0" y="0" onmousedown="handlePan(-1,0)"/>
</g>
<svg viewBox="0 0 15 15" width="100%" height="30px" preserveAspectRatio="xMaxYMin meet">
 <g id="arrow_out" transform="scale(0.3 0.3)">
  <a xlink:href="structPiocheTickets__coll__graph_org.svg" target="_base">
   <rect id="button" ry="5" rx="5" y="6" x="6" height="38" width="38"
        fill="#f2f5e9" fill-opacity="0.5" stroke="#606060" stroke-width="1.0"/>
   <path id="arrow"
     d="M 11.500037,31.436501 C 11.940474,20.09759 22.043105,11.32322 32.158766,21.979434 L 37.068811,17.246167 C 37.068811,17.246167 37.088388,32 37.088388,32 L 22.160133,31.978069 C 22.160133,31.978069 26.997745,27.140456 26.997745,27.140456 C 18.528582,18.264221 13.291696,25.230495 11.500037,31.436501 z"
     style="fill:#404040;"/>
  </a>
 </g>
</svg>

<style type='text/css'>
<![CDATA[
[data-mouse-over-selected='false'] { opacity: 0.7; }
[data-mouse-over-selected='true']  { opacity: 1.0; }
]]>
</style>
<script type="application/ecmascript"><![CDATA[
document.addEventListener('DOMContentLoaded', (event) => {
  highlightEdges();
  highlightAdjacentNodes();
});
]]></script>
</svg>
