<?xml version="1.0" encoding="UTF-8" standalone="no"?>
<!DOCTYPE svg PUBLIC "-//W3C//DTD SVG 1.1//EN"
 "http://www.w3.org/Graphics/SVG/1.1/DTD/svg11.dtd">
<!-- Generated by graphviz version 2.43.0 (0)
 -->
<!-- Title: include/Ticket.hpp Pages: 1 -->
<svg width="119pt" height="137pt"
 viewBox="0.00 0.00 119.00 137.00" xmlns="http://www.w3.org/2000/svg" xmlns:xlink="http://www.w3.org/1999/xlink">
<g id="graph0" class="graph" transform="scale(1 1) rotate(0) translate(4 133)">
<title>include/Ticket.hpp</title>
<!-- Node1 -->
<g id="Node000001" class="node">
<title>Node1</title>
<g id="a_Node000001"><a xlink:title=" ">
<polygon fill="#999999" stroke="#666666" points="105,-129 0,-129 0,-110 105,-110 105,-129"/>
<text text-anchor="middle" x="52.5" y="-117" font-family="Helvetica,sans-Serif" font-size="10.00">include/Ticket.hpp</text>
</a>
</g>
</g>
<!-- Node2 -->
<g id="Node000002" class="node">
<title>Node2</title>
<g id="a_Node000002"><a xlink:title=" ">
<polygon fill="#e0e0e0" stroke="#999999" points="74.5,-19 30.5,-19 30.5,0 74.5,0 74.5,-19"/>
<text text-anchor="middle" x="52.5" y="-7" font-family="Helvetica,sans-Serif" font-size="10.00">string</text>
</a>
</g>
</g>
<!-- Node1&#45;&gt;Node2 -->
<g id="edge1_Node000001_Node000002" class="edge">
<title>Node1&#45;&gt;Node2</title>
<g id="a_edge1_Node000001_Node000002"><a xlink:title=" ">
<path fill="none" stroke="#63b8ff" d="M49.67,-109.91C46,-97.73 40.31,-74.74 42.5,-55 43.46,-46.34 45.44,-36.91 47.39,-28.97"/>
<polygon fill="#63b8ff" stroke="#63b8ff" points="50.78,-29.83 49.93,-19.27 44.01,-28.06 50.78,-29.83"/>
</a>
</g>
</g>
<!-- Node3 -->
<g id="Node000003" class="node">
<title>Node3</title>
<g id="a_Node000003"><a xlink:href="Ville_8hpp.html" target="_top" xlink:title=" ">
<polygon fill="white" stroke="#666666" points="111,-74 52,-74 52,-55 111,-55 111,-74"/>
<text text-anchor="middle" x="81.5" y="-62" font-family="Helvetica,sans-Serif" font-size="10.00">Ville.hpp</text>
</a>
</g>
</g>
<!-- Node1&#45;&gt;Node3 -->
<g id="edge2_Node000001_Node000003" class="edge">
<title>Node1&#45;&gt;Node3</title>
<g id="a_edge2_Node000001_Node000003"><a xlink:title=" ">
<path fill="none" stroke="#63b8ff" d="M57.29,-109.75C61.26,-102.49 67.03,-91.95 71.93,-82.98"/>
<polygon fill="#63b8ff" stroke="#63b8ff" points="75.07,-84.54 76.8,-74.09 68.93,-81.18 75.07,-84.54"/>
</a>
</g>
</g>
<!-- Node3&#45;&gt;Node2 -->
<g id="edge3_Node000003_Node000002" class="edge">
<title>Node3&#45;&gt;Node2</title>
<g id="a_edge3_Node000003_Node000002"><a xlink:title=" ">
<path fill="none" stroke="#63b8ff" d="M76.71,-54.75C72.74,-47.49 66.97,-36.95 62.07,-27.98"/>
<polygon fill="#63b8ff" stroke="#63b8ff" points="65.07,-26.18 57.2,-19.09 58.93,-29.54 65.07,-26.18"/>
</a>
</g>
</g>
</g>
</svg>
