<?xml version="1.0" encoding="UTF-8" standalone="no"?>
<!DOCTYPE svg PUBLIC "-//W3C//DTD SVG 1.1//EN"
 "http://www.w3.org/Graphics/SVG/1.1/DTD/svg11.dtd">
<!-- Generated by graphviz version 2.43.0 (0)
 -->
<!-- Title: include/Train.hpp Pages: 1 -->
<svg width="547pt" height="247pt"
 viewBox="0.00 0.00 547.00 247.00" xmlns="http://www.w3.org/2000/svg" xmlns:xlink="http://www.w3.org/1999/xlink">
<g id="graph0" class="graph" transform="scale(1 1) rotate(0) translate(4 243)">
<title>include/Train.hpp</title>
<!-- Node1 -->
<g id="Node000001" class="node">
<title>Node1</title>
<g id="a_Node000001"><a xlink:title=" ">
<polygon fill="#999999" stroke="#666666" points="279,-239 180,-239 180,-220 279,-220 279,-239"/>
<text text-anchor="middle" x="229.5" y="-227" font-family="Helvetica,sans-Serif" font-size="10.00">include/Train.hpp</text>
</a>
</g>
</g>
<!-- Node2 -->
<g id="Node000002" class="node">
<title>Node2</title>
<g id="a_Node000002"><a xlink:href="Joueur_8hpp.html" target="_top" xlink:title="Déclaration de la classe Joueur, participant à une partie des Aventuriers du Rail.">
<polygon fill="white" stroke="#666666" points="367.5,-129 261.5,-129 261.5,-110 367.5,-110 367.5,-129"/>
<text text-anchor="middle" x="314.5" y="-117" font-family="Helvetica,sans-Serif" font-size="10.00">include/Joueur.hpp</text>
</a>
</g>
</g>
<!-- Node1&#45;&gt;Node2 -->
<g id="edge1_Node000001_Node000002" class="edge">
<title>Node1&#45;&gt;Node2</title>
<g id="a_edge1_Node000001_Node000002"><a xlink:title=" ">
<path fill="none" stroke="#63b8ff" d="M258.11,-215C271.19,-207.53 285.88,-197.08 295.5,-184 307.91,-167.13 312.28,-142.15 313.77,-129.12"/>
<polygon fill="#63b8ff" stroke="#63b8ff" points="256.12,-212.1 248.96,-219.92 259.43,-218.27 256.12,-212.1"/>
</a>
</g>
</g>
<!-- Node3 -->
<g id="Node000003" class="node">
<title>Node3</title>
<g id="a_Node000003"><a xlink:href="Partie_8hpp.html" target="_top" xlink:title=" ">
<polygon fill="white" stroke="#666666" points="145.5,-74 41.5,-74 41.5,-55 145.5,-55 145.5,-74"/>
<text text-anchor="middle" x="93.5" y="-62" font-family="Helvetica,sans-Serif" font-size="10.00">include/Partie.hpp</text>
</a>
</g>
</g>
<!-- Node1&#45;&gt;Node3 -->
<g id="edge10_Node000001_Node000003" class="edge">
<title>Node1&#45;&gt;Node3</title>
<g id="a_edge10_Node000001_Node000003"><a xlink:title=" ">
<path fill="none" stroke="#63b8ff" d="M197.11,-215.93C163.57,-200.93 113.09,-172.3 91.5,-129 82.64,-111.23 87.23,-87.06 90.73,-74.27"/>
<polygon fill="#63b8ff" stroke="#63b8ff" points="195.94,-219.24 206.51,-219.98 198.71,-212.81 195.94,-219.24"/>
</a>
</g>
</g>
<!-- Node4 -->
<g id="Node000004" class="node">
<title>Node4</title>
<g id="a_Node000004"><a xlink:href="Partie_8cpp.html" target="_top" xlink:title=" ">
<polygon fill="white" stroke="#666666" points="416.5,-19 334.5,-19 334.5,0 416.5,0 416.5,-19"/>
<text text-anchor="middle" x="375.5" y="-7" font-family="Helvetica,sans-Serif" font-size="10.00">src/Partie.cpp</text>
</a>
</g>
</g>
<!-- Node1&#45;&gt;Node4 -->
<g id="edge17_Node000001_Node000004" class="edge">
<title>Node1&#45;&gt;Node4</title>
<g id="a_edge17_Node000001_Node000004"><a xlink:title=" ">
<path fill="none" stroke="#63b8ff" d="M268.42,-216.63C307.46,-202.5 365.78,-174.87 394.5,-129 412.05,-100.96 411.41,-86.86 402.5,-55 398.65,-41.25 389.27,-27.52 382.65,-19.03"/>
<polygon fill="#63b8ff" stroke="#63b8ff" points="267.24,-213.34 258.94,-219.93 269.54,-219.95 267.24,-213.34"/>
</a>
</g>
</g>
<!-- Node5 -->
<g id="Node000005" class="node">
<title>Node5</title>
<g id="a_Node000005"><a xlink:href="gui__main_8cpp.html" target="_top" xlink:title=" ">
<polygon fill="white" stroke="#666666" points="196,-19 97,-19 97,0 196,0 196,-19"/>
<text text-anchor="middle" x="146.5" y="-7" font-family="Helvetica,sans-Serif" font-size="10.00">src/gui_main.cpp</text>
</a>
</g>
</g>
<!-- Node1&#45;&gt;Node5 -->
<g id="edge19_Node000001_Node000005" class="edge">
<title>Node1&#45;&gt;Node5</title>
<g id="a_edge19_Node000001_Node000005"><a xlink:title=" ">
<path fill="none" stroke="#63b8ff" d="M183.07,-217.05C160.83,-210.02 134.69,-199.34 114.5,-184 65.95,-147.11 51.7,-131.88 32.5,-74 21.98,-42.28 61.43,-26.03 96.76,-17.96"/>
<polygon fill="#63b8ff" stroke="#63b8ff" points="182.08,-220.41 192.67,-219.94 184.1,-213.71 182.08,-220.41"/>
</a>
</g>
</g>
<!-- Node6 -->
<g id="Node000006" class="node">
<title>Node6</title>
<g id="a_Node000006"><a xlink:href="main_8cpp.html" target="_top" xlink:title=" ">
<polygon fill="white" stroke="#666666" points="79,-19 0,-19 0,0 79,0 79,-19"/>
<text text-anchor="middle" x="39.5" y="-7" font-family="Helvetica,sans-Serif" font-size="10.00">src/main.cpp</text>
</a>
</g>
</g>
<!-- Node1&#45;&gt;Node6 -->
<g id="edge20_Node000001_Node000006" class="edge">
<title>Node1&#45;&gt;Node6</title>
<g id="a_edge20_Node000001_Node000006"><a xlink:title=" ">
<path fill="none" stroke="#63b8ff" d="M169.69,-217.91C142.94,-211.19 111.98,-200.55 87.5,-184 41.36,-152.81 34.89,-129.2 27.5,-74 24.85,-54.21 31.69,-31.24 36.1,-19.08"/>
<polygon fill="#63b8ff" stroke="#63b8ff" points="169.18,-221.38 179.72,-220.29 170.8,-214.57 169.18,-221.38"/>
</a>
</g>
</g>
<!-- Node8 -->
<g id="Node000008" class="node">
<title>Node8</title>
<g id="a_Node000008"><a xlink:href="Plateau_8hpp.html" target="_top" xlink:title="Classe Plateau – Gère le plateau de jeu avec villes et voies ferrées.">
<polygon fill="white" stroke="#666666" points="286,-184 173,-184 173,-165 286,-165 286,-184"/>
<text text-anchor="middle" x="229.5" y="-172" font-family="Helvetica,sans-Serif" font-size="10.00">include/Plateau.hpp</text>
</a>
</g>
</g>
<!-- Node1&#45;&gt;Node8 -->
<g id="edge11_Node000001_Node000008" class="edge">
<title>Node1&#45;&gt;Node8</title>
<g id="a_edge11_Node000001_Node000008"><a xlink:title=" ">
<path fill="none" stroke="#63b8ff" d="M229.5,-209.66C229.5,-200.93 229.5,-190.99 229.5,-184.09"/>
<polygon fill="#63b8ff" stroke="#63b8ff" points="226,-209.75 229.5,-219.75 233,-209.75 226,-209.75"/>
</a>
</g>
</g>
<!-- Node10 -->
<g id="Node000010" class="node">
<title>Node10</title>
<g id="a_Node000010"><a xlink:href="Train_8cpp.html" target="_top" xlink:title=" ">
<polygon fill="white" stroke="#666666" points="539,-184 462,-184 462,-165 539,-165 539,-184"/>
<text text-anchor="middle" x="500.5" y="-172" font-family="Helvetica,sans-Serif" font-size="10.00">src/Train.cpp</text>
</a>
</g>
</g>
<!-- Node1&#45;&gt;Node10 -->
<g id="edge18_Node000001_Node000010" class="edge">
<title>Node1&#45;&gt;Node10</title>
<g id="a_edge18_Node000001_Node000010"><a xlink:title=" ">
<path fill="none" stroke="#63b8ff" d="M282.89,-218.06C335.62,-207.75 415,-192.22 461.89,-183.05"/>
<polygon fill="#63b8ff" stroke="#63b8ff" points="282.18,-214.63 273.04,-219.98 283.53,-221.5 282.18,-214.63"/>
</a>
</g>
</g>
<!-- Node2&#45;&gt;Node3 -->
<g id="edge2_Node000002_Node000003" class="edge">
<title>Node2&#45;&gt;Node3</title>
<g id="a_edge2_Node000002_Node000003"><a xlink:title=" ">
<path fill="none" stroke="#63b8ff" d="M269.16,-107.63C227.76,-97.7 167.38,-83.22 129.29,-74.08"/>
<polygon fill="#63b8ff" stroke="#63b8ff" points="268.45,-111.06 278.99,-109.98 270.08,-104.25 268.45,-111.06"/>
</a>
</g>
</g>
<!-- Node2&#45;&gt;Node4 -->
<g id="edge7_Node000002_Node000004" class="edge">
<title>Node2&#45;&gt;Node4</title>
<g id="a_edge7_Node000002_Node000004"><a xlink:title=" ">
<path fill="none" stroke="#63b8ff" d="M324.52,-100.76C337.78,-77.28 360.64,-36.81 370.61,-19.16"/>
<polygon fill="#63b8ff" stroke="#63b8ff" points="321.36,-99.23 319.49,-109.66 327.46,-102.68 321.36,-99.23"/>
</a>
</g>
</g>
<!-- Node2&#45;&gt;Node5 -->
<g id="edge8_Node000002_Node000005" class="edge">
<title>Node2&#45;&gt;Node5</title>
<g id="a_edge8_Node000002_Node000005"><a xlink:title=" ">
<path fill="none" stroke="#63b8ff" d="M312.23,-99.7C309.57,-85.58 303.83,-66.73 291.5,-55 265.84,-30.59 227.12,-19.54 196.14,-14.56"/>
<polygon fill="#63b8ff" stroke="#63b8ff" points="308.81,-100.43 313.77,-109.79 315.72,-99.37 308.81,-100.43"/>
</a>
</g>
</g>
<!-- Node2&#45;&gt;Node6 -->
<g id="edge9_Node000002_Node000006" class="edge">
<title>Node2&#45;&gt;Node6</title>
<g id="a_edge9_Node000002_Node000006"><a xlink:title=" ">
<path fill="none" stroke="#63b8ff" d="M303.97,-101.28C294.08,-86.63 277.92,-66.23 258.5,-55 250.75,-50.52 140.42,-29.38 79.39,-17.93"/>
<polygon fill="#63b8ff" stroke="#63b8ff" points="301.18,-103.41 309.54,-109.92 307.07,-99.62 301.18,-103.41"/>
</a>
</g>
</g>
<!-- Node7 -->
<g id="Node000007" class="node">
<title>Node7</title>
<g id="a_Node000007"><a xlink:href="Joueur_8cpp.html" target="_top" xlink:title="Implémentation de la classe Joueur.">
<polygon fill="white" stroke="#666666" points="249.5,-74 165.5,-74 165.5,-55 249.5,-55 249.5,-74"/>
<text text-anchor="middle" x="207.5" y="-62" font-family="Helvetica,sans-Serif" font-size="10.00">src/Joueur.cpp</text>
</a>
</g>
</g>
<!-- Node2&#45;&gt;Node7 -->
<g id="edge6_Node000002_Node000007" class="edge">
<title>Node2&#45;&gt;Node7</title>
<g id="a_edge6_Node000002_Node000007"><a xlink:title=" ">
<path fill="none" stroke="#63b8ff" d="M288.26,-105.5C268.57,-95.75 242.18,-82.68 225,-74.17"/>
<polygon fill="#63b8ff" stroke="#63b8ff" points="286.79,-108.68 297.31,-109.98 289.9,-102.41 286.79,-108.68"/>
</a>
</g>
</g>
<!-- Node3&#45;&gt;Node4 -->
<g id="edge3_Node000003_Node000004" class="edge">
<title>Node3&#45;&gt;Node4</title>
<g id="a_edge3_Node000003_Node000004"><a xlink:title=" ">
<path fill="none" stroke="#63b8ff" d="M148.66,-53.13C203.2,-42.88 285.4,-27.43 334.43,-18.22"/>
<polygon fill="#63b8ff" stroke="#63b8ff" points="147.99,-49.7 138.81,-54.98 149.28,-56.58 147.99,-49.7"/>
</a>
</g>
</g>
<!-- Node3&#45;&gt;Node5 -->
<g id="edge4_Node000003_Node000005" class="edge">
<title>Node3&#45;&gt;Node5</title>
<g id="a_edge4_Node000003_Node000005"><a xlink:title=" ">
<path fill="none" stroke="#63b8ff" d="M109.48,-47.52C118.82,-38.18 130.25,-26.75 137.91,-19.09"/>
<polygon fill="#63b8ff" stroke="#63b8ff" points="106.85,-45.2 102.25,-54.75 111.8,-50.15 106.85,-45.2"/>
</a>
</g>
</g>
<!-- Node3&#45;&gt;Node6 -->
<g id="edge5_Node000003_Node000006" class="edge">
<title>Node3&#45;&gt;Node6</title>
<g id="a_edge5_Node000003_Node000006"><a xlink:title=" ">
<path fill="none" stroke="#63b8ff" d="M77.22,-47.52C67.7,-38.18 56.06,-26.75 48.25,-19.09"/>
<polygon fill="#63b8ff" stroke="#63b8ff" points="74.99,-50.24 84.58,-54.75 79.9,-45.25 74.99,-50.24"/>
</a>
</g>
</g>
<!-- Node8&#45;&gt;Node2 -->
<g id="edge12_Node000008_Node000002" class="edge">
<title>Node8&#45;&gt;Node2</title>
<g id="a_edge12_Node000008_Node000002"><a xlink:title=" ">
<path fill="none" stroke="#63b8ff" d="M252.07,-159.42C267.5,-149.81 287.45,-137.37 300.59,-129.17"/>
<polygon fill="#63b8ff" stroke="#63b8ff" points="249.79,-156.72 243.16,-164.98 253.49,-162.66 249.79,-156.72"/>
</a>
</g>
</g>
<!-- Node8&#45;&gt;Node3 -->
<g id="edge13_Node000008_Node000003" class="edge">
<title>Node8&#45;&gt;Node3</title>
<g id="a_edge13_Node000008_Node000003"><a xlink:title=" ">
<path fill="none" stroke="#63b8ff" d="M163.29,-163.22C142.01,-156.75 120.18,-146.2 105.5,-129 92.1,-113.3 91.76,-87.36 92.63,-74.02"/>
<polygon fill="#63b8ff" stroke="#63b8ff" points="162.42,-166.62 172.99,-165.92 164.29,-159.87 162.42,-166.62"/>
</a>
</g>
</g>
<!-- Node8&#45;&gt;Node4 -->
<g id="edge15_Node000008_Node000004" class="edge">
<title>Node8&#45;&gt;Node4</title>
<g id="a_edge15_Node000008_Node000004"><a xlink:title=" ">
<path fill="none" stroke="#63b8ff" d="M296.16,-170.52C325.72,-165.46 357.94,-154.01 376.5,-129 401.51,-95.3 386.03,-40.06 378.7,-19.01"/>
<polygon fill="#63b8ff" stroke="#63b8ff" points="295.64,-167.06 286.26,-172 296.67,-173.98 295.64,-167.06"/>
</a>
</g>
</g>
<!-- Node8&#45;&gt;Node7 -->
<g id="edge14_Node000008_Node000007" class="edge">
<title>Node8&#45;&gt;Node7</title>
<g id="a_edge14_Node000008_Node000007"><a xlink:title=" ">
<path fill="none" stroke="#63b8ff" d="M225.69,-154.8C220.88,-131.2 212.81,-91.58 209.26,-74.16"/>
<polygon fill="#63b8ff" stroke="#63b8ff" points="222.27,-155.56 227.7,-164.66 229.13,-154.16 222.27,-155.56"/>
</a>
</g>
</g>
<!-- Node9 -->
<g id="Node000009" class="node">
<title>Node9</title>
<g id="a_Node000009"><a xlink:href="Plateau_8cpp.html" target="_top" xlink:title=" ">
<polygon fill="white" stroke="#666666" points="205,-129 114,-129 114,-110 205,-110 205,-129"/>
<text text-anchor="middle" x="159.5" y="-117" font-family="Helvetica,sans-Serif" font-size="10.00">src/Plateau.cpp</text>
</a>
</g>
</g>
<!-- Node8&#45;&gt;Node9 -->
<g id="edge16_Node000008_Node000009" class="edge">
<title>Node8&#45;&gt;Node9</title>
<g id="a_edge16_Node000008_Node000009"><a xlink:title=" ">
<path fill="none" stroke="#63b8ff" d="M210.19,-158.88C197.59,-149.34 181.57,-137.21 170.95,-129.17"/>
<polygon fill="#63b8ff" stroke="#63b8ff" points="208.17,-161.74 218.25,-164.98 212.39,-156.16 208.17,-161.74"/>
</a>
</g>
</g>
</g>
</svg>
