<?xml version="1.0" encoding="UTF-8" standalone="no"?>
<!DOCTYPE svg PUBLIC "-//W3C//DTD SVG 1.1//EN"
 "http://www.w3.org/Graphics/SVG/1.1/DTD/svg11.dtd">
<!-- Generated by graphviz version 2.43.0 (0)
 -->
<!-- Title: include/Ville.hpp Pages: 1 -->
<svg width="828pt" height="302pt"
 viewBox="0.00 0.00 828.00 302.00" xmlns="http://www.w3.org/2000/svg" xmlns:xlink="http://www.w3.org/1999/xlink">
<g id="graph0" class="graph" transform="scale(1 1) rotate(0) translate(4 298)">
<title>include/Ville.hpp</title>
<!-- Node1 -->
<g id="Node000001" class="node">
<title>Node1</title>
<g id="a_Node000001"><a xlink:title=" ">
<polygon fill="#999999" stroke="#666666" points="511,-294 413,-294 413,-275 511,-275 511,-294"/>
<text text-anchor="middle" x="462" y="-282" font-family="Helvetica,sans-Serif" font-size="10.00">include/Ville.hpp</text>
</a>
</g>
</g>
<!-- Node2 -->
<g id="Node000002" class="node">
<title>Node2</title>
<g id="a_Node000002"><a xlink:href="Plateau_8hpp.html" target="_top" xlink:title="Classe Plateau – Gère le plateau de jeu avec villes et voies ferrées.">
<polygon fill="white" stroke="#666666" points="557.5,-184 444.5,-184 444.5,-165 557.5,-165 557.5,-184"/>
<text text-anchor="middle" x="501" y="-172" font-family="Helvetica,sans-Serif" font-size="10.00">include/Plateau.hpp</text>
</a>
</g>
</g>
<!-- Node1&#45;&gt;Node2 -->
<g id="edge1_Node000001_Node000002" class="edge">
<title>Node1&#45;&gt;Node2</title>
<g id="a_edge1_Node000001_Node000002"><a xlink:title=" ">
<path fill="none" stroke="#63b8ff" d="M474.36,-266.4C479.6,-258.42 485.33,-248.58 489,-239 496.15,-220.35 499.16,-196.94 500.33,-184.4"/>
<polygon fill="#63b8ff" stroke="#63b8ff" points="471.38,-264.57 468.59,-274.79 477.14,-268.53 471.38,-264.57"/>
</a>
</g>
</g>
<!-- Node6 -->
<g id="Node000006" class="node">
<title>Node6</title>
<g id="a_Node000006"><a xlink:href="gui__main_8cpp.html" target="_top" xlink:title=" ">
<polygon fill="white" stroke="#666666" points="689.5,-19 590.5,-19 590.5,0 689.5,0 689.5,-19"/>
<text text-anchor="middle" x="640" y="-7" font-family="Helvetica,sans-Serif" font-size="10.00">src/gui_main.cpp</text>
</a>
</g>
</g>
<!-- Node1&#45;&gt;Node6 -->
<g id="edge30_Node000001_Node000006" class="edge">
<title>Node1&#45;&gt;Node6</title>
<g id="a_edge30_Node000001_Node000006"><a xlink:title=" ">
<path fill="none" stroke="#63b8ff" d="M521.56,-283.12C596.63,-279.14 716,-259.59 716,-175.5 716,-175.5 716,-175.5 716,-118.5 716,-74.48 673.25,-35.74 651.88,-19.12"/>
<polygon fill="#63b8ff" stroke="#63b8ff" points="521.11,-279.64 511.27,-283.59 521.42,-286.63 521.11,-279.64"/>
</a>
</g>
</g>
<!-- Node7 -->
<g id="Node000007" class="node">
<title>Node7</title>
<g id="a_Node000007"><a xlink:href="main_8cpp.html" target="_top" xlink:title=" ">
<polygon fill="white" stroke="#666666" points="179.5,-19 100.5,-19 100.5,0 179.5,0 179.5,-19"/>
<text text-anchor="middle" x="140" y="-7" font-family="Helvetica,sans-Serif" font-size="10.00">src/main.cpp</text>
</a>
</g>
</g>
<!-- Node1&#45;&gt;Node7 -->
<g id="edge31_Node000001_Node000007" class="edge">
<title>Node1&#45;&gt;Node7</title>
<g id="a_edge31_Node000001_Node000007"><a xlink:title=" ">
<path fill="none" stroke="#63b8ff" d="M402.86,-281.99C278.23,-277.19 0,-257.32 0,-175.5 0,-175.5 0,-175.5 0,-118.5 0,-63.55 68.45,-32.64 109.62,-19.02"/>
<polygon fill="#63b8ff" stroke="#63b8ff" points="402.87,-285.49 413,-282.36 403.13,-278.49 402.87,-285.49"/>
</a>
</g>
</g>
<!-- Node10 -->
<g id="Node000010" class="node">
<title>Node10</title>
<g id="a_Node000010"><a xlink:href="Ticket_8hpp.html" target="_top" xlink:title=" ">
<polygon fill="white" stroke="#666666" points="306.5,-239 201.5,-239 201.5,-220 306.5,-220 306.5,-239"/>
<text text-anchor="middle" x="254" y="-227" font-family="Helvetica,sans-Serif" font-size="10.00">include/Ticket.hpp</text>
</a>
</g>
</g>
<!-- Node1&#45;&gt;Node10 -->
<g id="edge15_Node000001_Node000010" class="edge">
<title>Node1&#45;&gt;Node10</title>
<g id="a_edge15_Node000001_Node000010"><a xlink:title=" ">
<path fill="none" stroke="#63b8ff" d="M418.59,-272.44C379.65,-262.52 323.31,-248.16 287.68,-239.08"/>
<polygon fill="#63b8ff" stroke="#63b8ff" points="418.03,-275.91 428.58,-274.98 419.76,-269.12 418.03,-275.91"/>
</a>
</g>
</g>
<!-- Node13 -->
<g id="Node000013" class="node">
<title>Node13</title>
<g id="a_Node000013"><a xlink:href="VoieFerree_8hpp.html" target="_top" xlink:title="Classe VoieFerree – Représente une voie ferrée du plateau.">
<polygon fill="white" stroke="#666666" points="480,-239 352,-239 352,-220 480,-220 480,-239"/>
<text text-anchor="middle" x="416" y="-227" font-family="Helvetica,sans-Serif" font-size="10.00">include/VoieFerree.hpp</text>
</a>
</g>
</g>
<!-- Node1&#45;&gt;Node13 -->
<g id="edge24_Node000001_Node000013" class="edge">
<title>Node1&#45;&gt;Node13</title>
<g id="a_edge24_Node000001_Node000013"><a xlink:title=" ">
<path fill="none" stroke="#63b8ff" d="M447.64,-266.96C439.63,-257.72 429.97,-246.6 423.45,-239.09"/>
<polygon fill="#63b8ff" stroke="#63b8ff" points="445.21,-269.49 454.4,-274.75 450.49,-264.9 445.21,-269.49"/>
</a>
</g>
</g>
<!-- Node14 -->
<g id="Node000014" class="node">
<title>Node14</title>
<g id="a_Node000014"><a xlink:href="Ville_8cpp.html" target="_top" xlink:title=" ">
<polygon fill="white" stroke="#666666" points="820,-239 744,-239 744,-220 820,-220 820,-239"/>
<text text-anchor="middle" x="782" y="-227" font-family="Helvetica,sans-Serif" font-size="10.00">src/Ville.cpp</text>
</a>
</g>
</g>
<!-- Node1&#45;&gt;Node14 -->
<g id="edge29_Node000001_Node000014" class="edge">
<title>Node1&#45;&gt;Node14</title>
<g id="a_edge29_Node000001_Node000014"><a xlink:title=" ">
<path fill="none" stroke="#63b8ff" d="M521.39,-273.66C586.36,-262.9 688.57,-245.97 743.69,-236.84"/>
<polygon fill="#63b8ff" stroke="#63b8ff" points="520.59,-270.25 511.3,-275.33 521.74,-277.15 520.59,-270.25"/>
</a>
</g>
</g>
<!-- Node3 -->
<g id="Node000003" class="node">
<title>Node3</title>
<g id="a_Node000003"><a xlink:href="Joueur_8hpp.html" target="_top" xlink:title="Déclaration de la classe Joueur, participant à une partie des Aventuriers du Rail.">
<polygon fill="white" stroke="#666666" points="426,-129 320,-129 320,-110 426,-110 426,-129"/>
<text text-anchor="middle" x="373" y="-117" font-family="Helvetica,sans-Serif" font-size="10.00">include/Joueur.hpp</text>
</a>
</g>
</g>
<!-- Node2&#45;&gt;Node3 -->
<g id="edge2_Node000002_Node000003" class="edge">
<title>Node2&#45;&gt;Node3</title>
<g id="a_edge2_Node000002_Node000003"><a xlink:title=" ">
<path fill="none" stroke="#63b8ff" d="M470.88,-161.03C447.21,-151.23 414.85,-137.83 393.94,-129.17"/>
<polygon fill="#63b8ff" stroke="#63b8ff" points="469.86,-164.39 480.43,-164.98 472.53,-157.93 469.86,-164.39"/>
</a>
</g>
</g>
<!-- Node4 -->
<g id="Node000004" class="node">
<title>Node4</title>
<g id="a_Node000004"><a xlink:href="Partie_8hpp.html" target="_top" xlink:title=" ">
<polygon fill="white" stroke="#666666" points="348,-74 244,-74 244,-55 348,-55 348,-74"/>
<text text-anchor="middle" x="296" y="-62" font-family="Helvetica,sans-Serif" font-size="10.00">include/Partie.hpp</text>
</a>
</g>
</g>
<!-- Node2&#45;&gt;Node4 -->
<g id="edge11_Node000002_Node000004" class="edge">
<title>Node2&#45;&gt;Node4</title>
<g id="a_edge11_Node000002_Node000004"><a xlink:title=" ">
<path fill="none" stroke="#63b8ff" d="M434.33,-165.4C386.79,-158.27 328.35,-146.32 311,-129 296.25,-114.28 294.95,-87.91 295.39,-74.25"/>
<polygon fill="#63b8ff" stroke="#63b8ff" points="433.89,-168.87 444.29,-166.85 434.9,-161.95 433.89,-168.87"/>
</a>
</g>
</g>
<!-- Node5 -->
<g id="Node000005" class="node">
<title>Node5</title>
<g id="a_Node000005"><a xlink:href="Partie_8cpp.html" target="_top" xlink:title=" ">
<polygon fill="white" stroke="#666666" points="377,-19 295,-19 295,0 377,0 377,-19"/>
<text text-anchor="middle" x="336" y="-7" font-family="Helvetica,sans-Serif" font-size="10.00">src/Partie.cpp</text>
</a>
</g>
</g>
<!-- Node2&#45;&gt;Node5 -->
<g id="edge13_Node000002_Node000005" class="edge">
<title>Node2&#45;&gt;Node5</title>
<g id="a_edge13_Node000002_Node000005"><a xlink:title=" ">
<path fill="none" stroke="#63b8ff" d="M527.19,-159.66C538.97,-152.12 552,-141.73 560,-129 577.69,-100.85 592.21,-80.61 571,-55 546.83,-25.82 437.69,-15.63 377.01,-12.18"/>
<polygon fill="#63b8ff" stroke="#63b8ff" points="525.3,-156.71 518.52,-164.85 528.9,-162.71 525.3,-156.71"/>
</a>
</g>
</g>
<!-- Node8 -->
<g id="Node000008" class="node">
<title>Node8</title>
<g id="a_Node000008"><a xlink:href="Joueur_8cpp.html" target="_top" xlink:title="Implémentation de la classe Joueur.">
<polygon fill="white" stroke="#666666" points="562,-74 478,-74 478,-55 562,-55 562,-74"/>
<text text-anchor="middle" x="520" y="-62" font-family="Helvetica,sans-Serif" font-size="10.00">src/Joueur.cpp</text>
</a>
</g>
</g>
<!-- Node2&#45;&gt;Node8 -->
<g id="edge12_Node000002_Node000008" class="edge">
<title>Node2&#45;&gt;Node8</title>
<g id="a_edge12_Node000002_Node000008"><a xlink:title=" ">
<path fill="none" stroke="#63b8ff" d="M521.7,-158.66C530.67,-150.95 540.19,-140.69 545,-129 553.02,-109.49 537.8,-86.41 527.78,-74.16"/>
<polygon fill="#63b8ff" stroke="#63b8ff" points="519.4,-156.02 513.78,-165 523.77,-161.49 519.4,-156.02"/>
</a>
</g>
</g>
<!-- Node9 -->
<g id="Node000009" class="node">
<title>Node9</title>
<g id="a_Node000009"><a xlink:href="Plateau_8cpp.html" target="_top" xlink:title=" ">
<polygon fill="white" stroke="#666666" points="535.5,-129 444.5,-129 444.5,-110 535.5,-110 535.5,-129"/>
<text text-anchor="middle" x="490" y="-117" font-family="Helvetica,sans-Serif" font-size="10.00">src/Plateau.cpp</text>
</a>
</g>
</g>
<!-- Node2&#45;&gt;Node9 -->
<g id="edge14_Node000002_Node000009" class="edge">
<title>Node2&#45;&gt;Node9</title>
<g id="a_edge14_Node000002_Node000009"><a xlink:title=" ">
<path fill="none" stroke="#63b8ff" d="M497.15,-154.95C495.32,-146.15 493.23,-136.06 491.78,-129.09"/>
<polygon fill="#63b8ff" stroke="#63b8ff" points="493.72,-155.67 499.18,-164.75 500.58,-154.25 493.72,-155.67"/>
</a>
</g>
</g>
<!-- Node3&#45;&gt;Node4 -->
<g id="edge3_Node000003_Node000004" class="edge">
<title>Node3&#45;&gt;Node4</title>
<g id="a_edge3_Node000003_Node000004"><a xlink:title=" ">
<path fill="none" stroke="#63b8ff" d="M352.15,-104.15C338.24,-94.57 320.39,-82.29 308.6,-74.17"/>
<polygon fill="#63b8ff" stroke="#63b8ff" points="350.41,-107.2 360.63,-109.98 354.38,-101.43 350.41,-107.2"/>
</a>
</g>
</g>
<!-- Node3&#45;&gt;Node5 -->
<g id="edge8_Node000003_Node000005" class="edge">
<title>Node3&#45;&gt;Node5</title>
<g id="a_edge8_Node000003_Node000005"><a xlink:title=" ">
<path fill="none" stroke="#63b8ff" d="M369.29,-99.79C366.51,-86.99 362.28,-69.74 357,-55 352.39,-42.13 345.34,-27.97 340.7,-19.15"/>
<polygon fill="#63b8ff" stroke="#63b8ff" points="365.89,-100.63 371.35,-109.71 372.74,-99.21 365.89,-100.63"/>
</a>
</g>
</g>
<!-- Node3&#45;&gt;Node6 -->
<g id="edge9_Node000003_Node000006" class="edge">
<title>Node3&#45;&gt;Node6</title>
<g id="a_edge9_Node000003_Node000006"><a xlink:title=" ">
<path fill="none" stroke="#63b8ff" d="M391.46,-103.59C410.04,-89.26 440.01,-67.93 469,-55 508.08,-37.57 555.35,-25.92 590.27,-18.93"/>
<polygon fill="#63b8ff" stroke="#63b8ff" points="389.24,-100.88 383.54,-109.81 393.57,-106.39 389.24,-100.88"/>
</a>
</g>
</g>
<!-- Node3&#45;&gt;Node7 -->
<g id="edge10_Node000003_Node000007" class="edge">
<title>Node3&#45;&gt;Node7</title>
<g id="a_edge10_Node000003_Node000007"><a xlink:title=" ">
<path fill="none" stroke="#63b8ff" d="M327.61,-107.29C300.08,-99.66 264.67,-88.35 235,-74 202.32,-58.19 167.82,-32.53 150.8,-19.19"/>
<polygon fill="#63b8ff" stroke="#63b8ff" points="326.8,-110.7 337.37,-109.93 328.63,-103.94 326.8,-110.7"/>
</a>
</g>
</g>
<!-- Node3&#45;&gt;Node8 -->
<g id="edge7_Node000003_Node000008" class="edge">
<title>Node3&#45;&gt;Node8</title>
<g id="a_edge7_Node000003_Node000008"><a xlink:title=" ">
<path fill="none" stroke="#63b8ff" d="M406.14,-106.55C433.44,-96.71 471.5,-82.98 495.95,-74.17"/>
<polygon fill="#63b8ff" stroke="#63b8ff" points="404.84,-103.3 396.62,-109.98 407.21,-109.89 404.84,-103.3"/>
</a>
</g>
</g>
<!-- Node4&#45;&gt;Node5 -->
<g id="edge4_Node000004_Node000005" class="edge">
<title>Node4&#45;&gt;Node5</title>
<g id="a_edge4_Node000004_Node000005"><a xlink:title=" ">
<path fill="none" stroke="#63b8ff" d="M308.7,-46.67C315.63,-37.5 323.91,-26.52 329.52,-19.09"/>
<polygon fill="#63b8ff" stroke="#63b8ff" points="305.84,-44.66 302.61,-54.75 311.42,-48.87 305.84,-44.66"/>
</a>
</g>
</g>
<!-- Node4&#45;&gt;Node6 -->
<g id="edge5_Node000004_Node000006" class="edge">
<title>Node4&#45;&gt;Node6</title>
<g id="a_edge5_Node000004_Node000006"><a xlink:title=" ">
<path fill="none" stroke="#63b8ff" d="M358.19,-53.92C424.76,-43.66 529.04,-27.6 590.34,-18.15"/>
<polygon fill="#63b8ff" stroke="#63b8ff" points="357.6,-50.47 348.25,-55.45 358.66,-57.39 357.6,-50.47"/>
</a>
</g>
</g>
<!-- Node4&#45;&gt;Node7 -->
<g id="edge6_Node000004_Node000007" class="edge">
<title>Node4&#45;&gt;Node7</title>
<g id="a_edge6_Node000004_Node000007"><a xlink:title=" ">
<path fill="none" stroke="#63b8ff" d="M261.18,-51.67C232.09,-41.79 191.3,-27.93 165.26,-19.08"/>
<polygon fill="#63b8ff" stroke="#63b8ff" points="260.34,-55.08 270.94,-54.98 262.59,-48.45 260.34,-55.08"/>
</a>
</g>
</g>
<!-- Node10&#45;&gt;Node2 -->
<g id="edge18_Node000010_Node000002" class="edge">
<title>Node10&#45;&gt;Node2</title>
<g id="a_edge18_Node000010_Node000002"><a xlink:title=" ">
<path fill="none" stroke="#63b8ff" d="M303.5,-217.88C349.8,-207.94 418.07,-193.3 461,-184.08"/>
<polygon fill="#63b8ff" stroke="#63b8ff" points="302.73,-214.46 293.68,-219.98 304.2,-221.31 302.73,-214.46"/>
</a>
</g>
</g>
<!-- Node10&#45;&gt;Node3 -->
<g id="edge16_Node000010_Node000003" class="edge">
<title>Node10&#45;&gt;Node3</title>
<g id="a_edge16_Node000010_Node000003"><a xlink:title=" ">
<path fill="none" stroke="#63b8ff" d="M255.52,-209.29C257.53,-195.51 262.19,-177.29 273,-165 289.06,-146.74 314.06,-135.61 335.05,-129.05"/>
<polygon fill="#63b8ff" stroke="#63b8ff" points="252,-209.27 254.38,-219.59 258.96,-210.04 252,-209.27"/>
</a>
</g>
</g>
<!-- Node10&#45;&gt;Node4 -->
<g id="edge17_Node000010_Node000004" class="edge">
<title>Node10&#45;&gt;Node4</title>
<g id="a_edge17_Node000010_Node000004"><a xlink:title=" ">
<path fill="none" stroke="#63b8ff" d="M254.13,-209.48C254.54,-196.76 255.75,-179.72 259,-165 266.71,-130.09 283.98,-90.95 291.9,-74.04"/>
<polygon fill="#63b8ff" stroke="#63b8ff" points="250.62,-209.69 253.93,-219.76 257.62,-209.83 250.62,-209.69"/>
</a>
</g>
</g>
<!-- Node10&#45;&gt;Node5 -->
<g id="edge19_Node000010_Node000005" class="edge">
<title>Node10&#45;&gt;Node5</title>
<g id="a_edge19_Node000010_Node000005"><a xlink:title=" ">
<path fill="none" stroke="#63b8ff" d="M245.1,-210.59C229.83,-177.05 203.2,-103.76 235,-55 248.24,-34.7 273.06,-23.59 294.78,-17.55"/>
<polygon fill="#63b8ff" stroke="#63b8ff" points="241.95,-212.12 249.4,-219.65 248.28,-209.12 241.95,-212.12"/>
</a>
</g>
</g>
<!-- Node10&#45;&gt;Node6 -->
<g id="edge22_Node000010_Node000006" class="edge">
<title>Node10&#45;&gt;Node6</title>
<g id="a_edge22_Node000010_Node000006"><a xlink:title=" ">
<path fill="none" stroke="#63b8ff" d="M316.64,-221.19C405.14,-210.64 557.18,-191.57 567,-184 622.64,-141.1 636.31,-47.88 639.26,-19.12"/>
<polygon fill="#63b8ff" stroke="#63b8ff" points="316.22,-217.72 306.7,-222.38 317.05,-224.67 316.22,-217.72"/>
</a>
</g>
</g>
<!-- Node10&#45;&gt;Node7 -->
<g id="edge23_Node000010_Node000007" class="edge">
<title>Node10&#45;&gt;Node7</title>
<g id="a_edge23_Node000010_Node000007"><a xlink:title=" ">
<path fill="none" stroke="#63b8ff" d="M191.46,-222.78C140.27,-216.65 73.68,-204.86 57,-184 12.8,-128.7 98.73,-46.01 129.57,-19.21"/>
<polygon fill="#63b8ff" stroke="#63b8ff" points="191.14,-226.27 201.48,-223.93 191.94,-219.31 191.14,-226.27"/>
</a>
</g>
</g>
<!-- Node11 -->
<g id="Node000011" class="node">
<title>Node11</title>
<g id="a_Node000011"><a xlink:href="Ticket_8cpp.html" target="_top" xlink:title=" ">
<polygon fill="white" stroke="#666666" points="149.5,-184 66.5,-184 66.5,-165 149.5,-165 149.5,-184"/>
<text text-anchor="middle" x="108" y="-172" font-family="Helvetica,sans-Serif" font-size="10.00">src/Ticket.cpp</text>
</a>
</g>
</g>
<!-- Node10&#45;&gt;Node11 -->
<g id="edge20_Node000010_Node000011" class="edge">
<title>Node10&#45;&gt;Node11</title>
<g id="a_edge20_Node000010_Node000011"><a xlink:title=" ">
<path fill="none" stroke="#63b8ff" d="M221.08,-216.55C193.97,-206.71 156.17,-192.98 131.88,-184.17"/>
<polygon fill="#63b8ff" stroke="#63b8ff" points="219.95,-219.86 230.54,-219.98 222.34,-213.28 219.95,-219.86"/>
</a>
</g>
</g>
<!-- Node12 -->
<g id="Node000012" class="node">
<title>Node12</title>
<g id="a_Node000012"><a xlink:href="VoieFerree_8cpp.html" target="_top" xlink:title=" ">
<polygon fill="white" stroke="#666666" points="388,-184 282,-184 282,-165 388,-165 388,-184"/>
<text text-anchor="middle" x="335" y="-172" font-family="Helvetica,sans-Serif" font-size="10.00">src/VoieFerree.cpp</text>
</a>
</g>
</g>
<!-- Node10&#45;&gt;Node12 -->
<g id="edge21_Node000010_Node000012" class="edge">
<title>Node10&#45;&gt;Node12</title>
<g id="a_edge21_Node000010_Node000012"><a xlink:title=" ">
<path fill="none" stroke="#63b8ff" d="M275.51,-214.42C290.21,-204.81 309.22,-192.37 321.75,-184.17"/>
<polygon fill="#63b8ff" stroke="#63b8ff" points="273.47,-211.58 267.01,-219.98 277.3,-217.44 273.47,-211.58"/>
</a>
</g>
</g>
<!-- Node13&#45;&gt;Node2 -->
<g id="edge25_Node000013_Node000002" class="edge">
<title>Node13&#45;&gt;Node2</title>
<g id="a_edge25_Node000013_Node000002"><a xlink:title=" ">
<path fill="none" stroke="#63b8ff" d="M438.57,-214.42C454,-204.81 473.95,-192.37 487.09,-184.17"/>
<polygon fill="#63b8ff" stroke="#63b8ff" points="436.29,-211.72 429.66,-219.98 439.99,-217.66 436.29,-211.72"/>
</a>
</g>
</g>
<!-- Node13&#45;&gt;Node6 -->
<g id="edge27_Node000013_Node000006" class="edge">
<title>Node13&#45;&gt;Node6</title>
<g id="a_edge27_Node000013_Node000006"><a xlink:title=" ">
<path fill="none" stroke="#63b8ff" d="M490.34,-224.72C552.22,-219.83 633.43,-208.78 654,-184 695.12,-134.48 658.12,-47.25 644.53,-19.35"/>
<polygon fill="#63b8ff" stroke="#63b8ff" points="489.9,-221.24 480.19,-225.48 490.43,-228.22 489.9,-221.24"/>
</a>
</g>
</g>
<!-- Node13&#45;&gt;Node7 -->
<g id="edge28_Node000013_Node000007" class="edge">
<title>Node13&#45;&gt;Node7</title>
<g id="a_edge28_Node000013_Node000007"><a xlink:title=" ">
<path fill="none" stroke="#63b8ff" d="M414.87,-209.92C413.07,-195.91 408.5,-177.11 397,-165 364.18,-130.44 339.33,-148.83 296,-129 250.93,-108.38 237.88,-104.74 199,-74 177.51,-57.01 156.76,-32.09 146.55,-19.09"/>
<polygon fill="#63b8ff" stroke="#63b8ff" points="411.39,-210.27 415.8,-219.9 418.36,-209.62 411.39,-210.27"/>
</a>
</g>
</g>
<!-- Node13&#45;&gt;Node12 -->
<g id="edge26_Node000013_Node000012" class="edge">
<title>Node13&#45;&gt;Node12</title>
<g id="a_edge26_Node000013_Node000012"><a xlink:title=" ">
<path fill="none" stroke="#63b8ff" d="M394.49,-214.42C379.79,-204.81 360.78,-192.37 348.25,-184.17"/>
<polygon fill="#63b8ff" stroke="#63b8ff" points="392.7,-217.44 402.99,-219.98 396.53,-211.58 392.7,-217.44"/>
</a>
</g>
</g>
</g>
</svg>
