<?xml version="1.0" encoding="UTF-8" standalone="no"?>
<!DOCTYPE svg PUBLIC "-//W3C//DTD SVG 1.1//EN"
 "http://www.w3.org/Graphics/SVG/1.1/DTD/svg11.dtd">
<!-- Generated by graphviz version 2.43.0 (0)
 -->
<!-- Title: include/VoieFerree.hpp Pages: 1 -->
<svg width="340pt" height="137pt"
 viewBox="0.00 0.00 339.55 137.00" xmlns="http://www.w3.org/2000/svg" xmlns:xlink="http://www.w3.org/1999/xlink">
<g id="graph0" class="graph" transform="scale(1 1) rotate(0) translate(4 133)">
<title>include/VoieFerree.hpp</title>
<!-- Node1 -->
<g id="Node000001" class="node">
<title>Node1</title>
<g id="a_Node000001"><a xlink:title="Classe VoieFerree – Représente une voie ferrée du plateau.">
<polygon fill="#999999" stroke="#666666" points="171.05,-129 43.05,-129 43.05,-110 171.05,-110 171.05,-129"/>
<text text-anchor="middle" x="107.05" y="-117" font-family="Helvetica,sans-Serif" font-size="10.00">include/VoieFerree.hpp</text>
</a>
</g>
</g>
<!-- Node2 -->
<g id="Node000002" class="node">
<title>Node2</title>
<g id="a_Node000002"><a xlink:title=" ">
<polygon fill="#e0e0e0" stroke="#999999" points="106.05,-19 62.05,-19 62.05,0 106.05,0 106.05,-19"/>
<text text-anchor="middle" x="84.05" y="-7" font-family="Helvetica,sans-Serif" font-size="10.00">string</text>
</a>
</g>
</g>
<!-- Node1&#45;&gt;Node2 -->
<g id="edge1_Node000001_Node000002" class="edge">
<title>Node1&#45;&gt;Node2</title>
<g id="a_edge1_Node000001_Node000002"><a xlink:title=" ">
<path fill="none" stroke="#63b8ff" d="M59.2,-109.99C38.58,-103.7 16.41,-92.8 4.05,-74 -11.54,-50.27 23.67,-31.39 52.23,-20.57"/>
<polygon fill="#63b8ff" stroke="#63b8ff" points="53.73,-23.75 61.96,-17.08 51.37,-17.16 53.73,-23.75"/>
</a>
</g>
</g>
<!-- Node3 -->
<g id="Node000003" class="node">
<title>Node3</title>
<g id="a_Node000003"><a xlink:title=" ">
<polygon fill="#e0e0e0" stroke="#999999" points="60.55,-74 13.55,-74 13.55,-55 60.55,-55 60.55,-74"/>
<text text-anchor="middle" x="37.05" y="-62" font-family="Helvetica,sans-Serif" font-size="10.00">vector</text>
</a>
</g>
</g>
<!-- Node1&#45;&gt;Node3 -->
<g id="edge2_Node000001_Node000003" class="edge">
<title>Node1&#45;&gt;Node3</title>
<g id="a_edge2_Node000001_Node000003"><a xlink:title=" ">
<path fill="none" stroke="#63b8ff" d="M95.81,-109.98C85.26,-102 69.25,-89.88 56.61,-80.31"/>
<polygon fill="#63b8ff" stroke="#63b8ff" points="58.59,-77.42 48.5,-74.17 54.36,-83 58.59,-77.42"/>
</a>
</g>
</g>
<!-- Node4 -->
<g id="Node000004" class="node">
<title>Node4</title>
<g id="a_Node000004"><a xlink:title=" ">
<polygon fill="#e0e0e0" stroke="#999999" points="135.05,-74 79.05,-74 79.05,-55 135.05,-55 135.05,-74"/>
<text text-anchor="middle" x="107.05" y="-62" font-family="Helvetica,sans-Serif" font-size="10.00">assert.h</text>
</a>
</g>
</g>
<!-- Node1&#45;&gt;Node4 -->
<g id="edge3_Node000001_Node000004" class="edge">
<title>Node1&#45;&gt;Node4</title>
<g id="a_edge3_Node000001_Node000004"><a xlink:title=" ">
<path fill="none" stroke="#63b8ff" d="M107.05,-109.75C107.05,-102.8 107.05,-92.85 107.05,-84.13"/>
<polygon fill="#63b8ff" stroke="#63b8ff" points="110.55,-84.09 107.05,-74.09 103.55,-84.09 110.55,-84.09"/>
</a>
</g>
</g>
<!-- Node5 -->
<g id="Node000005" class="node">
<title>Node5</title>
<g id="a_Node000005"><a xlink:href="Ville_8hpp.html" target="_top" xlink:title=" ">
<polygon fill="white" stroke="#666666" points="212.55,-74 153.55,-74 153.55,-55 212.55,-55 212.55,-74"/>
<text text-anchor="middle" x="183.05" y="-62" font-family="Helvetica,sans-Serif" font-size="10.00">Ville.hpp</text>
</a>
</g>
</g>
<!-- Node1&#45;&gt;Node5 -->
<g id="edge4_Node000001_Node000005" class="edge">
<title>Node1&#45;&gt;Node5</title>
<g id="a_edge4_Node000001_Node000005"><a xlink:title=" ">
<path fill="none" stroke="#63b8ff" d="M119.26,-109.98C130.83,-101.92 148.43,-89.65 162.21,-80.03"/>
<polygon fill="#63b8ff" stroke="#63b8ff" points="164.42,-82.76 170.62,-74.17 160.42,-77.02 164.42,-82.76"/>
</a>
</g>
</g>
<!-- Node6 -->
<g id="Node000006" class="node">
<title>Node6</title>
<g id="a_Node000006"><a xlink:href="couleurEnum_8hpp.html" target="_top" xlink:title=" ">
<polygon fill="white" stroke="#666666" points="331.55,-74 230.55,-74 230.55,-55 331.55,-55 331.55,-74"/>
<text text-anchor="middle" x="281.05" y="-62" font-family="Helvetica,sans-Serif" font-size="10.00">couleurEnum.hpp</text>
</a>
</g>
</g>
<!-- Node1&#45;&gt;Node6 -->
<g id="edge6_Node000001_Node000006" class="edge">
<title>Node1&#45;&gt;Node6</title>
<g id="a_edge6_Node000001_Node000006"><a xlink:title=" ">
<path fill="none" stroke="#63b8ff" d="M135.01,-109.98C164.35,-101.05 210.65,-86.94 243.24,-77.02"/>
<polygon fill="#63b8ff" stroke="#63b8ff" points="244.33,-80.34 252.88,-74.08 242.29,-73.65 244.33,-80.34"/>
</a>
</g>
</g>
<!-- Node5&#45;&gt;Node2 -->
<g id="edge5_Node000005_Node000002" class="edge">
<title>Node5&#45;&gt;Node2</title>
<g id="a_edge5_Node000005_Node000002"><a xlink:title=" ">
<path fill="none" stroke="#63b8ff" d="M167.15,-54.98C151.51,-46.61 127.4,-33.7 109.17,-23.95"/>
<polygon fill="#63b8ff" stroke="#63b8ff" points="110.72,-20.8 100.25,-19.17 107.41,-26.98 110.72,-20.8"/>
</a>
</g>
</g>
</g>
</svg>
