<?xml version="1.0" encoding="UTF-8" standalone="no"?>
<!DOCTYPE svg PUBLIC "-//W3C//DTD SVG 1.1//EN"
 "http://www.w3.org/Graphics/SVG/1.1/DTD/svg11.dtd">
<!-- Generated by graphviz version 2.43.0 (0)
 -->
<!-- Title: include/VoieFerree.hpp Pages: 1 -->
<!--zoomable 247 -->

<svg id="main" version="1.1" xmlns="http://www.w3.org/2000/svg" xmlns:xlink="http://www.w3.org/1999/xlink" xml:space="preserve" onload="init(evt)">
<style type="text/css"><![CDATA[
.node, .edge {opacity: 0.7;}
.node.selected, .edge.selected {opacity: 1;}
.edge:hover path { stroke: red; }
.edge:hover polygon { stroke: red; fill: red; }
]]></style>

<defs>
  <circle id="rim" cx="0" cy="0" r="7"/>
  <circle id="rim2" cx="0" cy="0" r="3.5"/>
  <g id="zoomPlus">
    <use xlink:href="#rim" fill="#404040"><set attributeName="fill" to="#808080" begin="zoomplus.mouseover" end="zoomplus.mouseout"/></use>
    <path d="M-4,0h8M0,-4v8" fill="none" stroke="white" stroke-width="1.5" pointer-events="none"/>
  </g>
  <g id="zoomMin">
    <use xlink:href="#rim" fill="#404040"><set attributeName="fill" to="#808080" begin="zoomminus.mouseover" end="zoomminus.mouseout"/></use>
    <path d="M-4,0h8" fill="none" stroke="white" stroke-width="1.5" pointer-events="none"/>
  </g>
  <g id="arrowUp" transform="translate(30 24)">
    <use xlink:href="#rim"/>
    <path pointer-events="none" fill="none" stroke="white" stroke-width="1.5" d="M0,-3.0v7 M-2.5,-0.5L0,-3.0L2.5,-0.5"/>
  </g>
  <g id="arrowRight" transform="rotate(90) translate(36 -43)">
    <use xlink:href="#rim"/>
    <path pointer-events="none" fill="none" stroke="white" stroke-width="1.5" d="M0,-3.0v7 M-2.5,-0.5L0,-3.0L2.5,-0.5"/>
  </g>
  <g id="arrowDown" transform="rotate(180) translate(-30 -48)">
    <use xlink:href="#rim"/>
    <path pointer-events="none" fill="none" stroke="white" stroke-width="1.5" d="M0,-3.0v7 M-2.5,-0.5L0,-3.0L2.5,-0.5"/>
  </g>
  <g id="arrowLeft" transform="rotate(270) translate(-36 17)">
    <use xlink:href="#rim"/>
    <path pointer-events="none" fill="none" stroke="white" stroke-width="1.5" d="M0,-3.0v7 M-2.5,-0.5L0,-3.0L2.5,-0.5"/>
  </g>
  <g id="resetDef">
    <use xlink:href="#rim2" fill="#404040"><set attributeName="fill" to="#808080" begin="reset.mouseover" end="reset.mouseout"/></use>
  </g>
</defs>
<script type="application/ecmascript">
var viewWidth = 540;
var viewHeight = 247;
var sectionId = 'dynsection-1';
</script>
<script type="application/ecmascript" xlink:href="svg.min.js"/>
<svg id="graph" class="graph">
<g id="viewport">
<title>include/VoieFerree.hpp</title>
<!-- Node1 -->
<g id="Node000001" class="node">
<title>Node1</title>
<g id="a_Node000001"><a xlink:title="Classe VoieFerree – Représente une voie ferrée du plateau.">
<polygon fill="#999999" stroke="#666666" points="442.53,-239 314.53,-239 314.53,-220 442.53,-220 442.53,-239"/>
<text text-anchor="middle" x="378.53" y="-227" font-family="Helvetica,sans-Serif" font-size="10.00">include/VoieFerree.hpp</text>
</a>
</g>
</g>
<!-- Node2 -->
<g id="Node000002" class="node">
<title>Node2</title>
<g id="a_Node000002"><a xlink:href="Plateau_8hpp.html" target="_top" xlink:title="Classe Plateau – Gère le plateau de jeu avec villes et voies ferrées.">
<polygon fill="white" stroke="#666666" points="246.03,-184 133.03,-184 133.03,-165 246.03,-165 246.03,-184"/>
<text text-anchor="middle" x="189.53" y="-172" font-family="Helvetica,sans-Serif" font-size="10.00">include/Plateau.hpp</text>
</a>
</g>
</g>
<!-- Node1&#45;&gt;Node2 -->
<g id="edge1_Node000001_Node000002" class="edge">
<title>Node1&#45;&gt;Node2</title>
<g id="a_edge1_Node000001_Node000002"><a xlink:title=" ">
<path fill="none" stroke="#63b8ff" d="M338.18,-217.18C302.83,-207.27 252.23,-193.08 220.14,-184.08"/>
<polygon fill="#63b8ff" stroke="#63b8ff" points="337.59,-220.65 348.17,-219.98 339.48,-213.91 337.59,-220.65"/>
</a>
</g>
</g>
<!-- Node6 -->
<g id="Node000006" class="node">
<title>Node6</title>
<g id="a_Node000006"><a xlink:href="gui__main_8cpp.html" target="_top" xlink:title=" ">
<polygon fill="white" stroke="#666666" points="388.03,-19 289.03,-19 289.03,0 388.03,0 388.03,-19"/>
<text text-anchor="middle" x="338.53" y="-7" font-family="Helvetica,sans-Serif" font-size="10.00">src/gui_main.cpp</text>
</a>
</g>
</g>
<!-- Node1&#45;&gt;Node6 -->
<g id="edge16_Node000001_Node000006" class="edge">
<title>Node1&#45;&gt;Node6</title>
<g id="a_edge16_Node000001_Node000006"><a xlink:title=" ">
<path fill="none" stroke="#63b8ff" d="M381.69,-209.94C386.43,-177.41 392.91,-108.47 373.53,-55 368.38,-40.77 356.76,-27.56 348.32,-19.29"/>
<polygon fill="#63b8ff" stroke="#63b8ff" points="378.23,-209.42 380.13,-219.84 385.14,-210.51 378.23,-209.42"/>
</a>
</g>
</g>
<!-- Node7 -->
<g id="Node000007" class="node">
<title>Node7</title>
<g id="a_Node000007"><a xlink:href="main_8cpp.html" target="_top" xlink:title=" ">
<polygon fill="white" stroke="#666666" points="271.03,-19 192.03,-19 192.03,0 271.03,0 271.03,-19"/>
<text text-anchor="middle" x="231.53" y="-7" font-family="Helvetica,sans-Serif" font-size="10.00">src/main.cpp</text>
</a>
</g>
</g>
<!-- Node1&#45;&gt;Node7 -->
<g id="edge17_Node000001_Node000007" class="edge">
<title>Node1&#45;&gt;Node7</title>
<g id="a_edge17_Node000001_Node000007"><a xlink:title=" ">
<path fill="none" stroke="#63b8ff" d="M374.31,-210.02C365.76,-176.01 343.64,-102.65 302.53,-55 288.56,-38.81 267.23,-26.54 251.59,-19.03"/>
<polygon fill="#63b8ff" stroke="#63b8ff" points="370.95,-211.04 376.69,-219.95 377.76,-209.41 370.95,-211.04"/>
</a>
</g>
</g>
<!-- Node10 -->
<g id="Node000010" class="node">
<title>Node10</title>
<g id="a_Node000010"><a xlink:href="VoieFerree_8cpp.html" target="_top" xlink:title=" ">
<polygon fill="white" stroke="#666666" points="531.53,-184 425.53,-184 425.53,-165 531.53,-165 531.53,-184"/>
<text text-anchor="middle" x="478.53" y="-172" font-family="Helvetica,sans-Serif" font-size="10.00">src/VoieFerree.cpp</text>
</a>
</g>
</g>
<!-- Node1&#45;&gt;Node10 -->
<g id="edge15_Node000001_Node000010" class="edge">
<title>Node1&#45;&gt;Node10</title>
<g id="a_edge15_Node000001_Node000010"><a xlink:title=" ">
<path fill="none" stroke="#63b8ff" d="M403.56,-215.23C421.9,-205.51 446.27,-192.6 462.17,-184.17"/>
<polygon fill="#63b8ff" stroke="#63b8ff" points="401.8,-212.21 394.6,-219.98 405.07,-218.39 401.8,-212.21"/>
</a>
</g>
</g>
<!-- Node3 -->
<g id="Node000003" class="node">
<title>Node3</title>
<g id="a_Node000003"><a xlink:href="Joueur_8hpp.html" target="_top" xlink:title="Déclaration de la classe Joueur, participant à une partie des Aventuriers du Rail.">
<polygon fill="white" stroke="#666666" points="183.53,-129 77.53,-129 77.53,-110 183.53,-110 183.53,-129"/>
<text text-anchor="middle" x="130.53" y="-117" font-family="Helvetica,sans-Serif" font-size="10.00">include/Joueur.hpp</text>
</a>
</g>
</g>
<!-- Node2&#45;&gt;Node3 -->
<g id="edge2_Node000002_Node000003" class="edge">
<title>Node2&#45;&gt;Node3</title>
<g id="a_edge2_Node000002_Node000003"><a xlink:title=" ">
<path fill="none" stroke="#63b8ff" d="M172.33,-158.04C161.86,-148.64 148.88,-136.98 140.18,-129.17"/>
<polygon fill="#63b8ff" stroke="#63b8ff" points="170.27,-160.91 180.05,-164.98 174.95,-155.7 170.27,-160.91"/>
</a>
</g>
</g>
<!-- Node4 -->
<g id="Node000004" class="node">
<title>Node4</title>
<g id="a_Node000004"><a xlink:href="Partie_8hpp.html" target="_top" xlink:title=" ">
<polygon fill="white" stroke="#666666" points="293.53,-74 189.53,-74 189.53,-55 293.53,-55 293.53,-74"/>
<text text-anchor="middle" x="241.53" y="-62" font-family="Helvetica,sans-Serif" font-size="10.00">include/Partie.hpp</text>
</a>
</g>
</g>
<!-- Node2&#45;&gt;Node4 -->
<g id="edge11_Node000002_Node000004" class="edge">
<title>Node2&#45;&gt;Node4</title>
<g id="a_edge11_Node000002_Node000004"><a xlink:title=" ">
<path fill="none" stroke="#63b8ff" d="M256.32,-161.66C274.29,-155.09 291.72,-144.88 302.53,-129 317.5,-107.01 283.94,-85.58 260.91,-74.1"/>
<polygon fill="#63b8ff" stroke="#63b8ff" points="254.72,-158.5 246.32,-164.95 256.91,-165.15 254.72,-158.5"/>
</a>
</g>
</g>
<!-- Node5 -->
<g id="Node000005" class="node">
<title>Node5</title>
<g id="a_Node000005"><a xlink:href="Partie_8cpp.html" target="_top" xlink:title=" ">
<polygon fill="white" stroke="#666666" points="164.53,-19 82.53,-19 82.53,0 164.53,0 164.53,-19"/>
<text text-anchor="middle" x="123.53" y="-7" font-family="Helvetica,sans-Serif" font-size="10.00">src/Partie.cpp</text>
</a>
</g>
</g>
<!-- Node2&#45;&gt;Node5 -->
<g id="edge13_Node000002_Node000005" class="edge">
<title>Node2&#45;&gt;Node5</title>
<g id="a_edge13_Node000002_Node000005"><a xlink:title=" ">
<path fill="none" stroke="#63b8ff" d="M129.37,-162.54C82.74,-150.24 22.78,-124.88 2.53,-74 -11.85,-37.85 41.85,-21.96 82.31,-15.2"/>
<polygon fill="#63b8ff" stroke="#63b8ff" points="128.54,-165.95 139.09,-164.98 130.24,-159.15 128.54,-165.95"/>
</a>
</g>
</g>
<!-- Node8 -->
<g id="Node000008" class="node">
<title>Node8</title>
<g id="a_Node000008"><a xlink:href="Joueur_8cpp.html" target="_top" xlink:title="Implémentation de la classe Joueur.">
<polygon fill="white" stroke="#666666" points="95.53,-74 11.53,-74 11.53,-55 95.53,-55 95.53,-74"/>
<text text-anchor="middle" x="53.53" y="-62" font-family="Helvetica,sans-Serif" font-size="10.00">src/Joueur.cpp</text>
</a>
</g>
</g>
<!-- Node2&#45;&gt;Node8 -->
<g id="edge12_Node000002_Node000008" class="edge">
<title>Node2&#45;&gt;Node8</title>
<g id="a_edge12_Node000002_Node000008"><a xlink:title=" ">
<path fill="none" stroke="#63b8ff" d="M124.22,-162.15C103.84,-155.6 82.95,-145.27 68.53,-129 54.71,-113.4 53.01,-87.42 53.14,-74.04"/>
<polygon fill="#63b8ff" stroke="#63b8ff" points="123.26,-165.52 133.84,-164.99 125.24,-158.8 123.26,-165.52"/>
</a>
</g>
</g>
<!-- Node9 -->
<g id="Node000009" class="node">
<title>Node9</title>
<g id="a_Node000009"><a xlink:href="Plateau_8cpp.html" target="_top" xlink:title=" ">
<polygon fill="white" stroke="#666666" points="293.03,-129 202.03,-129 202.03,-110 293.03,-110 293.03,-129"/>
<text text-anchor="middle" x="247.53" y="-117" font-family="Helvetica,sans-Serif" font-size="10.00">src/Plateau.cpp</text>
</a>
</g>
</g>
<!-- Node2&#45;&gt;Node9 -->
<g id="edge14_Node000002_Node000009" class="edge">
<title>Node2&#45;&gt;Node9</title>
<g id="a_edge14_Node000002_Node000009"><a xlink:title=" ">
<path fill="none" stroke="#63b8ff" d="M206.45,-158.04C216.74,-148.64 229.5,-136.98 238.04,-129.17"/>
<polygon fill="#63b8ff" stroke="#63b8ff" points="203.87,-155.66 198.85,-164.98 208.59,-160.82 203.87,-155.66"/>
</a>
</g>
</g>
<!-- Node3&#45;&gt;Node4 -->
<g id="edge3_Node000003_Node000004" class="edge">
<title>Node3&#45;&gt;Node4</title>
<g id="a_edge3_Node000003_Node000004"><a xlink:title=" ">
<path fill="none" stroke="#63b8ff" d="M157.48,-105.63C177.93,-95.87 205.48,-82.71 223.37,-74.17"/>
<polygon fill="#63b8ff" stroke="#63b8ff" points="155.88,-102.52 148.37,-109.98 158.9,-108.83 155.88,-102.52"/>
</a>
</g>
</g>
<!-- Node3&#45;&gt;Node5 -->
<g id="edge8_Node000003_Node000005" class="edge">
<title>Node3&#45;&gt;Node5</title>
<g id="a_edge8_Node000003_Node000005"><a xlink:title=" ">
<path fill="none" stroke="#63b8ff" d="M129.3,-99.48C127.77,-75.84 125.22,-36.5 124.09,-19.16"/>
<polygon fill="#63b8ff" stroke="#63b8ff" points="125.82,-99.91 129.96,-109.66 132.81,-99.46 125.82,-99.91"/>
</a>
</g>
</g>
<!-- Node3&#45;&gt;Node6 -->
<g id="edge9_Node000003_Node000006" class="edge">
<title>Node3&#45;&gt;Node6</title>
<g id="a_edge9_Node000003_Node000006"><a xlink:title=" ">
<path fill="none" stroke="#63b8ff" d="M190.82,-108.07C233.05,-99.82 284.97,-87.47 302.53,-74 321.04,-59.81 331.54,-33.22 335.98,-19.38"/>
<polygon fill="#63b8ff" stroke="#63b8ff" points="190.03,-104.66 180.87,-109.98 191.35,-111.53 190.03,-104.66"/>
</a>
</g>
</g>
<!-- Node3&#45;&gt;Node7 -->
<g id="edge10_Node000003_Node000007" class="edge">
<title>Node3&#45;&gt;Node7</title>
<g id="a_edge10_Node000003_Node000007"><a xlink:title=" ">
<path fill="none" stroke="#63b8ff" d="M142.43,-101.69C152.09,-88.48 166.39,-69.87 180.53,-55 193.33,-41.54 209.75,-27.75 220.46,-19.16"/>
<polygon fill="#63b8ff" stroke="#63b8ff" points="139.54,-99.71 136.53,-109.87 145.22,-103.8 139.54,-99.71"/>
</a>
</g>
</g>
<!-- Node3&#45;&gt;Node8 -->
<g id="edge7_Node000003_Node000008" class="edge">
<title>Node3&#45;&gt;Node8</title>
<g id="a_edge7_Node000003_Node000008"><a xlink:title=" ">
<path fill="none" stroke="#63b8ff" d="M109.69,-104.15C95.77,-94.57 77.92,-82.29 66.13,-74.17"/>
<polygon fill="#63b8ff" stroke="#63b8ff" points="107.94,-107.2 118.16,-109.98 111.91,-101.43 107.94,-107.2"/>
</a>
</g>
</g>
<!-- Node4&#45;&gt;Node5 -->
<g id="edge4_Node000004_Node000005" class="edge">
<title>Node4&#45;&gt;Node5</title>
<g id="a_edge4_Node000004_Node000005"><a xlink:title=" ">
<path fill="none" stroke="#63b8ff" d="M213.18,-50.77C191.41,-40.99 161.94,-27.75 142.84,-19.17"/>
<polygon fill="#63b8ff" stroke="#63b8ff" points="212.02,-54.08 222.57,-54.98 214.89,-47.69 212.02,-54.08"/>
</a>
</g>
</g>
<!-- Node4&#45;&gt;Node6 -->
<g id="edge5_Node000004_Node000006" class="edge">
<title>Node4&#45;&gt;Node6</title>
<g id="a_edge5_Node000004_Node000006"><a xlink:title=" ">
<path fill="none" stroke="#63b8ff" d="M266.3,-49.97C284.03,-40.28 307.38,-27.52 322.66,-19.17"/>
<polygon fill="#63b8ff" stroke="#63b8ff" points="264.21,-47.12 257.12,-54.98 267.57,-53.26 264.21,-47.12"/>
</a>
</g>
</g>
<!-- Node4&#45;&gt;Node7 -->
<g id="edge6_Node000004_Node000007" class="edge">
<title>Node4&#45;&gt;Node7</title>
<g id="a_edge6_Node000004_Node000007"><a xlink:title=" ">
<path fill="none" stroke="#63b8ff" d="M237.98,-44.66C236.33,-35.93 234.45,-25.99 233.15,-19.09"/>
<polygon fill="#63b8ff" stroke="#63b8ff" points="234.59,-45.57 239.88,-54.75 241.47,-44.27 234.59,-45.57"/>
</a>
</g>
</g>
</g>
</svg>

<g id="navigator" transform="translate(0 0)" fill="#404254">
  <rect fill="#f2f5e9" fill-opacity="0.5" stroke="#606060" stroke-width=".5" x="0" y="0" width="60" height="60"/>
  <use id="zoomplus" xlink:href="#zoomPlus" x="17" y="9" onmousedown="handleZoom(evt,'in')"/>
  <use id="zoomminus" xlink:href="#zoomMin" x="42" y="9" onmousedown="handleZoom(evt,'out')"/>
  <use id="reset" xlink:href="#resetDef" x="30" y="36" onmousedown="handleReset()"/>
   <use id="arrowup" xlink:href="#arrowUp" x="0" y="0" onmousedown="handlePan(0,-1)"/>
  <use id="arrowright" xlink:href="#arrowRight" x="0" y="0" onmousedown="handlePan(1,0)"/>
  <use id="arrowdown" xlink:href="#arrowDown" x="0" y="0" onmousedown="handlePan(0,1)"/>
  <use id="arrowleft" xlink:href="#arrowLeft" x="0" y="0" onmousedown="handlePan(-1,0)"/>
</g>
<svg viewBox="0 0 15 15" width="100%" height="30px" preserveAspectRatio="xMaxYMin meet">
 <g id="arrow_out" transform="scale(0.3 0.3)">
  <a xlink:href="VoieFerree_8hpp__dep__incl_org.svg" target="_base">
   <rect id="button" ry="5" rx="5" y="6" x="6" height="38" width="38"
        fill="#f2f5e9" fill-opacity="0.5" stroke="#606060" stroke-width="1.0"/>
   <path id="arrow"
     d="M 11.500037,31.436501 C 11.940474,20.09759 22.043105,11.32322 32.158766,21.979434 L 37.068811,17.246167 C 37.068811,17.246167 37.088388,32 37.088388,32 L 22.160133,31.978069 C 22.160133,31.978069 26.997745,27.140456 26.997745,27.140456 C 18.528582,18.264221 13.291696,25.230495 11.500037,31.436501 z"
     style="fill:#404040;"/>
  </a>
 </g>
</svg>

<style type='text/css'>
<![CDATA[
[data-mouse-over-selected='false'] { opacity: 0.7; }
[data-mouse-over-selected='true']  { opacity: 1.0; }
]]>
</style>
<script type="application/ecmascript"><![CDATA[
document.addEventListener('DOMContentLoaded', (event) => {
  highlightEdges();
  highlightAdjacentNodes();
});
]]></script>
</svg>
