<?xml version="1.0" encoding="UTF-8" standalone="no"?>
<!DOCTYPE svg PUBLIC "-//W3C//DTD SVG 1.1//EN"
 "http://www.w3.org/Graphics/SVG/1.1/DTD/svg11.dtd">
<!-- Generated by graphviz version 2.43.0 (0)
 -->
<!-- Title: src/VoieFerree.cpp Pages: 1 -->
<svg width="354pt" height="192pt"
 viewBox="0.00 0.00 353.86 192.00" xmlns="http://www.w3.org/2000/svg" xmlns:xlink="http://www.w3.org/1999/xlink">

<svg id="main" version="1.1" xmlns="http://www.w3.org/2000/svg" xmlns:xlink="http://www.w3.org/1999/xlink" xml:space="preserve" onload="init(evt)">
<style type="text/css"><![CDATA[
.node, .edge {opacity: 0.7;}
.node.selected, .edge.selected {opacity: 1;}
.edge:hover path { stroke: red; }
.edge:hover polygon { stroke: red; fill: red; }
]]></style>
<script type="application/ecmascript" xlink:href="svg.min.js"/>
<svg id="graph" class="graph">
<g id="graph0" class="graph" transform="scale(1 1) rotate(0) translate(4 188)">
<title>src/VoieFerree.cpp</title>
<!-- Node1 -->
<g id="Node000001" class="node">
<title>Node1</title>
<g id="a_Node000001"><a xlink:title=" ">
<polygon fill="#999999" stroke="#666666" points="261.85,-184 155.85,-184 155.85,-165 261.85,-165 261.85,-184"/>
<text text-anchor="middle" x="208.85" y="-172" font-family="Helvetica,sans-Serif" font-size="10.00">src/VoieFerree.cpp</text>
</a>
</g>
</g>
<!-- Node2 -->
<g id="Node000002" class="node">
<title>Node2</title>
<g id="a_Node000002"><a xlink:href="VoieFerree_8hpp.html" target="_top" xlink:title="Classe VoieFerree – Représente une voie ferrée du plateau.">
<polygon fill="white" stroke="#666666" points="204.35,-129 115.35,-129 115.35,-110 204.35,-110 204.35,-129"/>
<text text-anchor="middle" x="159.85" y="-117" font-family="Helvetica,sans-Serif" font-size="10.00">VoieFerree.hpp</text>
</a>
</g>
</g>
<!-- Node1&#45;&gt;Node2 -->
<g id="edge1_Node000001_Node000002" class="edge">
<title>Node1&#45;&gt;Node2</title>
<g id="a_edge1_Node000001_Node000002"><a xlink:title=" ">
<path fill="none" stroke="#63b8ff" d="M200.76,-164.75C193.7,-157.11 183.27,-145.82 174.71,-136.56"/>
<polygon fill="#63b8ff" stroke="#63b8ff" points="177.15,-134.06 167.8,-129.09 172.01,-138.81 177.15,-134.06"/>
</a>
</g>
</g>
<!-- Node8 -->
<g id="Node000008" class="node">
<title>Node8</title>
<g id="a_Node000008"><a xlink:href="Ticket_8hpp.html" target="_top" xlink:title=" ">
<polygon fill="white" stroke="#666666" points="339.35,-129 272.35,-129 272.35,-110 339.35,-110 339.35,-129"/>
<text text-anchor="middle" x="305.85" y="-117" font-family="Helvetica,sans-Serif" font-size="10.00">Ticket.hpp</text>
</a>
</g>
</g>
<!-- Node1&#45;&gt;Node8 -->
<g id="edge8_Node000001_Node000008" class="edge">
<title>Node1&#45;&gt;Node8</title>
<g id="a_edge8_Node000001_Node000008"><a xlink:title=" ">
<path fill="none" stroke="#63b8ff" d="M224.44,-164.98C239.62,-156.69 262.95,-143.94 280.75,-134.22"/>
<polygon fill="#63b8ff" stroke="#63b8ff" points="282.89,-137.04 289.99,-129.17 279.53,-130.89 282.89,-137.04"/>
</a>
</g>
</g>
<!-- Node3 -->
<g id="Node000003" class="node">
<title>Node3</title>
<g id="a_Node000003"><a xlink:title=" ">
<polygon fill="#e0e0e0" stroke="#999999" points="327.85,-19 283.85,-19 283.85,0 327.85,0 327.85,-19"/>
<text text-anchor="middle" x="305.85" y="-7" font-family="Helvetica,sans-Serif" font-size="10.00">string</text>
</a>
</g>
</g>
<!-- Node2&#45;&gt;Node3 -->
<g id="edge2_Node000002_Node000003" class="edge">
<title>Node2&#45;&gt;Node3</title>
<g id="a_edge2_Node000002_Node000003"><a xlink:title=" ">
<path fill="none" stroke="#63b8ff" d="M114.97,-114.94C59.16,-108.84 -25,-93.13 7.85,-55 41.88,-15.52 203.49,-10.54 273.45,-10.27"/>
<polygon fill="#63b8ff" stroke="#63b8ff" points="273.47,-13.77 283.47,-10.26 273.47,-6.77 273.47,-13.77"/>
</a>
</g>
</g>
<!-- Node4 -->
<g id="Node000004" class="node">
<title>Node4</title>
<g id="a_Node000004"><a xlink:title=" ">
<polygon fill="#e0e0e0" stroke="#999999" points="64.35,-74 17.35,-74 17.35,-55 64.35,-55 64.35,-74"/>
<text text-anchor="middle" x="40.85" y="-62" font-family="Helvetica,sans-Serif" font-size="10.00">vector</text>
</a>
</g>
</g>
<!-- Node2&#45;&gt;Node4 -->
<g id="edge3_Node000002_Node000004" class="edge">
<title>Node2&#45;&gt;Node4</title>
<g id="a_edge3_Node000002_Node000004"><a xlink:title=" ">
<path fill="none" stroke="#63b8ff" d="M140.74,-109.98C121.51,-101.42 91.62,-88.11 69.55,-78.28"/>
<polygon fill="#63b8ff" stroke="#63b8ff" points="70.88,-75.04 60.32,-74.17 68.03,-81.44 70.88,-75.04"/>
</a>
</g>
</g>
<!-- Node5 -->
<g id="Node000005" class="node">
<title>Node5</title>
<g id="a_Node000005"><a xlink:title=" ">
<polygon fill="#e0e0e0" stroke="#999999" points="138.85,-74 82.85,-74 82.85,-55 138.85,-55 138.85,-74"/>
<text text-anchor="middle" x="110.85" y="-62" font-family="Helvetica,sans-Serif" font-size="10.00">assert.h</text>
</a>
</g>
</g>
<!-- Node2&#45;&gt;Node5 -->
<g id="edge4_Node000002_Node000005" class="edge">
<title>Node2&#45;&gt;Node5</title>
<g id="a_edge4_Node000002_Node000005"><a xlink:title=" ">
<path fill="none" stroke="#63b8ff" d="M151.76,-109.75C144.7,-102.11 134.27,-90.82 125.71,-81.56"/>
<polygon fill="#63b8ff" stroke="#63b8ff" points="128.15,-79.06 118.8,-74.09 123.01,-83.81 128.15,-79.06"/>
</a>
</g>
</g>
<!-- Node6 -->
<g id="Node000006" class="node">
<title>Node6</title>
<g id="a_Node000006"><a xlink:href="Ville_8hpp.html" target="_top" xlink:title=" ">
<polygon fill="white" stroke="#666666" points="335.35,-74 276.35,-74 276.35,-55 335.35,-55 335.35,-74"/>
<text text-anchor="middle" x="305.85" y="-62" font-family="Helvetica,sans-Serif" font-size="10.00">Ville.hpp</text>
</a>
</g>
</g>
<!-- Node2&#45;&gt;Node6 -->
<g id="edge5_Node000002_Node000006" class="edge">
<title>Node2&#45;&gt;Node6</title>
<g id="a_edge5_Node000002_Node000006"><a xlink:title=" ">
<path fill="none" stroke="#63b8ff" d="M183.31,-109.98C207.43,-101.23 245.22,-87.51 272.46,-77.62"/>
<polygon fill="#63b8ff" stroke="#63b8ff" points="273.76,-80.87 281.97,-74.17 271.38,-74.29 273.76,-80.87"/>
</a>
</g>
</g>
<!-- Node7 -->
<g id="Node000007" class="node">
<title>Node7</title>
<g id="a_Node000007"><a xlink:href="couleurEnum_8hpp.html" target="_top" xlink:title=" ">
<polygon fill="white" stroke="#666666" points="258.35,-74 157.35,-74 157.35,-55 258.35,-55 258.35,-74"/>
<text text-anchor="middle" x="207.85" y="-62" font-family="Helvetica,sans-Serif" font-size="10.00">couleurEnum.hpp</text>
</a>
</g>
</g>
<!-- Node2&#45;&gt;Node7 -->
<g id="edge7_Node000002_Node000007" class="edge">
<title>Node2&#45;&gt;Node7</title>
<g id="a_edge7_Node000002_Node000007"><a xlink:title=" ">
<path fill="none" stroke="#63b8ff" d="M167.78,-109.75C174.7,-102.11 184.92,-90.82 193.31,-81.56"/>
<polygon fill="#63b8ff" stroke="#63b8ff" points="195.96,-83.85 200.08,-74.09 190.77,-79.15 195.96,-83.85"/>
</a>
</g>
</g>
<!-- Node6&#45;&gt;Node3 -->
<g id="edge6_Node000006_Node000003" class="edge">
<title>Node6&#45;&gt;Node3</title>
<g id="a_edge6_Node000006_Node000003"><a xlink:title=" ">
<path fill="none" stroke="#63b8ff" d="M305.85,-54.75C305.85,-47.8 305.85,-37.85 305.85,-29.13"/>
<polygon fill="#63b8ff" stroke="#63b8ff" points="309.35,-29.09 305.85,-19.09 302.35,-29.09 309.35,-29.09"/>
</a>
</g>
</g>
<!-- Node8&#45;&gt;Node3 -->
<g id="edge9_Node000008_Node000003" class="edge">
<title>Node8&#45;&gt;Node3</title>
<g id="a_edge9_Node000008_Node000003"><a xlink:title=" ">
<path fill="none" stroke="#63b8ff" d="M316.57,-109.93C325.79,-101.8 338.44,-88.68 343.85,-74 350.34,-56.43 337.12,-38.28 324.53,-25.91"/>
<polygon fill="#63b8ff" stroke="#63b8ff" points="326.71,-23.16 316.96,-19.01 322,-28.33 326.71,-23.16"/>
</a>
</g>
</g>
<!-- Node8&#45;&gt;Node6 -->
<g id="edge10_Node000008_Node000006" class="edge">
<title>Node8&#45;&gt;Node6</title>
<g id="a_edge10_Node000008_Node000006"><a xlink:title=" ">
<path fill="none" stroke="#63b8ff" d="M305.85,-109.75C305.85,-102.8 305.85,-92.85 305.85,-84.13"/>
<polygon fill="#63b8ff" stroke="#63b8ff" points="309.35,-84.09 305.85,-74.09 302.35,-84.09 309.35,-84.09"/>
</a>
</g>
</g>
</g>
</svg>
</svg>

<style type='text/css'>
<![CDATA[
[data-mouse-over-selected='false'] { opacity: 0.7; }
[data-mouse-over-selected='true']  { opacity: 1.0; }
]]>
</style>
<script type="application/ecmascript"><![CDATA[
document.addEventListener('DOMContentLoaded', (event) => {
  highlightEdges();
  highlightAdjacentNodes();
});
]]></script>
</svg>
